<?xml version="1.0" encoding="UTF-8" standalone="no"?><!DOCTYPE svg PUBLIC "-//W3C//DTD SVG 1.1//EN" "http://www.w3.org/Graphics/SVG/1.1/DTD/svg11.dtd"><svg width="5209px" height="13892px" version="1.1" xmlns="http://www.w3.org/2000/svg" xmlns:xlink="http://www.w3.org/1999/xlink" xml:space="preserve" xmlns:serif="http://www.serif.com/" style="fill-rule:evenodd;clip-rule:evenodd;stroke-linejoin:round;stroke-miterlimit:2;"><rect x="0" y="0" width="5208.33" height="13888.9" style="fill:#a25632;"/><ellipse cx="2604.17" cy="11075.7" rx="1928.09" ry="1942.31" style="fill:#a25632;"/><clipPath id="_clip1"><ellipse cx="2604.17" cy="11075.7" rx="1928.09" ry="1942.31"/></clipPath><g clip-path="url(#_clip1)"><g><path d="M2609.22,9325.82c414.407,1.024 682.548,88.995 946.59,410.771c413.798,504.275 262.685,2557.9 835.552,2855.3c655.996,340.554 1197.73,794.796 1223.43,1050.4c412.114,4099.49 1088.47,7275.86 1648.06,10986.4l-9314.59,-0c559.579,-3710.57 1235.94,-6886.95 1648.05,-10986.4c25.696,-255.608 489.503,-709.85 1145.5,-1050.4c572.868,-297.399 499.685,-2351.03 913.482,-2855.3c264.042,-321.776 532.183,-409.747 946.591,-410.771l-0,-0.012l3.669,0.006l3.67,-0.006l-0,0.012Z" style="fill:#f7d299;"/><path d="M2609.22,11572.2c173.744,-162.257 447.827,-315.347 675.679,-121.097c223.643,190.66 111.093,622.434 39.817,791.564c-96.723,229.509 -360.185,553.909 -710.538,554.943l-0,0.006l-0.852,-0.003l-0.851,0.003l-0,-0.006c-350.38,-1.034 -622.029,-325.434 -718.751,-554.943c-71.276,-169.13 -183.826,-600.904 39.816,-791.564c227.852,-194.25 501.936,-41.16 675.68,121.097Z" style="fill:#f7d299;"/><clipPath id="_clip2"><path d="M2609.22,11572.2c173.744,-162.257 447.827,-315.347 675.679,-121.097c223.643,190.66 111.093,622.434 39.817,791.564c-96.723,229.509 -360.185,553.909 -710.538,554.943l-0,0.006l-0.852,-0.003l-0.851,0.003l-0,-0.006c-350.38,-1.034 -622.029,-325.434 -718.751,-554.943c-71.276,-169.13 -183.826,-600.904 39.816,-791.564c227.852,-194.25 501.936,-41.16 675.68,121.097Z"/></clipPath><g clip-path="url(#_clip2)"><path d="M2616.3,12414.3c101.646,-1.191 575.87,-41.728 647.473,-1081.15c335.606,360.034 282.31,788.479 269.297,1208.98l-774.146,470.422l-142.371,5.339l-0,0.551l-7.339,-0.276l-7.339,0.276l-0,-0.551l-142.372,-5.339l-774.145,-470.422c-13.013,-420.503 -66.31,-848.948 269.297,-1208.98c71.603,1039.42 545.827,1079.95 647.472,1081.15l2.708,0.011l3.604,0.019l0.775,0l0.775,0l3.604,-0.019l2.707,-0.011Z" style="fill:#a25632;"/><path d="M2484.42,11510.1c-20.909,16.085 -20.192,39.962 -20.192,69.07c-345.538,-198.541 -497.719,91.676 -497.719,91.676l-120.879,-197.606l140.032,-140.114c-0,-0 623.56,-8.831 623.56,-8.831l623.56,8.831l140.031,140.114l-120.879,197.606c0,-0 -152.18,-290.217 -497.718,-91.676c-0,-29.108 -1.513,-52.985 -22.422,-69.07c-49.896,19.47 -100.581,80.346 -122.572,118.834l-0.537,-0.934c-22.116,-38.26 -74.769,-98.584 -124.265,-117.9Zm124.802,-21.678l-0,-82.687l-0,82.687Z" style="fill:#a25632;"/></g><path d="M2740.41,12027.4c-31.644,33.017 -85.476,52.966 -131.194,52.966c-52.936,-0 -96.777,-20.18 -131.194,-52.966c87.462,5.15 174.925,5.139 262.388,0Zm-131.194,-149.359c3.785,-2.704 9.125,-5.103 16.226,-5.223c46.31,-0.784 185.346,11.634 273.513,72.127c-0,0 -163.898,-17.333 -255.179,-17.333c-10.292,0 -20.551,4.013 -34.56,5.761c-14.01,-1.748 -24.269,-5.761 -34.56,-5.761c-91.282,0 -255.179,17.333 -255.179,17.333c88.167,-60.493 227.202,-72.911 273.512,-72.127c7.101,0.12 12.442,2.519 16.227,5.223Zm-0,-172.435c35.904,0 145.388,-25.645 145.388,-178.718c2.398,19.22 25.062,13.509 24.945,29.283c-1.08,145.613 -122.768,174.719 -170.333,174.719c-47.318,0 -179.331,-34.916 -180.437,-178.397c-0.127,-16.374 32.354,-5.45 35.049,-25.605c-0,158.968 109.484,178.718 145.388,178.718Z" style="fill:#a25632;"/></g></g></svg>