<?xml version="1.0" encoding="UTF-8" standalone="no"?><!DOCTYPE svg PUBLIC "-//W3C//DTD SVG 1.1//EN" "http://www.w3.org/Graphics/SVG/1.1/DTD/svg11.dtd"><svg width="200px" height="24px" version="1.1" xmlns="http://www.w3.org/2000/svg" xmlns:xlink="http://www.w3.org/1999/xlink" xml:space="preserve" xmlns:serif="http://www.serif.com/" style="fill-rule:evenodd;clip-rule:evenodd;stroke-linejoin:round;stroke-miterlimit:2;"><path d="M200,24l0,-24l-200,-0.022l0,24.022c33.749,0.027 200,-0 200,-0Z" style="fill:#a25632;"/><g><g><path d="M188.084,-7.608c1.698,-0.987 3.794,-0.987 5.492,0c6.361,3.701 22.134,12.879 29.61,17.229c0.841,0.489 1.358,1.388 1.358,2.36c-0,0.972 -0.517,1.871 -1.358,2.36c-7.476,4.349 -23.249,13.528 -29.61,17.228c-1.698,0.988 -3.794,0.988 -5.492,0c-6.361,-3.7 -22.134,-12.879 -29.61,-17.228c-0.84,-0.489 -1.357,-1.388 -1.357,-2.36c-0,-0.972 0.517,-1.871 1.357,-2.36c7.476,-4.35 23.249,-13.528 29.61,-17.229Z" style="fill:#ffc040;"/><path d="M183.746,-7.608c1.698,-0.987 3.795,-0.987 5.492,0c6.361,3.701 22.134,12.879 29.61,17.229c0.841,0.489 1.357,1.388 1.357,2.36c0,0.972 -0.516,1.871 -1.357,2.36c-7.476,4.349 -23.249,13.528 -29.61,17.228c-1.697,0.988 -3.794,0.988 -5.492,0c-6.361,-3.7 -22.134,-12.879 -29.61,-17.228c-0.84,-0.489 -1.357,-1.388 -1.357,-2.36c-0,-0.972 0.517,-1.871 1.357,-2.36c7.476,-4.35 23.249,-13.528 29.61,-17.229Z" style="fill:#cd5752;"/><path d="M179.408,-7.608c1.698,-0.987 3.795,-0.987 5.492,0c6.361,3.701 22.134,12.879 29.611,17.229c0.839,0.489 1.356,1.388 1.356,2.36c0,0.972 -0.517,1.871 -1.356,2.36c-7.477,4.349 -23.25,13.528 -29.611,17.228c-1.697,0.988 -3.794,0.988 -5.492,0c-6.361,-3.7 -22.134,-12.879 -29.61,-17.228c-0.841,-0.489 -1.357,-1.388 -1.357,-2.36c-0,-0.972 0.516,-1.871 1.357,-2.36c7.476,-4.35 23.249,-13.528 29.61,-17.229Z" style="fill:#ffc040;"/><path d="M175.07,-7.608c1.697,-0.987 3.794,-0.987 5.492,0c6.361,3.701 22.134,12.879 29.61,17.229c0.84,0.489 1.357,1.388 1.357,2.36c-0,0.972 -0.517,1.871 -1.357,2.36c-7.476,4.349 -23.249,13.528 -29.61,17.228c-1.698,0.988 -3.795,0.988 -5.492,0c-6.361,-3.7 -22.134,-12.879 -29.61,-17.228c-0.84,-0.489 -1.357,-1.388 -1.357,-2.36c-0,-0.972 0.517,-1.871 1.357,-2.36c7.476,-4.35 23.249,-13.528 29.61,-17.229Z" style="fill:#cd5752;"/><path d="M170.732,-7.608c1.697,-0.987 3.794,-0.987 5.492,0c6.361,3.701 22.134,12.879 29.61,17.229c0.841,0.489 1.357,1.388 1.357,2.36c0,0.972 -0.516,1.871 -1.357,2.36c-7.476,4.349 -23.249,13.528 -29.61,17.228c-1.698,0.988 -3.795,0.988 -5.492,0c-6.361,-3.7 -22.134,-12.879 -29.611,-17.228c-0.839,-0.489 -1.356,-1.388 -1.356,-2.36c-0,-0.972 0.517,-1.871 1.356,-2.36c7.477,-4.35 23.25,-13.528 29.611,-17.229Z" style="fill:#ffc040;"/><path d="M166.394,-7.608c1.698,-0.987 3.795,-0.987 5.492,0c6.361,3.701 22.134,12.879 29.61,17.229c0.84,0.489 1.357,1.388 1.357,2.36c0,0.972 -0.517,1.871 -1.357,2.36c-7.476,4.349 -23.249,13.528 -29.61,17.228c-1.697,0.988 -3.794,0.988 -5.492,0c-6.361,-3.7 -22.134,-12.879 -29.61,-17.228c-0.841,-0.489 -1.357,-1.388 -1.357,-2.36c-0,-0.972 0.516,-1.871 1.357,-2.36c7.476,-4.35 23.249,-13.528 29.61,-17.229Z" style="fill:#cd5752;"/><path d="M162.056,-7.608c1.697,-0.987 3.794,-0.987 5.491,0c6.362,3.701 22.135,12.879 29.611,17.229c0.84,0.489 1.357,1.388 1.357,2.36c-0,0.972 -0.517,1.871 -1.357,2.36c-7.476,4.349 -23.249,13.528 -29.611,17.228c-1.697,0.988 -3.794,0.988 -5.491,0c-6.361,-3.7 -22.134,-12.879 -29.61,-17.228c-0.841,-0.489 -1.358,-1.388 -1.358,-2.36c0,-0.972 0.517,-1.871 1.358,-2.36c7.476,-4.35 23.249,-13.528 29.61,-17.229Z" style="fill:#ffc040;"/><path d="M157.718,-7.608c1.697,-0.987 3.794,-0.987 5.491,0c6.362,3.701 22.135,12.879 29.611,17.229c0.841,0.489 1.357,1.388 1.357,2.36c0,0.972 -0.516,1.871 -1.357,2.36c-7.476,4.349 -23.249,13.528 -29.611,17.228c-1.697,0.988 -3.794,0.988 -5.491,0c-6.361,-3.7 -22.134,-12.879 -29.611,-17.228c-0.84,-0.489 -1.356,-1.388 -1.356,-2.36c-0,-0.972 0.516,-1.871 1.356,-2.36c7.477,-4.35 23.25,-13.528 29.611,-17.229Z" style="fill:#cd5752;"/><path d="M153.38,-7.608c1.697,-0.987 3.794,-0.987 5.492,0c6.361,3.701 22.134,12.879 29.61,17.229c0.84,0.489 1.357,1.388 1.357,2.36c0,0.972 -0.517,1.871 -1.357,2.36c-7.476,4.349 -23.249,13.528 -29.61,17.228c-1.698,0.988 -3.795,0.988 -5.492,0c-6.361,-3.7 -22.134,-12.879 -29.611,-17.228c-0.84,-0.489 -1.357,-1.388 -1.357,-2.36c0,-0.972 0.517,-1.871 1.357,-2.36c7.477,-4.35 23.25,-13.528 29.611,-17.229Z" style="fill:#ffc040;"/><path d="M149.042,-7.608c1.697,-0.987 3.794,-0.987 5.491,0c6.362,3.701 22.135,12.879 29.611,17.229c0.84,0.489 1.357,1.388 1.357,2.36c-0,0.972 -0.517,1.871 -1.357,2.36c-7.476,4.349 -23.249,13.528 -29.611,17.228c-1.697,0.988 -3.794,0.988 -5.491,0c-6.361,-3.7 -22.134,-12.879 -29.611,-17.228c-0.84,-0.489 -1.357,-1.388 -1.357,-2.36c0,-0.972 0.517,-1.871 1.357,-2.36c7.477,-4.35 23.25,-13.528 29.611,-17.229Z" style="fill:#cd5752;"/><path d="M144.704,-7.608c1.697,-0.987 3.794,-0.987 5.491,0c6.361,3.701 22.135,12.879 29.611,17.229c0.84,0.489 1.357,1.388 1.357,2.36c-0,0.972 -0.517,1.871 -1.357,2.36c-7.476,4.349 -23.25,13.528 -29.611,17.228c-1.697,0.988 -3.794,0.988 -5.491,0c-6.362,-3.7 -22.134,-12.879 -29.611,-17.228c-0.84,-0.489 -1.357,-1.388 -1.357,-2.36c0,-0.972 0.517,-1.871 1.357,-2.36c7.477,-4.35 23.249,-13.528 29.611,-17.229Z" style="fill:#ffc040;"/><path d="M140.366,-7.608c1.697,-0.987 3.794,-0.987 5.492,0c6.361,3.701 22.134,12.879 29.61,17.229c0.84,0.489 1.357,1.388 1.357,2.36c0,0.972 -0.517,1.871 -1.357,2.36c-7.476,4.349 -23.249,13.528 -29.61,17.228c-1.698,0.988 -3.795,0.988 -5.492,0c-6.361,-3.7 -22.135,-12.879 -29.611,-17.228c-0.84,-0.489 -1.357,-1.388 -1.357,-2.36c0,-0.972 0.517,-1.871 1.357,-2.36c7.476,-4.35 23.25,-13.528 29.611,-17.229Z" style="fill:#cd5752;"/><path d="M136.028,-7.608c1.697,-0.987 3.794,-0.987 5.491,0c6.362,3.701 22.134,12.879 29.611,17.229c0.84,0.489 1.357,1.388 1.357,2.36c-0,0.972 -0.517,1.871 -1.357,2.36c-7.477,4.349 -23.249,13.528 -29.611,17.228c-1.697,0.988 -3.794,0.988 -5.491,0c-6.362,-3.7 -22.134,-12.879 -29.611,-17.228c-0.84,-0.489 -1.357,-1.388 -1.357,-2.36c0,-0.972 0.517,-1.871 1.357,-2.36c7.477,-4.35 23.249,-13.528 29.611,-17.229Z" style="fill:#ffc040;"/><path d="M131.69,-7.608c1.697,-0.987 3.794,-0.987 5.491,0c6.361,3.701 22.134,12.879 29.61,17.229c0.841,0.489 1.358,1.388 1.358,2.36c-0,0.972 -0.517,1.871 -1.358,2.36c-7.476,4.349 -23.249,13.528 -29.61,17.228c-1.697,0.988 -3.794,0.988 -5.491,0c-6.362,-3.7 -22.134,-12.879 -29.611,-17.228c-0.84,-0.489 -1.357,-1.388 -1.357,-2.36c0,-0.972 0.517,-1.871 1.357,-2.36c7.477,-4.35 23.249,-13.528 29.611,-17.229Z" style="fill:#cd5752;"/><path d="M127.351,-7.608c1.698,-0.987 3.795,-0.987 5.492,0c6.361,3.701 22.135,12.879 29.611,17.229c0.84,0.489 1.356,1.388 1.356,2.36c0,0.972 -0.516,1.871 -1.356,2.36c-7.476,4.349 -23.25,13.528 -29.611,17.228c-1.697,0.988 -3.794,0.988 -5.492,0c-6.361,-3.7 -22.134,-12.879 -29.61,-17.228c-0.84,-0.489 -1.357,-1.388 -1.357,-2.36c-0,-0.972 0.517,-1.871 1.357,-2.36c7.476,-4.35 23.249,-13.528 29.61,-17.229Z" style="fill:#ffc040;"/><path d="M123.014,-7.608c1.697,-0.987 3.794,-0.987 5.491,0c6.361,3.701 22.134,12.879 29.611,17.229c0.839,0.489 1.356,1.388 1.356,2.36c0,0.972 -0.517,1.871 -1.356,2.36c-7.477,4.349 -23.25,13.528 -29.611,17.228c-1.697,0.988 -3.794,0.988 -5.491,0c-6.362,-3.7 -22.135,-12.879 -29.611,-17.228c-0.84,-0.489 -1.357,-1.388 -1.357,-2.36c0,-0.972 0.517,-1.871 1.357,-2.36c7.476,-4.35 23.249,-13.528 29.611,-17.229Z" style="fill:#cd5752;"/><path d="M118.675,-7.608c1.698,-0.987 3.795,-0.987 5.492,0c6.361,3.701 22.134,12.879 29.61,17.229c0.841,0.489 1.358,1.388 1.358,2.36c-0,0.972 -0.517,1.871 -1.358,2.36c-7.476,4.349 -23.249,13.528 -29.61,17.228c-1.697,0.988 -3.794,0.988 -5.492,0c-6.361,-3.7 -22.134,-12.879 -29.61,-17.228c-0.84,-0.489 -1.357,-1.388 -1.357,-2.36c0,-0.972 0.517,-1.871 1.357,-2.36c7.476,-4.35 23.249,-13.528 29.61,-17.229Z" style="fill:#ffc040;"/><path d="M114.337,-7.608c1.698,-0.987 3.795,-0.987 5.492,0c6.361,3.701 22.134,12.879 29.61,17.229c0.841,0.489 1.357,1.388 1.357,2.36c0,0.972 -0.516,1.871 -1.357,2.36c-7.476,4.349 -23.249,13.528 -29.61,17.228c-1.697,0.988 -3.794,0.988 -5.492,0c-6.361,-3.7 -22.134,-12.879 -29.61,-17.228c-0.84,-0.489 -1.357,-1.388 -1.357,-2.36c-0,-0.972 0.517,-1.871 1.357,-2.36c7.476,-4.35 23.249,-13.528 29.61,-17.229Z" style="fill:#cd5752;"/><path d="M109.999,-7.608c1.698,-0.987 3.795,-0.987 5.492,0c6.361,3.701 22.134,12.879 29.611,17.229c0.839,0.489 1.356,1.388 1.356,2.36c0,0.972 -0.517,1.871 -1.356,2.36c-7.477,4.349 -23.25,13.528 -29.611,17.228c-1.697,0.988 -3.794,0.988 -5.492,0c-6.361,-3.7 -22.134,-12.879 -29.61,-17.228c-0.841,-0.489 -1.357,-1.388 -1.357,-2.36c-0,-0.972 0.516,-1.871 1.357,-2.36c7.476,-4.35 23.249,-13.528 29.61,-17.229Z" style="fill:#ffc040;"/><path d="M105.661,-7.608c1.698,-0.987 3.794,-0.987 5.492,0c6.361,3.701 22.134,12.879 29.61,17.229c0.841,0.489 1.358,1.388 1.358,2.36c-0,0.972 -0.517,1.871 -1.358,2.36c-7.476,4.349 -23.249,13.528 -29.61,17.228c-1.698,0.988 -3.794,0.988 -5.492,0c-6.361,-3.7 -22.134,-12.879 -29.61,-17.228c-0.84,-0.489 -1.357,-1.388 -1.357,-2.36c-0,-0.972 0.517,-1.871 1.357,-2.36c7.476,-4.35 23.249,-13.528 29.61,-17.229Z" style="fill:#cd5752;"/><path d="M101.323,-7.608c1.697,-0.987 3.794,-0.987 5.492,0c6.361,3.701 22.134,12.879 29.61,17.229c0.841,0.489 1.357,1.388 1.357,2.36c0,0.972 -0.516,1.871 -1.357,2.36c-7.476,4.349 -23.249,13.528 -29.61,17.228c-1.698,0.988 -3.795,0.988 -5.492,0c-6.361,-3.7 -22.134,-12.879 -29.611,-17.228c-0.839,-0.489 -1.356,-1.388 -1.356,-2.36c-0,-0.972 0.517,-1.871 1.356,-2.36c7.477,-4.35 23.25,-13.528 29.611,-17.229Z" style="fill:#ffc040;"/><path d="M96.985,-7.608c1.698,-0.987 3.795,-0.987 5.492,0c6.361,3.701 22.134,12.879 29.611,17.229c0.839,0.489 1.356,1.388 1.356,2.36c0,0.972 -0.517,1.871 -1.356,2.36c-7.477,4.349 -23.25,13.528 -29.611,17.228c-1.697,0.988 -3.794,0.988 -5.492,0c-6.361,-3.7 -22.134,-12.879 -29.61,-17.228c-0.841,-0.489 -1.357,-1.388 -1.357,-2.36c-0,-0.972 0.516,-1.871 1.357,-2.36c7.476,-4.35 23.249,-13.528 29.61,-17.229Z" style="fill:#cd5752;"/><path d="M92.647,-7.608c1.698,-0.987 3.794,-0.987 5.492,0c6.361,3.701 22.134,12.879 29.61,17.229c0.84,0.489 1.357,1.388 1.357,2.36c0,0.972 -0.517,1.871 -1.357,2.36c-7.476,4.349 -23.249,13.528 -29.61,17.228c-1.698,0.988 -3.794,0.988 -5.492,0c-6.361,-3.7 -22.134,-12.879 -29.61,-17.228c-0.841,-0.489 -1.358,-1.388 -1.358,-2.36c0,-0.972 0.517,-1.871 1.358,-2.36c7.476,-4.35 23.249,-13.528 29.61,-17.229Z" style="fill:#ffc040;"/><path d="M88.309,-7.608c1.697,-0.987 3.794,-0.987 5.492,0c6.361,3.701 22.134,12.879 29.61,17.229c0.841,0.489 1.357,1.388 1.357,2.36c0,0.972 -0.516,1.871 -1.357,2.36c-7.476,4.349 -23.249,13.528 -29.61,17.228c-1.698,0.988 -3.795,0.988 -5.492,0c-6.361,-3.7 -22.134,-12.879 -29.611,-17.228c-0.839,-0.489 -1.356,-1.388 -1.356,-2.36c-0,-0.972 0.517,-1.871 1.356,-2.36c7.477,-4.35 23.25,-13.528 29.611,-17.229Z" style="fill:#cd5752;"/><path d="M83.971,-7.608c1.697,-0.987 3.794,-0.987 5.492,0c6.361,3.701 22.134,12.879 29.61,17.229c0.84,0.489 1.357,1.388 1.357,2.36c0,0.972 -0.517,1.871 -1.357,2.36c-7.476,4.349 -23.249,13.528 -29.61,17.228c-1.698,0.988 -3.795,0.988 -5.492,0c-6.361,-3.7 -22.134,-12.879 -29.61,-17.228c-0.841,-0.489 -1.357,-1.388 -1.357,-2.36c-0,-0.972 0.516,-1.871 1.357,-2.36c7.476,-4.35 23.249,-13.528 29.61,-17.229Z" style="fill:#ffc040;"/><path d="M79.633,-7.608c1.697,-0.987 3.794,-0.987 5.492,0c6.361,3.701 22.134,12.879 29.61,17.229c0.84,0.489 1.357,1.388 1.357,2.36c-0,0.972 -0.517,1.871 -1.357,2.36c-7.476,4.349 -23.249,13.528 -29.61,17.228c-1.698,0.988 -3.795,0.988 -5.492,0c-6.361,-3.7 -22.134,-12.879 -29.61,-17.228c-0.841,-0.489 -1.358,-1.388 -1.358,-2.36c0,-0.972 0.517,-1.871 1.358,-2.36c7.476,-4.35 23.249,-13.528 29.61,-17.229Z" style="fill:#cd5752;"/><path d="M75.295,-7.608c1.697,-0.987 3.794,-0.987 5.491,0c6.362,3.701 22.135,12.879 29.611,17.229c0.84,0.489 1.357,1.388 1.357,2.36c-0,0.972 -0.517,1.871 -1.357,2.36c-7.476,4.349 -23.249,13.528 -29.611,17.228c-1.697,0.988 -3.794,0.988 -5.491,0c-6.361,-3.7 -22.134,-12.879 -29.611,-17.228c-0.839,-0.489 -1.356,-1.388 -1.356,-2.36c-0,-0.972 0.517,-1.871 1.356,-2.36c7.477,-4.35 23.25,-13.528 29.611,-17.229Z" style="fill:#ffc040;"/><path d="M70.957,-7.608c1.697,-0.987 3.794,-0.987 5.492,0c6.361,3.701 22.134,12.879 29.61,17.229c0.84,0.489 1.357,1.388 1.357,2.36c0,0.972 -0.517,1.871 -1.357,2.36c-7.476,4.349 -23.249,13.528 -29.61,17.228c-1.698,0.988 -3.795,0.988 -5.492,0c-6.361,-3.7 -22.135,-12.879 -29.611,-17.228c-0.84,-0.489 -1.356,-1.388 -1.356,-2.36c-0,-0.972 0.516,-1.871 1.356,-2.36c7.476,-4.35 23.25,-13.528 29.611,-17.229Z" style="fill:#cd5752;"/><path d="M66.619,-7.608c1.697,-0.987 3.794,-0.987 5.492,0c6.361,3.701 22.133,12.879 29.61,17.229c0.84,0.489 1.357,1.388 1.357,2.36c-0,0.972 -0.517,1.871 -1.357,2.36c-7.477,4.349 -23.249,13.528 -29.61,17.228c-1.698,0.988 -3.795,0.988 -5.492,0c-6.361,-3.7 -22.134,-12.879 -29.61,-17.228c-0.841,-0.489 -1.358,-1.388 -1.358,-2.36c0,-0.972 0.517,-1.871 1.358,-2.36c7.476,-4.35 23.249,-13.528 29.61,-17.229Z" style="fill:#ffc040;"/><path d="M62.281,-7.608c1.697,-0.987 3.794,-0.987 5.491,0c6.362,3.701 22.135,12.879 29.611,17.229c0.84,0.489 1.357,1.388 1.357,2.36c-0,0.972 -0.517,1.871 -1.357,2.36c-7.476,4.349 -23.249,13.528 -29.611,17.228c-1.697,0.988 -3.794,0.988 -5.491,0c-6.362,-3.7 -22.134,-12.879 -29.611,-17.228c-0.84,-0.489 -1.357,-1.388 -1.357,-2.36c0,-0.972 0.517,-1.871 1.357,-2.36c7.477,-4.35 23.249,-13.528 29.611,-17.229Z" style="fill:#cd5752;"/><path d="M57.943,-7.608c1.697,-0.987 3.794,-0.987 5.491,0c6.362,3.701 22.135,12.879 29.611,17.229c0.84,0.489 1.357,1.388 1.357,2.36c-0,0.972 -0.517,1.871 -1.357,2.36c-7.476,4.349 -23.249,13.528 -29.611,17.228c-1.697,0.988 -3.794,0.988 -5.491,0c-6.361,-3.7 -22.135,-12.879 -29.611,-17.228c-0.84,-0.489 -1.356,-1.388 -1.356,-2.36c-0,-0.972 0.516,-1.871 1.356,-2.36c7.476,-4.35 23.25,-13.528 29.611,-17.229Z" style="fill:#ffc040;"/><path d="M53.605,-7.608c1.697,-0.987 3.794,-0.987 5.491,0c6.362,3.701 22.134,12.879 29.611,17.229c0.84,0.489 1.357,1.388 1.357,2.36c-0,0.972 -0.517,1.871 -1.357,2.36c-7.477,4.349 -23.249,13.528 -29.611,17.228c-1.697,0.988 -3.794,0.988 -5.491,0c-6.361,-3.7 -22.135,-12.879 -29.611,-17.228c-0.84,-0.489 -1.357,-1.388 -1.357,-2.36c0,-0.972 0.517,-1.871 1.357,-2.36c7.476,-4.35 23.25,-13.528 29.611,-17.229Z" style="fill:#cd5752;"/><path d="M49.267,-7.608c1.697,-0.987 3.794,-0.987 5.491,0c6.362,3.701 22.134,12.879 29.611,17.229c0.84,0.489 1.357,1.388 1.357,2.36c-0,0.972 -0.517,1.871 -1.357,2.36c-7.477,4.349 -23.249,13.528 -29.611,17.228c-1.697,0.988 -3.794,0.988 -5.491,0c-6.362,-3.7 -22.134,-12.879 -29.611,-17.228c-0.84,-0.489 -1.357,-1.388 -1.357,-2.36c0,-0.972 0.517,-1.871 1.357,-2.36c7.477,-4.35 23.249,-13.528 29.611,-17.229Z" style="fill:#ffc040;"/><path d="M44.929,-7.608c1.697,-0.987 3.794,-0.987 5.491,0c6.361,3.701 22.135,12.879 29.611,17.229c0.84,0.489 1.357,1.388 1.357,2.36c-0,0.972 -0.517,1.871 -1.357,2.36c-7.476,4.349 -23.25,13.528 -29.611,17.228c-1.697,0.988 -3.794,0.988 -5.491,0c-6.362,-3.7 -22.135,-12.879 -29.611,-17.228c-0.84,-0.489 -1.357,-1.388 -1.357,-2.36c-0,-0.972 0.517,-1.871 1.357,-2.36c7.476,-4.35 23.249,-13.528 29.611,-17.229Z" style="fill:#cd5752;"/><path d="M40.591,-7.608c1.697,-0.987 3.794,-0.987 5.491,0c6.362,3.701 22.134,12.879 29.611,17.229c0.84,0.489 1.357,1.388 1.357,2.36c-0,0.972 -0.517,1.871 -1.357,2.36c-7.477,4.349 -23.249,13.528 -29.611,17.228c-1.697,0.988 -3.794,0.988 -5.491,0c-6.361,-3.7 -22.135,-12.879 -29.611,-17.228c-0.84,-0.489 -1.357,-1.388 -1.357,-2.36c0,-0.972 0.517,-1.871 1.357,-2.36c7.476,-4.35 23.25,-13.528 29.611,-17.229Z" style="fill:#ffc040;"/><path d="M36.253,-7.608c1.697,-0.987 3.794,-0.987 5.491,0c6.361,3.701 22.134,12.879 29.61,17.229c0.841,0.489 1.358,1.388 1.358,2.36c-0,0.972 -0.517,1.871 -1.358,2.36c-7.476,4.349 -23.249,13.528 -29.61,17.228c-1.697,0.988 -3.794,0.988 -5.491,0c-6.362,-3.7 -22.134,-12.879 -29.611,-17.228c-0.84,-0.489 -1.357,-1.388 -1.357,-2.36c0,-0.972 0.517,-1.871 1.357,-2.36c7.477,-4.35 23.249,-13.528 29.611,-17.229Z" style="fill:#cd5752;"/><path d="M31.914,-7.608c1.698,-0.987 3.795,-0.987 5.492,0c6.361,3.701 22.135,12.879 29.611,17.229c0.84,0.489 1.357,1.388 1.357,2.36c-0,0.972 -0.517,1.871 -1.357,2.36c-7.476,4.349 -23.25,13.528 -29.611,17.228c-1.697,0.988 -3.794,0.988 -5.492,0c-6.361,-3.7 -22.134,-12.879 -29.61,-17.228c-0.84,-0.489 -1.357,-1.388 -1.357,-2.36c-0,-0.972 0.517,-1.871 1.357,-2.36c7.476,-4.35 23.249,-13.528 29.61,-17.229Z" style="fill:#ffc040;"/><path d="M27.577,-7.608c1.697,-0.987 3.794,-0.987 5.491,0c6.361,3.701 22.134,12.879 29.611,17.229c0.839,0.489 1.356,1.388 1.356,2.36c0,0.972 -0.517,1.871 -1.356,2.36c-7.477,4.349 -23.25,13.528 -29.611,17.228c-1.697,0.988 -3.794,0.988 -5.491,0c-6.362,-3.7 -22.135,-12.879 -29.611,-17.228c-0.84,-0.489 -1.357,-1.388 -1.357,-2.36c-0,-0.972 0.517,-1.871 1.357,-2.36c7.476,-4.35 23.249,-13.528 29.611,-17.229Z" style="fill:#cd5752;"/><path d="M23.239,-7.608c1.697,-0.987 3.794,-0.987 5.491,0c6.361,3.701 22.134,12.879 29.61,17.229c0.841,0.489 1.358,1.388 1.358,2.36c-0,0.972 -0.517,1.871 -1.358,2.36c-7.476,4.349 -23.249,13.528 -29.61,17.228c-1.697,0.988 -3.794,0.988 -5.491,0c-6.362,-3.7 -22.135,-12.879 -29.611,-17.228c-0.84,-0.489 -1.357,-1.388 -1.357,-2.36c0,-0.972 0.517,-1.871 1.357,-2.36c7.476,-4.35 23.249,-13.528 29.611,-17.229Z" style="fill:#ffc040;"/><path d="M18.9,-7.608c1.697,-0.987 3.794,-0.987 5.492,0c6.361,3.701 22.134,12.879 29.61,17.229c0.841,0.489 1.357,1.388 1.357,2.36c0,0.972 -0.516,1.871 -1.357,2.36c-7.476,4.349 -23.249,13.528 -29.61,17.228c-1.698,0.988 -3.795,0.988 -5.492,0c-6.361,-3.7 -22.134,-12.879 -29.61,-17.228c-0.84,-0.489 -1.357,-1.388 -1.357,-2.36c-0,-0.972 0.517,-1.871 1.357,-2.36c7.476,-4.35 23.249,-13.528 29.61,-17.229Z" style="fill:#cd5752;"/><g><path d="M14.485,-7.608c1.697,-0.987 3.794,-0.987 5.492,0c6.361,3.701 22.134,12.879 29.61,17.229c0.841,0.489 1.357,1.388 1.357,2.36c0,0.972 -0.516,1.871 -1.357,2.36c-7.476,4.349 -23.249,13.528 -29.61,17.228c-1.698,0.988 -3.795,0.988 -5.492,0c-6.361,-3.7 -22.134,-12.879 -29.611,-17.228c-0.839,-0.489 -1.356,-1.388 -1.356,-2.36c-0,-0.972 0.517,-1.871 1.356,-2.36c7.477,-4.35 23.25,-13.528 29.611,-17.229Z" style="fill:#ffc040;"/><path d="M14.859,-4.94c1.467,-0.853 3.278,-0.853 4.744,0c5.495,3.197 19.12,11.125 25.577,14.883c0.726,0.422 1.172,1.198 1.172,2.038c0,0.839 -0.446,1.616 -1.172,2.038c-6.457,3.758 -20.082,11.685 -25.577,14.883c-1.466,0.853 -3.277,0.853 -4.744,-0c-5.495,-3.198 -19.119,-11.125 -25.577,-14.883c-0.726,-0.422 -1.172,-1.199 -1.172,-2.038c-0,-0.84 0.446,-1.616 1.172,-2.038c6.458,-3.758 20.082,-11.686 25.577,-14.883Z" style="fill:#cd5752;"/><path d="M17.47,-1.881c1.241,-0.699 2.775,-0.699 4.017,-0c4.655,2.619 16.195,9.113 21.665,12.191c0.615,0.347 0.993,0.982 0.993,1.67c-0,0.688 -0.378,1.324 -0.993,1.67c-5.47,3.078 -17.01,9.572 -21.665,12.192c-1.242,0.698 -2.776,0.698 -4.017,0c-1.833,-1.031 -14.127,1.737 -17.304,-0.051c-4.891,-2.752 -1.045,-10.275 -4.361,-12.141c-0.615,-0.346 -0.993,-0.982 -0.993,-1.67c0,-0.688 0.378,-1.323 0.993,-1.67c4.809,-2.706 0.073,-9.227 5.462,-12.259c0.74,-0.417 15.64,0.384 16.203,0.068Z" style="fill:#fff9f9;"/><g><path d="M22.377,14.382c0.631,-0.631 0.986,-1.488 0.986,-2.38c0,-0.894 -0.355,-1.751 -0.986,-2.382c-1.997,-1.996 -4.833,-4.833 -6.83,-6.829c-0.631,-0.632 -1.488,-0.987 -2.381,-0.987c-0.893,0 -1.75,0.355 -2.381,0.987c-1.996,1.996 -4.833,4.833 -6.829,6.829c-0.632,0.631 -0.987,1.488 -0.987,2.382c0,0.892 0.355,1.749 0.987,2.38c1.996,1.997 4.833,4.833 6.829,6.83c0.631,0.631 1.488,0.986 2.381,0.986c0.893,0 1.75,-0.355 2.381,-0.986c1.997,-1.997 4.833,-4.833 6.83,-6.83Z" style="fill:#cd5752;"/><g><path d="M17.742,10.632c-0,-0.208 -0.169,-0.377 -0.378,-0.377l-8.396,-0c-0.208,-0 -0.377,0.169 -0.377,0.377l-0,0.001c-0,0.209 0.169,0.377 0.377,0.377l8.396,0c0.209,0 0.378,-0.168 0.378,-0.377l-0,-0.001Z" style="fill:#fff9f9;"/><path d="M11.2,9.979c-0,0.058 -0.047,0.105 -0.105,0.105l-0.488,0c-0.117,0 -0.211,-0.094 -0.211,-0.211l0,-0.233c0,-0.028 0.011,-0.054 0.031,-0.074c0.02,-0.02 0.047,-0.031 0.075,-0.031l0.675,0c0.005,0 0.012,0.002 0.016,0.007c0.005,0.005 0.007,0.011 0.007,0.017l-0,0.42Zm0.281,0.105c-0.028,0 -0.055,-0.011 -0.074,-0.03c-0.02,-0.02 -0.031,-0.048 -0.031,-0.075l-0,-3.07c-0,-0.184 0.149,-0.334 0.334,-0.334l2.913,0c0.184,0 0.334,0.15 0.334,0.334l-0,3.07c-0,0.027 -0.011,0.055 -0.031,0.075c-0.02,0.019 -0.047,0.03 -0.075,0.03l-3.37,0Zm4.35,-0.549c0.028,0 0.055,0.011 0.074,0.031c0.02,0.02 0.031,0.046 0.031,0.074l0,0.233c0,0.117 -0.094,0.211 -0.21,0.211l-0.488,0c-0.058,0 -0.106,-0.047 -0.106,-0.105l0,-0.339c0,-0.028 0.012,-0.054 0.031,-0.074c0.02,-0.02 0.047,-0.031 0.075,-0.031l0.593,0Zm-2.665,0.062c0.078,-0 0.142,0.064 0.142,0.142c0,0.078 -0.064,0.142 -0.142,0.142c-0.078,0 -0.142,-0.064 -0.142,-0.142c-0,-0.078 0.064,-0.142 0.142,-0.142Zm-0.495,-0c0.078,-0 0.142,0.064 0.142,0.142c0,0.078 -0.064,0.142 -0.142,0.142c-0.078,0 -0.142,-0.064 -0.142,-0.142c-0,-0.078 0.064,-0.142 0.142,-0.142Zm0.99,-0c0.079,-0 0.142,0.064 0.142,0.142c0,0.078 -0.063,0.142 -0.142,0.142c-0.078,0 -0.142,-0.064 -0.142,-0.142c0,-0.078 0.064,-0.142 0.142,-0.142Zm-0.495,-0.494c0.078,-0 0.142,0.063 0.142,0.142c0,0.078 -0.064,0.142 -0.142,0.142c-0.078,-0 -0.142,-0.064 -0.142,-0.142c-0,-0.079 0.064,-0.142 0.142,-0.142Zm-0.495,-0c0.078,-0 0.142,0.063 0.142,0.142c0,0.078 -0.064,0.142 -0.142,0.142c-0.078,-0 -0.142,-0.064 -0.142,-0.142c-0,-0.079 0.064,-0.142 0.142,-0.142Zm0.99,-0c0.079,-0 0.142,0.063 0.142,0.142c0,0.078 -0.063,0.142 -0.142,0.142c-0.078,-0 -0.142,-0.064 -0.142,-0.142c0,-0.079 0.064,-0.142 0.142,-0.142Zm-3.265,-0.622c0,-0.028 0.011,-0.055 0.031,-0.074c0.02,-0.02 0.047,-0.031 0.075,-0.031l0.675,-0c0.005,-0 0.012,0.002 0.016,0.007c0.005,0.004 0.007,0.01 0.007,0.016l-0,0.937c-0,0.013 -0.011,0.023 -0.023,0.023l-0.675,0c-0.028,0 -0.055,-0.011 -0.075,-0.031c-0.02,-0.019 -0.031,-0.046 -0.031,-0.074l0,-0.773Zm5.54,0.773c0,0.028 -0.011,0.055 -0.031,0.074c-0.019,0.02 -0.046,0.031 -0.074,0.031l-0.593,0c-0.028,0 -0.055,-0.011 -0.075,-0.031c-0.019,-0.019 -0.031,-0.046 -0.031,-0.074l0,-0.773c0,-0.028 0.012,-0.055 0.031,-0.074c0.02,-0.02 0.047,-0.031 0.075,-0.031l0.593,-0c0.028,-0 0.055,0.011 0.074,0.031c0.02,0.019 0.031,0.046 0.031,0.074l0,0.773Zm-2.77,-0.646c0.078,-0 0.142,0.063 0.142,0.142c0,0.079 -0.064,0.142 -0.142,0.142c-0.078,-0 -0.142,-0.063 -0.142,-0.142c-0,-0.079 0.064,-0.142 0.142,-0.142Zm-0.495,-0c0.078,-0 0.142,0.063 0.142,0.142c0,0.079 -0.064,0.142 -0.142,0.142c-0.078,-0 -0.142,-0.063 -0.142,-0.142c-0,-0.079 0.064,-0.142 0.142,-0.142Zm0.99,-0c0.079,-0 0.142,0.063 0.142,0.142c0,0.079 -0.063,0.142 -0.142,0.142c-0.078,-0 -0.142,-0.063 -0.142,-0.142c0,-0.079 0.064,-0.142 0.142,-0.142Zm-0.495,-0.495c0.078,0 0.142,0.064 0.142,0.142c0,0.079 -0.064,0.143 -0.142,0.143c-0.078,-0 -0.142,-0.064 -0.142,-0.143c-0,-0.078 0.064,-0.142 0.142,-0.142Zm-0.495,0c0.078,0 0.142,0.064 0.142,0.142c0,0.079 -0.064,0.143 -0.142,0.143c-0.078,-0 -0.142,-0.064 -0.142,-0.143c-0,-0.078 0.064,-0.142 0.142,-0.142Zm0.99,0c0.079,0 0.142,0.064 0.142,0.142c0,0.079 -0.063,0.143 -0.142,0.143c-0.078,-0 -0.142,-0.064 -0.142,-0.143c0,-0.078 0.064,-0.142 0.142,-0.142Zm2.275,-0.018c0,0.028 -0.011,0.054 -0.031,0.074c-0.019,0.02 -0.046,0.031 -0.074,0.031l-0.593,-0c-0.028,-0 -0.055,-0.011 -0.075,-0.031c-0.019,-0.02 -0.031,-0.046 -0.031,-0.074l0,-0.826c0,-0.012 0.011,-0.023 0.024,-0.023l-0,-0.001l0.675,0c0.028,0 0.055,0.012 0.074,0.031c0.02,0.02 0.031,0.047 0.031,0.075l0,0.744Zm-5.54,-0.744c0,-0.028 0.011,-0.055 0.031,-0.075c0.02,-0.019 0.047,-0.031 0.075,-0.031l0.593,0c0.027,0 0.054,0.012 0.074,0.031c0.02,0.02 0.031,0.047 0.031,0.075l-0,0.825c-0,0.013 -0.011,0.024 -0.023,0.024l-0.675,-0c-0.028,-0 -0.055,-0.011 -0.075,-0.031c-0.02,-0.02 -0.031,-0.046 -0.031,-0.074l0,-0.744Zm2.275,0.268c0.078,-0 0.142,0.064 0.142,0.142c0,0.078 -0.064,0.142 -0.142,0.142c-0.078,0 -0.142,-0.064 -0.142,-0.142c-0,-0.078 0.064,-0.142 0.142,-0.142Zm0.495,-0c0.078,-0 0.142,0.064 0.142,0.142c0,0.078 -0.064,0.142 -0.142,0.142c-0.078,0 -0.142,-0.064 -0.142,-0.142c-0,-0.078 0.064,-0.142 0.142,-0.142Zm0.495,-0c0.079,-0 0.142,0.064 0.142,0.142c0,0.078 -0.063,0.142 -0.142,0.142c-0.078,0 -0.142,-0.064 -0.142,-0.142c0,-0.078 0.064,-0.142 0.142,-0.142Zm0,-0.495c0.079,0 0.142,0.064 0.142,0.142c0,0.079 -0.063,0.142 -0.142,0.142c-0.078,0 -0.142,-0.063 -0.142,-0.142c0,-0.078 0.064,-0.142 0.142,-0.142Zm-0.99,0c0.078,0 0.142,0.064 0.142,0.142c0,0.079 -0.064,0.142 -0.142,0.142c-0.078,0 -0.142,-0.063 -0.142,-0.142c-0,-0.078 0.064,-0.142 0.142,-0.142Zm0.495,0c0.078,0 0.142,0.064 0.142,0.142c0,0.079 -0.064,0.142 -0.142,0.142c-0.078,0 -0.142,-0.063 -0.142,-0.142c-0,-0.078 0.064,-0.142 0.142,-0.142Zm2.593,-1.18c0.029,-0.03 0.074,-0.039 0.113,-0.023c0.039,0.016 0.064,0.054 0.064,0.096l0,0.947c0,0.028 -0.011,0.055 -0.031,0.075c-0.019,0.02 -0.046,0.031 -0.074,0.031l-0.675,-0c-0.007,-0 -0.012,-0.003 -0.017,-0.007c-0.004,-0.004 -0.007,-0.01 -0.007,-0.017l0,-0.137c0,-0.072 -0.015,-0.14 -0.041,-0.201c-0.018,-0.04 -0.009,-0.086 0.021,-0.117c0.129,-0.13 0.462,-0.464 0.647,-0.647Zm-5.363,0.073c0,-0.042 0.026,-0.08 0.064,-0.096c0.039,-0.016 0.084,-0.007 0.114,0.023c0.184,0.183 0.517,0.517 0.647,0.646c0.031,0.032 0.039,0.078 0.021,0.118c-0.027,0.061 -0.042,0.129 -0.042,0.201l-0,0.055c-0,0.028 -0.011,0.055 -0.031,0.075c-0.02,0.02 -0.047,0.031 -0.074,0.031l-0.593,-0c-0.028,-0 -0.055,-0.011 -0.075,-0.031c-0.02,-0.02 -0.031,-0.047 -0.031,-0.075l0,-0.947Zm4.018,-0.316c-0,-0.028 0.011,-0.055 0.031,-0.075c0.019,-0.019 0.046,-0.03 0.074,-0.03l0.996,-0c0.035,-0 0.071,0.004 0.105,0.013c0.036,0.009 0.065,0.037 0.075,0.073c0.01,0.035 -0,0.074 -0.027,0.1c-0.172,0.176 -0.525,0.528 -0.666,0.669c-0.034,0.034 -0.087,0.041 -0.129,0.016c-0.073,-0.043 -0.159,-0.068 -0.25,-0.068l-0.104,0c-0.028,0 -0.055,-0.011 -0.074,-0.031c-0.02,-0.019 -0.031,-0.046 -0.031,-0.074l-0,-0.593Zm-2.601,-0.105c0.028,-0 0.055,0.011 0.075,0.03c0.02,0.02 0.031,0.047 0.031,0.075l-0,0.593c-0,0.028 -0.011,0.055 -0.031,0.074c-0.02,0.02 -0.047,0.031 -0.075,0.031l-0.103,0c-0.092,0 -0.178,0.025 -0.252,0.067c-0.041,0.024 -0.093,0.018 -0.127,-0.016c-0.142,-0.14 -0.494,-0.492 -0.668,-0.667c-0.028,-0.026 -0.038,-0.065 -0.028,-0.102c0.01,-0.037 0.039,-0.065 0.077,-0.074c0.034,-0.007 0.069,-0.011 0.106,-0.011l0.995,-0Zm1.441,0.105c-0,-0.028 0.011,-0.055 0.031,-0.075c0.019,-0.019 0.046,-0.03 0.074,-0.03l0.774,-0c0.028,-0 0.054,0.011 0.074,0.03c0.02,0.02 0.031,0.047 0.031,0.075l-0,0.593c-0,0.028 -0.011,0.055 -0.031,0.074c-0.02,0.02 -0.046,0.031 -0.074,0.031l-0.774,0c-0.028,0 -0.055,-0.011 -0.074,-0.031c-0.02,-0.019 -0.031,-0.046 -0.031,-0.074l-0,-0.593Zm-1.16,-0c0,-0.028 0.011,-0.055 0.031,-0.075c0.02,-0.019 0.047,-0.03 0.075,-0.03l0.773,-0c0.028,-0 0.054,0.011 0.074,0.03c0.02,0.02 0.031,0.047 0.031,0.075l0,0.593c0,0.028 -0.011,0.055 -0.031,0.074c-0.02,0.02 -0.046,0.031 -0.074,0.031l-0.773,0c-0.028,0 -0.055,-0.011 -0.075,-0.031c-0.02,-0.019 -0.031,-0.046 -0.031,-0.074l0,-0.593Z" style="fill:#fff9f9;"/><path d="M17.576,16.189c-0.054,-0.042 -0.126,-0.055 -0.192,-0.033c-0.066,0.021 -0.116,0.075 -0.134,0.141c-0.555,2.076 -2.333,2.076 -4.111,2.076c-2.142,-0 -4.283,-0 -4.283,-3.627l-0,-3.145c-0,-0.112 0.044,-0.219 0.123,-0.298c0.079,-0.08 0.186,-0.124 0.298,-0.124l7.723,0c0.112,0 0.219,0.044 0.299,0.124c0.079,0.079 0.123,0.186 0.123,0.298l0,1.417c0,0.077 0.041,0.147 0.108,0.184c0.067,0.037 0.148,0.036 0.213,-0.004c0.265,-0.16 0.575,-0.251 0.906,-0.251c0.993,0 1.799,0.806 1.799,1.799c-0,0.993 -0.806,1.799 -1.799,1.799c-0.402,-0 -0.773,-0.133 -1.073,-0.356Zm-2.552,-0.818c0.06,-0 0.117,0.025 0.157,0.069c0.04,0.044 0.059,0.104 0.053,0.162c-0.117,1.04 -0.999,1.849 -2.069,1.849c-1.069,-0 -1.952,-0.809 -2.067,-1.849c-0.006,-0.058 0.013,-0.117 0.054,-0.161c0.039,-0.044 0.095,-0.069 0.154,-0.069c0.721,-0.001 2.998,-0.001 3.718,-0.001Zm3.625,-1.852c0.677,-0 1.227,0.55 1.227,1.227c0,0.677 -0.55,1.227 -1.227,1.227c-0.677,0 -1.227,-0.55 -1.227,-1.227c0,-0.677 0.55,-1.227 1.227,-1.227Zm-2.418,-0.456c0.003,-0.048 0.042,-0.084 0.089,-0.084c0.023,-0.001 0.048,-0.001 0.072,-0.001c0.025,-0 0.049,0.009 0.066,0.027c0.017,0.019 0.026,0.043 0.025,0.068c-0.05,0.645 -0.59,1.155 -1.248,1.155c-0.658,-0 -1.198,-0.51 -1.247,-1.156c-0.001,-0.024 0.008,-0.048 0.025,-0.065c0.017,-0.018 0.04,-0.028 0.064,-0.028c0.024,-0.001 0.049,-0.001 0.073,-0.001c0.048,-0 0.087,0.037 0.09,0.085c0.042,0.517 0.471,0.924 0.995,0.924c0.523,0 0.953,-0.407 0.996,-0.924Zm-4.138,-0c0.003,-0.048 0.042,-0.084 0.089,-0.084c0.023,-0.001 0.048,-0.001 0.072,-0.001c0.025,-0 0.049,0.009 0.066,0.027c0.017,0.019 0.026,0.043 0.024,0.068c-0.05,0.645 -0.589,1.155 -1.248,1.155c-0.657,-0 -1.197,-0.51 -1.246,-1.156c-0.001,-0.024 0.008,-0.048 0.025,-0.065c0.017,-0.018 0.04,-0.028 0.064,-0.028c0.024,-0.001 0.049,-0.001 0.072,-0.001c0.048,-0 0.088,0.037 0.091,0.085c0.041,0.517 0.471,0.924 0.994,0.924c0.524,0 0.954,-0.407 0.997,-0.924Z" style="fill:#fff9f9;"/></g></g><path d="M6.627,8.149l0.673,0.673" style="fill:none;"/><path d="M10.386,8.149l-0.673,0.673" style="fill:none;"/></g></g><g><g transform="matrix(0.137627,0,0,0.137627,-20.6068,-65.5111)"><text x="311.346px" y="525.069px" style="font-family:'ForteMT', 'Forte', cursive;font-style:italic;font-size:19.216px;fill:#cd5752;">t</text><text x="317.192px" y="525.069px" style="font-family:'ForteMT', 'Forte', cursive;font-style:italic;font-size:19.216px;fill:#cd5752;">he</text><text x="333.221px" y="572.931px" style="font-family:'Montserrat-ExtraBold', 'Montserrat';font-weight:800;font-size:25.621px;fill:#41251d;">BISC<tspan x="396.89px " y="572.931px ">U</tspan>IT</text><text x="311.346px" y="612.024px" style="font-family:'ForteMT', 'Forte', cursive;font-style:italic;font-size:19.216px;fill:#cd5752;">Society</text></g></g></g></svg>