<?xml version="1.0" encoding="UTF-8" standalone="no"?><!DOCTYPE svg PUBLIC "-//W3C//DTD SVG 1.1//EN" "http://www.w3.org/Graphics/SVG/1.1/DTD/svg11.dtd"><svg width="834px" height="100px" version="1.1" xmlns="http://www.w3.org/2000/svg" xmlns:xlink="http://www.w3.org/1999/xlink" xml:space="preserve" xmlns:serif="http://www.serif.com/" style="fill-rule:evenodd;clip-rule:evenodd;stroke-linejoin:round;stroke-miterlimit:2;"><path d="M833.333,100l0,-100l-833.333,-0.092l0,100.092c140.621,0.113 833.333,0 833.333,0Z" style="fill:#a25632;"/><g><g><path d="M783.683,-31.7c7.075,-4.113 15.809,-4.113 22.884,0c26.504,15.421 92.225,53.663 123.375,71.788c3.504,2.037 5.658,5.783 5.658,9.833c0,4.05 -2.154,7.796 -5.658,9.833c-31.15,18.121 -96.871,56.367 -123.375,71.784c-7.075,4.116 -15.809,4.116 -22.884,-0.001c-26.504,-15.416 -92.225,-53.662 -123.375,-71.783c-3.5,-2.037 -5.654,-5.783 -5.654,-9.833c0,-4.05 2.154,-7.796 5.654,-9.834c31.15,-18.125 96.871,-56.366 123.375,-71.787Z" style="fill:#ffc040;"/><path d="M765.608,-31.7c7.075,-4.113 15.813,-4.113 22.884,0c26.504,15.421 92.225,53.663 123.375,71.788c3.504,2.037 5.654,5.783 5.654,9.833c-0,4.05 -2.15,7.796 -5.654,9.833c-31.15,18.121 -96.871,56.367 -123.375,71.784c-7.071,4.116 -15.809,4.116 -22.884,-0.001c-26.504,-15.416 -92.225,-53.662 -123.375,-71.783c-3.5,-2.037 -5.654,-5.783 -5.654,-9.833c0,-4.05 2.154,-7.796 5.654,-9.834c31.15,-18.125 96.871,-56.366 123.375,-71.787Z" style="fill:#cd5752;"/><path d="M747.533,-31.7c7.075,-4.113 15.813,-4.113 22.884,0c26.504,15.421 92.225,53.663 123.379,71.788c3.496,2.037 5.65,5.783 5.65,9.833c-0,4.05 -2.154,7.796 -5.65,9.833c-31.154,18.121 -96.875,56.367 -123.379,71.784c-7.071,4.116 -15.809,4.116 -22.884,-0.001c-26.504,-15.416 -92.225,-53.662 -123.375,-71.783c-3.504,-2.037 -5.654,-5.783 -5.654,-9.833c0,-4.05 2.15,-7.796 5.654,-9.834c31.15,-18.125 96.871,-56.366 123.375,-71.787Z" style="fill:#ffc040;"/><path d="M729.458,-31.7c7.071,-4.113 15.809,-4.113 22.884,0c26.504,15.421 92.225,53.663 123.375,71.788c3.5,2.037 5.654,5.783 5.654,9.833c-0,4.05 -2.154,7.796 -5.654,9.833c-31.15,18.121 -96.871,56.367 -123.375,71.784c-7.075,4.116 -15.813,4.116 -22.884,-0.001c-26.504,-15.416 -92.225,-53.662 -123.375,-71.783c-3.5,-2.037 -5.654,-5.783 -5.654,-9.833c0,-4.05 2.154,-7.796 5.654,-9.834c31.15,-18.125 96.871,-56.366 123.375,-71.787Z" style="fill:#cd5752;"/><path d="M711.383,-31.7c7.071,-4.113 15.809,-4.113 22.884,0c26.504,15.421 92.225,53.663 123.375,71.788c3.504,2.037 5.654,5.783 5.654,9.833c-0,4.05 -2.15,7.796 -5.654,9.833c-31.15,18.121 -96.871,56.367 -123.375,71.784c-7.075,4.116 -15.813,4.116 -22.884,-0.001c-26.504,-15.416 -92.225,-53.662 -123.379,-71.783c-3.496,-2.037 -5.65,-5.783 -5.65,-9.833c0,-4.05 2.154,-7.796 5.65,-9.834c31.154,-18.125 96.875,-56.366 123.379,-71.787Z" style="fill:#ffc040;"/><path d="M693.308,-31.7c7.075,-4.113 15.813,-4.113 22.884,0c26.504,15.421 92.225,53.663 123.375,71.788c3.5,2.037 5.654,5.783 5.654,9.833c-0,4.05 -2.154,7.796 -5.654,9.833c-31.15,18.121 -96.871,56.367 -123.375,71.784c-7.071,4.116 -15.809,4.116 -22.884,-0.001c-26.504,-15.416 -92.225,-53.662 -123.375,-71.783c-3.504,-2.037 -5.654,-5.783 -5.654,-9.833c0,-4.05 2.15,-7.796 5.654,-9.834c31.15,-18.125 96.871,-56.366 123.375,-71.787Z" style="fill:#cd5752;"/><path d="M675.233,-31.7c7.071,-4.113 15.809,-4.113 22.88,0c26.508,15.421 92.229,53.663 123.379,71.788c3.5,2.037 5.654,5.783 5.654,9.833c-0,4.05 -2.154,7.796 -5.654,9.833c-31.15,18.121 -96.871,56.367 -123.379,71.784c-7.071,4.116 -15.809,4.116 -22.88,-0.001c-26.504,-15.416 -92.225,-53.662 -123.375,-71.783c-3.504,-2.037 -5.658,-5.783 -5.658,-9.833c0,-4.05 2.154,-7.796 5.658,-9.834c31.15,-18.125 96.871,-56.366 123.375,-71.787Z" style="fill:#ffc040;"/><path d="M657.158,-31.7c7.071,-4.113 15.809,-4.113 22.88,0c26.508,15.421 92.229,53.663 123.379,71.788c3.504,2.037 5.654,5.783 5.654,9.833c-0,4.05 -2.15,7.796 -5.654,9.833c-31.15,18.121 -96.871,56.367 -123.38,71.784c-7.07,4.116 -15.808,4.116 -22.879,-0.001c-26.504,-15.416 -92.225,-53.662 -123.379,-71.783c-3.5,-2.037 -5.65,-5.783 -5.65,-9.833c0,-4.05 2.15,-7.796 5.65,-9.834c31.154,-18.125 96.875,-56.366 123.379,-71.787Z" style="fill:#cd5752;"/><path d="M639.083,-31.7c7.071,-4.113 15.809,-4.113 22.884,0c26.504,15.421 92.225,53.663 123.375,71.788c3.5,2.037 5.654,5.783 5.654,9.833c-0,4.05 -2.154,7.796 -5.654,9.833c-31.15,18.121 -96.871,56.367 -123.375,71.784c-7.075,4.116 -15.813,4.116 -22.884,-0.001c-26.504,-15.416 -92.225,-53.662 -123.379,-71.783c-3.5,-2.037 -5.654,-5.783 -5.654,-9.833c-0,-4.05 2.154,-7.796 5.654,-9.834c31.154,-18.125 96.875,-56.366 123.379,-71.787Z" style="fill:#ffc040;"/><path d="M621.008,-31.7c7.071,-4.113 15.809,-4.113 22.88,0c26.508,15.421 92.229,53.663 123.379,71.788c3.5,2.037 5.654,5.783 5.654,9.833c-0,4.05 -2.154,7.796 -5.654,9.833c-31.15,18.121 -96.871,56.367 -123.379,71.784c-7.071,4.116 -15.809,4.116 -22.88,-0.001c-26.504,-15.416 -92.225,-53.662 -123.379,-71.783c-3.5,-2.037 -5.654,-5.783 -5.654,-9.833c0,-4.05 2.154,-7.796 5.654,-9.834c31.154,-18.125 96.875,-56.366 123.379,-71.787Z" style="fill:#cd5752;"/><path d="M602.933,-31.7c7.071,-4.113 15.809,-4.113 22.88,0c26.504,15.421 92.229,53.663 123.379,71.788c3.5,2.037 5.654,5.783 5.654,9.833c-0,4.05 -2.154,7.796 -5.654,9.833c-31.15,18.121 -96.875,56.367 -123.38,71.784c-7.07,4.116 -15.808,4.116 -22.879,-0.001c-26.508,-15.416 -92.225,-53.662 -123.379,-71.783c-3.5,-2.037 -5.654,-5.783 -5.654,-9.833c0,-4.05 2.154,-7.796 5.654,-9.834c31.154,-18.125 96.871,-56.366 123.379,-71.787Z" style="fill:#ffc040;"/><path d="M584.858,-31.7c7.071,-4.113 15.809,-4.113 22.884,0c26.504,15.421 92.225,53.663 123.375,71.788c3.5,2.037 5.654,5.783 5.654,9.833c-0,4.05 -2.154,7.796 -5.654,9.833c-31.15,18.121 -96.871,56.367 -123.375,71.784c-7.075,4.116 -15.813,4.116 -22.884,-0.001c-26.504,-15.416 -92.229,-53.662 -123.379,-71.783c-3.5,-2.037 -5.654,-5.783 -5.654,-9.833c0,-4.05 2.154,-7.796 5.654,-9.834c31.15,-18.125 96.875,-56.366 123.379,-71.787Z" style="fill:#cd5752;"/><path d="M566.783,-31.7c7.071,-4.113 15.809,-4.113 22.88,0c26.508,15.421 92.225,53.663 123.379,71.788c3.5,2.037 5.654,5.783 5.654,9.833c-0,4.05 -2.154,7.796 -5.654,9.833c-31.154,18.121 -96.871,56.367 -123.38,71.784c-7.07,4.116 -15.808,4.116 -22.879,-0.001c-26.508,-15.416 -92.225,-53.662 -123.379,-71.783c-3.5,-2.037 -5.654,-5.783 -5.654,-9.833c0,-4.05 2.154,-7.796 5.654,-9.834c31.154,-18.125 96.871,-56.366 123.379,-71.787Z" style="fill:#ffc040;"/><path d="M548.708,-31.7c7.071,-4.113 15.809,-4.113 22.88,0c26.504,15.421 92.225,53.663 123.375,71.788c3.504,2.037 5.658,5.783 5.658,9.833c-0,4.05 -2.154,7.796 -5.658,9.833c-31.15,18.121 -96.871,56.367 -123.375,71.784c-7.071,4.116 -15.809,4.116 -22.88,-0.001c-26.508,-15.416 -92.225,-53.662 -123.379,-71.783c-3.5,-2.037 -5.654,-5.783 -5.654,-9.833c0,-4.05 2.154,-7.796 5.654,-9.834c31.154,-18.125 96.871,-56.366 123.379,-71.787Z" style="fill:#cd5752;"/><path d="M530.629,-31.7c7.075,-4.113 15.813,-4.113 22.884,0c26.504,15.421 92.229,53.663 123.379,71.788c3.5,2.037 5.65,5.783 5.65,9.833c-0,4.05 -2.15,7.796 -5.65,9.833c-31.15,18.121 -96.875,56.367 -123.38,71.784c-7.07,4.116 -15.808,4.116 -22.883,-0.001c-26.504,-15.416 -92.225,-53.662 -123.375,-71.783c-3.5,-2.037 -5.654,-5.783 -5.654,-9.833c-0,-4.05 2.154,-7.796 5.654,-9.834c31.15,-18.125 96.871,-56.366 123.375,-71.787Z" style="fill:#ffc040;"/><path d="M512.558,-31.7c7.071,-4.113 15.809,-4.113 22.88,0c26.504,15.421 92.225,53.663 123.379,71.788c3.495,2.037 5.65,5.783 5.65,9.833c-0,4.05 -2.154,7.796 -5.65,9.833c-31.154,18.121 -96.875,56.367 -123.38,71.784c-7.07,4.116 -15.808,4.116 -22.879,-0.001c-26.508,-15.416 -92.229,-53.662 -123.379,-71.783c-3.5,-2.037 -5.654,-5.783 -5.654,-9.833c0,-4.05 2.154,-7.796 5.654,-9.834c31.15,-18.125 96.871,-56.366 123.379,-71.787Z" style="fill:#cd5752;"/><path d="M494.479,-31.7c7.075,-4.113 15.813,-4.113 22.884,0c26.504,15.421 92.225,53.663 123.375,71.788c3.504,2.037 5.658,5.783 5.658,9.833c-0,4.05 -2.154,7.796 -5.659,9.833c-31.149,18.121 -96.87,56.367 -123.375,71.784c-7.07,4.116 -15.808,4.116 -22.883,-0.001c-26.504,-15.416 -92.225,-53.662 -123.375,-71.783c-3.5,-2.037 -5.654,-5.783 -5.654,-9.833c-0,-4.05 2.154,-7.796 5.654,-9.834c31.15,-18.125 96.871,-56.366 123.375,-71.787Z" style="fill:#ffc040;"/><path d="M476.404,-31.7c7.075,-4.113 15.813,-4.113 22.884,0c26.504,15.421 92.225,53.663 123.375,71.788c3.504,2.037 5.654,5.783 5.654,9.833c-0,4.05 -2.15,7.796 -5.654,9.833c-31.15,18.121 -96.871,56.367 -123.375,71.784c-7.071,4.116 -15.809,4.116 -22.884,-0.001c-26.504,-15.416 -92.225,-53.662 -123.375,-71.783c-3.5,-2.037 -5.654,-5.783 -5.654,-9.833c0,-4.05 2.154,-7.796 5.654,-9.834c31.15,-18.125 96.871,-56.366 123.375,-71.787Z" style="fill:#cd5752;"/><path d="M458.329,-31.7c7.075,-4.113 15.813,-4.113 22.884,0c26.504,15.421 92.224,53.663 123.379,71.788c3.496,2.037 5.65,5.783 5.65,9.833c-0,4.05 -2.154,7.796 -5.65,9.833c-31.154,18.121 -96.875,56.367 -123.379,71.784c-7.071,4.116 -15.809,4.116 -22.884,-0.001c-26.504,-15.416 -92.225,-53.662 -123.375,-71.783c-3.504,-2.037 -5.654,-5.783 -5.654,-9.833c0,-4.05 2.15,-7.796 5.654,-9.834c31.15,-18.125 96.871,-56.366 123.375,-71.787Z" style="fill:#ffc040;"/><path d="M440.254,-31.7c7.075,-4.113 15.808,-4.113 22.884,0c26.504,15.421 92.225,53.663 123.375,71.788c3.504,2.037 5.658,5.783 5.658,9.833c-0,4.05 -2.154,7.796 -5.659,9.833c-31.149,18.121 -96.87,56.367 -123.375,71.784c-7.075,4.116 -15.808,4.116 -22.883,-0.001c-26.504,-15.416 -92.225,-53.662 -123.375,-71.783c-3.5,-2.037 -5.654,-5.783 -5.654,-9.833c-0,-4.05 2.154,-7.796 5.654,-9.834c31.15,-18.125 96.871,-56.366 123.375,-71.787Z" style="fill:#cd5752;"/><path d="M422.179,-31.7c7.071,-4.113 15.808,-4.113 22.883,0c26.505,15.421 92.226,53.663 123.376,71.788c3.504,2.037 5.654,5.783 5.654,9.833c-0,4.05 -2.15,7.796 -5.654,9.833c-31.15,18.121 -96.871,56.367 -123.375,71.784c-7.075,4.116 -15.813,4.116 -22.884,-0.001c-26.504,-15.416 -92.225,-53.662 -123.379,-71.783c-3.496,-2.037 -5.65,-5.783 -5.65,-9.833c0,-4.05 2.154,-7.796 5.65,-9.834c31.154,-18.125 96.875,-56.366 123.379,-71.787Z" style="fill:#ffc040;"/><path d="M404.104,-31.7c7.075,-4.113 15.813,-4.113 22.884,0c26.504,15.421 92.225,53.663 123.379,71.788c3.495,2.037 5.65,5.783 5.65,9.833c-0,4.05 -2.154,7.796 -5.65,9.833c-31.154,18.121 -96.875,56.367 -123.379,71.784c-7.071,4.116 -15.809,4.116 -22.884,-0.001c-26.504,-15.416 -92.225,-53.662 -123.375,-71.783c-3.504,-2.037 -5.654,-5.783 -5.654,-9.833c0,-4.05 2.15,-7.796 5.654,-9.834c31.15,-18.125 96.871,-56.366 123.375,-71.787Z" style="fill:#cd5752;"/><path d="M386.029,-31.7c7.075,-4.113 15.809,-4.113 22.884,0c26.504,15.421 92.225,53.663 123.375,71.788c3.5,2.037 5.654,5.783 5.654,9.833c-0,4.05 -2.154,7.796 -5.654,9.833c-31.15,18.121 -96.871,56.367 -123.375,71.784c-7.075,4.116 -15.809,4.116 -22.884,-0.001c-26.504,-15.416 -92.225,-53.662 -123.375,-71.783c-3.504,-2.037 -5.658,-5.783 -5.658,-9.833c-0,-4.05 2.154,-7.796 5.658,-9.834c31.15,-18.125 96.871,-56.366 123.375,-71.787Z" style="fill:#ffc040;"/><path d="M367.954,-31.7c7.071,-4.113 15.808,-4.113 22.884,0c26.504,15.421 92.225,53.663 123.375,71.788c3.504,2.037 5.654,5.783 5.654,9.833c-0,4.05 -2.15,7.796 -5.654,9.833c-31.15,18.121 -96.871,56.367 -123.375,71.784c-7.075,4.116 -15.813,4.116 -22.884,-0.001c-26.504,-15.416 -92.225,-53.662 -123.379,-71.783c-3.496,-2.037 -5.65,-5.783 -5.65,-9.833c0,-4.05 2.154,-7.796 5.65,-9.834c31.154,-18.125 96.875,-56.366 123.379,-71.787Z" style="fill:#cd5752;"/><path d="M349.879,-31.7c7.071,-4.113 15.808,-4.113 22.884,0c26.504,15.421 92.225,53.663 123.375,71.788c3.5,2.037 5.654,5.783 5.654,9.833c-0,4.05 -2.154,7.796 -5.654,9.833c-31.15,18.121 -96.871,56.367 -123.375,71.784c-7.075,4.116 -15.813,4.116 -22.884,-0.001c-26.504,-15.416 -92.225,-53.662 -123.375,-71.783c-3.504,-2.037 -5.654,-5.783 -5.654,-9.833c0,-4.05 2.15,-7.796 5.654,-9.834c31.15,-18.125 96.871,-56.366 123.375,-71.787Z" style="fill:#ffc040;"/><path d="M331.804,-31.7c7.071,-4.113 15.808,-4.113 22.883,0c26.505,15.421 92.226,53.663 123.376,71.788c3.5,2.037 5.654,5.783 5.654,9.833c-0,4.05 -2.154,7.796 -5.654,9.833c-31.15,18.121 -96.871,56.367 -123.375,71.784c-7.075,4.116 -15.813,4.116 -22.884,-0.001c-26.504,-15.416 -92.225,-53.662 -123.375,-71.783c-3.504,-2.037 -5.658,-5.783 -5.658,-9.833c-0,-4.05 2.154,-7.796 5.658,-9.834c31.15,-18.125 96.871,-56.366 123.375,-71.787Z" style="fill:#cd5752;"/><path d="M313.729,-31.7c7.071,-4.113 15.809,-4.113 22.879,0c26.509,15.421 92.23,53.663 123.38,71.788c3.5,2.037 5.654,5.783 5.654,9.833c-0,4.05 -2.154,7.796 -5.654,9.833c-31.15,18.121 -96.871,56.367 -123.38,71.784c-7.07,4.116 -15.808,4.116 -22.879,-0.001c-26.504,-15.416 -92.225,-53.662 -123.379,-71.783c-3.496,-2.037 -5.65,-5.783 -5.65,-9.833c0,-4.05 2.154,-7.796 5.65,-9.834c31.154,-18.125 96.875,-56.366 123.379,-71.787Z" style="fill:#ffc040;"/><path d="M295.654,-31.7c7.071,-4.113 15.808,-4.113 22.884,0c26.504,15.421 92.225,53.663 123.375,71.788c3.5,2.037 5.654,5.783 5.654,9.833c-0,4.05 -2.154,7.796 -5.654,9.833c-31.15,18.121 -96.871,56.367 -123.375,71.784c-7.075,4.116 -15.813,4.116 -22.884,-0.001c-26.504,-15.416 -92.229,-53.662 -123.379,-71.783c-3.5,-2.037 -5.65,-5.783 -5.65,-9.833c0,-4.05 2.15,-7.796 5.65,-9.834c31.15,-18.125 96.875,-56.366 123.379,-71.787Z" style="fill:#cd5752;"/><path d="M277.579,-31.7c7.071,-4.113 15.808,-4.113 22.884,0c26.504,15.421 92.22,53.663 123.375,71.788c3.5,2.037 5.654,5.783 5.654,9.833c-0,4.05 -2.154,7.796 -5.654,9.833c-31.155,18.121 -96.871,56.367 -123.375,71.784c-7.075,4.116 -15.813,4.116 -22.884,-0.001c-26.504,-15.416 -92.225,-53.662 -123.375,-71.783c-3.504,-2.037 -5.658,-5.783 -5.658,-9.833c-0,-4.05 2.154,-7.796 5.658,-9.834c31.15,-18.125 96.871,-56.366 123.375,-71.787Z" style="fill:#ffc040;"/><path d="M259.504,-31.7c7.071,-4.113 15.809,-4.113 22.879,0c26.509,15.421 92.229,53.663 123.379,71.788c3.5,2.037 5.655,5.783 5.655,9.833c-0,4.05 -2.154,7.796 -5.655,9.833c-31.15,18.121 -96.87,56.367 -123.379,71.784c-7.071,4.116 -15.808,4.116 -22.879,-0.001c-26.508,-15.416 -92.225,-53.662 -123.379,-71.783c-3.5,-2.037 -5.654,-5.783 -5.654,-9.833c-0,-4.05 2.154,-7.796 5.654,-9.834c31.154,-18.125 96.871,-56.366 123.379,-71.787Z" style="fill:#cd5752;"/><path d="M241.429,-31.7c7.071,-4.113 15.809,-4.113 22.879,0c26.509,15.421 92.23,53.663 123.38,71.788c3.5,2.037 5.654,5.783 5.654,9.833c-0,4.05 -2.154,7.796 -5.654,9.833c-31.15,18.121 -96.871,56.367 -123.38,71.784c-7.07,4.116 -15.808,4.116 -22.879,-0.001c-26.504,-15.416 -92.229,-53.662 -123.379,-71.783c-3.5,-2.037 -5.65,-5.783 -5.65,-9.833c0,-4.05 2.15,-7.796 5.65,-9.834c31.15,-18.125 96.875,-56.366 123.379,-71.787Z" style="fill:#ffc040;"/><path d="M223.354,-31.7c7.071,-4.113 15.808,-4.113 22.879,0c26.509,15.421 92.225,53.663 123.38,71.788c3.5,2.037 5.654,5.783 5.654,9.833c-0,4.05 -2.154,7.796 -5.654,9.833c-31.155,18.121 -96.871,56.367 -123.38,71.784c-7.071,4.116 -15.808,4.116 -22.879,-0.001c-26.504,-15.416 -92.229,-53.662 -123.379,-71.783c-3.5,-2.037 -5.654,-5.783 -5.654,-9.833c-0,-4.05 2.154,-7.796 5.654,-9.834c31.15,-18.125 96.875,-56.366 123.379,-71.787Z" style="fill:#cd5752;"/><path d="M205.279,-31.7c7.071,-4.113 15.809,-4.113 22.879,0c26.509,15.421 92.225,53.663 123.38,71.788c3.5,2.037 5.654,5.783 5.654,9.833c-0,4.05 -2.154,7.796 -5.654,9.833c-31.155,18.121 -96.871,56.367 -123.38,71.784c-7.071,4.116 -15.808,4.116 -22.879,-0.001c-26.508,-15.416 -92.225,-53.662 -123.379,-71.783c-3.5,-2.037 -5.654,-5.783 -5.654,-9.833c-0,-4.05 2.154,-7.796 5.654,-9.834c31.154,-18.125 96.871,-56.366 123.379,-71.787Z" style="fill:#ffc040;"/><path d="M187.204,-31.7c7.071,-4.113 15.809,-4.113 22.879,0c26.505,15.421 92.23,53.663 123.38,71.788c3.5,2.037 5.654,5.783 5.654,9.833c-0,4.05 -2.154,7.796 -5.654,9.833c-31.15,18.121 -96.875,56.367 -123.38,71.784c-7.071,4.116 -15.808,4.116 -22.879,-0.001c-26.508,-15.416 -92.229,-53.662 -123.379,-71.783c-3.5,-2.037 -5.654,-5.783 -5.654,-9.833c-0,-4.05 2.154,-7.796 5.654,-9.834c31.15,-18.125 96.871,-56.366 123.379,-71.787Z" style="fill:#cd5752;"/><path d="M169.129,-31.7c7.071,-4.113 15.809,-4.113 22.879,0c26.509,15.421 92.225,53.663 123.38,71.788c3.5,2.037 5.654,5.783 5.654,9.833c-0,4.05 -2.154,7.796 -5.654,9.833c-31.155,18.121 -96.871,56.367 -123.38,71.784c-7.071,4.116 -15.808,4.116 -22.879,-0.001c-26.504,-15.416 -92.229,-53.662 -123.379,-71.783c-3.5,-2.037 -5.654,-5.783 -5.654,-9.833c-0,-4.05 2.154,-7.796 5.654,-9.834c31.15,-18.125 96.875,-56.366 123.379,-71.787Z" style="fill:#ffc040;"/><path d="M151.054,-31.7c7.071,-4.113 15.809,-4.113 22.879,0c26.505,15.421 92.225,53.663 123.375,71.788c3.505,2.037 5.659,5.783 5.659,9.833c-0,4.05 -2.154,7.796 -5.659,9.833c-31.15,18.121 -96.87,56.367 -123.375,71.784c-7.07,4.116 -15.808,4.116 -22.879,-0.001c-26.508,-15.416 -92.225,-53.662 -123.379,-71.783c-3.5,-2.037 -5.654,-5.783 -5.654,-9.833c-0,-4.05 2.154,-7.796 5.654,-9.834c31.154,-18.125 96.871,-56.366 123.379,-71.787Z" style="fill:#cd5752;"/><path d="M132.975,-31.7c7.075,-4.113 15.813,-4.113 22.883,0c26.504,15.421 92.23,53.663 123.38,71.788c3.5,2.037 5.654,5.783 5.654,9.833c-0,4.05 -2.154,7.796 -5.654,9.833c-31.15,18.121 -96.876,56.367 -123.38,71.784c-7.071,4.116 -15.808,4.116 -22.883,-0.001c-26.504,-15.416 -92.225,-53.662 -123.375,-71.783c-3.5,-2.037 -5.654,-5.783 -5.654,-9.833c-0,-4.05 2.154,-7.796 5.654,-9.834c31.15,-18.125 96.871,-56.366 123.375,-71.787Z" style="fill:#ffc040;"/><path d="M114.904,-31.7c7.071,-4.113 15.809,-4.113 22.879,0c26.505,15.421 92.225,53.663 123.38,71.788c3.495,2.037 5.649,5.783 5.649,9.833c0,4.05 -2.154,7.796 -5.649,9.833c-31.155,18.121 -96.876,56.367 -123.38,71.784c-7.071,4.116 -15.808,4.116 -22.879,-0.001c-26.508,-15.416 -92.229,-53.662 -123.379,-71.783c-3.5,-2.037 -5.654,-5.783 -5.654,-9.833c-0,-4.05 2.154,-7.796 5.654,-9.834c31.15,-18.125 96.871,-56.366 123.379,-71.787Z" style="fill:#cd5752;"/><path d="M96.829,-31.7c7.071,-4.113 15.809,-4.113 22.879,0c26.504,15.421 92.225,53.663 123.375,71.788c3.505,2.037 5.659,5.783 5.659,9.833c-0,4.05 -2.155,7.796 -5.659,9.833c-31.15,18.121 -96.87,56.367 -123.375,71.784c-7.07,4.116 -15.808,4.116 -22.879,-0.001c-26.508,-15.416 -92.229,-53.662 -123.379,-71.783c-3.5,-2.037 -5.654,-5.783 -5.654,-9.833c-0,-4.05 2.154,-7.796 5.654,-9.834c31.15,-18.125 96.871,-56.366 123.379,-71.787Z" style="fill:#ffc040;"/><path d="M78.75,-31.7c7.071,-4.113 15.808,-4.113 22.883,0c26.505,15.421 92.225,53.663 123.375,71.788c3.505,2.037 5.655,5.783 5.655,9.833c-0,4.05 -2.15,7.796 -5.655,9.833c-31.15,18.121 -96.87,56.367 -123.375,71.784c-7.075,4.116 -15.812,4.116 -22.883,-0.001c-26.504,-15.416 -92.225,-53.662 -123.375,-71.783c-3.5,-2.037 -5.654,-5.783 -5.654,-9.833c-0,-4.05 2.154,-7.796 5.654,-9.834c31.15,-18.125 96.871,-56.366 123.375,-71.787Z" style="fill:#cd5752;"/><g><path d="M60.354,-31.7c7.071,-4.113 15.809,-4.113 22.884,0c26.504,15.421 92.225,53.663 123.375,71.788c3.504,2.037 5.654,5.783 5.654,9.833c-0,4.05 -2.15,7.796 -5.654,9.833c-31.15,18.121 -96.871,56.367 -123.375,71.784c-7.075,4.116 -15.813,4.116 -22.884,-0.001c-26.504,-15.416 -92.225,-53.662 -123.379,-71.783c-3.496,-2.037 -5.65,-5.783 -5.65,-9.833c0,-4.05 2.154,-7.796 5.65,-9.834c31.154,-18.125 96.875,-56.366 123.379,-71.787Z" style="fill:#ffc040;"/><path d="M61.913,-20.583c6.112,-3.555 13.658,-3.555 19.766,-0c22.896,13.32 79.667,46.354 106.571,62.012c3.025,1.758 4.883,4.992 4.883,8.492c0,3.496 -1.858,6.733 -4.883,8.491c-26.904,15.659 -83.675,48.688 -106.571,62.013c-6.108,3.554 -13.654,3.554 -19.766,-0c-22.896,-13.325 -79.663,-46.354 -106.571,-62.013c-3.025,-1.758 -4.884,-4.995 -4.884,-8.491c0,-3.5 1.859,-6.734 4.884,-8.492c26.908,-15.658 83.675,-48.692 106.571,-62.012Z" style="fill:#cd5752;"/><path d="M72.792,-7.838c5.171,-2.912 11.562,-2.912 16.737,0c19.396,10.913 67.479,37.971 90.271,50.796c2.563,1.446 4.138,4.092 4.138,6.959c-0,2.866 -1.576,5.516 -4.138,6.958c-22.792,12.825 -70.875,39.883 -90.271,50.8c-5.175,2.908 -11.566,2.908 -16.737,-0c-7.638,-4.296 -58.863,7.237 -72.1,-0.213c-20.379,-11.466 -4.354,-42.812 -18.171,-50.587c-2.563,-1.442 -4.138,-4.092 -4.138,-6.958c0,-2.867 1.575,-5.513 4.138,-6.959c20.037,-11.275 0.304,-38.446 22.758,-51.079c3.084,-1.737 65.167,1.6 67.513,0.283Z" style="fill:#fff9f9;"/><g><path d="M93.238,59.925c2.629,-2.629 4.108,-6.2 4.108,-9.917c-0,-3.725 -1.479,-7.296 -4.109,-9.925c-8.32,-8.316 -20.137,-20.137 -28.458,-28.454c-2.629,-2.633 -6.2,-4.112 -9.921,-4.112c-3.721,-0 -7.291,1.479 -9.921,4.112c-8.316,8.317 -20.137,20.138 -28.454,28.454c-2.633,2.63 -4.112,6.2 -4.112,9.925c-0,3.717 1.479,7.288 4.112,9.917c8.317,8.321 20.138,20.137 28.454,28.458c2.63,2.629 6.2,4.109 9.921,4.109c3.721,-0 7.292,-1.48 9.921,-4.109c8.321,-8.321 20.138,-20.137 28.458,-28.458Z" style="fill:#cd5752;"/><g><path d="M73.925,44.3c0,-0.867 -0.704,-1.571 -1.575,-1.571l-34.983,0c-0.867,0 -1.571,0.704 -1.571,1.571l-0,0.004c-0,0.871 0.704,1.571 1.571,1.571l34.983,0c0.871,0 1.575,-0.7 1.575,-1.571l0,-0.004Z" style="fill:#fff9f9;"/><path d="M46.667,41.579c-0,0.242 -0.196,0.438 -0.438,0.438l-2.033,-0c-0.488,-0 -0.879,-0.392 -0.879,-0.88l-0,-0.97c-0,-0.117 0.045,-0.225 0.129,-0.309c0.083,-0.083 0.196,-0.129 0.312,-0.129l2.813,0c0.021,0 0.05,0.008 0.067,0.029c0.02,0.021 0.029,0.046 0.029,0.071l-0,1.75Zm1.171,0.438c-0.117,-0 -0.23,-0.046 -0.309,-0.125c-0.083,-0.084 -0.129,-0.2 -0.129,-0.313l-0,-12.792c-0,-0.766 0.621,-1.391 1.392,-1.391l12.137,-0c0.767,-0 1.392,0.625 1.392,1.391l-0,12.792c-0,0.113 -0.046,0.229 -0.129,0.313c-0.084,0.079 -0.196,0.125 -0.313,0.125l-14.042,-0Zm18.125,-2.288c0.117,0 0.23,0.046 0.309,0.129c0.083,0.084 0.129,0.192 0.129,0.309l-0,0.971c-0,0.487 -0.392,0.879 -0.875,0.879l-2.033,-0c-0.242,-0 -0.442,-0.196 -0.442,-0.438l-0,-1.412c-0,-0.117 0.05,-0.225 0.129,-0.309c0.083,-0.083 0.196,-0.129 0.313,-0.129l2.47,0Zm-11.104,0.258c0.325,0 0.592,0.267 0.592,0.592c-0,0.325 -0.267,0.592 -0.592,0.592c-0.325,-0 -0.591,-0.267 -0.591,-0.592c-0,-0.325 0.266,-0.592 0.591,-0.592Zm-2.062,0c0.325,0 0.591,0.267 0.591,0.592c0,0.325 -0.266,0.592 -0.591,0.592c-0.325,-0 -0.592,-0.267 -0.592,-0.592c0,-0.325 0.267,-0.592 0.592,-0.592Zm4.125,0c0.329,0 0.591,0.267 0.591,0.592c0,0.325 -0.262,0.592 -0.591,0.592c-0.325,-0 -0.592,-0.267 -0.592,-0.592c0,-0.325 0.267,-0.592 0.592,-0.592Zm-2.063,-2.058c0.325,0 0.592,0.263 0.592,0.592c-0,0.325 -0.267,0.591 -0.592,0.591c-0.325,0 -0.591,-0.266 -0.591,-0.591c-0,-0.329 0.266,-0.592 0.591,-0.592Zm-2.062,0c0.325,0 0.591,0.263 0.591,0.592c0,0.325 -0.266,0.591 -0.591,0.591c-0.325,0 -0.592,-0.266 -0.592,-0.591c0,-0.329 0.267,-0.592 0.592,-0.592Zm4.125,0c0.329,0 0.591,0.263 0.591,0.592c0,0.325 -0.262,0.591 -0.591,0.591c-0.325,0 -0.592,-0.266 -0.592,-0.591c0,-0.329 0.267,-0.592 0.592,-0.592Zm-13.604,-2.592c-0,-0.116 0.045,-0.229 0.129,-0.308c0.083,-0.083 0.196,-0.129 0.312,-0.129l2.813,-0c0.021,-0 0.05,0.008 0.066,0.029c0.021,0.017 0.03,0.042 0.03,0.067l-0,3.904c-0,0.054 -0.046,0.096 -0.096,0.096l-2.813,-0c-0.116,-0 -0.229,-0.046 -0.312,-0.129c-0.084,-0.08 -0.129,-0.192 -0.129,-0.309l-0,-3.221Zm23.083,3.221c-0,0.117 -0.046,0.229 -0.129,0.309c-0.079,0.083 -0.192,0.129 -0.309,0.129l-2.47,-0c-0.117,-0 -0.23,-0.046 -0.313,-0.129c-0.079,-0.08 -0.129,-0.192 -0.129,-0.309l-0,-3.221c-0,-0.116 0.05,-0.229 0.129,-0.308c0.083,-0.083 0.196,-0.129 0.313,-0.129l2.47,-0c0.117,-0 0.23,0.046 0.309,0.129c0.083,0.079 0.129,0.192 0.129,0.308l-0,3.221Zm-11.542,-2.691c0.325,-0 0.592,0.262 0.592,0.591c-0,0.329 -0.267,0.592 -0.592,0.592c-0.325,-0 -0.591,-0.263 -0.591,-0.592c-0,-0.329 0.266,-0.591 0.591,-0.591Zm-2.062,-0c0.325,-0 0.591,0.262 0.591,0.591c0,0.329 -0.266,0.592 -0.591,0.592c-0.325,-0 -0.592,-0.263 -0.592,-0.592c0,-0.329 0.267,-0.591 0.592,-0.591Zm4.125,-0c0.329,-0 0.591,0.262 0.591,0.591c0,0.329 -0.262,0.592 -0.591,0.592c-0.325,-0 -0.592,-0.263 -0.592,-0.592c0,-0.329 0.267,-0.591 0.592,-0.591Zm-2.063,-2.063c0.325,0 0.592,0.267 0.592,0.592c-0,0.329 -0.267,0.596 -0.592,0.596c-0.325,-0 -0.591,-0.267 -0.591,-0.596c-0,-0.325 0.266,-0.592 0.591,-0.592Zm-2.062,0c0.325,0 0.591,0.267 0.591,0.592c0,0.329 -0.266,0.596 -0.591,0.596c-0.325,-0 -0.592,-0.267 -0.592,-0.596c0,-0.325 0.267,-0.592 0.592,-0.592Zm4.125,0c0.329,0 0.591,0.267 0.591,0.592c0,0.329 -0.262,0.596 -0.591,0.596c-0.325,-0 -0.592,-0.267 -0.592,-0.596c0,-0.325 0.267,-0.592 0.592,-0.592Zm9.479,-0.075c0,0.117 -0.046,0.225 -0.129,0.308c-0.079,0.084 -0.192,0.13 -0.308,0.13l-2.471,-0c-0.117,-0 -0.229,-0.046 -0.313,-0.13c-0.079,-0.083 -0.129,-0.191 -0.129,-0.308l0,-3.442c0,-0.05 0.046,-0.095 0.1,-0.095l0,-0.005l2.813,0c0.116,0 0.229,0.05 0.308,0.13c0.083,0.083 0.129,0.195 0.129,0.312l0,3.1Zm-23.083,-3.1c-0,-0.117 0.045,-0.229 0.129,-0.312c0.083,-0.08 0.196,-0.13 0.312,-0.13l2.471,0c0.113,0 0.225,0.05 0.309,0.13c0.083,0.083 0.129,0.195 0.129,0.312l-0,3.438c-0,0.054 -0.046,0.1 -0.096,0.1l-2.813,-0c-0.116,-0 -0.229,-0.046 -0.312,-0.13c-0.083,-0.083 -0.129,-0.191 -0.129,-0.308l-0,-3.1Zm9.479,1.117c0.325,-0 0.592,0.266 0.592,0.591c-0,0.325 -0.267,0.592 -0.592,0.592c-0.325,0 -0.592,-0.267 -0.592,-0.592c0,-0.325 0.267,-0.591 0.592,-0.591Zm2.062,-0c0.325,-0 0.592,0.266 0.592,0.591c0,0.325 -0.267,0.592 -0.592,0.592c-0.325,0 -0.591,-0.267 -0.591,-0.592c-0,-0.325 0.266,-0.591 0.591,-0.591Zm2.063,-0c0.329,-0 0.592,0.266 0.592,0.591c-0,0.325 -0.263,0.592 -0.592,0.592c-0.325,0 -0.592,-0.267 -0.592,-0.592c0,-0.325 0.267,-0.591 0.592,-0.591Zm-0,-2.063c0.329,0 0.592,0.267 0.592,0.592c-0,0.329 -0.263,0.592 -0.592,0.592c-0.325,-0 -0.592,-0.263 -0.592,-0.592c0,-0.325 0.267,-0.592 0.592,-0.592Zm-4.125,0c0.325,0 0.592,0.267 0.592,0.592c-0,0.329 -0.267,0.592 -0.592,0.592c-0.325,-0 -0.592,-0.263 -0.592,-0.592c0,-0.325 0.267,-0.592 0.592,-0.592Zm2.062,0c0.325,0 0.592,0.267 0.592,0.592c0,0.329 -0.267,0.592 -0.592,0.592c-0.325,-0 -0.591,-0.263 -0.591,-0.592c-0,-0.325 0.266,-0.592 0.591,-0.592Zm10.804,-4.916c0.121,-0.125 0.309,-0.163 0.471,-0.096c0.163,0.066 0.267,0.225 0.267,0.4l0,3.946c0,0.116 -0.046,0.229 -0.129,0.312c-0.079,0.083 -0.192,0.129 -0.308,0.129l-2.813,0c-0.029,0 -0.05,-0.012 -0.071,-0.029c-0.016,-0.017 -0.029,-0.042 -0.029,-0.071l0,-0.571c0,-0.3 -0.062,-0.583 -0.171,-0.837c-0.075,-0.167 -0.037,-0.358 0.088,-0.488c0.537,-0.541 1.925,-1.933 2.696,-2.695Zm-22.346,0.304c-0,-0.175 0.108,-0.334 0.266,-0.4c0.163,-0.067 0.35,-0.029 0.475,0.096c0.767,0.762 2.155,2.154 2.696,2.691c0.129,0.134 0.163,0.325 0.088,0.492c-0.113,0.254 -0.175,0.537 -0.175,0.837l-0,0.23c-0,0.116 -0.046,0.229 -0.129,0.312c-0.084,0.083 -0.196,0.129 -0.309,0.129l-2.471,0c-0.116,0 -0.229,-0.046 -0.312,-0.129c-0.083,-0.083 -0.129,-0.196 -0.129,-0.312l-0,-3.946Zm16.741,-1.317c0,-0.117 0.046,-0.229 0.13,-0.312c0.079,-0.08 0.191,-0.125 0.308,-0.125l4.15,-0c0.146,-0 0.296,0.016 0.437,0.054c0.15,0.037 0.271,0.154 0.313,0.304c0.042,0.146 -0,0.308 -0.113,0.417c-0.716,0.733 -2.187,2.2 -2.775,2.787c-0.141,0.142 -0.362,0.171 -0.537,0.067c-0.304,-0.179 -0.663,-0.284 -1.042,-0.284l-0.433,0c-0.117,0 -0.229,-0.045 -0.308,-0.129c-0.084,-0.079 -0.13,-0.191 -0.13,-0.308l0,-2.471Zm-10.837,-0.437c0.117,-0 0.229,0.045 0.312,0.125c0.084,0.083 0.13,0.195 0.13,0.312l-0,2.471c-0,0.117 -0.046,0.229 -0.13,0.308c-0.083,0.084 -0.195,0.129 -0.312,0.129l-0.429,0c-0.384,0 -0.742,0.105 -1.05,0.28c-0.171,0.1 -0.388,0.075 -0.529,-0.067c-0.592,-0.583 -2.059,-2.05 -2.784,-2.779c-0.116,-0.109 -0.158,-0.271 -0.116,-0.425c0.041,-0.154 0.162,-0.271 0.32,-0.309c0.142,-0.029 0.288,-0.045 0.442,-0.045l4.146,-0Zm6.004,0.437c0,-0.117 0.046,-0.229 0.129,-0.312c0.079,-0.08 0.192,-0.125 0.309,-0.125l3.225,-0c0.116,-0 0.225,0.045 0.308,0.125c0.083,0.083 0.129,0.195 0.129,0.312l0,2.471c0,0.117 -0.046,0.229 -0.129,0.308c-0.083,0.084 -0.192,0.129 -0.308,0.129l-3.225,0c-0.117,0 -0.23,-0.045 -0.309,-0.129c-0.083,-0.079 -0.129,-0.191 -0.129,-0.308l0,-2.471Zm-4.833,0c-0,-0.117 0.046,-0.229 0.129,-0.312c0.083,-0.08 0.196,-0.125 0.312,-0.125l3.221,-0c0.117,-0 0.225,0.045 0.309,0.125c0.083,0.083 0.129,0.195 0.129,0.312l-0,2.471c-0,0.117 -0.046,0.229 -0.129,0.308c-0.084,0.084 -0.192,0.129 -0.309,0.129l-3.221,0c-0.116,0 -0.229,-0.045 -0.312,-0.129c-0.083,-0.079 -0.129,-0.191 -0.129,-0.308l-0,-2.471Z" style="fill:#fff9f9;"/><path d="M73.233,67.454c-0.225,-0.175 -0.525,-0.229 -0.8,-0.137c-0.275,0.087 -0.483,0.312 -0.558,0.587c-2.313,8.65 -9.721,8.65 -17.129,8.65c-8.925,0 -17.846,0 -17.846,-15.112l0,-13.105c0,-0.466 0.183,-0.912 0.513,-1.241c0.329,-0.334 0.775,-0.517 1.241,-0.517l32.179,0c0.467,0 0.913,0.183 1.246,0.517c0.329,0.329 0.513,0.775 0.513,1.241l-0,5.905c-0,0.32 0.17,0.612 0.45,0.766c0.279,0.154 0.616,0.15 0.887,-0.016c1.104,-0.667 2.396,-1.046 3.775,-1.046c4.138,-0 7.496,3.358 7.496,7.496c-0,4.137 -3.358,7.495 -7.496,7.495c-1.675,0 -3.221,-0.554 -4.471,-1.483Zm-10.633,-3.408c0.25,-0 0.488,0.104 0.654,0.287c0.167,0.184 0.246,0.434 0.221,0.675c-0.487,4.334 -4.162,7.704 -8.621,7.704c-4.454,0 -8.133,-3.37 -8.612,-7.704c-0.025,-0.241 0.054,-0.487 0.225,-0.671c0.162,-0.183 0.396,-0.287 0.641,-0.287c3.005,-0.004 12.492,-0.004 15.492,-0.004Zm15.104,-7.717c2.821,0 5.113,2.292 5.113,5.113c-0,2.82 -2.292,5.112 -5.113,5.112c-2.821,0 -5.112,-2.291 -5.112,-5.112c-0,-2.821 2.291,-5.113 5.112,-5.113Zm-10.075,-1.9c0.013,-0.2 0.175,-0.35 0.371,-0.35c0.096,-0.004 0.2,-0.004 0.3,-0.004c0.104,0 0.204,0.038 0.275,0.113c0.071,0.079 0.108,0.179 0.104,0.283c-0.208,2.687 -2.458,4.812 -5.2,4.812c-2.741,0 -4.991,-2.125 -5.196,-4.816c-0.004,-0.1 0.034,-0.2 0.105,-0.271c0.07,-0.075 0.166,-0.117 0.266,-0.117c0.1,-0.004 0.204,-0.004 0.304,-0.004c0.2,0 0.363,0.154 0.375,0.354c0.175,2.154 1.963,3.85 4.146,3.85c2.179,0 3.971,-1.696 4.15,-3.85Zm-17.241,0c0.012,-0.2 0.175,-0.35 0.37,-0.35c0.096,-0.004 0.2,-0.004 0.3,-0.004c0.105,0 0.205,0.038 0.275,0.113c0.071,0.079 0.109,0.179 0.1,0.283c-0.208,2.687 -2.454,4.812 -5.2,4.812c-2.737,0 -4.987,-2.125 -5.191,-4.816c-0.004,-0.1 0.033,-0.2 0.104,-0.271c0.071,-0.075 0.167,-0.117 0.267,-0.117c0.1,-0.004 0.204,-0.004 0.3,-0.004c0.2,0 0.366,0.154 0.379,0.354c0.171,2.154 1.962,3.85 4.141,3.85c2.184,0 3.975,-1.696 4.155,-3.85Z" style="fill:#fff9f9;"/></g></g><path d="M27.613,33.954l2.804,2.804" style="fill:none;"/><path d="M43.275,33.954l-2.804,2.804" style="fill:none;"/></g></g><g><g><g><path d="M98.584,21.115c0,-0 -0.134,0.523 -0.402,1.57l0.537,-0c0.076,-0 0.125,0.016 0.149,0.049c0.023,0.033 0.023,0.091 -0,0.174l-0.07,0.263c-0.043,0.149 -0.131,0.224 -0.263,0.224l-0.532,-0l-1.078,4.233c-0.04,0.149 -0.141,0.223 -0.303,0.223l-0.194,0c-0.109,0 -0.186,-0.031 -0.231,-0.094c-0.045,-0.063 -0.057,-0.141 -0.037,-0.234l1.053,-4.128l-0.397,-0c-0.07,-0 -0.115,-0.017 -0.137,-0.052c-0.021,-0.035 -0.021,-0.099 0.003,-0.191l0.079,-0.274c0.037,-0.129 0.111,-0.193 0.224,-0.193l0.412,-0l0.402,-1.58c0.04,-0.149 0.143,-0.224 0.308,-0.224l0.254,0c0.185,0 0.26,0.078 0.223,0.234Z" style="fill:#cd5752;fill-rule:nonzero;"/><path d="M98.823,27.851l-0.124,0c-0.123,0 -0.208,-0.03 -0.256,-0.092c-0.048,-0.061 -0.061,-0.139 -0.037,-0.236l1.863,-7.169c0.039,-0.149 0.14,-0.223 0.303,-0.223l0.233,-0c0.186,-0 0.26,0.078 0.224,0.233l-1.262,4.964l0.929,-1.536c0.218,-0.367 0.448,-0.644 0.688,-0.829c0.24,-0.186 0.445,-0.278 0.614,-0.278l0.213,-0c0.288,-0 0.424,0.139 0.408,0.417c-0.007,0.112 -0.029,0.265 -0.065,0.457l-1.138,4.148c-0.02,0.096 -0.074,0.144 -0.164,0.144l-0.526,0c-0.037,0 -0.066,-0.019 -0.087,-0.059c-0.022,-0.04 -0.021,-0.101 0.002,-0.184l1.073,-3.493c0.05,-0.179 0.075,-0.298 0.075,-0.357c-0,-0.06 -0.023,-0.09 -0.07,-0.09c-0.046,0 -0.102,0.032 -0.166,0.095c-0.065,0.063 -0.153,0.173 -0.266,0.332c-0.136,0.202 -0.31,0.477 -0.524,0.823c-0.214,0.346 -0.518,0.832 -0.912,1.458c-0.394,0.626 -0.632,1.008 -0.715,1.147c-0.083,0.14 -0.129,0.217 -0.139,0.231c-0.01,0.015 -0.02,0.028 -0.03,0.038c-0.01,0.01 -0.02,0.018 -0.03,0.025c-0.01,0.006 -0.02,0.011 -0.03,0.015c-0.023,0.013 -0.051,0.019 -0.084,0.019Z" style="fill:#cd5752;fill-rule:nonzero;"/><path d="M103.647,25.785c0.689,-0.298 1.157,-0.703 1.406,-1.213c0.126,-0.261 0.189,-0.518 0.189,-0.77c-0,-0.251 -0.073,-0.377 -0.219,-0.377c-0.318,-0 -0.592,0.248 -0.822,0.745c-0.23,0.497 -0.415,1.035 -0.554,1.615Zm-0.129,0.67c-0.05,0.285 -0.047,0.485 0.01,0.599c0.056,0.114 0.145,0.186 0.268,0.216c0.252,-0.093 0.56,-0.346 0.924,-0.76c0.063,-0.063 0.131,-0.07 0.204,-0.02l0.193,0.119c0.04,0.024 0.069,0.059 0.087,0.107c0.019,0.048 0.019,0.087 0.003,0.117c-0.126,0.245 -0.364,0.506 -0.713,0.782c-0.349,0.277 -0.63,0.394 -0.842,0.351c-0.48,-0.116 -0.762,-0.368 -0.845,-0.756c-0.063,-0.308 -0.05,-0.72 0.038,-1.237c0.087,-0.516 0.25,-1.05 0.489,-1.599c0.348,-0.805 0.75,-1.314 1.207,-1.526c0.361,-0.168 0.692,-0.187 0.991,-0.054c0.3,0.132 0.45,0.462 0.45,0.988c-0,0.305 -0.075,0.605 -0.224,0.9c-0.268,0.526 -0.742,0.988 -1.421,1.386c-0.264,0.155 -0.538,0.285 -0.819,0.387Z" style="fill:#cd5752;fill-rule:nonzero;"/></g><g><g><path d="M112.426,49.935c0.588,0.206 1.048,0.526 1.381,0.962c0.333,0.436 0.5,0.963 0.5,1.58c-0,0.901 -0.362,1.596 -1.087,2.086c-0.725,0.49 -1.773,0.735 -3.144,0.735l-5.554,-0l-0,-10.285l5.26,0c1.312,0 2.311,0.242 2.997,0.727c0.686,0.485 1.028,1.139 1.028,1.962c0,0.489 -0.12,0.928 -0.36,1.315c-0.24,0.387 -0.58,0.693 -1.021,0.918Zm-5.024,-2.821l-0,1.984l1.998,-0c0.979,-0 1.469,-0.334 1.469,-1c-0,-0.656 -0.49,-0.984 -1.469,-0.984l-1.998,0Zm2.438,6.083c1.019,-0 1.528,-0.348 1.528,-1.044c0,-0.695 -0.509,-1.043 -1.528,-1.043l-2.438,0l-0,2.087l2.438,-0Z" style="fill:#41251d;fill-rule:nonzero;"/><rect x="115.82" y="45.013" width="2.909" height="10.285" style="fill:#41251d;fill-rule:nonzero;"/><path d="M124.415,55.503c-0.832,0 -1.64,-0.103 -2.424,-0.308c-0.784,-0.206 -1.42,-0.48 -1.91,-0.823l0.955,-2.145c0.46,0.304 0.994,0.548 1.601,0.735c0.608,0.186 1.205,0.279 1.793,0.279c1.117,-0 1.675,-0.279 1.675,-0.838c-0,-0.294 -0.159,-0.512 -0.478,-0.654c-0.318,-0.142 -0.83,-0.291 -1.535,-0.448c-0.774,-0.166 -1.42,-0.345 -1.939,-0.536c-0.52,-0.191 -0.965,-0.497 -1.337,-0.918c-0.373,-0.421 -0.559,-0.989 -0.559,-1.704c0,-0.627 0.172,-1.193 0.515,-1.697c0.342,-0.505 0.854,-0.904 1.535,-1.198c0.681,-0.294 1.516,-0.441 2.505,-0.441c0.676,0 1.342,0.076 1.998,0.228c0.656,0.152 1.234,0.375 1.734,0.669l-0.897,2.159c-0.979,-0.529 -1.929,-0.793 -2.85,-0.793c-0.578,-0 -0.999,0.086 -1.263,0.257c-0.265,0.171 -0.397,0.394 -0.397,0.669c-0,0.274 0.157,0.48 0.47,0.617c0.314,0.137 0.818,0.279 1.513,0.426c0.784,0.166 1.433,0.345 1.947,0.536c0.514,0.191 0.96,0.495 1.337,0.911c0.377,0.416 0.566,0.982 0.566,1.697c-0,0.617 -0.172,1.175 -0.514,1.675c-0.343,0.499 -0.857,0.898 -1.543,1.197c-0.686,0.299 -1.518,0.448 -2.498,0.448Z" style="fill:#41251d;fill-rule:nonzero;"/><path d="M135.434,55.503c-1.077,0 -2.044,-0.227 -2.901,-0.683c-0.857,-0.455 -1.531,-1.09 -2.021,-1.903c-0.489,-0.812 -0.734,-1.733 -0.734,-2.762c-0,-1.028 0.245,-1.949 0.734,-2.762c0.49,-0.813 1.164,-1.447 2.021,-1.902c0.857,-0.456 1.824,-0.684 2.901,-0.684c0.941,0 1.788,0.167 2.542,0.5c0.754,0.333 1.381,0.813 1.881,1.44l-1.851,1.675c-0.667,-0.804 -1.475,-1.205 -2.425,-1.205c-0.558,-0 -1.055,0.122 -1.491,0.367c-0.436,0.245 -0.774,0.59 -1.014,1.036c-0.24,0.446 -0.36,0.957 -0.36,1.535c0,0.578 0.12,1.09 0.36,1.536c0.24,0.445 0.578,0.791 1.014,1.035c0.436,0.245 0.933,0.368 1.491,0.368c0.95,-0 1.758,-0.402 2.425,-1.205l1.851,1.675c-0.5,0.627 -1.127,1.107 -1.881,1.44c-0.754,0.333 -1.601,0.499 -2.542,0.499Z" style="fill:#41251d;fill-rule:nonzero;"/><path d="M145.778,55.503c-1.528,0 -2.716,-0.416 -3.563,-1.249c-0.847,-0.832 -1.271,-2.012 -1.271,-3.54l-0,-5.701l2.909,0l0,5.613c0,1.645 0.651,2.468 1.954,2.468c1.293,-0 1.94,-0.823 1.94,-2.468l-0,-5.613l2.864,0l0,5.701c0,1.528 -0.423,2.708 -1.27,3.54c-0.848,0.833 -2.035,1.249 -3.563,1.249Z" style="fill:#41251d;fill-rule:nonzero;"/><rect x="152.58" y="45.013" width="2.909" height="10.285" style="fill:#41251d;fill-rule:nonzero;"/><path d="M159.75,47.32l-3.159,-0l0,-2.307l9.212,0l0,2.307l-3.144,-0l0,7.978l-2.909,-0l0,-7.978Z" style="fill:#41251d;fill-rule:nonzero;"/></g></g><g><path d="M99.206,69.652c0.441,-0 0.752,0.18 0.934,0.541c0.182,0.361 0.273,0.88 0.273,1.555c0,0.169 -0.056,0.27 -0.168,0.303l-0.358,0.115c-0.057,0.016 -0.111,0.006 -0.164,-0.03c-0.053,-0.037 -0.08,-0.098 -0.08,-0.184c0,-0.898 -0.145,-1.414 -0.437,-1.55c-0.136,-0.07 -0.298,-0.059 -0.487,0.032c-0.188,0.091 -0.381,0.31 -0.576,0.656c-0.195,0.346 -0.3,0.741 -0.313,1.185c-0.007,0.179 0.023,0.315 0.089,0.41c0.067,0.094 0.196,0.174 0.388,0.241l0.417,0.144c0.401,0.136 0.664,0.301 0.79,0.497c0.113,0.178 0.169,0.467 0.169,0.866c0,0.4 -0.107,0.828 -0.32,1.285c-0.214,0.457 -0.503,0.834 -0.867,1.13c-0.365,0.296 -0.745,0.445 -1.143,0.445c-0.801,-0 -1.202,-0.651 -1.202,-1.953l-0,-0.035c-0,-0.258 0.051,-0.4 0.154,-0.427l0.377,-0.119c0.067,-0.027 0.122,-0.022 0.167,0.015c0.045,0.036 0.067,0.096 0.067,0.179c-0,0.533 0.031,0.934 0.094,1.204c0.063,0.27 0.168,0.442 0.313,0.515c0.103,0.023 0.235,-0 0.398,-0.07c0.275,-0.122 0.521,-0.376 0.74,-0.76c0.268,-0.464 0.397,-0.989 0.387,-1.575c-0.003,-0.179 -0.102,-0.321 -0.298,-0.427c-0.099,-0.05 -0.24,-0.103 -0.422,-0.159l-0.427,-0.134c-0.192,-0.057 -0.358,-0.164 -0.497,-0.323c-0.139,-0.159 -0.209,-0.375 -0.209,-0.646c0,-0.272 0.056,-0.581 0.167,-0.927c0.111,-0.346 0.26,-0.668 0.447,-0.966c0.187,-0.298 0.422,-0.545 0.705,-0.74c0.284,-0.196 0.581,-0.293 0.892,-0.293Z" style="fill:#cd5752;fill-rule:nonzero;"/><path d="M102.122,76.061c0.467,-0.736 0.713,-1.547 0.736,-2.435c0.01,-0.397 -0.011,-0.664 -0.062,-0.8c-0.052,-0.136 -0.154,-0.206 -0.306,-0.211c-0.152,-0.005 -0.291,0.066 -0.415,0.214c-0.124,0.147 -0.244,0.342 -0.36,0.584c-0.308,0.635 -0.474,1.349 -0.497,2.141c-0.013,0.613 0.093,0.927 0.318,0.944c0.199,0.006 0.394,-0.139 0.586,-0.437Zm-1.728,-0.408c0.033,-0.914 0.221,-1.701 0.566,-2.36c0.149,-0.291 0.272,-0.502 0.368,-0.633c0.096,-0.131 0.212,-0.261 0.347,-0.39c0.282,-0.268 0.621,-0.399 1.019,-0.393c0.341,0.017 0.606,0.188 0.795,0.512c0.139,0.222 0.199,0.592 0.181,1.11c-0.018,0.519 -0.106,1.026 -0.263,1.521c-0.158,0.495 -0.334,0.908 -0.529,1.239c-0.391,0.653 -0.89,0.969 -1.496,0.949c-0.222,-0.01 -0.422,-0.104 -0.601,-0.283c-0.119,-0.113 -0.216,-0.279 -0.291,-0.499c-0.074,-0.221 -0.106,-0.478 -0.096,-0.773Z" style="fill:#cd5752;fill-rule:nonzero;"/><path d="M105.285,72.265c0.137,-0.129 0.283,-0.223 0.437,-0.281c0.154,-0.058 0.303,-0.078 0.447,-0.059c0.144,0.018 0.286,0.07 0.425,0.156c0.192,0.116 0.354,0.249 0.487,0.4c0.132,0.151 0.159,0.272 0.079,0.365l-0.174,0.194c-0.116,0.116 -0.218,0.132 -0.308,0.05c-0.01,-0.01 -0.049,-0.051 -0.119,-0.122c-0.07,-0.071 -0.127,-0.128 -0.174,-0.172c-0.146,-0.122 -0.278,-0.173 -0.397,-0.154c-0.242,0.047 -0.498,0.307 -0.768,0.78c-0.27,0.474 -0.466,0.963 -0.589,1.466c-0.122,0.504 -0.152,0.927 -0.089,1.272c0.013,0.079 0.077,0.153 0.191,0.221c0.114,0.068 0.2,0.097 0.256,0.087c0.209,-0.116 0.437,-0.32 0.686,-0.611c0.056,-0.06 0.106,-0.089 0.149,-0.087c0.043,0.002 0.101,0.024 0.174,0.067l0.154,0.099c0.079,0.047 0.109,0.103 0.089,0.169c-0.056,0.189 -0.238,0.41 -0.546,0.664c-0.308,0.253 -0.53,0.398 -0.666,0.434c-0.136,0.037 -0.34,-0.015 -0.611,-0.154c-0.272,-0.139 -0.441,-0.275 -0.507,-0.407c-0.139,-0.315 -0.178,-0.705 -0.117,-1.17c0.062,-0.466 0.168,-0.915 0.321,-1.349c0.152,-0.434 0.301,-0.758 0.447,-0.971c0.146,-0.214 0.268,-0.383 0.367,-0.507c0.1,-0.124 0.218,-0.251 0.356,-0.38Z" style="fill:#cd5752;fill-rule:nonzero;"/><path d="M108.502,71.4c-0.12,0 -0.224,-0.048 -0.313,-0.146c-0.09,-0.098 -0.135,-0.214 -0.135,-0.348c0,-0.134 0.048,-0.25 0.145,-0.348c0.096,-0.097 0.213,-0.146 0.352,-0.146l0.095,-0c0.112,-0 0.217,0.051 0.313,0.154c0.096,0.102 0.144,0.219 0.144,0.35c-0,0.131 -0.051,0.244 -0.152,0.34c-0.101,0.096 -0.224,0.144 -0.37,0.144l-0.079,0Zm0.233,0.775l-1.232,4.73c-0.04,0.149 -0.141,0.224 -0.303,0.224l-0.298,-0c-0.186,-0 -0.26,-0.078 -0.224,-0.234l1.242,-4.729c0.037,-0.136 0.133,-0.204 0.288,-0.204l0.333,-0c0.09,-0 0.149,0.016 0.179,0.047c0.03,0.031 0.035,0.087 0.015,0.166Z" style="fill:#cd5752;fill-rule:nonzero;"/><path d="M109.664,75.062c0.689,-0.298 1.158,-0.702 1.406,-1.212c0.126,-0.262 0.189,-0.519 0.189,-0.77c-0,-0.252 -0.073,-0.378 -0.219,-0.378c-0.318,0 -0.592,0.248 -0.822,0.745c-0.23,0.497 -0.415,1.035 -0.554,1.615Zm-0.129,0.671c-0.05,0.284 -0.046,0.484 0.01,0.598c0.056,0.115 0.146,0.187 0.268,0.216c0.252,-0.092 0.56,-0.346 0.924,-0.76c0.063,-0.063 0.131,-0.069 0.204,-0.02l0.194,0.12c0.039,0.023 0.068,0.058 0.087,0.106c0.018,0.049 0.019,0.087 0.002,0.117c-0.126,0.245 -0.363,0.506 -0.713,0.783c-0.349,0.276 -0.63,0.393 -0.842,0.35c-0.48,-0.116 -0.762,-0.368 -0.845,-0.755c-0.062,-0.308 -0.05,-0.721 0.038,-1.237c0.088,-0.517 0.251,-1.05 0.489,-1.6c0.348,-0.805 0.75,-1.313 1.207,-1.525c0.361,-0.169 0.692,-0.187 0.992,-0.055c0.299,0.133 0.449,0.462 0.449,0.989c0,0.305 -0.074,0.604 -0.223,0.899c-0.269,0.527 -0.742,0.989 -1.421,1.386c-0.265,0.156 -0.539,0.285 -0.82,0.388Z" style="fill:#cd5752;fill-rule:nonzero;"/><path d="M114.424,70.392c-0,-0 -0.135,0.523 -0.403,1.57l0.537,-0c0.076,-0 0.126,0.016 0.149,0.05c0.023,0.033 0.023,0.091 -0,0.173l-0.07,0.264c-0.043,0.149 -0.131,0.223 -0.263,0.223l-0.532,0l-1.078,4.233c-0.04,0.149 -0.141,0.224 -0.303,0.224l-0.194,-0c-0.109,-0 -0.186,-0.032 -0.231,-0.095c-0.044,-0.063 -0.057,-0.14 -0.037,-0.233l1.053,-4.129l-0.397,0c-0.07,0 -0.115,-0.017 -0.137,-0.052c-0.021,-0.035 -0.02,-0.098 0.003,-0.191l0.079,-0.273c0.037,-0.13 0.111,-0.194 0.224,-0.194l0.412,-0l0.403,-1.58c0.039,-0.149 0.142,-0.224 0.308,-0.224l0.253,0c0.185,0 0.26,0.078 0.224,0.234Z" style="fill:#cd5752;fill-rule:nonzero;"/><path d="M117.852,71.962l0.442,-0c0.04,-0 0.073,0.025 0.102,0.077c0.028,0.051 0.032,0.113 0.012,0.186c-0.252,0.954 -0.56,2.078 -0.924,3.371c-0.364,1.293 -0.57,2.03 -0.616,2.208c-0.046,0.179 -0.143,0.38 -0.288,0.602c-0.149,0.231 -0.33,0.402 -0.542,0.511c-0.126,0.07 -0.22,0.113 -0.283,0.129c-0.136,0.04 -0.328,-0.013 -0.576,-0.159l-1.034,-0.586c-0.089,-0.04 -0.138,-0.099 -0.146,-0.179c-0.008,-0.079 0.012,-0.142 0.062,-0.188l0.154,-0.214c0.06,-0.063 0.113,-0.101 0.159,-0.114c0.046,-0.014 0.104,-0.004 0.174,0.029l1.133,0.696c0.062,0.033 0.125,0.029 0.186,-0.012c0.061,-0.042 0.11,-0.13 0.146,-0.266l0.989,-3.488l-0.233,0.447l-0.602,1.009c-0.218,0.374 -0.438,0.652 -0.66,0.834c-0.222,0.183 -0.419,0.274 -0.592,0.274l-0.059,-0c-0.143,-0 -0.262,-0.052 -0.358,-0.154c-0.235,-0.262 -0.29,-0.625 -0.164,-1.088l1.038,-3.786c0.027,-0.093 0.082,-0.139 0.164,-0.139l0.532,-0c0.083,-0 0.109,0.081 0.08,0.243l-1.029,3.528c-0.069,0.275 -0.059,0.417 0.03,0.427c0.103,0.01 0.272,-0.164 0.509,-0.522c0.237,-0.357 0.634,-1.043 1.19,-2.057c0.556,-1.013 0.843,-1.529 0.86,-1.547c0.016,-0.018 0.031,-0.032 0.044,-0.042c0.02,-0.02 0.053,-0.03 0.1,-0.03Z" style="fill:#cd5752;fill-rule:nonzero;"/></g></g></g></g></svg>