<?xml version="1.0" encoding="UTF-8" standalone="no"?><!DOCTYPE svg PUBLIC "-//W3C//DTD SVG 1.1//EN" "http://www.w3.org/Graphics/SVG/1.1/DTD/svg11.dtd"><svg width="1000px" height="1000px" version="1.1" xmlns="http://www.w3.org/2000/svg" xmlns:xlink="http://www.w3.org/1999/xlink" xml:space="preserve" xmlns:serif="http://www.serif.com/" style="fill-rule:evenodd;clip-rule:evenodd;stroke-linejoin:round;stroke-miterlimit:2;"><circle cx="500" cy="500" r="500" style="fill:#fef8ff;"/><path d="M500,0c275.958,0 500,224.042 500,500c0,275.958 -224.042,500 -500,500c-275.958,0 -500,-224.042 -500,-500c0,-275.958 224.042,-500 500,-500Zm0,83.333c229.965,0 416.667,186.702 416.667,416.667c-0,229.965 -186.702,416.667 -416.667,416.667c-229.965,-0 -416.667,-186.702 -416.667,-416.667c0,-229.965 186.702,-416.667 416.667,-416.667Z" style="fill:#3c1d41;"/><path d="M794.654,352.673c0,-81.312 -66.015,-147.327 -147.327,-147.327l-294.654,-0c-81.312,-0 -147.327,66.015 -147.327,147.327l-0,294.654c-0,81.312 66.015,147.327 147.327,147.327l294.654,0c81.312,0 147.327,-66.015 147.327,-147.327l0,-294.654Zm-41.667,-0l0,294.654c0,58.316 -47.344,105.66 -105.66,105.66l-294.654,0c-58.316,0 -105.66,-47.344 -105.66,-105.66c-0,0 -0,-294.654 -0,-294.654c-0,-58.316 47.344,-105.66 105.66,-105.66c-0,-0 294.654,-0 294.654,-0c58.316,-0 105.66,47.344 105.66,105.66Z" style="fill:#3c1d41;"/><path d="M500,358.229c78.246,-0 141.771,63.525 141.771,141.771c0,78.246 -63.525,141.771 -141.771,141.771c-78.246,0 -141.771,-63.525 -141.771,-141.771c-0,-78.246 63.525,-141.771 141.771,-141.771Zm0,41.666c55.249,0 100.105,44.856 100.105,100.105c-0,55.249 -44.856,100.105 -100.105,100.105c-55.249,-0 -100.105,-44.856 -100.105,-100.105c0,-55.249 44.856,-100.105 100.105,-100.105Z" style="fill:#3c1d41;"/><path d="M663.495,285.346c28.236,-0 51.159,22.923 51.159,51.159c0,28.235 -22.923,51.158 -51.159,51.158c-28.235,0 -51.158,-22.923 -51.158,-51.158c-0,-28.236 22.923,-51.159 51.158,-51.159Zm0,20.833c16.737,0 30.326,13.589 30.326,30.326c-0,16.737 -13.589,30.325 -30.326,30.325c-16.737,0 -30.325,-13.588 -30.325,-30.325c-0,-16.737 13.588,-30.326 30.325,-30.326Z" style="fill:#3c1d41;"/></svg>