<?xml version="1.0" encoding="UTF-8" standalone="no"?><!DOCTYPE svg PUBLIC "-//W3C//DTD SVG 1.1//EN" "http://www.w3.org/Graphics/SVG/1.1/DTD/svg11.dtd"><svg width="4167px" height="4167px" version="1.1" xmlns="http://www.w3.org/2000/svg" xmlns:xlink="http://www.w3.org/1999/xlink" xml:space="preserve" xmlns:serif="http://www.serif.com/" style="fill-rule:evenodd;clip-rule:evenodd;stroke-linecap:round;stroke-linejoin:round;stroke-miterlimit:1.5;"><circle cx="2083.33" cy="2083.33" r="2083.33" style="fill:#c6dcfb;"/><path d="M2083.33,0c1149.83,0 2083.33,933.508 2083.33,2083.33c-0,1149.83 -933.509,2083.33 -2083.33,2083.33c-1149.83,-0 -2083.33,-933.509 -2083.33,-2083.33c0,-1149.83 933.508,-2083.33 2083.33,-2083.33Zm0,347.221c958.188,-0 1736.11,777.925 1736.11,1736.11c-0,958.188 -777.925,1736.11 -1736.11,1736.11c-958.187,-0 -1736.11,-777.925 -1736.11,-1736.11c-0,-958.187 777.925,-1736.11 1736.11,-1736.11Z" style="fill:#1d1e41;"/><path d="M2235.93,3412.2c13.268,0 25.992,-5.27 35.374,-14.652c9.382,-9.382 14.652,-22.106 14.652,-35.374c0,-197.411 0,-921.173 0,-1118.58c0,-27.629 22.398,-50.026 50.026,-50.026c80.627,0 238.002,0 314.63,0c25.175,-0 46.428,-18.709 49.622,-43.681c10.936,-85.521 35.161,-274.959 47.287,-369.787c1.823,-14.257 -2.575,-28.61 -12.072,-39.399c-9.497,-10.789 -23.176,-16.972 -37.55,-16.972c-92.271,-0 -273.162,-0 -360.851,-0c-27.628,-0 -50.026,-22.398 -50.026,-50.026c0,-90.702 0,-273.004 0,-273.004c0,-127.216 63.548,-207.102 217.652,-207.102l215.756,0c27.629,0 50.027,-22.397 50.027,-50.026l-0,-327.303c-0,-26.467 -20.616,-48.354 -47.035,-49.936c-153.244,-9.464 -364.198,-20.46 -465.049,-1.365c-255.087,48.297 -456.779,258.122 -456.779,569.541c-0,-0 -0.288,232.829 -0.418,337.69c-0.017,13.288 -5.319,26.023 -14.738,35.397c-9.419,9.373 -22.18,14.614 -35.468,14.566c-77.802,-0.279 -226.724,-0.813 -304.564,-1.092c-13.299,-0.048 -26.07,5.202 -35.49,14.589c-9.421,9.386 -14.716,22.138 -14.716,35.437c0,90.799 0,281.275 0,371.942c0,13.268 5.271,25.992 14.652,35.374c9.382,9.382 22.106,14.652 35.374,14.652c77.516,0 225.773,0 303.289,0c13.267,0 25.992,5.271 35.373,14.653c9.382,9.381 14.653,22.106 14.653,35.373c-0,197.47 -0,921.619 -0,1119.09c-0,13.268 5.27,25.992 14.652,35.374c9.382,9.382 22.106,14.652 35.374,14.652c93.342,0 293.021,0 386.363,0Z" style="fill:#1d1e41;stroke:#000;stroke-width:4.17px;"/></svg>