<?xml version="1.0" encoding="UTF-8" standalone="no"?><!DOCTYPE svg PUBLIC "-//W3C//DTD SVG 1.1//EN" "http://www.w3.org/Graphics/SVG/1.1/DTD/svg11.dtd"><svg width="1000px" height="1000px" version="1.1" xmlns="http://www.w3.org/2000/svg" xmlns:xlink="http://www.w3.org/1999/xlink" xml:space="preserve" xmlns:serif="http://www.serif.com/" style="fill-rule:evenodd;clip-rule:evenodd;stroke-linejoin:round;stroke-miterlimit:2;"><circle cx="500" cy="500" r="500" style="fill:#f8fdff;"/><path d="M500,0c275.958,0 500,224.042 500,500c0,275.958 -224.042,500 -500,500c-275.958,0 -500,-224.042 -500,-500c0,-275.958 224.042,-500 500,-500Zm0,83.333c229.965,0 416.667,186.702 416.667,416.667c-0,229.965 -186.702,416.667 -416.667,416.667c-229.965,-0 -416.667,-186.702 -416.667,-416.667c0,-229.965 186.702,-416.667 416.667,-416.667Z" style="fill:#1d1e41;"/><path d="M644.536,282.077c0,-0 -58.782,0.102 -69.075,0.102c-28.714,0 -47.957,47.209 -47.957,76.193l0,34.477l112.958,0l-21.403,99.144l-86.679,-0l-0,326.338l-122.396,0l0,-326.338l-63.227,-0l-0,-99.144l63.227,0l0,-43.416c0,-55.802 14.628,-97.653 43.883,-125.554c29.255,-27.901 53.727,-41.852 113.051,-41.852c20.587,0 64.616,-2.458 77.618,-0.02l0,100.07Z" style="fill:#1d1e41;fill-rule:nonzero;"/></svg>