<?xml version="1.0" encoding="UTF-8" standalone="no"?><!DOCTYPE svg PUBLIC "-//W3C//DTD SVG 1.1//EN" "http://www.w3.org/Graphics/SVG/1.1/DTD/svg11.dtd"><svg width="4167px" height="4167px" version="1.1" xmlns="http://www.w3.org/2000/svg" xmlns:xlink="http://www.w3.org/1999/xlink" xml:space="preserve" xmlns:serif="http://www.serif.com/" style="fill-rule:evenodd;clip-rule:evenodd;stroke-linejoin:round;stroke-miterlimit:2;"><circle cx="2083.33" cy="2083.33" r="2083.33" style="fill:#c6dcfb;"/><path d="M2083.33,0c1149.83,0 2083.33,933.508 2083.33,2083.33c-0,1149.83 -933.509,2083.33 -2083.33,2083.33c-1149.83,-0 -2083.33,-933.509 -2083.33,-2083.33c0,-1149.83 933.508,-2083.33 2083.33,-2083.33Zm0,347.221c958.188,-0 1736.11,777.925 1736.11,1736.11c-0,958.188 -777.925,1736.11 -1736.11,1736.11c-958.187,-0 -1736.11,-777.925 -1736.11,-1736.11c-0,-958.187 777.925,-1736.11 1736.11,-1736.11Z" style="fill:#1d1e41;"/><path d="M3356.08,1446.96c0,-351.223 -285.148,-636.372 -636.371,-636.372l-1272.74,0c-351.223,0 -636.372,285.149 -636.372,636.372l0,1272.74c0,351.223 285.149,636.371 636.372,636.371l1272.74,0c351.223,0 636.371,-285.148 636.371,-636.371l0,-1272.74Zm-208.333,-0l-0,1272.74c-0,236.24 -191.798,428.038 -428.038,428.038l-1272.74,-0c-236.241,-0 -428.038,-191.798 -428.038,-428.038l-0,-1272.74c-0,-236.241 191.797,-428.038 428.038,-428.038l1272.74,-0c236.24,-0 428.038,191.797 428.038,428.038Z" style="fill:#1d1e41;"/><path d="M2083.33,1506.31c318.47,0 577.026,258.557 577.026,577.026c0,318.47 -258.556,577.026 -577.026,577.026c-318.469,0 -577.026,-258.556 -577.026,-577.026c0,-318.469 258.557,-577.026 577.026,-577.026Zm0,208.334c203.487,-0 368.693,165.205 368.693,368.692c-0,203.487 -165.206,368.693 -368.693,368.693c-203.487,-0 -368.692,-165.206 -368.692,-368.693c-0,-203.487 165.205,-368.692 368.692,-368.692Z" style="fill:#1d1e41;"/><path d="M2759.12,1190.25c119.929,0 217.296,97.367 217.296,217.296c0,119.929 -97.367,217.297 -217.296,217.297c-119.929,-0 -217.296,-97.368 -217.296,-217.297c0,-119.929 97.367,-217.296 217.296,-217.296Zm0,83.334c73.936,-0 133.963,60.026 133.963,133.962c0,73.937 -60.027,133.963 -133.963,133.963c-73.936,0 -133.963,-60.026 -133.963,-133.963c0,-73.936 60.027,-133.962 133.963,-133.962Z" style="fill:#1d1e41;"/></svg>