<?xml version="1.0" encoding="UTF-8" standalone="no"?><!DOCTYPE svg PUBLIC "-//W3C//DTD SVG 1.1//EN" "http://www.w3.org/Graphics/SVG/1.1/DTD/svg11.dtd"><svg width="5209px" height="13892px" version="1.1" xmlns="http://www.w3.org/2000/svg" xmlns:xlink="http://www.w3.org/1999/xlink" xml:space="preserve" xmlns:serif="http://www.serif.com/" style="fill-rule:evenodd;clip-rule:evenodd;stroke-linejoin:round;stroke-miterlimit:2;"><rect x="0" y="0" width="5208.33" height="13888.9" style="fill:#a25632;"/><path d="M812.895,10268c-0,-28.265 17.026,-53.747 43.14,-64.564c26.113,-10.816 56.172,-4.838 76.158,15.149c384.908,384.907 1569.03,1569.03 1569.03,1569.03c56.856,56.857 149.039,56.857 205.896,0c-0,0 1184.12,-1184.12 1569.03,-1569.03c19.987,-19.987 50.045,-25.965 76.158,-15.149c26.114,10.817 43.14,36.299 43.14,64.564c0,401.747 0,1421.8 0,1962.88c0,192.977 -156.439,349.417 -349.417,349.417c-685.287,-0 -2198.42,-0 -2883.71,-0c-192.978,-0 -349.417,-156.44 -349.417,-349.417c0,-541.08 0,-1561.13 0,-1962.88Zm1840.69,1161.35c-27.291,27.291 -71.539,27.291 -98.83,-0c-217.704,-217.704 -1094.7,-1094.7 -1416.66,-1416.66c-19.987,-19.986 -25.966,-50.045 -15.149,-76.158c10.816,-26.114 36.298,-43.14 64.563,-43.141c549.482,0 2283.84,0 2833.33,0c28.265,0.001 53.747,17.027 64.564,43.141c10.816,26.113 4.837,56.172 -15.149,76.158c-321.961,321.96 -1198.96,1198.96 -1416.66,1416.66Z" style="fill:#f7d299;"/></svg>