<?xml version="1.0" encoding="UTF-8" standalone="no"?><!DOCTYPE svg PUBLIC "-//W3C//DTD SVG 1.1//EN" "http://www.w3.org/Graphics/SVG/1.1/DTD/svg11.dtd"><svg width="5334px" height="1067px" version="1.1" xmlns="http://www.w3.org/2000/svg" xmlns:xlink="http://www.w3.org/1999/xlink" xml:space="preserve" xmlns:serif="http://www.serif.com/" style="fill-rule:evenodd;clip-rule:evenodd;stroke-linecap:round;stroke-linejoin:round;stroke-miterlimit:1.5;"><g><path d="M656.323,681.685c0,0 562.461,-808.124 933.281,-273.473c338.19,487.606 951.778,721.101 1368.57,0c140.678,-243.394 902.062,-616.411 1747.74,216.567" style="fill:none;stroke:#41251d;stroke-width:66.67px;stroke-dasharray:200,133.33,133.33,0;"/><g><path d="M3110.85,694.855c4.613,0.274 8.583,3.189 10.199,7.489c1.616,4.3 0.588,9.216 -2.639,12.628c-43.998,46.51 -157.44,166.43 -189.171,199.973c-4.615,4.879 -12.205,5.194 -16.952,0.703c-55.629,-52.624 -364.165,-344.492 -419.793,-397.115c-4.748,-4.491 -4.854,-12.087 -0.239,-16.966c31.731,-33.543 145.173,-153.463 189.17,-199.973c3.228,-3.412 8.079,-4.711 12.462,-3.336c4.383,1.375 7.514,5.178 8.044,9.768c9.69,84.012 40.426,350.478 40.426,350.478c0.978,8.474 7.797,14.924 16.312,15.43c0,0 267.761,15.906 352.181,20.921Zm-324.688,-55.429c-5.677,-0.338 -10.223,-4.638 -10.874,-10.287c-5.176,-44.875 -26.912,-233.31 -35.833,-310.651c-0.58,-5.026 2.071,-9.96 6.62,-12.324c4.548,-2.364 10.013,-1.647 13.647,1.791c70.751,66.929 277.241,262.264 347.993,329.194c3.634,3.438 4.653,8.854 2.545,13.527c-2.108,4.673 -6.888,7.593 -11.938,7.293c-77.716,-4.617 -267.067,-15.865 -312.16,-18.543Z" style="fill:none;stroke:#eec062;stroke-width:62.5px;stroke-linejoin:miter;stroke-miterlimit:5;"/><path d="M3110.85,694.855c4.613,0.274 8.583,3.189 10.199,7.489c1.616,4.3 0.588,9.216 -2.639,12.628c-43.998,46.51 -157.44,166.43 -189.171,199.973c-4.615,4.879 -12.205,5.194 -16.952,0.703c-55.629,-52.624 -364.165,-344.492 -419.793,-397.115c-4.748,-4.491 -4.854,-12.087 -0.239,-16.966c31.731,-33.543 145.173,-153.463 189.17,-199.973c3.228,-3.412 8.079,-4.711 12.462,-3.336c4.383,1.375 7.514,5.178 8.044,9.768c9.69,84.012 40.426,350.478 40.426,350.478c0.978,8.474 7.797,14.924 16.312,15.43c0,0 267.761,15.906 352.181,20.921Zm-324.688,-55.429c-5.677,-0.338 -10.223,-4.638 -10.874,-10.287c-5.176,-44.875 -26.912,-233.31 -35.833,-310.651c-0.58,-5.026 2.071,-9.96 6.62,-12.324c4.548,-2.364 10.013,-1.647 13.647,1.791c70.751,66.929 277.241,262.264 347.993,329.194c3.634,3.438 4.653,8.854 2.545,13.527c-2.108,4.673 -6.888,7.593 -11.938,7.293c-77.716,-4.617 -267.067,-15.865 -312.16,-18.543Z" style="fill:#cd5752;"/></g><circle cx="610.003" cy="744.763" r="146.356" style="fill:none;stroke:#eec062;stroke-width:125px;"/><circle cx="610.003" cy="744.763" r="146.356" style="fill:#cd5752;"/><path d="M4673.08,564.075l-37.782,-141.005c-8.928,-33.319 10.875,-67.619 44.194,-76.547c33.32,-8.927 67.619,10.875 76.547,44.195l37.782,141.005l141.005,-37.783c33.319,-8.927 67.619,10.875 76.547,44.195c8.928,33.319 -10.875,67.618 -44.194,76.546l-141.006,37.782l37.783,141.005c8.928,33.32 -10.875,67.619 -44.195,76.547c-33.319,8.928 -67.618,-10.875 -76.546,-44.194l-37.782,-141.005l-141.005,37.782c-33.32,8.928 -67.619,-10.875 -76.547,-44.194c-8.928,-33.32 10.875,-67.619 44.194,-76.547l141.005,-37.782Z" style="fill:none;stroke:#eec062;stroke-width:125px;stroke-linecap:butt;stroke-miterlimit:2;"/><path d="M4673.08,564.075l-37.782,-141.005c-8.928,-33.319 10.875,-67.619 44.194,-76.547c33.32,-8.927 67.619,10.875 76.547,44.195l37.782,141.005l141.005,-37.783c33.319,-8.927 67.619,10.875 76.547,44.195c8.928,33.319 -10.875,67.618 -44.194,76.546l-141.006,37.782l37.783,141.005c8.928,33.32 -10.875,67.619 -44.195,76.547c-33.319,8.928 -67.618,-10.875 -76.546,-44.194l-37.782,-141.005l-141.005,37.782c-33.32,8.928 -67.619,-10.875 -76.547,-44.194c-8.928,-33.32 10.875,-67.619 44.194,-76.547l141.005,-37.782Z" style="fill:#cd5752;"/></g></svg>