<?xml version="1.0" encoding="UTF-8" standalone="no"?><!DOCTYPE svg PUBLIC "-//W3C//DTD SVG 1.1//EN" "http://www.w3.org/Graphics/SVG/1.1/DTD/svg11.dtd"><svg width="4167px" height="4167px" version="1.1" xmlns="http://www.w3.org/2000/svg" xmlns:xlink="http://www.w3.org/1999/xlink" xml:space="preserve" xmlns:serif="http://www.serif.com/" style="fill-rule:evenodd;clip-rule:evenodd;stroke-linejoin:round;stroke-miterlimit:2;"><circle cx="2083.33" cy="2083.33" r="2083.33" style="fill:#c6dcfb;"/><path d="M2083.33,0c1149.83,0 2083.33,933.508 2083.33,2083.33c-0,1149.83 -933.509,2083.33 -2083.33,2083.33c-1149.83,-0 -2083.33,-933.509 -2083.33,-2083.33c0,-1149.83 933.508,-2083.33 2083.33,-2083.33Zm0,347.221c958.188,-0 1736.11,777.925 1736.11,1736.11c-0,958.188 -777.925,1736.11 -1736.11,1736.11c-958.187,-0 -1736.11,-777.925 -1736.11,-1736.11c-0,-958.187 777.925,-1736.11 1736.11,-1736.11Z" style="fill:#1d1e41;"/><path d="M2726.73,939.679c-6.441,-16.402 -1.81,-35.084 11.547,-46.578c13.356,-11.494 32.52,-13.288 47.778,-4.474c408.819,241.114 683.348,686.103 683.348,1194.71c0,764.994 -621.077,1386.07 -1386.07,1386.07c-508.603,0 -953.592,-274.529 -1194.73,-683.335c-8.819,-15.268 -7.023,-34.442 4.478,-47.807c11.501,-13.365 30.193,-17.999 46.605,-11.554c152.476,57.785 317.75,89.401 490.35,89.401c764.994,0 1386.07,-621.077 1386.07,-1386.07c0,-172.6 -31.616,-337.874 -89.378,-490.359Z" style="fill:#1d1e41;"/><path d="M1326.69,2108.81c6.051,-16.352 21.642,-27.207 39.077,-27.207c17.435,-0 33.027,10.855 39.077,27.207c6.823,18.438 13.163,35.57 17.655,47.71c4.22,11.405 13.212,20.397 24.617,24.618c12.141,4.492 29.272,10.831 47.711,17.654c16.352,6.051 27.207,21.642 27.207,39.077c-0,17.435 -10.855,33.027 -27.207,39.077c-18.439,6.823 -35.57,13.163 -47.711,17.655c-11.405,4.22 -20.397,13.212 -24.617,24.617c-4.492,12.141 -10.832,29.272 -17.655,47.711c-6.05,16.352 -21.642,27.207 -39.077,27.207c-17.435,-0 -33.026,-10.855 -39.077,-27.207c-6.823,-18.439 -13.162,-35.57 -17.654,-47.711c-4.221,-11.405 -13.213,-20.397 -24.618,-24.617c-12.14,-4.492 -29.272,-10.832 -47.71,-17.655c-16.352,-6.05 -27.207,-21.642 -27.207,-39.077c-0,-17.435 10.855,-33.026 27.207,-39.077c18.438,-6.823 35.57,-13.162 47.71,-17.654c11.405,-4.221 20.397,-13.213 24.618,-24.618c4.492,-12.14 10.831,-29.272 17.654,-47.71Z" style="fill:#1d1e41;"/><path d="M1863.67,919.707c6.051,-16.352 21.642,-27.207 39.077,-27.207c17.435,0 33.027,10.855 39.077,27.207c25.743,69.568 57.091,154.286 70.542,190.635c4.22,11.405 13.212,20.397 24.617,24.617c36.349,13.45 121.066,44.798 190.635,70.541c16.351,6.051 27.206,21.642 27.206,39.077c0,17.435 -10.855,33.027 -27.206,39.077c-69.569,25.743 -154.286,57.091 -190.635,70.542c-11.405,4.22 -20.397,13.212 -24.617,24.617c-13.451,36.349 -44.799,121.066 -70.542,190.634c-6.05,16.352 -21.642,27.207 -39.077,27.207c-17.435,0 -33.026,-10.855 -39.077,-27.207c-25.743,-69.568 -57.091,-154.285 -70.541,-190.634c-4.22,-11.405 -13.212,-20.397 -24.617,-24.617c-36.349,-13.451 -121.066,-44.799 -190.635,-70.542c-16.351,-6.05 -27.207,-21.642 -27.207,-39.077c0,-17.435 10.856,-33.026 27.207,-39.077c69.569,-25.743 154.286,-57.091 190.635,-70.541c11.405,-4.22 20.397,-13.212 24.617,-24.617c13.45,-36.349 44.798,-121.067 70.541,-190.635Z" style="fill:#1d1e41;"/></svg>