<?xml version="1.0" encoding="UTF-8" standalone="no"?><!DOCTYPE svg PUBLIC "-//W3C//DTD SVG 1.1//EN" "http://www.w3.org/Graphics/SVG/1.1/DTD/svg11.dtd"><svg width="5209px" height="13892px" version="1.1" xmlns="http://www.w3.org/2000/svg" xmlns:xlink="http://www.w3.org/1999/xlink" xml:space="preserve" xmlns:serif="http://www.serif.com/" style="fill-rule:evenodd;clip-rule:evenodd;stroke-linejoin:round;stroke-miterlimit:2;"><rect x="0" y="0" width="5208.33" height="13888.9" style="fill:#a25632;"/><path d="M3723.87,12510c-5.627,-10.115 -15.079,-17.548 -26.236,-20.633c-11.156,-3.085 -23.084,-1.563 -33.108,4.225c-51.964,30.001 -145.628,84.078 -206.187,119.042c-12.652,7.305 -28.139,7.719 -41.164,1.101c-13.024,-6.618 -21.821,-19.37 -23.381,-33.896c-22.68,-211.169 -93.559,-871.108 -120.151,-1118.7c-1.813,-16.88 6.431,-33.257 21.069,-41.856c14.638,-8.6 32.956,-7.827 46.818,1.975c204.085,144.314 749.619,530.076 924.942,654.052c12.023,8.502 18.887,22.543 18.21,37.252c-0.676,14.71 -8.799,28.061 -21.551,35.424c-60.785,35.094 -154.098,88.968 -205.323,118.543c-20.428,11.794 -27.617,37.794 -16.149,58.407c43.844,78.811 145.74,261.975 189.584,340.786c11.467,20.613 4.278,46.613 -16.149,58.407c-60.893,35.156 -181.966,105.058 -243.633,140.661c-10.024,5.788 -21.952,7.31 -33.109,4.225c-11.156,-3.085 -20.608,-10.518 -26.235,-20.633c-43.979,-79.054 -144.268,-259.329 -188.247,-338.383Z" style="fill:#f7d299;"/><path d="M3730.33,12723.7c12.707,20.962 7.599,48.128 -11.853,63.043c-309.872,234.556 -695.949,373.861 -1114.31,373.861c-1020.03,0 -1848.17,-828.135 -1848.17,-1848.17c0,-1020.03 828.136,-1848.17 1848.17,-1848.17c1020.03,-0 1848.17,828.135 1848.17,1848.17c0,165.694 -8.824,360.523 -49.808,513.375c-8.272,29.758 -30.385,53.701 -59.393,64.309c-29.007,10.608 -61.35,6.578 -86.868,-10.823c-291.238,-198.225 -1058.71,-721.712 -1058.71,-721.712c-15.252,-10.401 -47.816,-10.168 -63.804,-0.937c-15.987,9.23 -25.274,26.803 -23.892,45.212c24.614,327.983 142.608,1294.02 164.467,1585.29c1.237,16.481 10.856,31.169 25.468,38.891c14.612,7.721 32.166,7.392 46.479,-0.871c94.914,-54.799 212.071,-122.764 290.979,-168.322c22.984,-13.269 46.353,-11.414 59.623,11.569c0,0 17.952,29.671 33.448,55.281Zm-1645.82,-74.624c20.705,-2.176 40.455,9.227 48.923,28.245c9.607,21.578 22.246,49.966 31.853,71.544c8.468,19.018 3.726,41.326 -11.745,55.256c-17.553,15.805 -40.646,36.598 -58.199,52.403c-15.471,13.93 -38.152,16.314 -56.181,5.905c-20.455,-11.81 -47.367,-27.348 -67.822,-39.157c-18.029,-10.409 -27.306,-31.244 -22.977,-51.607c4.911,-23.104 11.371,-53.5 16.282,-76.603c4.329,-20.364 21.277,-35.624 41.981,-37.8c23.49,-2.469 54.395,-5.717 77.885,-8.186Zm854.432,-277.101c8.467,-19.019 28.218,-30.422 48.922,-28.246c23.49,2.469 54.395,5.717 77.885,8.186c20.705,2.176 37.653,17.437 41.981,37.8c4.911,23.104 11.372,53.5 16.283,76.603c4.328,20.363 -4.948,41.198 -22.977,51.607c-20.455,11.81 -47.367,27.347 -67.822,39.157c-18.029,10.409 -40.711,8.025 -56.182,-5.905c-17.552,-15.804 -40.646,-36.598 -58.198,-52.402c-15.471,-13.93 -20.213,-36.238 -11.746,-55.257c9.607,-21.577 22.247,-49.966 31.854,-71.543Zm-733.578,-416.421c13.101,-16.179 35.13,-22.081 54.565,-14.621c52.186,20.032 153.91,59.081 206.096,79.113c19.435,7.46 31.856,26.587 30.766,47.377c-2.925,55.821 -8.628,164.634 -11.553,220.455c-1.09,20.789 -15.442,38.513 -35.551,43.901c-53.993,14.468 -159.242,42.669 -213.235,57.137c-20.109,5.388 -41.4,-2.785 -52.739,-20.245c-30.444,-46.88 -89.789,-138.263 -120.233,-185.143c-11.338,-17.459 -10.145,-40.234 2.956,-56.413c35.178,-43.441 103.75,-128.12 138.928,-171.561Zm-746.549,-139.248c8.468,-19.018 28.219,-30.421 48.923,-28.245c23.49,2.469 54.395,5.717 77.885,8.186c20.704,2.176 37.653,17.436 41.981,37.8c4.911,23.103 11.372,53.499 16.283,76.602c4.328,20.364 -4.948,41.198 -22.977,51.607c-20.455,11.81 -47.367,27.348 -67.822,39.157c-18.03,10.41 -40.711,8.026 -56.182,-5.904c-17.553,-15.805 -40.646,-36.598 -58.199,-52.403c-15.471,-13.93 -20.212,-36.238 -11.745,-55.256c9.607,-21.578 22.247,-49.966 31.853,-71.544Zm-54.635,-1332.48c8.467,-19.019 28.219,-30.422 48.923,-28.246c101.33,10.65 395.877,41.608 497.206,52.258c20.705,2.176 37.653,17.437 41.982,37.801c21.183,99.661 82.76,389.358 103.944,489.019c4.329,20.364 -4.948,41.199 -22.978,51.608c-88.237,50.944 -344.727,199.029 -432.964,249.972c-18.029,10.41 -40.711,8.026 -56.182,-5.905c-75.718,-68.176 -295.814,-266.352 -371.531,-334.528c-15.472,-13.93 -20.214,-36.238 -11.746,-55.257c41.442,-93.079 161.905,-363.643 203.346,-456.722Zm2764.95,643.666c20.562,3.257 36.688,19.383 39.945,39.945c3.695,23.329 8.556,54.022 12.251,77.35c3.257,20.562 -7.097,40.883 -25.646,50.334c-21.045,10.723 -48.734,24.831 -69.779,35.554c-18.549,9.451 -41.074,5.884 -55.795,-8.837c-16.702,-16.702 -38.675,-38.675 -55.377,-55.377c-14.72,-14.72 -18.288,-37.246 -8.837,-55.795c10.723,-21.045 24.831,-48.733 35.554,-69.778c9.451,-18.55 29.772,-28.904 50.334,-25.647c23.329,3.695 54.021,8.556 77.35,12.251Zm-1522.86,-14.642c19.436,-7.46 41.465,-1.558 54.566,14.621c14.865,18.356 34.421,42.506 49.285,60.862c13.101,16.179 14.295,38.954 2.956,56.413c-12.864,19.809 -29.788,45.871 -42.652,65.68c-11.339,17.46 -32.63,25.633 -52.739,20.245c-22.815,-6.114 -52.831,-14.156 -75.646,-20.27c-20.109,-5.388 -34.461,-23.112 -35.551,-43.901c-1.236,-23.588 -2.862,-54.62 -4.099,-78.207c-1.089,-20.79 11.332,-39.917 30.768,-47.377c22.05,-8.465 51.061,-19.601 73.112,-28.066Zm827.478,-787.864c13.101,-16.179 35.13,-22.081 54.566,-14.621c52.185,20.032 153.91,59.081 206.095,79.113c19.435,7.46 31.856,26.587 30.767,47.377c-2.926,55.821 -8.628,164.634 -11.554,220.455c-1.089,20.789 -15.442,38.513 -35.55,43.901c-53.994,14.468 -159.243,42.669 -213.236,57.137c-20.109,5.388 -41.4,-2.785 -52.738,-20.245c-30.445,-46.88 -89.79,-138.263 -120.234,-185.143c-11.338,-17.459 -10.144,-40.234 2.957,-56.413c35.177,-43.441 103.749,-128.12 138.927,-171.561Zm-707.083,-214.742c8.467,-19.019 28.218,-30.422 48.923,-28.246c23.49,2.469 54.394,5.717 77.885,8.186c20.704,2.176 37.652,17.437 41.981,37.8c4.91,23.103 11.371,53.499 16.282,76.603c4.328,20.363 -4.948,41.198 -22.977,51.607c-20.455,11.81 -47.367,27.347 -67.822,39.157c-18.029,10.409 -40.71,8.025 -56.181,-5.905c-17.553,-15.805 -40.646,-36.598 -58.199,-52.402c-15.471,-13.931 -20.213,-36.238 -11.745,-55.257c9.607,-21.577 22.246,-49.966 31.853,-71.543Zm-545.751,-318.483c19.435,-7.461 41.464,-1.558 54.565,14.621c35.178,43.44 103.75,128.12 138.927,171.561c13.102,16.178 14.295,38.953 2.957,56.413c-30.444,46.879 -89.789,138.263 -120.233,185.143c-11.339,17.459 -32.63,25.632 -52.739,20.244c-53.993,-14.467 -159.242,-42.669 -213.235,-57.136c-20.109,-5.389 -34.461,-23.112 -35.551,-43.902c-2.925,-55.821 -8.628,-164.634 -11.553,-220.455c-1.09,-20.789 11.331,-39.916 30.766,-47.377c52.186,-20.032 153.91,-59.08 206.096,-79.112Z" style="fill:#f7d299;"/></svg>