<?xml version="1.0" encoding="UTF-8" standalone="no"?><!DOCTYPE svg PUBLIC "-//W3C//DTD SVG 1.1//EN" "http://www.w3.org/Graphics/SVG/1.1/DTD/svg11.dtd"><svg width="834px" height="100px" version="1.1" xmlns="http://www.w3.org/2000/svg" xmlns:xlink="http://www.w3.org/1999/xlink" xml:space="preserve" xmlns:serif="http://www.serif.com/" style="fill-rule:evenodd;clip-rule:evenodd;stroke-linejoin:round;stroke-miterlimit:2;"><path d="M833.333,100l0,-100l-833.333,-0.092l0,100.092c140.621,0.113 833.333,0 833.333,0Z" style="fill:#a25632;"/><g><g><path d="M783.683,-31.7c7.075,-4.113 15.809,-4.113 22.884,0c26.504,15.421 92.225,53.663 123.375,71.788c3.504,2.037 5.658,5.783 5.658,9.833c0,4.05 -2.154,7.796 -5.658,9.833c-31.15,18.121 -96.871,56.367 -123.375,71.784c-7.075,4.116 -15.809,4.116 -22.884,-0.001c-26.504,-15.416 -92.225,-53.662 -123.375,-71.783c-3.5,-2.037 -5.654,-5.783 -5.654,-9.833c0,-4.05 2.154,-7.796 5.654,-9.834c31.15,-18.125 96.871,-56.366 123.375,-71.787Z" style="fill:#ffc040;"/><path d="M765.608,-31.7c7.075,-4.113 15.813,-4.113 22.884,0c26.504,15.421 92.225,53.663 123.375,71.788c3.504,2.037 5.654,5.783 5.654,9.833c-0,4.05 -2.15,7.796 -5.654,9.833c-31.15,18.121 -96.871,56.367 -123.375,71.784c-7.071,4.116 -15.809,4.116 -22.884,-0.001c-26.504,-15.416 -92.225,-53.662 -123.375,-71.783c-3.5,-2.037 -5.654,-5.783 -5.654,-9.833c0,-4.05 2.154,-7.796 5.654,-9.834c31.15,-18.125 96.871,-56.366 123.375,-71.787Z" style="fill:#cd5752;"/><path d="M747.533,-31.7c7.075,-4.113 15.813,-4.113 22.884,0c26.504,15.421 92.225,53.663 123.379,71.788c3.496,2.037 5.65,5.783 5.65,9.833c-0,4.05 -2.154,7.796 -5.65,9.833c-31.154,18.121 -96.875,56.367 -123.379,71.784c-7.071,4.116 -15.809,4.116 -22.884,-0.001c-26.504,-15.416 -92.225,-53.662 -123.375,-71.783c-3.504,-2.037 -5.654,-5.783 -5.654,-9.833c0,-4.05 2.15,-7.796 5.654,-9.834c31.15,-18.125 96.871,-56.366 123.375,-71.787Z" style="fill:#ffc040;"/><path d="M729.458,-31.7c7.071,-4.113 15.809,-4.113 22.884,0c26.504,15.421 92.225,53.663 123.375,71.788c3.5,2.037 5.654,5.783 5.654,9.833c-0,4.05 -2.154,7.796 -5.654,9.833c-31.15,18.121 -96.871,56.367 -123.375,71.784c-7.075,4.116 -15.813,4.116 -22.884,-0.001c-26.504,-15.416 -92.225,-53.662 -123.375,-71.783c-3.5,-2.037 -5.654,-5.783 -5.654,-9.833c0,-4.05 2.154,-7.796 5.654,-9.834c31.15,-18.125 96.871,-56.366 123.375,-71.787Z" style="fill:#cd5752;"/><path d="M711.383,-31.7c7.071,-4.113 15.809,-4.113 22.884,0c26.504,15.421 92.225,53.663 123.375,71.788c3.504,2.037 5.654,5.783 5.654,9.833c-0,4.05 -2.15,7.796 -5.654,9.833c-31.15,18.121 -96.871,56.367 -123.375,71.784c-7.075,4.116 -15.813,4.116 -22.884,-0.001c-26.504,-15.416 -92.225,-53.662 -123.379,-71.783c-3.496,-2.037 -5.65,-5.783 -5.65,-9.833c0,-4.05 2.154,-7.796 5.65,-9.834c31.154,-18.125 96.875,-56.366 123.379,-71.787Z" style="fill:#ffc040;"/><path d="M693.308,-31.7c7.075,-4.113 15.813,-4.113 22.884,0c26.504,15.421 92.225,53.663 123.375,71.788c3.5,2.037 5.654,5.783 5.654,9.833c-0,4.05 -2.154,7.796 -5.654,9.833c-31.15,18.121 -96.871,56.367 -123.375,71.784c-7.071,4.116 -15.809,4.116 -22.884,-0.001c-26.504,-15.416 -92.225,-53.662 -123.375,-71.783c-3.504,-2.037 -5.654,-5.783 -5.654,-9.833c0,-4.05 2.15,-7.796 5.654,-9.834c31.15,-18.125 96.871,-56.366 123.375,-71.787Z" style="fill:#cd5752;"/><path d="M675.233,-31.7c7.071,-4.113 15.809,-4.113 22.88,0c26.508,15.421 92.229,53.663 123.379,71.788c3.5,2.037 5.654,5.783 5.654,9.833c-0,4.05 -2.154,7.796 -5.654,9.833c-31.15,18.121 -96.871,56.367 -123.379,71.784c-7.071,4.116 -15.809,4.116 -22.88,-0.001c-26.504,-15.416 -92.225,-53.662 -123.375,-71.783c-3.504,-2.037 -5.658,-5.783 -5.658,-9.833c0,-4.05 2.154,-7.796 5.658,-9.834c31.15,-18.125 96.871,-56.366 123.375,-71.787Z" style="fill:#ffc040;"/><path d="M657.158,-31.7c7.071,-4.113 15.809,-4.113 22.88,0c26.508,15.421 92.229,53.663 123.379,71.788c3.504,2.037 5.654,5.783 5.654,9.833c-0,4.05 -2.15,7.796 -5.654,9.833c-31.15,18.121 -96.871,56.367 -123.38,71.784c-7.07,4.116 -15.808,4.116 -22.879,-0.001c-26.504,-15.416 -92.225,-53.662 -123.379,-71.783c-3.5,-2.037 -5.65,-5.783 -5.65,-9.833c0,-4.05 2.15,-7.796 5.65,-9.834c31.154,-18.125 96.875,-56.366 123.379,-71.787Z" style="fill:#cd5752;"/><path d="M639.083,-31.7c7.071,-4.113 15.809,-4.113 22.884,0c26.504,15.421 92.225,53.663 123.375,71.788c3.5,2.037 5.654,5.783 5.654,9.833c-0,4.05 -2.154,7.796 -5.654,9.833c-31.15,18.121 -96.871,56.367 -123.375,71.784c-7.075,4.116 -15.813,4.116 -22.884,-0.001c-26.504,-15.416 -92.225,-53.662 -123.379,-71.783c-3.5,-2.037 -5.654,-5.783 -5.654,-9.833c-0,-4.05 2.154,-7.796 5.654,-9.834c31.154,-18.125 96.875,-56.366 123.379,-71.787Z" style="fill:#ffc040;"/><path d="M621.008,-31.7c7.071,-4.113 15.809,-4.113 22.88,0c26.508,15.421 92.229,53.663 123.379,71.788c3.5,2.037 5.654,5.783 5.654,9.833c-0,4.05 -2.154,7.796 -5.654,9.833c-31.15,18.121 -96.871,56.367 -123.379,71.784c-7.071,4.116 -15.809,4.116 -22.88,-0.001c-26.504,-15.416 -92.225,-53.662 -123.379,-71.783c-3.5,-2.037 -5.654,-5.783 -5.654,-9.833c0,-4.05 2.154,-7.796 5.654,-9.834c31.154,-18.125 96.875,-56.366 123.379,-71.787Z" style="fill:#cd5752;"/><path d="M602.933,-31.7c7.071,-4.113 15.809,-4.113 22.88,0c26.504,15.421 92.229,53.663 123.379,71.788c3.5,2.037 5.654,5.783 5.654,9.833c-0,4.05 -2.154,7.796 -5.654,9.833c-31.15,18.121 -96.875,56.367 -123.38,71.784c-7.07,4.116 -15.808,4.116 -22.879,-0.001c-26.508,-15.416 -92.225,-53.662 -123.379,-71.783c-3.5,-2.037 -5.654,-5.783 -5.654,-9.833c0,-4.05 2.154,-7.796 5.654,-9.834c31.154,-18.125 96.871,-56.366 123.379,-71.787Z" style="fill:#ffc040;"/><path d="M584.858,-31.7c7.071,-4.113 15.809,-4.113 22.884,0c26.504,15.421 92.225,53.663 123.375,71.788c3.5,2.037 5.654,5.783 5.654,9.833c-0,4.05 -2.154,7.796 -5.654,9.833c-31.15,18.121 -96.871,56.367 -123.375,71.784c-7.075,4.116 -15.813,4.116 -22.884,-0.001c-26.504,-15.416 -92.229,-53.662 -123.379,-71.783c-3.5,-2.037 -5.654,-5.783 -5.654,-9.833c0,-4.05 2.154,-7.796 5.654,-9.834c31.15,-18.125 96.875,-56.366 123.379,-71.787Z" style="fill:#cd5752;"/><path d="M566.783,-31.7c7.071,-4.113 15.809,-4.113 22.88,0c26.508,15.421 92.225,53.663 123.379,71.788c3.5,2.037 5.654,5.783 5.654,9.833c-0,4.05 -2.154,7.796 -5.654,9.833c-31.154,18.121 -96.871,56.367 -123.38,71.784c-7.07,4.116 -15.808,4.116 -22.879,-0.001c-26.508,-15.416 -92.225,-53.662 -123.379,-71.783c-3.5,-2.037 -5.654,-5.783 -5.654,-9.833c0,-4.05 2.154,-7.796 5.654,-9.834c31.154,-18.125 96.871,-56.366 123.379,-71.787Z" style="fill:#ffc040;"/><path d="M548.708,-31.7c7.071,-4.113 15.809,-4.113 22.88,0c26.504,15.421 92.225,53.663 123.375,71.788c3.504,2.037 5.658,5.783 5.658,9.833c-0,4.05 -2.154,7.796 -5.658,9.833c-31.15,18.121 -96.871,56.367 -123.375,71.784c-7.071,4.116 -15.809,4.116 -22.88,-0.001c-26.508,-15.416 -92.225,-53.662 -123.379,-71.783c-3.5,-2.037 -5.654,-5.783 -5.654,-9.833c0,-4.05 2.154,-7.796 5.654,-9.834c31.154,-18.125 96.871,-56.366 123.379,-71.787Z" style="fill:#cd5752;"/><path d="M530.629,-31.7c7.075,-4.113 15.813,-4.113 22.884,0c26.504,15.421 92.229,53.663 123.379,71.788c3.5,2.037 5.65,5.783 5.65,9.833c-0,4.05 -2.15,7.796 -5.65,9.833c-31.15,18.121 -96.875,56.367 -123.38,71.784c-7.07,4.116 -15.808,4.116 -22.883,-0.001c-26.504,-15.416 -92.225,-53.662 -123.375,-71.783c-3.5,-2.037 -5.654,-5.783 -5.654,-9.833c-0,-4.05 2.154,-7.796 5.654,-9.834c31.15,-18.125 96.871,-56.366 123.375,-71.787Z" style="fill:#ffc040;"/><path d="M512.558,-31.7c7.071,-4.113 15.809,-4.113 22.88,0c26.504,15.421 92.225,53.663 123.379,71.788c3.495,2.037 5.65,5.783 5.65,9.833c-0,4.05 -2.154,7.796 -5.65,9.833c-31.154,18.121 -96.875,56.367 -123.38,71.784c-7.07,4.116 -15.808,4.116 -22.879,-0.001c-26.508,-15.416 -92.229,-53.662 -123.379,-71.783c-3.5,-2.037 -5.654,-5.783 -5.654,-9.833c0,-4.05 2.154,-7.796 5.654,-9.834c31.15,-18.125 96.871,-56.366 123.379,-71.787Z" style="fill:#cd5752;"/><path d="M494.479,-31.7c7.075,-4.113 15.813,-4.113 22.884,0c26.504,15.421 92.225,53.663 123.375,71.788c3.504,2.037 5.658,5.783 5.658,9.833c-0,4.05 -2.154,7.796 -5.659,9.833c-31.149,18.121 -96.87,56.367 -123.375,71.784c-7.07,4.116 -15.808,4.116 -22.883,-0.001c-26.504,-15.416 -92.225,-53.662 -123.375,-71.783c-3.5,-2.037 -5.654,-5.783 -5.654,-9.833c-0,-4.05 2.154,-7.796 5.654,-9.834c31.15,-18.125 96.871,-56.366 123.375,-71.787Z" style="fill:#ffc040;"/><path d="M476.404,-31.7c7.075,-4.113 15.813,-4.113 22.884,0c26.504,15.421 92.225,53.663 123.375,71.788c3.504,2.037 5.654,5.783 5.654,9.833c-0,4.05 -2.15,7.796 -5.654,9.833c-31.15,18.121 -96.871,56.367 -123.375,71.784c-7.071,4.116 -15.809,4.116 -22.884,-0.001c-26.504,-15.416 -92.225,-53.662 -123.375,-71.783c-3.5,-2.037 -5.654,-5.783 -5.654,-9.833c0,-4.05 2.154,-7.796 5.654,-9.834c31.15,-18.125 96.871,-56.366 123.375,-71.787Z" style="fill:#cd5752;"/><path d="M458.329,-31.7c7.075,-4.113 15.813,-4.113 22.884,0c26.504,15.421 92.224,53.663 123.379,71.788c3.496,2.037 5.65,5.783 5.65,9.833c-0,4.05 -2.154,7.796 -5.65,9.833c-31.154,18.121 -96.875,56.367 -123.379,71.784c-7.071,4.116 -15.809,4.116 -22.884,-0.001c-26.504,-15.416 -92.225,-53.662 -123.375,-71.783c-3.504,-2.037 -5.654,-5.783 -5.654,-9.833c0,-4.05 2.15,-7.796 5.654,-9.834c31.15,-18.125 96.871,-56.366 123.375,-71.787Z" style="fill:#ffc040;"/><path d="M440.254,-31.7c7.075,-4.113 15.808,-4.113 22.884,0c26.504,15.421 92.225,53.663 123.375,71.788c3.504,2.037 5.658,5.783 5.658,9.833c-0,4.05 -2.154,7.796 -5.659,9.833c-31.149,18.121 -96.87,56.367 -123.375,71.784c-7.075,4.116 -15.808,4.116 -22.883,-0.001c-26.504,-15.416 -92.225,-53.662 -123.375,-71.783c-3.5,-2.037 -5.654,-5.783 -5.654,-9.833c-0,-4.05 2.154,-7.796 5.654,-9.834c31.15,-18.125 96.871,-56.366 123.375,-71.787Z" style="fill:#cd5752;"/><path d="M422.179,-31.7c7.071,-4.113 15.808,-4.113 22.883,0c26.505,15.421 92.226,53.663 123.376,71.788c3.504,2.037 5.654,5.783 5.654,9.833c-0,4.05 -2.15,7.796 -5.654,9.833c-31.15,18.121 -96.871,56.367 -123.375,71.784c-7.075,4.116 -15.813,4.116 -22.884,-0.001c-26.504,-15.416 -92.225,-53.662 -123.379,-71.783c-3.496,-2.037 -5.65,-5.783 -5.65,-9.833c0,-4.05 2.154,-7.796 5.65,-9.834c31.154,-18.125 96.875,-56.366 123.379,-71.787Z" style="fill:#ffc040;"/><path d="M404.104,-31.7c7.075,-4.113 15.813,-4.113 22.884,0c26.504,15.421 92.225,53.663 123.379,71.788c3.495,2.037 5.65,5.783 5.65,9.833c-0,4.05 -2.154,7.796 -5.65,9.833c-31.154,18.121 -96.875,56.367 -123.379,71.784c-7.071,4.116 -15.809,4.116 -22.884,-0.001c-26.504,-15.416 -92.225,-53.662 -123.375,-71.783c-3.504,-2.037 -5.654,-5.783 -5.654,-9.833c0,-4.05 2.15,-7.796 5.654,-9.834c31.15,-18.125 96.871,-56.366 123.375,-71.787Z" style="fill:#cd5752;"/><path d="M386.029,-31.7c7.075,-4.113 15.809,-4.113 22.884,0c26.504,15.421 92.225,53.663 123.375,71.788c3.5,2.037 5.654,5.783 5.654,9.833c-0,4.05 -2.154,7.796 -5.654,9.833c-31.15,18.121 -96.871,56.367 -123.375,71.784c-7.075,4.116 -15.809,4.116 -22.884,-0.001c-26.504,-15.416 -92.225,-53.662 -123.375,-71.783c-3.504,-2.037 -5.658,-5.783 -5.658,-9.833c-0,-4.05 2.154,-7.796 5.658,-9.834c31.15,-18.125 96.871,-56.366 123.375,-71.787Z" style="fill:#ffc040;"/><path d="M367.954,-31.7c7.071,-4.113 15.808,-4.113 22.884,0c26.504,15.421 92.225,53.663 123.375,71.788c3.504,2.037 5.654,5.783 5.654,9.833c-0,4.05 -2.15,7.796 -5.654,9.833c-31.15,18.121 -96.871,56.367 -123.375,71.784c-7.075,4.116 -15.813,4.116 -22.884,-0.001c-26.504,-15.416 -92.225,-53.662 -123.379,-71.783c-3.496,-2.037 -5.65,-5.783 -5.65,-9.833c0,-4.05 2.154,-7.796 5.65,-9.834c31.154,-18.125 96.875,-56.366 123.379,-71.787Z" style="fill:#cd5752;"/><path d="M349.879,-31.7c7.071,-4.113 15.808,-4.113 22.884,0c26.504,15.421 92.225,53.663 123.375,71.788c3.5,2.037 5.654,5.783 5.654,9.833c-0,4.05 -2.154,7.796 -5.654,9.833c-31.15,18.121 -96.871,56.367 -123.375,71.784c-7.075,4.116 -15.813,4.116 -22.884,-0.001c-26.504,-15.416 -92.225,-53.662 -123.375,-71.783c-3.504,-2.037 -5.654,-5.783 -5.654,-9.833c0,-4.05 2.15,-7.796 5.654,-9.834c31.15,-18.125 96.871,-56.366 123.375,-71.787Z" style="fill:#ffc040;"/><path d="M331.804,-31.7c7.071,-4.113 15.808,-4.113 22.883,0c26.505,15.421 92.226,53.663 123.376,71.788c3.5,2.037 5.654,5.783 5.654,9.833c-0,4.05 -2.154,7.796 -5.654,9.833c-31.15,18.121 -96.871,56.367 -123.375,71.784c-7.075,4.116 -15.813,4.116 -22.884,-0.001c-26.504,-15.416 -92.225,-53.662 -123.375,-71.783c-3.504,-2.037 -5.658,-5.783 -5.658,-9.833c-0,-4.05 2.154,-7.796 5.658,-9.834c31.15,-18.125 96.871,-56.366 123.375,-71.787Z" style="fill:#cd5752;"/><path d="M313.729,-31.7c7.071,-4.113 15.809,-4.113 22.879,0c26.509,15.421 92.23,53.663 123.38,71.788c3.5,2.037 5.654,5.783 5.654,9.833c-0,4.05 -2.154,7.796 -5.654,9.833c-31.15,18.121 -96.871,56.367 -123.38,71.784c-7.07,4.116 -15.808,4.116 -22.879,-0.001c-26.504,-15.416 -92.225,-53.662 -123.379,-71.783c-3.496,-2.037 -5.65,-5.783 -5.65,-9.833c0,-4.05 2.154,-7.796 5.65,-9.834c31.154,-18.125 96.875,-56.366 123.379,-71.787Z" style="fill:#ffc040;"/><path d="M295.654,-31.7c7.071,-4.113 15.808,-4.113 22.884,0c26.504,15.421 92.225,53.663 123.375,71.788c3.5,2.037 5.654,5.783 5.654,9.833c-0,4.05 -2.154,7.796 -5.654,9.833c-31.15,18.121 -96.871,56.367 -123.375,71.784c-7.075,4.116 -15.813,4.116 -22.884,-0.001c-26.504,-15.416 -92.229,-53.662 -123.379,-71.783c-3.5,-2.037 -5.65,-5.783 -5.65,-9.833c0,-4.05 2.15,-7.796 5.65,-9.834c31.15,-18.125 96.875,-56.366 123.379,-71.787Z" style="fill:#cd5752;"/><path d="M277.579,-31.7c7.071,-4.113 15.808,-4.113 22.884,0c26.504,15.421 92.22,53.663 123.375,71.788c3.5,2.037 5.654,5.783 5.654,9.833c-0,4.05 -2.154,7.796 -5.654,9.833c-31.155,18.121 -96.871,56.367 -123.375,71.784c-7.075,4.116 -15.813,4.116 -22.884,-0.001c-26.504,-15.416 -92.225,-53.662 -123.375,-71.783c-3.504,-2.037 -5.658,-5.783 -5.658,-9.833c-0,-4.05 2.154,-7.796 5.658,-9.834c31.15,-18.125 96.871,-56.366 123.375,-71.787Z" style="fill:#ffc040;"/><path d="M259.504,-31.7c7.071,-4.113 15.809,-4.113 22.879,0c26.509,15.421 92.229,53.663 123.379,71.788c3.5,2.037 5.655,5.783 5.655,9.833c-0,4.05 -2.154,7.796 -5.655,9.833c-31.15,18.121 -96.87,56.367 -123.379,71.784c-7.071,4.116 -15.808,4.116 -22.879,-0.001c-26.508,-15.416 -92.225,-53.662 -123.379,-71.783c-3.5,-2.037 -5.654,-5.783 -5.654,-9.833c-0,-4.05 2.154,-7.796 5.654,-9.834c31.154,-18.125 96.871,-56.366 123.379,-71.787Z" style="fill:#cd5752;"/><path d="M241.429,-31.7c7.071,-4.113 15.809,-4.113 22.879,0c26.509,15.421 92.23,53.663 123.38,71.788c3.5,2.037 5.654,5.783 5.654,9.833c-0,4.05 -2.154,7.796 -5.654,9.833c-31.15,18.121 -96.871,56.367 -123.38,71.784c-7.07,4.116 -15.808,4.116 -22.879,-0.001c-26.504,-15.416 -92.229,-53.662 -123.379,-71.783c-3.5,-2.037 -5.65,-5.783 -5.65,-9.833c0,-4.05 2.15,-7.796 5.65,-9.834c31.15,-18.125 96.875,-56.366 123.379,-71.787Z" style="fill:#ffc040;"/><path d="M223.354,-31.7c7.071,-4.113 15.808,-4.113 22.879,0c26.509,15.421 92.225,53.663 123.38,71.788c3.5,2.037 5.654,5.783 5.654,9.833c-0,4.05 -2.154,7.796 -5.654,9.833c-31.155,18.121 -96.871,56.367 -123.38,71.784c-7.071,4.116 -15.808,4.116 -22.879,-0.001c-26.504,-15.416 -92.229,-53.662 -123.379,-71.783c-3.5,-2.037 -5.654,-5.783 -5.654,-9.833c-0,-4.05 2.154,-7.796 5.654,-9.834c31.15,-18.125 96.875,-56.366 123.379,-71.787Z" style="fill:#cd5752;"/><path d="M205.279,-31.7c7.071,-4.113 15.809,-4.113 22.879,0c26.509,15.421 92.225,53.663 123.38,71.788c3.5,2.037 5.654,5.783 5.654,9.833c-0,4.05 -2.154,7.796 -5.654,9.833c-31.155,18.121 -96.871,56.367 -123.38,71.784c-7.071,4.116 -15.808,4.116 -22.879,-0.001c-26.508,-15.416 -92.225,-53.662 -123.379,-71.783c-3.5,-2.037 -5.654,-5.783 -5.654,-9.833c-0,-4.05 2.154,-7.796 5.654,-9.834c31.154,-18.125 96.871,-56.366 123.379,-71.787Z" style="fill:#ffc040;"/><path d="M187.204,-31.7c7.071,-4.113 15.809,-4.113 22.879,0c26.505,15.421 92.23,53.663 123.38,71.788c3.5,2.037 5.654,5.783 5.654,9.833c-0,4.05 -2.154,7.796 -5.654,9.833c-31.15,18.121 -96.875,56.367 -123.38,71.784c-7.071,4.116 -15.808,4.116 -22.879,-0.001c-26.508,-15.416 -92.229,-53.662 -123.379,-71.783c-3.5,-2.037 -5.654,-5.783 -5.654,-9.833c-0,-4.05 2.154,-7.796 5.654,-9.834c31.15,-18.125 96.871,-56.366 123.379,-71.787Z" style="fill:#cd5752;"/><path d="M169.129,-31.7c7.071,-4.113 15.809,-4.113 22.879,0c26.509,15.421 92.225,53.663 123.38,71.788c3.5,2.037 5.654,5.783 5.654,9.833c-0,4.05 -2.154,7.796 -5.654,9.833c-31.155,18.121 -96.871,56.367 -123.38,71.784c-7.071,4.116 -15.808,4.116 -22.879,-0.001c-26.504,-15.416 -92.229,-53.662 -123.379,-71.783c-3.5,-2.037 -5.654,-5.783 -5.654,-9.833c-0,-4.05 2.154,-7.796 5.654,-9.834c31.15,-18.125 96.875,-56.366 123.379,-71.787Z" style="fill:#ffc040;"/><path d="M151.054,-31.7c7.071,-4.113 15.809,-4.113 22.879,0c26.505,15.421 92.225,53.663 123.375,71.788c3.505,2.037 5.659,5.783 5.659,9.833c-0,4.05 -2.154,7.796 -5.659,9.833c-31.15,18.121 -96.87,56.367 -123.375,71.784c-7.07,4.116 -15.808,4.116 -22.879,-0.001c-26.508,-15.416 -92.225,-53.662 -123.379,-71.783c-3.5,-2.037 -5.654,-5.783 -5.654,-9.833c-0,-4.05 2.154,-7.796 5.654,-9.834c31.154,-18.125 96.871,-56.366 123.379,-71.787Z" style="fill:#cd5752;"/><path d="M132.975,-31.7c7.075,-4.113 15.813,-4.113 22.883,0c26.504,15.421 92.23,53.663 123.38,71.788c3.5,2.037 5.654,5.783 5.654,9.833c-0,4.05 -2.154,7.796 -5.654,9.833c-31.15,18.121 -96.876,56.367 -123.38,71.784c-7.071,4.116 -15.808,4.116 -22.883,-0.001c-26.504,-15.416 -92.225,-53.662 -123.375,-71.783c-3.5,-2.037 -5.654,-5.783 -5.654,-9.833c-0,-4.05 2.154,-7.796 5.654,-9.834c31.15,-18.125 96.871,-56.366 123.375,-71.787Z" style="fill:#ffc040;"/><path d="M114.904,-31.7c7.071,-4.113 15.809,-4.113 22.879,0c26.505,15.421 92.225,53.663 123.38,71.788c3.495,2.037 5.649,5.783 5.649,9.833c0,4.05 -2.154,7.796 -5.649,9.833c-31.155,18.121 -96.876,56.367 -123.38,71.784c-7.071,4.116 -15.808,4.116 -22.879,-0.001c-26.508,-15.416 -92.229,-53.662 -123.379,-71.783c-3.5,-2.037 -5.654,-5.783 -5.654,-9.833c-0,-4.05 2.154,-7.796 5.654,-9.834c31.15,-18.125 96.871,-56.366 123.379,-71.787Z" style="fill:#cd5752;"/><path d="M96.829,-31.7c7.071,-4.113 15.809,-4.113 22.879,0c26.504,15.421 92.225,53.663 123.375,71.788c3.505,2.037 5.659,5.783 5.659,9.833c-0,4.05 -2.155,7.796 -5.659,9.833c-31.15,18.121 -96.87,56.367 -123.375,71.784c-7.07,4.116 -15.808,4.116 -22.879,-0.001c-26.508,-15.416 -92.229,-53.662 -123.379,-71.783c-3.5,-2.037 -5.654,-5.783 -5.654,-9.833c-0,-4.05 2.154,-7.796 5.654,-9.834c31.15,-18.125 96.871,-56.366 123.379,-71.787Z" style="fill:#ffc040;"/><path d="M78.75,-31.7c7.071,-4.113 15.808,-4.113 22.883,0c26.505,15.421 92.225,53.663 123.375,71.788c3.505,2.037 5.655,5.783 5.655,9.833c-0,4.05 -2.15,7.796 -5.655,9.833c-31.15,18.121 -96.87,56.367 -123.375,71.784c-7.075,4.116 -15.812,4.116 -22.883,-0.001c-26.504,-15.416 -92.225,-53.662 -123.375,-71.783c-3.5,-2.037 -5.654,-5.783 -5.654,-9.833c-0,-4.05 2.154,-7.796 5.654,-9.834c31.15,-18.125 96.871,-56.366 123.375,-71.787Z" style="fill:#cd5752;"/><g><path d="M60.354,-31.7c7.071,-4.113 15.809,-4.113 22.884,0c26.504,15.421 92.225,53.663 123.375,71.788c3.504,2.037 5.654,5.783 5.654,9.833c-0,4.05 -2.15,7.796 -5.654,9.833c-31.15,18.121 -96.871,56.367 -123.375,71.784c-7.075,4.116 -15.813,4.116 -22.884,-0.001c-26.504,-15.416 -92.225,-53.662 -123.379,-71.783c-3.496,-2.037 -5.65,-5.783 -5.65,-9.833c0,-4.05 2.154,-7.796 5.65,-9.834c31.154,-18.125 96.875,-56.366 123.379,-71.787Z" style="fill:#ffc040;"/><path d="M61.913,-20.583c6.112,-3.555 13.658,-3.555 19.766,-0c22.896,13.32 79.667,46.354 106.571,62.012c3.025,1.758 4.883,4.992 4.883,8.492c0,3.496 -1.858,6.733 -4.883,8.491c-26.904,15.659 -83.675,48.688 -106.571,62.013c-6.108,3.554 -13.654,3.554 -19.766,-0c-22.896,-13.325 -79.663,-46.354 -106.571,-62.013c-3.025,-1.758 -4.884,-4.995 -4.884,-8.491c0,-3.5 1.859,-6.734 4.884,-8.492c26.908,-15.658 83.675,-48.692 106.571,-62.012Z" style="fill:#cd5752;"/><path d="M72.792,-7.838c5.171,-2.912 11.562,-2.912 16.737,0c19.396,10.913 67.479,37.971 90.271,50.796c2.563,1.446 4.138,4.092 4.138,6.959c-0,2.866 -1.576,5.516 -4.138,6.958c-22.792,12.825 -70.875,39.883 -90.271,50.8c-5.175,2.908 -11.566,2.908 -16.737,-0c-7.638,-4.296 -58.863,7.237 -72.1,-0.213c-20.379,-11.466 -4.354,-42.812 -18.171,-50.587c-2.563,-1.442 -4.138,-4.092 -4.138,-6.958c0,-2.867 1.575,-5.513 4.138,-6.959c20.037,-11.275 0.304,-38.446 22.758,-51.079c3.084,-1.737 65.167,1.6 67.513,0.283Z" style="fill:#fff9f9;"/><g><path d="M93.238,59.925c2.629,-2.629 4.108,-6.2 4.108,-9.917c-0,-3.725 -1.479,-7.296 -4.109,-9.925c-8.32,-8.316 -20.137,-20.137 -28.458,-28.454c-2.629,-2.633 -6.2,-4.112 -9.921,-4.112c-3.721,-0 -7.291,1.479 -9.921,4.112c-8.316,8.317 -20.137,20.138 -28.454,28.454c-2.633,2.63 -4.112,6.2 -4.112,9.925c-0,3.717 1.479,7.288 4.112,9.917c8.317,8.321 20.138,20.137 28.454,28.458c2.63,2.629 6.2,4.109 9.921,4.109c3.721,-0 7.292,-1.48 9.921,-4.109c8.321,-8.321 20.138,-20.137 28.458,-28.458Z" style="fill:#cd5752;"/><g><path d="M73.925,44.3c0,-0.867 -0.704,-1.571 -1.575,-1.571l-34.983,0c-0.867,0 -1.571,0.704 -1.571,1.571l-0,0.004c-0,0.871 0.704,1.571 1.571,1.571l34.983,0c0.871,0 1.575,-0.7 1.575,-1.571l0,-0.004Z" style="fill:#fff9f9;"/><path d="M46.667,41.579c-0,0.242 -0.196,0.438 -0.438,0.438l-2.033,-0c-0.488,-0 -0.879,-0.392 -0.879,-0.88l-0,-0.97c-0,-0.117 0.045,-0.225 0.129,-0.309c0.083,-0.083 0.196,-0.129 0.312,-0.129l2.813,0c0.021,0 0.05,0.008 0.067,0.029c0.02,0.021 0.029,0.046 0.029,0.071l-0,1.75Zm1.171,0.438c-0.117,-0 -0.23,-0.046 -0.309,-0.125c-0.083,-0.084 -0.129,-0.2 -0.129,-0.313l-0,-12.792c-0,-0.766 0.621,-1.391 1.392,-1.391l12.137,-0c0.767,-0 1.392,0.625 1.392,1.391l-0,12.792c-0,0.113 -0.046,0.229 -0.129,0.313c-0.084,0.079 -0.196,0.125 -0.313,0.125l-14.042,-0Zm18.125,-2.288c0.117,0 0.23,0.046 0.309,0.129c0.083,0.084 0.129,0.192 0.129,0.309l-0,0.971c-0,0.487 -0.392,0.879 -0.875,0.879l-2.033,-0c-0.242,-0 -0.442,-0.196 -0.442,-0.438l-0,-1.412c-0,-0.117 0.05,-0.225 0.129,-0.309c0.083,-0.083 0.196,-0.129 0.313,-0.129l2.47,0Zm-11.104,0.258c0.325,0 0.592,0.267 0.592,0.592c-0,0.325 -0.267,0.592 -0.592,0.592c-0.325,-0 -0.591,-0.267 -0.591,-0.592c-0,-0.325 0.266,-0.592 0.591,-0.592Zm-2.062,0c0.325,0 0.591,0.267 0.591,0.592c0,0.325 -0.266,0.592 -0.591,0.592c-0.325,-0 -0.592,-0.267 -0.592,-0.592c0,-0.325 0.267,-0.592 0.592,-0.592Zm4.125,0c0.329,0 0.591,0.267 0.591,0.592c0,0.325 -0.262,0.592 -0.591,0.592c-0.325,-0 -0.592,-0.267 -0.592,-0.592c0,-0.325 0.267,-0.592 0.592,-0.592Zm-2.063,-2.058c0.325,0 0.592,0.263 0.592,0.592c-0,0.325 -0.267,0.591 -0.592,0.591c-0.325,0 -0.591,-0.266 -0.591,-0.591c-0,-0.329 0.266,-0.592 0.591,-0.592Zm-2.062,0c0.325,0 0.591,0.263 0.591,0.592c0,0.325 -0.266,0.591 -0.591,0.591c-0.325,0 -0.592,-0.266 -0.592,-0.591c0,-0.329 0.267,-0.592 0.592,-0.592Zm4.125,0c0.329,0 0.591,0.263 0.591,0.592c0,0.325 -0.262,0.591 -0.591,0.591c-0.325,0 -0.592,-0.266 -0.592,-0.591c0,-0.329 0.267,-0.592 0.592,-0.592Zm-13.604,-2.592c-0,-0.116 0.045,-0.229 0.129,-0.308c0.083,-0.083 0.196,-0.129 0.312,-0.129l2.813,-0c0.021,-0 0.05,0.008 0.066,0.029c0.021,0.017 0.03,0.042 0.03,0.067l-0,3.904c-0,0.054 -0.046,0.096 -0.096,0.096l-2.813,-0c-0.116,-0 -0.229,-0.046 -0.312,-0.129c-0.084,-0.08 -0.129,-0.192 -0.129,-0.309l-0,-3.221Zm23.083,3.221c-0,0.117 -0.046,0.229 -0.129,0.309c-0.079,0.083 -0.192,0.129 -0.309,0.129l-2.47,-0c-0.117,-0 -0.23,-0.046 -0.313,-0.129c-0.079,-0.08 -0.129,-0.192 -0.129,-0.309l-0,-3.221c-0,-0.116 0.05,-0.229 0.129,-0.308c0.083,-0.083 0.196,-0.129 0.313,-0.129l2.47,-0c0.117,-0 0.23,0.046 0.309,0.129c0.083,0.079 0.129,0.192 0.129,0.308l-0,3.221Zm-11.542,-2.691c0.325,-0 0.592,0.262 0.592,0.591c-0,0.329 -0.267,0.592 -0.592,0.592c-0.325,-0 -0.591,-0.263 -0.591,-0.592c-0,-0.329 0.266,-0.591 0.591,-0.591Zm-2.062,-0c0.325,-0 0.591,0.262 0.591,0.591c0,0.329 -0.266,0.592 -0.591,0.592c-0.325,-0 -0.592,-0.263 -0.592,-0.592c0,-0.329 0.267,-0.591 0.592,-0.591Zm4.125,-0c0.329,-0 0.591,0.262 0.591,0.591c0,0.329 -0.262,0.592 -0.591,0.592c-0.325,-0 -0.592,-0.263 -0.592,-0.592c0,-0.329 0.267,-0.591 0.592,-0.591Zm-2.063,-2.063c0.325,0 0.592,0.267 0.592,0.592c-0,0.329 -0.267,0.596 -0.592,0.596c-0.325,-0 -0.591,-0.267 -0.591,-0.596c-0,-0.325 0.266,-0.592 0.591,-0.592Zm-2.062,0c0.325,0 0.591,0.267 0.591,0.592c0,0.329 -0.266,0.596 -0.591,0.596c-0.325,-0 -0.592,-0.267 -0.592,-0.596c0,-0.325 0.267,-0.592 0.592,-0.592Zm4.125,0c0.329,0 0.591,0.267 0.591,0.592c0,0.329 -0.262,0.596 -0.591,0.596c-0.325,-0 -0.592,-0.267 -0.592,-0.596c0,-0.325 0.267,-0.592 0.592,-0.592Zm9.479,-0.075c0,0.117 -0.046,0.225 -0.129,0.308c-0.079,0.084 -0.192,0.13 -0.308,0.13l-2.471,-0c-0.117,-0 -0.229,-0.046 -0.313,-0.13c-0.079,-0.083 -0.129,-0.191 -0.129,-0.308l0,-3.442c0,-0.05 0.046,-0.095 0.1,-0.095l0,-0.005l2.813,0c0.116,0 0.229,0.05 0.308,0.13c0.083,0.083 0.129,0.195 0.129,0.312l0,3.1Zm-23.083,-3.1c-0,-0.117 0.045,-0.229 0.129,-0.312c0.083,-0.08 0.196,-0.13 0.312,-0.13l2.471,0c0.113,0 0.225,0.05 0.309,0.13c0.083,0.083 0.129,0.195 0.129,0.312l-0,3.438c-0,0.054 -0.046,0.1 -0.096,0.1l-2.813,-0c-0.116,-0 -0.229,-0.046 -0.312,-0.13c-0.083,-0.083 -0.129,-0.191 -0.129,-0.308l-0,-3.1Zm9.479,1.117c0.325,-0 0.592,0.266 0.592,0.591c-0,0.325 -0.267,0.592 -0.592,0.592c-0.325,0 -0.592,-0.267 -0.592,-0.592c0,-0.325 0.267,-0.591 0.592,-0.591Zm2.062,-0c0.325,-0 0.592,0.266 0.592,0.591c0,0.325 -0.267,0.592 -0.592,0.592c-0.325,0 -0.591,-0.267 -0.591,-0.592c-0,-0.325 0.266,-0.591 0.591,-0.591Zm2.063,-0c0.329,-0 0.592,0.266 0.592,0.591c-0,0.325 -0.263,0.592 -0.592,0.592c-0.325,0 -0.592,-0.267 -0.592,-0.592c0,-0.325 0.267,-0.591 0.592,-0.591Zm-0,-2.063c0.329,0 0.592,0.267 0.592,0.592c-0,0.329 -0.263,0.592 -0.592,0.592c-0.325,-0 -0.592,-0.263 -0.592,-0.592c0,-0.325 0.267,-0.592 0.592,-0.592Zm-4.125,0c0.325,0 0.592,0.267 0.592,0.592c-0,0.329 -0.267,0.592 -0.592,0.592c-0.325,-0 -0.592,-0.263 -0.592,-0.592c0,-0.325 0.267,-0.592 0.592,-0.592Zm2.062,0c0.325,0 0.592,0.267 0.592,0.592c0,0.329 -0.267,0.592 -0.592,0.592c-0.325,-0 -0.591,-0.263 -0.591,-0.592c-0,-0.325 0.266,-0.592 0.591,-0.592Zm10.804,-4.916c0.121,-0.125 0.309,-0.163 0.471,-0.096c0.163,0.066 0.267,0.225 0.267,0.4l0,3.946c0,0.116 -0.046,0.229 -0.129,0.312c-0.079,0.083 -0.192,0.129 -0.308,0.129l-2.813,0c-0.029,0 -0.05,-0.012 -0.071,-0.029c-0.016,-0.017 -0.029,-0.042 -0.029,-0.071l0,-0.571c0,-0.3 -0.062,-0.583 -0.171,-0.837c-0.075,-0.167 -0.037,-0.358 0.088,-0.488c0.537,-0.541 1.925,-1.933 2.696,-2.695Zm-22.346,0.304c-0,-0.175 0.108,-0.334 0.266,-0.4c0.163,-0.067 0.35,-0.029 0.475,0.096c0.767,0.762 2.155,2.154 2.696,2.691c0.129,0.134 0.163,0.325 0.088,0.492c-0.113,0.254 -0.175,0.537 -0.175,0.837l-0,0.23c-0,0.116 -0.046,0.229 -0.129,0.312c-0.084,0.083 -0.196,0.129 -0.309,0.129l-2.471,0c-0.116,0 -0.229,-0.046 -0.312,-0.129c-0.083,-0.083 -0.129,-0.196 -0.129,-0.312l-0,-3.946Zm16.741,-1.317c0,-0.117 0.046,-0.229 0.13,-0.312c0.079,-0.08 0.191,-0.125 0.308,-0.125l4.15,-0c0.146,-0 0.296,0.016 0.437,0.054c0.15,0.037 0.271,0.154 0.313,0.304c0.042,0.146 -0,0.308 -0.113,0.417c-0.716,0.733 -2.187,2.2 -2.775,2.787c-0.141,0.142 -0.362,0.171 -0.537,0.067c-0.304,-0.179 -0.663,-0.284 -1.042,-0.284l-0.433,0c-0.117,0 -0.229,-0.045 -0.308,-0.129c-0.084,-0.079 -0.13,-0.191 -0.13,-0.308l0,-2.471Zm-10.837,-0.437c0.117,-0 0.229,0.045 0.312,0.125c0.084,0.083 0.13,0.195 0.13,0.312l-0,2.471c-0,0.117 -0.046,0.229 -0.13,0.308c-0.083,0.084 -0.195,0.129 -0.312,0.129l-0.429,0c-0.384,0 -0.742,0.105 -1.05,0.28c-0.171,0.1 -0.388,0.075 -0.529,-0.067c-0.592,-0.583 -2.059,-2.05 -2.784,-2.779c-0.116,-0.109 -0.158,-0.271 -0.116,-0.425c0.041,-0.154 0.162,-0.271 0.32,-0.309c0.142,-0.029 0.288,-0.045 0.442,-0.045l4.146,-0Zm6.004,0.437c0,-0.117 0.046,-0.229 0.129,-0.312c0.079,-0.08 0.192,-0.125 0.309,-0.125l3.225,-0c0.116,-0 0.225,0.045 0.308,0.125c0.083,0.083 0.129,0.195 0.129,0.312l0,2.471c0,0.117 -0.046,0.229 -0.129,0.308c-0.083,0.084 -0.192,0.129 -0.308,0.129l-3.225,0c-0.117,0 -0.23,-0.045 -0.309,-0.129c-0.083,-0.079 -0.129,-0.191 -0.129,-0.308l0,-2.471Zm-4.833,0c-0,-0.117 0.046,-0.229 0.129,-0.312c0.083,-0.08 0.196,-0.125 0.312,-0.125l3.221,-0c0.117,-0 0.225,0.045 0.309,0.125c0.083,0.083 0.129,0.195 0.129,0.312l-0,2.471c-0,0.117 -0.046,0.229 -0.129,0.308c-0.084,0.084 -0.192,0.129 -0.309,0.129l-3.221,0c-0.116,0 -0.229,-0.045 -0.312,-0.129c-0.083,-0.079 -0.129,-0.191 -0.129,-0.308l-0,-2.471Z" style="fill:#fff9f9;"/><path d="M73.233,67.454c-0.225,-0.175 -0.525,-0.229 -0.8,-0.137c-0.275,0.087 -0.483,0.312 -0.558,0.587c-2.313,8.65 -9.721,8.65 -17.129,8.65c-8.925,0 -17.846,0 -17.846,-15.112l0,-13.105c0,-0.466 0.183,-0.912 0.513,-1.241c0.329,-0.334 0.775,-0.517 1.241,-0.517l32.179,0c0.467,0 0.913,0.183 1.246,0.517c0.329,0.329 0.513,0.775 0.513,1.241l-0,5.905c-0,0.32 0.17,0.612 0.45,0.766c0.279,0.154 0.616,0.15 0.887,-0.016c1.104,-0.667 2.396,-1.046 3.775,-1.046c4.138,-0 7.496,3.358 7.496,7.496c-0,4.137 -3.358,7.495 -7.496,7.495c-1.675,0 -3.221,-0.554 -4.471,-1.483Zm-10.633,-3.408c0.25,-0 0.488,0.104 0.654,0.287c0.167,0.184 0.246,0.434 0.221,0.675c-0.487,4.334 -4.162,7.704 -8.621,7.704c-4.454,0 -8.133,-3.37 -8.612,-7.704c-0.025,-0.241 0.054,-0.487 0.225,-0.671c0.162,-0.183 0.396,-0.287 0.641,-0.287c3.005,-0.004 12.492,-0.004 15.492,-0.004Zm15.104,-7.717c2.821,0 5.113,2.292 5.113,5.113c-0,2.82 -2.292,5.112 -5.113,5.112c-2.821,0 -5.112,-2.291 -5.112,-5.112c-0,-2.821 2.291,-5.113 5.112,-5.113Zm-10.075,-1.9c0.013,-0.2 0.175,-0.35 0.371,-0.35c0.096,-0.004 0.2,-0.004 0.3,-0.004c0.104,0 0.204,0.038 0.275,0.113c0.071,0.079 0.108,0.179 0.104,0.283c-0.208,2.687 -2.458,4.812 -5.2,4.812c-2.741,0 -4.991,-2.125 -5.196,-4.816c-0.004,-0.1 0.034,-0.2 0.105,-0.271c0.07,-0.075 0.166,-0.117 0.266,-0.117c0.1,-0.004 0.204,-0.004 0.304,-0.004c0.2,0 0.363,0.154 0.375,0.354c0.175,2.154 1.963,3.85 4.146,3.85c2.179,0 3.971,-1.696 4.15,-3.85Zm-17.241,0c0.012,-0.2 0.175,-0.35 0.37,-0.35c0.096,-0.004 0.2,-0.004 0.3,-0.004c0.105,0 0.205,0.038 0.275,0.113c0.071,0.079 0.109,0.179 0.1,0.283c-0.208,2.687 -2.454,4.812 -5.2,4.812c-2.737,0 -4.987,-2.125 -5.191,-4.816c-0.004,-0.1 0.033,-0.2 0.104,-0.271c0.071,-0.075 0.167,-0.117 0.267,-0.117c0.1,-0.004 0.204,-0.004 0.3,-0.004c0.2,0 0.366,0.154 0.379,0.354c0.171,2.154 1.962,3.85 4.141,3.85c2.184,0 3.975,-1.696 4.155,-3.85Z" style="fill:#fff9f9;"/></g></g><path d="M27.613,33.954l2.804,2.804" style="fill:none;"/><path d="M43.275,33.954l-2.804,2.804" style="fill:none;"/></g></g><text x="89.483px" y="78.366px" style="font-family:'Grandstander-LightItalic', 'Grandstander';font-weight:300;font-style:italic;font-size:12.5px;fill:#cd5752;">Soci<tspan x="114.383px 121.258px 127.133px " y="78.366px 78.366px 78.366px ">ety</tspan></text><text x="91.452px" y="33.35px" style="font-family:'Grandstander-LightItalic', 'Grandstander';font-weight:300;font-style:italic;font-size:12.5px;fill:#cd5752;">Th<tspan x="105.127px " y="33.35px ">e</tspan></text><text x="101.06px" y="55.84px" style="font-family:'Montserrat-ExtraBold', 'Montserrat';font-weight:800;font-size:16.667px;fill:#41251d;">BISC<tspan x="142.477px " y="55.84px ">U</tspan>IT</text></g></svg>