<?xml version="1.0" encoding="UTF-8" standalone="no"?><!DOCTYPE svg PUBLIC "-//W3C//DTD SVG 1.1//EN" "http://www.w3.org/Graphics/SVG/1.1/DTD/svg11.dtd"><svg width="4167px" height="4167px" version="1.1" xmlns="http://www.w3.org/2000/svg" xmlns:xlink="http://www.w3.org/1999/xlink" xml:space="preserve" xmlns:serif="http://www.serif.com/" style="fill-rule:evenodd;clip-rule:evenodd;stroke-linejoin:round;stroke-miterlimit:2;"><circle cx="2083.33" cy="2083.33" r="2083.33" style="fill:#c6dcfb;"/><path d="M2083.33,0c1149.83,0 2083.33,933.508 2083.33,2083.33c-0,1149.83 -933.509,2083.33 -2083.33,2083.33c-1149.83,-0 -2083.33,-933.509 -2083.33,-2083.33c0,-1149.83 933.508,-2083.33 2083.33,-2083.33Zm0,347.221c958.188,-0 1736.11,777.925 1736.11,1736.11c-0,958.188 -777.925,1736.11 -1736.11,1736.11c-958.187,-0 -1736.11,-777.925 -1736.11,-1736.11c-0,-958.187 777.925,-1736.11 1736.11,-1736.11Z" style="fill:#1d1e41;"/><circle cx="2083.33" cy="2083.33" r="872.927" style="fill:#1d1e41;"/><path d="M2044.69,617.361c5.42,-16.761 21.027,-28.118 38.643,-28.118c17.617,-0 33.224,11.357 38.644,28.118c37.311,115.397 92.091,284.818 119.648,370.044c3.996,12.36 1.839,25.886 -5.804,36.39c-7.643,10.504 -19.849,16.718 -32.84,16.718c-65.574,-0 -173.721,-0 -239.296,-0c-12.99,-0 -25.196,-6.214 -32.839,-16.718c-7.643,-10.504 -9.8,-24.03 -5.804,-36.39c27.556,-85.226 82.336,-254.647 119.648,-370.044Z" style="fill:#1d1e41;"/><path d="M3088.83,1023.05c15.685,-8.02 34.751,-5.015 47.208,7.442c12.456,12.457 15.462,31.523 7.442,47.208c-55.214,107.981 -136.278,266.515 -177.057,346.264c-5.914,11.566 -17.003,19.605 -29.835,21.628c-12.832,2.023 -25.857,-2.215 -35.043,-11.4c-46.368,-46.368 -122.839,-122.84 -169.207,-169.208c-9.186,-9.185 -13.423,-22.21 -11.4,-35.042c2.023,-12.832 10.062,-23.922 21.628,-29.836c79.749,-40.778 238.283,-121.842 346.264,-177.056Z" style="fill:#1d1e41;"/><path d="M1077.84,1023.05c-15.685,-8.02 -34.751,-5.015 -47.208,7.442c-12.457,12.457 -15.462,31.523 -7.442,47.208c55.214,107.981 136.278,266.515 177.056,346.264c5.914,11.566 17.004,19.605 29.836,21.628c12.832,2.023 25.857,-2.215 35.042,-11.4c46.368,-46.368 122.84,-122.84 169.208,-169.208c9.185,-9.185 13.423,-22.21 11.4,-35.042c-2.023,-12.832 -10.062,-23.922 -21.628,-29.836c-79.749,-40.778 -238.283,-121.842 -346.264,-177.056Z" style="fill:#1d1e41;"/><path d="M3572.59,2044.56c16.762,5.42 28.119,21.027 28.119,38.643c-0,17.616 -11.357,33.224 -28.119,38.644c-115.396,37.311 -284.818,92.091 -370.043,119.648c-12.36,3.996 -25.887,1.839 -36.39,-5.804c-10.504,-7.643 -16.718,-19.85 -16.718,-32.84c-0,-65.574 -0,-173.721 -0,-239.296c-0,-12.99 6.214,-25.196 16.718,-32.839c10.503,-7.643 24.03,-9.8 36.39,-5.804c85.225,27.556 254.647,82.336 370.043,119.648Z" style="fill:#1d1e41;"/><path d="M2121.98,3538.63c-5.42,16.761 -21.027,28.118 -38.644,28.118c-17.616,0 -33.223,-11.357 -38.643,-28.118c-37.312,-115.397 -92.092,-284.818 -119.648,-370.044c-3.996,-12.36 -1.839,-25.886 5.804,-36.39c7.643,-10.504 19.849,-16.718 32.839,-16.718c65.575,0 173.722,0 239.296,0c12.991,0 25.197,6.214 32.84,16.718c7.643,10.504 9.8,24.03 5.804,36.39c-27.557,85.226 -82.337,254.647 -119.648,370.044Z" style="fill:#1d1e41;"/><path d="M1077.84,3143.35c-15.685,8.02 -34.751,5.014 -47.208,-7.442c-12.457,-12.457 -15.462,-31.524 -7.442,-47.208c55.214,-107.981 136.278,-266.515 177.056,-346.264c5.914,-11.566 17.004,-19.605 29.836,-21.628c12.832,-2.023 25.857,2.214 35.042,11.4c46.368,46.368 122.84,122.839 169.208,169.207c9.185,9.186 13.423,22.211 11.4,35.043c-2.023,12.832 -10.062,23.921 -21.628,29.835c-79.749,40.779 -238.283,121.842 -346.264,177.057Z" style="fill:#1d1e41;"/><path d="M3088.83,3143.35c15.685,8.02 34.751,5.014 47.208,-7.442c12.456,-12.457 15.462,-31.524 7.442,-47.208c-55.214,-107.981 -136.278,-266.515 -177.057,-346.264c-5.914,-11.566 -17.003,-19.605 -29.835,-21.628c-12.832,-2.023 -25.857,2.214 -35.043,11.4c-46.368,46.368 -122.839,122.839 -169.207,169.207c-9.186,9.186 -13.423,22.211 -11.4,35.043c2.023,12.832 10.062,23.921 21.628,29.835c79.749,40.779 238.283,121.842 346.264,177.057Z" style="fill:#1d1e41;"/><path d="M594.077,2121.84c-16.761,-5.42 -28.118,-21.028 -28.118,-38.644c-0,-17.616 11.357,-33.223 28.118,-38.643c115.397,-37.312 284.818,-92.092 370.044,-119.648c12.36,-3.996 25.886,-1.839 36.39,5.804c10.504,7.643 16.718,19.849 16.718,32.839c-0,65.575 -0,173.722 -0,239.296c-0,12.991 -6.214,25.197 -16.718,32.84c-10.504,7.643 -24.03,9.8 -36.39,5.804c-85.226,-27.557 -254.647,-82.337 -370.044,-119.648Z" style="fill:#1d1e41;"/></svg>