<?xml version="1.0" encoding="UTF-8" standalone="no"?><!DOCTYPE svg PUBLIC "-//W3C//DTD SVG 1.1//EN" "http://www.w3.org/Graphics/SVG/1.1/DTD/svg11.dtd"><svg width="5209px" height="13892px" version="1.1" xmlns="http://www.w3.org/2000/svg" xmlns:xlink="http://www.w3.org/1999/xlink" xml:space="preserve" xmlns:serif="http://www.serif.com/" style="fill-rule:evenodd;clip-rule:evenodd;stroke-linecap:round;stroke-linejoin:round;stroke-miterlimit:1.5;"><rect x="0" y="0" width="5208.33" height="13888.9" style="fill:#a25632;"/><path d="M2399.88,11817.3c-28.868,-4.495 -57.332,7.126 -85.378,21.653c-40.869,21.168 -79.966,50.942 -117.015,78.197c-94.126,66.712 -246.72,146.178 -469.562,178.226c-0.865,2.057 -2.355,6.035 -2.356,8.794c0,155.863 0,482.352 0,706.008c0,35.922 11.645,70.615 33.595,96.015c17.938,20.759 41.726,33.53 67.095,33.53l1555.81,-0c25.369,-0 49.157,-12.771 67.096,-33.53c21.949,-25.4 33.594,-60.093 33.594,-96.015c-0,-223.656 -0,-550.145 -0,-705.978c-0.001,-2.778 -1.488,-6.757 -2.353,-8.818c-223.673,-32.486 -375.706,-111.709 -470.773,-179.104c-35.84,-26.383 -74.937,-56.157 -115.806,-77.325c-28.046,-14.527 -56.511,-26.148 -85.378,-21.653c-67.15,12.998 -142.803,23.681 -202.887,23.681c-0.203,-0 -0.407,-0.001 -0.61,-0.003c0,0 -1.396,-0.01 -0.177,-0.01c0,0 -1.396,0.01 -2.005,0.013c-60.084,-0 -135.738,-10.683 -202.887,-23.681Zm716.097,-124.789c112.374,88.934 248.025,141.391 394.28,141.391c394.364,0 708.072,-376.053 708.072,-832.418c0,-456.365 -313.708,-832.419 -708.072,-832.419c-45.301,0 -89.596,5.017 -132.493,14.612c-35.695,7.985 -72.401,-8.385 -90.312,-40.277c-145.235,-258.595 -395.712,-432.043 -681.506,-432.044l-2.171,0.006c0,0 -1.396,-0.006 -1.008,-0.005c-286.182,-0 -536.659,173.448 -681.893,432.043c-17.911,31.892 -54.618,48.262 -90.312,40.277c-42.897,-9.595 -87.193,-14.612 -132.494,-14.612c-394.364,0 -708.072,376.054 -708.072,832.419c-0,456.365 313.708,832.418 708.072,832.418c146.595,0 282.536,-52.701 394.345,-141.344c-160.241,-115.033 -289.237,-283.253 -367.478,-483.689c-0.237,-0.606 -0.466,-1.215 -0.688,-1.826c-16.344,-44.97 6.479,-95.02 45.261,-114.146c45.456,-22.416 100.316,-5.476 122.162,44.79c139.034,288.744 406.696,452.859 712.47,452.859l1.833,-0.005c0,-0 1.397,0.007 0.982,0.005c305.716,0 570.713,-164.191 709.696,-452.85c21.839,-50.272 76.706,-67.218 122.166,-44.799c38.783,19.126 61.606,69.176 44.573,115.972c-78.224,200.393 -207.181,368.583 -367.413,483.642Z" style="fill:#f7d299;stroke:#f7d299;stroke-width:83.33px;"/></svg>