<?xml version="1.0" encoding="UTF-8" standalone="no"?><!DOCTYPE svg PUBLIC "-//W3C//DTD SVG 1.1//EN" "http://www.w3.org/Graphics/SVG/1.1/DTD/svg11.dtd"><svg width="1000px" height="1000px" version="1.1" xmlns="http://www.w3.org/2000/svg" xmlns:xlink="http://www.w3.org/1999/xlink" xml:space="preserve" xmlns:serif="http://www.serif.com/" style="fill-rule:evenodd;clip-rule:evenodd;stroke-linecap:round;stroke-linejoin:round;stroke-miterlimit:1.5;"><g><g><path d="M1049.46,372.391c11.804,45.545 18.091,93.343 18.091,142.599c-0,313.328 -254.383,567.711 -567.711,567.711c-313.329,-0 -567.712,-254.383 -567.712,-567.711c0,-313.329 254.383,-567.712 567.712,-567.712c189.657,0 69.454,56.844 53.177,93.417c-2.959,-0.252 -5.952,-0.381 -8.974,-0.381c-57.675,0 -104.499,46.825 -104.499,104.499c-0,53.459 40.229,97.596 92.036,103.762c-7.202,14.181 -11.263,30.225 -11.263,47.21c0,57.675 46.825,104.499 104.5,104.499c4.948,0 9.817,-0.344 14.588,-1.012c9.103,48.423 51.651,85.105 102.699,85.105c23.71,0 45.587,-7.913 63.125,-21.237c18.137,31.005 51.787,51.85 90.268,51.85c57.674,-0 104.499,-46.825 104.499,-104.5c0,-11.067 -1.724,-21.736 -4.921,-31.756c5.055,0.754 10.231,1.144 15.496,1.144c13.744,0 26.872,-2.659 38.889,-7.487Z" style="fill:none;"/><clipPath id="_clip1"><path d="M1049.46,372.391c11.804,45.545 18.091,93.343 18.091,142.599c-0,313.328 -254.383,567.711 -567.711,567.711c-313.329,-0 -567.712,-254.383 -567.712,-567.711c0,-313.329 254.383,-567.712 567.712,-567.712c189.657,0 69.454,56.844 53.177,93.417c-2.959,-0.252 -5.952,-0.381 -8.974,-0.381c-57.675,0 -104.499,46.825 -104.499,104.499c-0,53.459 40.229,97.596 92.036,103.762c-7.202,14.181 -11.263,30.225 -11.263,47.21c0,57.675 46.825,104.499 104.5,104.499c4.948,0 9.817,-0.344 14.588,-1.012c9.103,48.423 51.651,85.105 102.699,85.105c23.71,0 45.587,-7.913 63.125,-21.237c18.137,31.005 51.787,51.85 90.268,51.85c57.674,-0 104.499,-46.825 104.499,-104.5c0,-11.067 -1.724,-21.736 -4.921,-31.756c5.055,0.754 10.231,1.144 15.496,1.144c13.744,0 26.872,-2.659 38.889,-7.487Z"/></clipPath><g clip-path="url(#_clip1)"><g><g><circle cx="500" cy="514.99" r="405.093" style="fill:#c1d7d3;"/><clipPath id="_clip2"><circle cx="500" cy="514.99" r="405.093"/></clipPath><g clip-path="url(#_clip2)"><g><path d="M350.828,133.539l45.019,113.404l-136.198,149.875l-166.97,-62.686l236.069,-225.667l22.08,25.074Z" style="fill:#293c49;"/><path d="M860.541,359.206l-113.403,45.02l-149.875,-136.198l62.686,-166.971l225.666,236.07l-25.074,22.079Z" style="fill:#293c49;"/><path d="M658.025,868.92l-45.019,-113.403l136.198,-149.875l166.971,62.685l-236.07,225.667l-22.08,-25.074Z" style="fill:#293c49;"/><path d="M132.569,643.253l113.404,-45.019l149.874,136.198l-62.685,166.97l-225.667,-236.069l25.074,-22.08Z" style="fill:#293c49;"/></g></g><circle cx="500" cy="514.99" r="405.093" style="fill:none;stroke:#293c49;stroke-width:41.91px;"/><circle cx="500" cy="514.99" r="323.704" style="fill:#c1d7d3;stroke:#293c49;stroke-width:33.49px;"/></g><path d="M445.179,692.633c-0,0 36.01,-49.693 44.135,-111.169c-38.503,73.958 -102.123,71.838 -134.241,39.72c-80.393,-80.394 39.291,-121.272 144.926,-309.267l0.001,0.001l0.001,-0.001c105.635,187.995 225.319,228.873 144.926,309.267c-32.118,32.118 -95.738,34.238 -134.241,-39.72c8.125,61.476 44.135,111.169 44.135,111.169l-109.642,0Zm54.82,-135.531l-0.155,0.422l0.156,0l0,-0.42l0,0.42l0.156,0l-0.155,-0.422l-0.001,0.002l-0.001,-0.002Z" style="fill:none;stroke:#c1d7d3;stroke-width:20.96px;"/><path d="M445.179,692.633c-0,0 36.01,-49.693 44.135,-111.169c-38.503,73.958 -102.123,71.838 -134.241,39.72c-80.393,-80.394 39.291,-121.272 144.926,-309.267l0.001,0.001l0.001,-0.001c105.635,187.995 225.319,228.873 144.926,309.267c-32.118,32.118 -95.738,34.238 -134.241,-39.72c8.125,61.476 44.135,111.169 44.135,111.169l-109.642,0Zm54.82,-135.531l-0.155,0.422l0.156,0l0,-0.42l0,0.42l0.156,0l-0.155,-0.422l-0.001,0.002l-0.001,-0.002Z" style="fill:#293c49;"/><g><path d="M452.279,503.482c4.439,-0 8.263,-1.303 11.472,-3.909c3.209,-2.605 4.813,-6.345 4.813,-11.218c0,-3.715 -1.279,-6.912 -3.836,-9.59c-2.557,-2.678 -6.007,-4.017 -10.35,-4.017c-2.943,0 -5.368,0.41 -7.274,1.231c-1.906,0.82 -3.413,1.905 -4.523,3.257c-1.11,1.351 -2.159,3.088 -3.149,5.211c-0.989,2.123 -1.893,4.125 -2.714,6.007c-0.482,1.013 -1.351,1.809 -2.605,2.388c-1.255,0.579 -2.702,0.869 -4.343,0.869c-1.93,-0 -3.703,-0.784 -5.32,-2.352c-1.616,-1.569 -2.424,-3.655 -2.424,-6.261c-0,-2.509 0.76,-5.151 2.28,-7.925c1.52,-2.775 3.739,-5.416 6.658,-7.925c2.92,-2.51 6.55,-4.524 10.893,-6.044c4.343,-1.52 9.192,-2.28 14.548,-2.28c4.68,0 8.95,0.64 12.81,1.918c3.861,1.279 7.214,3.124 10.061,5.537c2.847,2.413 4.994,5.211 6.441,8.396c1.448,3.184 2.172,6.61 2.172,10.277c-0,4.825 -1.05,8.963 -3.149,12.413c-2.099,3.45 -5.102,6.815 -9.011,10.096c3.764,2.027 6.936,4.343 9.518,6.949c2.581,2.605 4.523,5.488 5.826,8.649c1.303,3.16 1.954,6.574 1.954,10.241c0,4.391 -0.88,8.637 -2.641,12.738c-1.762,4.101 -4.355,7.756 -7.781,10.965c-3.426,3.209 -7.491,5.718 -12.195,7.527c-4.705,1.81 -9.904,2.714 -15.598,2.714c-5.79,0 -10.977,-1.037 -15.561,-3.112c-4.583,-2.075 -8.359,-4.668 -11.326,-7.78c-2.968,-3.112 -5.212,-6.333 -6.731,-9.663c-1.52,-3.329 -2.28,-6.079 -2.28,-8.25c-0,-2.799 0.904,-5.055 2.714,-6.768c1.809,-1.713 4.065,-2.569 6.767,-2.569c1.351,-0 2.654,0.398 3.908,1.194c1.255,0.796 2.075,1.749 2.461,2.859c2.509,6.707 5.199,11.689 8.07,14.946c2.871,3.257 6.912,4.885 12.123,4.885c2.992,0 5.875,-0.736 8.649,-2.207c2.775,-1.472 5.067,-3.655 6.876,-6.55c1.809,-2.895 2.714,-6.249 2.714,-10.061c0,-5.645 -1.544,-10.072 -4.632,-13.281c-3.088,-3.208 -7.382,-4.813 -12.883,-4.813c-0.965,0 -2.461,0.097 -4.487,0.29c-2.027,0.193 -3.33,0.289 -3.909,0.289c-2.654,0 -4.704,-0.663 -6.152,-1.99c-1.447,-1.327 -2.171,-3.173 -2.171,-5.537c-0,-2.316 0.868,-4.186 2.606,-5.609c1.737,-1.424 4.318,-2.135 7.744,-2.135l2.967,-0Z" style="fill:#c1d7d3;fill-rule:nonzero;"/><path d="M509.674,488.355c-0,-4.825 1.315,-9.373 3.944,-13.643c2.63,-4.27 6.49,-7.684 11.581,-10.241c5.09,-2.558 11.037,-3.836 17.841,-3.836c5.741,-0 10.784,0.748 15.126,2.243c4.343,1.496 7.962,3.559 10.857,6.189c2.895,2.629 5.042,5.597 6.441,8.902c1.4,3.305 2.099,6.815 2.099,10.531c0,4.728 -1.218,8.95 -3.655,12.666c-2.436,3.715 -6.067,6.755 -10.892,9.119c4.101,1.592 7.503,3.679 10.205,6.261c2.702,2.581 4.74,5.573 6.115,8.974c1.376,3.402 2.063,7.178 2.063,11.327c0,6.08 -1.471,11.593 -4.415,16.538c-2.943,4.946 -7.262,8.818 -12.955,11.617c-5.694,2.798 -12.401,4.198 -20.121,4.198c-8.01,-0 -14.861,-1.4 -20.555,-4.198c-5.693,-2.799 -9.988,-6.647 -12.883,-11.544c-2.895,-4.898 -4.342,-10.386 -4.342,-16.466c-0,-12.979 6.127,-21.882 18.383,-26.707c-9.891,-4.632 -14.837,-11.942 -14.837,-21.93Zm51.894,47.913c0,-3.763 -0.772,-7.044 -2.316,-9.843c-1.544,-2.798 -3.715,-4.946 -6.514,-6.441c-2.798,-1.496 -5.935,-2.244 -9.409,-2.244c-4.921,-0 -9.047,1.64 -12.376,4.922c-3.33,3.281 -4.994,7.864 -4.994,13.751c-0,3.764 0.784,7.081 2.352,9.952c1.568,2.871 3.703,5.09 6.405,6.659c2.702,1.568 5.718,2.352 9.047,2.352c3.378,-0 6.418,-0.796 9.12,-2.389c2.702,-1.592 4.825,-3.836 6.369,-6.731c1.544,-2.895 2.316,-6.224 2.316,-9.988Zm-18.094,-61.809c-4.536,-0 -8.191,1.411 -10.965,4.234c-2.775,2.822 -4.162,6.453 -4.162,10.892c0,4.102 1.424,7.515 4.27,10.242c2.847,2.726 6.514,4.089 11.002,4.089c2.267,-0 4.33,-0.362 6.188,-1.086c1.857,-0.723 3.45,-1.725 4.777,-3.003c1.327,-1.279 2.352,-2.799 3.076,-4.56c0.723,-1.761 1.085,-3.703 1.085,-5.826c0,-2.847 -0.639,-5.404 -1.918,-7.672c-1.278,-2.268 -3.076,-4.053 -5.392,-5.356c-2.316,-1.303 -4.97,-1.954 -7.961,-1.954Z" style="fill:#c1d7d3;fill-rule:nonzero;"/></g></g></g></g><g><path d="M1049.46,372.391c11.804,45.545 18.091,93.343 18.091,142.599c-0,313.328 -254.383,567.711 -567.711,567.711c-313.329,-0 -567.712,-254.383 -567.712,-567.711c0,-313.329 254.383,-567.712 567.712,-567.712c189.657,0 69.454,56.844 53.177,93.417c-2.959,-0.252 -5.952,-0.381 -8.974,-0.381c-57.675,0 -104.499,46.825 -104.499,104.499c-0,53.459 40.229,97.596 92.036,103.762c-7.202,14.181 -11.263,30.225 -11.263,47.21c0,57.675 46.825,104.499 104.5,104.499c4.948,0 9.817,-0.344 14.588,-1.012c9.103,48.423 51.651,85.105 102.699,85.105c23.71,0 45.587,-7.913 63.125,-21.237c18.137,31.005 51.787,51.85 90.268,51.85c57.674,-0 104.499,-46.825 104.499,-104.5c0,-11.067 -1.724,-21.736 -4.921,-31.756c5.055,0.754 10.231,1.144 15.496,1.144c13.744,0 26.872,-2.659 38.889,-7.487Z" style="fill:none;"/><clipPath id="_clip3"><path d="M1049.46,372.391c11.804,45.545 18.091,93.343 18.091,142.599c-0,313.328 -254.383,567.711 -567.711,567.711c-313.329,-0 -567.712,-254.383 -567.712,-567.711c0,-313.329 254.383,-567.712 567.712,-567.712c189.657,0 69.454,56.844 53.177,93.417c-2.959,-0.252 -5.952,-0.381 -8.974,-0.381c-57.675,0 -104.499,46.825 -104.499,104.499c-0,53.459 40.229,97.596 92.036,103.762c-7.202,14.181 -11.263,30.225 -11.263,47.21c0,57.675 46.825,104.499 104.5,104.499c4.948,0 9.817,-0.344 14.588,-1.012c9.103,48.423 51.651,85.105 102.699,85.105c23.71,0 45.587,-7.913 63.125,-21.237c18.137,31.005 51.787,51.85 90.268,51.85c57.674,-0 104.499,-46.825 104.499,-104.5c0,-11.067 -1.724,-21.736 -4.921,-31.756c5.055,0.754 10.231,1.144 15.496,1.144c13.744,0 26.872,-2.659 38.889,-7.487Z"/></clipPath><g clip-path="url(#_clip3)"><g><g><circle cx="500" cy="514.99" r="405.093" style="fill:#c1d7d3;"/><clipPath id="_clip4"><circle cx="500" cy="514.99" r="405.093"/></clipPath><g clip-path="url(#_clip4)"><g><path d="M350.828,133.539l45.019,113.404l-136.198,149.875l-166.97,-62.686l236.069,-225.667l22.08,25.074Z" style="fill:#293c49;"/><path d="M860.541,359.206l-113.403,45.02l-149.875,-136.198l62.686,-166.971l225.666,236.07l-25.074,22.079Z" style="fill:#293c49;"/><path d="M658.025,868.92l-45.019,-113.403l136.198,-149.875l166.971,62.685l-236.07,225.667l-22.08,-25.074Z" style="fill:#293c49;"/><path d="M132.569,643.253l113.404,-45.019l149.874,136.198l-62.685,166.97l-225.667,-236.069l25.074,-22.08Z" style="fill:#293c49;"/></g></g><circle cx="500" cy="514.99" r="405.093" style="fill:none;stroke:#293c49;stroke-width:41.91px;"/><circle cx="500" cy="514.99" r="323.704" style="fill:#c1d7d3;stroke:#293c49;stroke-width:33.49px;"/></g><path d="M445.179,692.633c-0,0 36.01,-49.693 44.135,-111.169c-38.503,73.958 -102.123,71.838 -134.241,39.72c-80.393,-80.394 39.291,-121.272 144.926,-309.267l0.001,0.001l0.001,-0.001c105.635,187.995 225.319,228.873 144.926,309.267c-32.118,32.118 -95.738,34.238 -134.241,-39.72c8.125,61.476 44.135,111.169 44.135,111.169l-109.642,0Zm54.82,-135.531l-0.155,0.422l0.156,0l0,-0.42l0,0.42l0.156,0l-0.155,-0.422l-0.001,0.002l-0.001,-0.002Z" style="fill:none;stroke:#c1d7d3;stroke-width:20.96px;"/><path d="M445.179,692.633c-0,0 36.01,-49.693 44.135,-111.169c-38.503,73.958 -102.123,71.838 -134.241,39.72c-80.393,-80.394 39.291,-121.272 144.926,-309.267l0.001,0.001l0.001,-0.001c105.635,187.995 225.319,228.873 144.926,309.267c-32.118,32.118 -95.738,34.238 -134.241,-39.72c8.125,61.476 44.135,111.169 44.135,111.169l-109.642,0Zm54.82,-135.531l-0.155,0.422l0.156,0l0,-0.42l0,0.42l0.156,0l-0.155,-0.422l-0.001,0.002l-0.001,-0.002Z" style="fill:#293c49;"/><g><path d="M452.279,503.482c4.439,-0 8.263,-1.303 11.472,-3.909c3.209,-2.605 4.813,-6.345 4.813,-11.218c0,-3.715 -1.279,-6.912 -3.836,-9.59c-2.557,-2.678 -6.007,-4.017 -10.35,-4.017c-2.943,0 -5.368,0.41 -7.274,1.231c-1.906,0.82 -3.413,1.905 -4.523,3.257c-1.11,1.351 -2.159,3.088 -3.149,5.211c-0.989,2.123 -1.893,4.125 -2.714,6.007c-0.482,1.013 -1.351,1.809 -2.605,2.388c-1.255,0.579 -2.702,0.869 -4.343,0.869c-1.93,-0 -3.703,-0.784 -5.32,-2.352c-1.616,-1.569 -2.424,-3.655 -2.424,-6.261c-0,-2.509 0.76,-5.151 2.28,-7.925c1.52,-2.775 3.739,-5.416 6.658,-7.925c2.92,-2.51 6.55,-4.524 10.893,-6.044c4.343,-1.52 9.192,-2.28 14.548,-2.28c4.68,0 8.95,0.64 12.81,1.918c3.861,1.279 7.214,3.124 10.061,5.537c2.847,2.413 4.994,5.211 6.441,8.396c1.448,3.184 2.172,6.61 2.172,10.277c-0,4.825 -1.05,8.963 -3.149,12.413c-2.099,3.45 -5.102,6.815 -9.011,10.096c3.764,2.027 6.936,4.343 9.518,6.949c2.581,2.605 4.523,5.488 5.826,8.649c1.303,3.16 1.954,6.574 1.954,10.241c0,4.391 -0.88,8.637 -2.641,12.738c-1.762,4.101 -4.355,7.756 -7.781,10.965c-3.426,3.209 -7.491,5.718 -12.195,7.527c-4.705,1.81 -9.904,2.714 -15.598,2.714c-5.79,0 -10.977,-1.037 -15.561,-3.112c-4.583,-2.075 -8.359,-4.668 -11.326,-7.78c-2.968,-3.112 -5.212,-6.333 -6.731,-9.663c-1.52,-3.329 -2.28,-6.079 -2.28,-8.25c-0,-2.799 0.904,-5.055 2.714,-6.768c1.809,-1.713 4.065,-2.569 6.767,-2.569c1.351,-0 2.654,0.398 3.908,1.194c1.255,0.796 2.075,1.749 2.461,2.859c2.509,6.707 5.199,11.689 8.07,14.946c2.871,3.257 6.912,4.885 12.123,4.885c2.992,0 5.875,-0.736 8.649,-2.207c2.775,-1.472 5.067,-3.655 6.876,-6.55c1.809,-2.895 2.714,-6.249 2.714,-10.061c0,-5.645 -1.544,-10.072 -4.632,-13.281c-3.088,-3.208 -7.382,-4.813 -12.883,-4.813c-0.965,0 -2.461,0.097 -4.487,0.29c-2.027,0.193 -3.33,0.289 -3.909,0.289c-2.654,0 -4.704,-0.663 -6.152,-1.99c-1.447,-1.327 -2.171,-3.173 -2.171,-5.537c-0,-2.316 0.868,-4.186 2.606,-5.609c1.737,-1.424 4.318,-2.135 7.744,-2.135l2.967,-0Z" style="fill:#c1d7d3;fill-rule:nonzero;"/><path d="M509.674,488.355c-0,-4.825 1.315,-9.373 3.944,-13.643c2.63,-4.27 6.49,-7.684 11.581,-10.241c5.09,-2.558 11.037,-3.836 17.841,-3.836c5.741,-0 10.784,0.748 15.126,2.243c4.343,1.496 7.962,3.559 10.857,6.189c2.895,2.629 5.042,5.597 6.441,8.902c1.4,3.305 2.099,6.815 2.099,10.531c0,4.728 -1.218,8.95 -3.655,12.666c-2.436,3.715 -6.067,6.755 -10.892,9.119c4.101,1.592 7.503,3.679 10.205,6.261c2.702,2.581 4.74,5.573 6.115,8.974c1.376,3.402 2.063,7.178 2.063,11.327c0,6.08 -1.471,11.593 -4.415,16.538c-2.943,4.946 -7.262,8.818 -12.955,11.617c-5.694,2.798 -12.401,4.198 -20.121,4.198c-8.01,-0 -14.861,-1.4 -20.555,-4.198c-5.693,-2.799 -9.988,-6.647 -12.883,-11.544c-2.895,-4.898 -4.342,-10.386 -4.342,-16.466c-0,-12.979 6.127,-21.882 18.383,-26.707c-9.891,-4.632 -14.837,-11.942 -14.837,-21.93Zm51.894,47.913c0,-3.763 -0.772,-7.044 -2.316,-9.843c-1.544,-2.798 -3.715,-4.946 -6.514,-6.441c-2.798,-1.496 -5.935,-2.244 -9.409,-2.244c-4.921,-0 -9.047,1.64 -12.376,4.922c-3.33,3.281 -4.994,7.864 -4.994,13.751c-0,3.764 0.784,7.081 2.352,9.952c1.568,2.871 3.703,5.09 6.405,6.659c2.702,1.568 5.718,2.352 9.047,2.352c3.378,-0 6.418,-0.796 9.12,-2.389c2.702,-1.592 4.825,-3.836 6.369,-6.731c1.544,-2.895 2.316,-6.224 2.316,-9.988Zm-18.094,-61.809c-4.536,-0 -8.191,1.411 -10.965,4.234c-2.775,2.822 -4.162,6.453 -4.162,10.892c0,4.102 1.424,7.515 4.27,10.242c2.847,2.726 6.514,4.089 11.002,4.089c2.267,-0 4.33,-0.362 6.188,-1.086c1.857,-0.723 3.45,-1.725 4.777,-3.003c1.327,-1.279 2.352,-2.799 3.076,-4.56c0.723,-1.761 1.085,-3.703 1.085,-5.826c0,-2.847 -0.639,-5.404 -1.918,-7.672c-1.278,-2.268 -3.076,-4.053 -5.392,-5.356c-2.316,-1.303 -4.97,-1.954 -7.961,-1.954Z" style="fill:#c1d7d3;fill-rule:nonzero;"/></g></g></g></g></g></svg>