<?xml version="1.0" encoding="UTF-8" standalone="no"?><!DOCTYPE svg PUBLIC "-//W3C//DTD SVG 1.1//EN" "http://www.w3.org/Graphics/SVG/1.1/DTD/svg11.dtd"><svg width="1000px" height="1000px" version="1.1" xmlns="http://www.w3.org/2000/svg" xmlns:xlink="http://www.w3.org/1999/xlink" xml:space="preserve" xmlns:serif="http://www.serif.com/" style="fill-rule:evenodd;clip-rule:evenodd;stroke-linejoin:round;stroke-miterlimit:2;"><g><g><ellipse cx="500" cy="523.406" rx="393.277" ry="389.626" style="fill:#00191f;"/><path d="M429.927,66.176c-5.689,0.919 -10.153,5.372 -11.087,11.058c-0.933,5.687 1.872,11.333 6.968,14.023c20.902,11.034 37.977,35.157 44.401,57.07c3.398,11.593 4.567,22.572 -1.354,29.168c-2.596,2.892 -6.661,4.359 -12.053,4.803c-8.128,0.668 -18.484,-1.071 -31.466,-5.432c-8.277,-2.781 -15.713,-1.106 -22.552,5.017c-5.315,4.758 -10.559,13.831 -15.591,26.023c-7.708,18.673 -16.173,45.812 -30.377,71.126c-13.026,23.213 -30.989,45.057 -58.858,55.591c-25.046,9.467 -48.524,-0.815 -64.268,-21.277c-26.455,-34.385 -31.983,-95.723 6.044,-151.888c3.384,-5 3.008,-11.645 -0.919,-16.231c-3.928,-4.585 -10.437,-5.979 -15.897,-3.402c-54.891,25.898 -92.167,71.272 -116.899,124.012c-35.994,76.753 -45.215,169.146 -45.215,236.375c-0,243.768 196.818,441.639 439.196,441.639c242.378,0 439.196,-197.871 439.196,-441.639c0,-206.072 -140.663,-379.347 -330.617,-428.013c-6.561,-1.681 -13.345,1.798 -15.809,8.107c-2.464,6.308 0.167,13.464 6.13,16.675c33.059,17.798 62.679,35.083 83.225,49.029c12.116,8.223 20.899,14.846 24.416,19.684c17.719,24.379 27.273,44.084 30.542,59.71c2.45,11.715 1.31,20.415 -3.485,26.07c-5.671,6.688 -15.469,8.392 -25.823,7.263c-18.918,-2.061 -40.049,-14.274 -50.871,-34.83c-49.932,-94.842 -131.866,-136.277 -181.553,-151.8c-23.487,-7.337 -40.574,-8.715 -45.424,-7.931Z" style="fill:#323c52;"/><path d="M429.927,66.176c-5.689,0.919 -10.153,5.372 -11.087,11.058c-0.933,5.687 1.872,11.333 6.968,14.023c20.902,11.034 37.977,35.157 44.401,57.07c3.398,11.593 4.567,22.572 -1.354,29.168c-2.596,2.892 -6.661,4.359 -12.053,4.803c-8.128,0.668 -18.484,-1.071 -31.466,-5.432c-8.277,-2.781 -15.713,-1.106 -22.552,5.017c-5.315,4.758 -10.559,13.831 -15.591,26.023c-7.708,18.673 -16.173,45.812 -30.377,71.126c-13.026,23.213 -30.989,45.057 -58.858,55.591c-25.046,9.467 -48.524,-0.815 -64.268,-21.277c-26.455,-34.385 -31.983,-95.723 6.044,-151.888c3.384,-5 3.008,-11.645 -0.919,-16.231c-3.928,-4.585 -10.437,-5.979 -15.897,-3.402c-54.891,25.898 -92.167,71.272 -116.899,124.012c-35.994,76.753 -45.215,169.146 -45.215,236.375c-0,243.768 196.818,441.639 439.196,441.639c242.378,0 439.196,-197.871 439.196,-441.639c0,-206.072 -140.663,-379.347 -330.617,-428.013c-6.561,-1.681 -13.345,1.798 -15.809,8.107c-2.464,6.308 0.167,13.464 6.13,16.675c33.059,17.798 62.679,35.083 83.225,49.029c12.116,8.223 51.689,63.768 54.958,79.394c2.45,11.715 1.31,20.415 -3.485,26.07c-5.671,6.688 -15.469,8.392 -25.823,7.263c-18.918,-2.061 -40.049,-14.274 -50.871,-34.83c-49.932,-94.842 -131.866,-136.277 -181.553,-151.8c-23.487,-7.337 -40.574,-8.715 -45.424,-7.931Z" style="fill:#0c3492;fill-opacity:0;"/><clipPath id="_clip1"><path d="M429.927,66.176c-5.689,0.919 -10.153,5.372 -11.087,11.058c-0.933,5.687 1.872,11.333 6.968,14.023c20.902,11.034 37.977,35.157 44.401,57.07c3.398,11.593 4.567,22.572 -1.354,29.168c-2.596,2.892 -6.661,4.359 -12.053,4.803c-8.128,0.668 -18.484,-1.071 -31.466,-5.432c-8.277,-2.781 -15.713,-1.106 -22.552,5.017c-5.315,4.758 -10.559,13.831 -15.591,26.023c-7.708,18.673 -16.173,45.812 -30.377,71.126c-13.026,23.213 -30.989,45.057 -58.858,55.591c-25.046,9.467 -48.524,-0.815 -64.268,-21.277c-26.455,-34.385 -31.983,-95.723 6.044,-151.888c3.384,-5 3.008,-11.645 -0.919,-16.231c-3.928,-4.585 -10.437,-5.979 -15.897,-3.402c-54.891,25.898 -92.167,71.272 -116.899,124.012c-35.994,76.753 -45.215,169.146 -45.215,236.375c-0,243.768 196.818,441.639 439.196,441.639c242.378,0 439.196,-197.871 439.196,-441.639c0,-206.072 -140.663,-379.347 -330.617,-428.013c-6.561,-1.681 -13.345,1.798 -15.809,8.107c-2.464,6.308 0.167,13.464 6.13,16.675c33.059,17.798 62.679,35.083 83.225,49.029c12.116,8.223 51.689,63.768 54.958,79.394c2.45,11.715 1.31,20.415 -3.485,26.07c-5.671,6.688 -15.469,8.392 -25.823,7.263c-18.918,-2.061 -40.049,-14.274 -50.871,-34.83c-49.932,-94.842 -131.866,-136.277 -181.553,-151.8c-23.487,-7.337 -40.574,-8.715 -45.424,-7.931Z"/></clipPath><g clip-path="url(#_clip1)"><g><path d="M520.778,382.422c-0.877,-5.244 -4.893,-9.407 -10.102,-10.472c-36.124,-7.267 -63.362,-39.207 -63.362,-77.458c-0,-43.61 35.406,-79.017 79.017,-79.017c-0,0 -0,0 -0,0c43.611,0 79.017,35.407 79.017,79.017c-0,15.424 -4.429,29.821 -12.083,41.989c-2.194,3.467 -2.599,7.775 -1.088,11.59c37.555,95.268 19.613,160.393 -3.923,217.568c-15.999,38.866 -35.168,73.644 -38.518,112.717c-5.472,63.83 7.339,111.306 28.337,146.42c48.451,81.024 139.474,95.845 139.508,95.851l0,0c7.301,1.183 12.268,8.072 11.085,15.373c-1.183,7.301 -8.071,12.268 -15.373,11.084c0,0 -103.287,-16.684 -158.224,-108.552c-23.315,-38.99 -38.114,-91.592 -32.037,-162.465c3.578,-41.735 23.349,-79.118 40.437,-120.63c19.985,-48.549 35.435,-103.381 9.758,-180.844c-1.064,-3.194 -3.412,-5.8 -6.479,-7.191c-3.066,-1.39 -6.573,-1.439 -9.677,-0.134c0.01,0.025 0.01,0.025 0.01,0.025c-5.058,2.128 -8.002,7.444 -7.122,12.861c11.759,73.861 -3.024,130.283 -21.172,181.205c-16.088,45.145 -35.308,85.592 -38.676,130.979c-7.337,98.837 17.975,163.929 51.612,206.302c49.328,62.139 115.667,74.84 115.667,74.84l-0,0c7.854,1.47 13.037,9.04 11.566,16.895c-1.47,7.854 -9.04,13.036 -16.894,11.566c0,0 -76.438,-14.026 -133.017,-85.298c-36.967,-46.567 -65.873,-117.828 -57.81,-226.449c-0,0 -0,0 -0,0c0.038,-0.505 2.704,-22.072 3.794,-27.592c0.127,-0.64 0.205,-1.289 0.234,-1.941c0.973,-23.624 -7.62,-46.706 -22.27,-67.79c-20.43,-29.401 -52.517,-54.932 -88.692,-73.156c-36.303,-18.289 -76.782,-29.234 -114.1,-28.921c-35.37,0.297 -67.891,10.724 -90.209,35.652c-19.472,21.75 -30.917,54.184 -30.895,99.216c0.023,47.934 13.007,109.409 43.344,186.902c2.696,6.887 -0.707,14.668 -7.594,17.364c-6.887,2.697 -14.668,-0.706 -17.364,-7.593c-42.804,-109.337 -51.986,-188.727 -40.76,-243.955c12.049,-59.278 46.931,-92.498 91.226,-106.558c76.014,-24.127 182.181,10.858 246.461,70.802c13.213,12.321 24.633,25.66 33.746,39.707c2.578,4.122 7.276,6.42 12.113,5.925c4.838,-0.495 8.973,-3.697 10.662,-8.256c3.603,-9.287 7.148,-18.726 10.581,-28.361c16.924,-47.487 30.636,-100.136 19.266,-169.217Zm303.64,195.083c40.093,40.093 23.811,121.476 -36.337,181.624c-60.147,60.148 -141.531,76.43 -181.624,36.336c-40.093,-40.093 -23.811,-121.476 36.336,-181.624c60.148,-60.148 141.531,-76.43 181.625,-36.336Zm-652.472,-0c-40.093,40.093 -23.812,121.476 36.336,181.624c60.148,60.148 141.531,76.43 181.624,36.336c40.094,-40.093 23.812,-121.476 -36.336,-181.624c-60.148,-60.148 -141.531,-76.43 -181.624,-36.336Zm744.872,149.272c0,0 0,0 0,0c33.127,-112.546 2.01,-258.671 -42.242,-332.026c-30.096,-49.888 -65.887,-84.578 -90.195,-96.931c-6.594,-3.351 -14.668,-0.718 -18.018,5.876c-3.351,6.594 -0.718,14.667 5.876,18.018c21.607,10.98 52.636,42.538 79.387,86.882c41.017,67.991 70.185,206.297 39.481,310.614c-2.089,7.095 1.976,14.551 9.072,16.639c7.095,2.089 14.551,-1.976 16.639,-9.072Zm-656.388,-428.859c0,0 0,0 0,0c-34.659,-5.819 -79.541,5.583 -119.556,26.694c-39.861,21.03 -90.425,76.977 -106.044,107.712c-3.351,6.594 -0.718,14.667 5.876,18.018c6.593,3.351 14.667,0.718 18.018,-5.876c13.547,-26.659 60.082,-77.908 94.657,-96.149c34.42,-18.159 72.797,-28.972 102.611,-23.966c7.294,1.224 14.21,-3.703 15.435,-10.997c1.225,-7.295 -3.703,-14.211 -10.997,-15.436Zm265.901,-41.681c-0,0 -0,0 -0,0c21.113,0 38.255,17.142 38.255,38.255c-0,21.114 -17.142,38.255 -38.255,38.255c-21.114,0 -38.255,-17.141 -38.255,-38.255c-0,-21.113 17.141,-38.255 38.255,-38.255Z" style="fill:#fff;"/><path d="M520.778,382.422c-0.877,-5.244 -4.893,-9.407 -10.102,-10.472c-36.124,-7.267 -63.362,-39.207 -63.362,-77.458c-0,-43.61 35.406,-79.017 79.017,-79.017c-0,0 -0,0 -0,0c43.611,0 79.017,35.407 79.017,79.017c-0,15.424 -4.429,29.821 -12.083,41.989c-2.194,3.467 -2.599,7.775 -1.088,11.59c37.555,95.268 19.613,160.393 -3.923,217.568c-15.999,38.866 -35.168,73.644 -38.518,112.717c-5.472,63.83 7.339,111.306 28.337,146.42c48.451,81.024 139.474,95.845 139.508,95.851l0,0c7.301,1.183 12.268,8.072 11.085,15.373c-1.183,7.301 -8.071,12.268 -15.373,11.084c0,0 -103.287,-16.684 -158.224,-108.552c-23.315,-38.99 -38.114,-91.592 -32.037,-162.465c3.578,-41.735 23.349,-79.118 40.437,-120.63c19.985,-48.549 35.435,-103.381 9.758,-180.844c-1.064,-3.194 -3.412,-5.8 -6.479,-7.191c-3.066,-1.39 -6.573,-1.439 -9.677,-0.134c0.01,0.025 0.01,0.025 0.01,0.025c-5.058,2.128 -8.002,7.444 -7.122,12.861c11.759,73.861 -3.024,130.283 -21.172,181.205c-16.088,45.145 -35.308,85.592 -38.676,130.979c-7.337,98.837 17.975,163.929 51.612,206.302c49.328,62.139 115.667,74.84 115.667,74.84l-0,0c7.854,1.47 13.037,9.04 11.566,16.895c-1.47,7.854 -9.04,13.036 -16.894,11.566c0,0 -76.438,-14.026 -133.017,-85.298c-36.967,-46.567 -65.873,-117.828 -57.81,-226.449c-0,0 -0,0 -0,0c0.038,-0.505 2.704,-22.072 3.794,-27.592c0.127,-0.64 0.205,-1.289 0.234,-1.941c0.973,-23.624 -7.62,-46.706 -22.27,-67.79c-20.43,-29.401 -52.517,-54.932 -88.692,-73.156c-36.303,-18.289 -76.782,-29.234 -114.1,-28.921c-35.37,0.297 -67.891,10.724 -90.209,35.652c-19.472,21.75 -30.917,54.184 -30.895,99.216c0.023,47.934 13.007,109.409 43.344,186.902c2.696,6.887 -0.707,14.668 -7.594,17.364c-6.887,2.697 -14.668,-0.706 -17.364,-7.593c-42.804,-109.337 -51.986,-188.727 -40.76,-243.955c12.049,-59.278 46.931,-92.498 91.226,-106.558c76.014,-24.127 182.181,10.858 246.461,70.802c13.213,12.321 24.633,25.66 33.746,39.707c2.578,4.122 7.276,6.42 12.113,5.925c4.838,-0.495 8.973,-3.697 10.662,-8.256c3.603,-9.287 7.148,-18.726 10.581,-28.361c16.924,-47.487 30.636,-100.136 19.266,-169.217Zm303.64,195.083c40.093,40.093 23.811,121.476 -36.337,181.624c-60.147,60.148 -141.531,76.43 -181.624,36.336c-40.093,-40.093 -23.811,-121.476 36.336,-181.624c60.148,-60.148 141.531,-76.43 181.625,-36.336Zm-652.472,-0c-40.093,40.093 -23.812,121.476 36.336,181.624c60.148,60.148 141.531,76.43 181.624,36.336c40.094,-40.093 23.812,-121.476 -36.336,-181.624c-60.148,-60.148 -141.531,-76.43 -181.624,-36.336Zm744.872,149.272c0,0 0,0 0,0c33.127,-112.546 2.01,-258.671 -42.242,-332.026c-30.096,-49.888 -65.887,-84.578 -90.195,-96.931c-6.594,-3.351 -14.668,-0.718 -18.018,5.876c-3.351,6.594 -0.718,14.667 5.876,18.018c21.607,10.98 52.636,42.538 79.387,86.882c41.017,67.991 70.185,206.297 39.481,310.614c-2.089,7.095 1.976,14.551 9.072,16.639c7.095,2.089 14.551,-1.976 16.639,-9.072Zm-656.388,-428.859c0,0 0,0 0,0c-34.659,-5.819 -79.541,5.583 -119.556,26.694c-39.861,21.03 -90.425,76.977 -106.044,107.712c-3.351,6.594 -0.718,14.667 5.876,18.018c6.593,3.351 14.667,0.718 18.018,-5.876c13.547,-26.659 60.082,-77.908 94.657,-96.149c34.42,-18.159 72.797,-28.972 102.611,-23.966c7.294,1.224 14.21,-3.703 15.435,-10.997c1.225,-7.295 -3.703,-14.211 -10.997,-15.436Zm265.901,-41.681c-0,0 -0,0 -0,0c21.113,0 38.255,17.142 38.255,38.255c-0,21.114 -17.142,38.255 -38.255,38.255c-21.114,0 -38.255,-17.141 -38.255,-38.255c-0,-21.113 17.141,-38.255 38.255,-38.255Z" style="fill:#fff;"/></g></g><path d="M272.676,81.536c18.428,-10.64 39.839,-8.106 47.783,5.653c7.945,13.76 -0.567,33.569 -18.995,44.209c-18.429,10.64 -39.84,8.106 -47.784,-5.653c-7.944,-13.76 0.567,-33.569 18.996,-44.209Z" style="fill:#00191f;"/><path d="M349.991,57.698c4.944,-2.854 10.99,-1.652 13.492,2.683c2.503,4.335 0.521,10.172 -4.423,13.026c-4.944,2.855 -10.99,1.653 -13.492,-2.683c-2.503,-4.335 -0.521,-10.172 4.423,-13.026Z" style="fill:#00191f;"/></g><g><ellipse cx="500" cy="523.406" rx="393.277" ry="389.626" style="fill:#00191f;"/><path d="M429.927,66.176c-5.689,0.919 -10.153,5.372 -11.087,11.058c-0.933,5.687 1.872,11.333 6.968,14.023c20.902,11.034 37.977,35.157 44.401,57.07c3.398,11.593 4.567,22.572 -1.354,29.168c-2.596,2.892 -6.661,4.359 -12.053,4.803c-8.128,0.668 -18.484,-1.071 -31.466,-5.432c-8.277,-2.781 -15.713,-1.106 -22.552,5.017c-5.315,4.758 -10.559,13.831 -15.591,26.023c-7.708,18.673 -16.173,45.812 -30.377,71.126c-13.026,23.213 -30.989,45.057 -58.858,55.591c-25.046,9.467 -48.524,-0.815 -64.268,-21.277c-26.455,-34.385 -31.983,-95.723 6.044,-151.888c3.384,-5 3.008,-11.645 -0.919,-16.231c-3.928,-4.585 -10.437,-5.979 -15.897,-3.402c-54.891,25.898 -92.167,71.272 -116.899,124.012c-35.994,76.753 -45.215,169.146 -45.215,236.375c-0,243.768 196.818,441.639 439.196,441.639c242.378,0 439.196,-197.871 439.196,-441.639c0,-206.072 -140.663,-379.347 -330.617,-428.013c-6.561,-1.681 -13.345,1.798 -15.809,8.107c-2.464,6.308 0.167,13.464 6.13,16.675c33.059,17.798 62.679,35.083 83.225,49.029c12.116,8.223 20.899,14.846 24.416,19.684c17.719,24.379 27.273,44.084 30.542,59.71c2.45,11.715 1.31,20.415 -3.485,26.07c-5.671,6.688 -15.469,8.392 -25.823,7.263c-18.918,-2.061 -40.049,-14.274 -50.871,-34.83c-49.932,-94.842 -131.866,-136.277 -181.553,-151.8c-23.487,-7.337 -40.574,-8.715 -45.424,-7.931Z" style="fill:#323c52;"/><path d="M429.927,66.176c-5.689,0.919 -10.153,5.372 -11.087,11.058c-0.933,5.687 1.872,11.333 6.968,14.023c20.902,11.034 37.977,35.157 44.401,57.07c3.398,11.593 4.567,22.572 -1.354,29.168c-2.596,2.892 -6.661,4.359 -12.053,4.803c-8.128,0.668 -18.484,-1.071 -31.466,-5.432c-8.277,-2.781 -15.713,-1.106 -22.552,5.017c-5.315,4.758 -10.559,13.831 -15.591,26.023c-7.708,18.673 -16.173,45.812 -30.377,71.126c-13.026,23.213 -30.989,45.057 -58.858,55.591c-25.046,9.467 -48.524,-0.815 -64.268,-21.277c-26.455,-34.385 -31.983,-95.723 6.044,-151.888c3.384,-5 3.008,-11.645 -0.919,-16.231c-3.928,-4.585 -10.437,-5.979 -15.897,-3.402c-54.891,25.898 -92.167,71.272 -116.899,124.012c-35.994,76.753 -45.215,169.146 -45.215,236.375c-0,243.768 196.818,441.639 439.196,441.639c242.378,0 439.196,-197.871 439.196,-441.639c0,-206.072 -140.663,-379.347 -330.617,-428.013c-6.561,-1.681 -13.345,1.798 -15.809,8.107c-2.464,6.308 0.167,13.464 6.13,16.675c33.059,17.798 62.679,35.083 83.225,49.029c12.116,8.223 51.689,63.768 54.958,79.394c2.45,11.715 1.31,20.415 -3.485,26.07c-5.671,6.688 -15.469,8.392 -25.823,7.263c-18.918,-2.061 -40.049,-14.274 -50.871,-34.83c-49.932,-94.842 -131.866,-136.277 -181.553,-151.8c-23.487,-7.337 -40.574,-8.715 -45.424,-7.931Z" style="fill:#0c3492;fill-opacity:0;"/><clipPath id="_clip2"><path d="M429.927,66.176c-5.689,0.919 -10.153,5.372 -11.087,11.058c-0.933,5.687 1.872,11.333 6.968,14.023c20.902,11.034 37.977,35.157 44.401,57.07c3.398,11.593 4.567,22.572 -1.354,29.168c-2.596,2.892 -6.661,4.359 -12.053,4.803c-8.128,0.668 -18.484,-1.071 -31.466,-5.432c-8.277,-2.781 -15.713,-1.106 -22.552,5.017c-5.315,4.758 -10.559,13.831 -15.591,26.023c-7.708,18.673 -16.173,45.812 -30.377,71.126c-13.026,23.213 -30.989,45.057 -58.858,55.591c-25.046,9.467 -48.524,-0.815 -64.268,-21.277c-26.455,-34.385 -31.983,-95.723 6.044,-151.888c3.384,-5 3.008,-11.645 -0.919,-16.231c-3.928,-4.585 -10.437,-5.979 -15.897,-3.402c-54.891,25.898 -92.167,71.272 -116.899,124.012c-35.994,76.753 -45.215,169.146 -45.215,236.375c-0,243.768 196.818,441.639 439.196,441.639c242.378,0 439.196,-197.871 439.196,-441.639c0,-206.072 -140.663,-379.347 -330.617,-428.013c-6.561,-1.681 -13.345,1.798 -15.809,8.107c-2.464,6.308 0.167,13.464 6.13,16.675c33.059,17.798 62.679,35.083 83.225,49.029c12.116,8.223 51.689,63.768 54.958,79.394c2.45,11.715 1.31,20.415 -3.485,26.07c-5.671,6.688 -15.469,8.392 -25.823,7.263c-18.918,-2.061 -40.049,-14.274 -50.871,-34.83c-49.932,-94.842 -131.866,-136.277 -181.553,-151.8c-23.487,-7.337 -40.574,-8.715 -45.424,-7.931Z"/></clipPath><g clip-path="url(#_clip2)"><g><path d="M520.778,382.422c-0.877,-5.244 -4.893,-9.407 -10.102,-10.472c-36.124,-7.267 -63.362,-39.207 -63.362,-77.458c-0,-43.61 35.406,-79.017 79.017,-79.017c-0,0 -0,0 -0,0c43.611,0 79.017,35.407 79.017,79.017c-0,15.424 -4.429,29.821 -12.083,41.989c-2.194,3.467 -2.599,7.775 -1.088,11.59c37.555,95.268 19.613,160.393 -3.923,217.568c-15.999,38.866 -35.168,73.644 -38.518,112.717c-5.472,63.83 7.339,111.306 28.337,146.42c48.451,81.024 139.474,95.845 139.508,95.851l0,0c7.301,1.183 12.268,8.072 11.085,15.373c-1.183,7.301 -8.071,12.268 -15.373,11.084c0,0 -103.287,-16.684 -158.224,-108.552c-23.315,-38.99 -38.114,-91.592 -32.037,-162.465c3.578,-41.735 23.349,-79.118 40.437,-120.63c19.985,-48.549 35.435,-103.381 9.758,-180.844c-1.064,-3.194 -3.412,-5.8 -6.479,-7.191c-3.066,-1.39 -6.573,-1.439 -9.677,-0.134c0.01,0.025 0.01,0.025 0.01,0.025c-5.058,2.128 -8.002,7.444 -7.122,12.861c11.759,73.861 -3.024,130.283 -21.172,181.205c-16.088,45.145 -35.308,85.592 -38.676,130.979c-7.337,98.837 17.975,163.929 51.612,206.302c49.328,62.139 115.667,74.84 115.667,74.84l-0,0c7.854,1.47 13.037,9.04 11.566,16.895c-1.47,7.854 -9.04,13.036 -16.894,11.566c0,0 -76.438,-14.026 -133.017,-85.298c-36.967,-46.567 -65.873,-117.828 -57.81,-226.449c-0,0 -0,0 -0,0c0.038,-0.505 2.704,-22.072 3.794,-27.592c0.127,-0.64 0.205,-1.289 0.234,-1.941c0.973,-23.624 -7.62,-46.706 -22.27,-67.79c-20.43,-29.401 -52.517,-54.932 -88.692,-73.156c-36.303,-18.289 -76.782,-29.234 -114.1,-28.921c-35.37,0.297 -67.891,10.724 -90.209,35.652c-19.472,21.75 -30.917,54.184 -30.895,99.216c0.023,47.934 13.007,109.409 43.344,186.902c2.696,6.887 -0.707,14.668 -7.594,17.364c-6.887,2.697 -14.668,-0.706 -17.364,-7.593c-42.804,-109.337 -51.986,-188.727 -40.76,-243.955c12.049,-59.278 46.931,-92.498 91.226,-106.558c76.014,-24.127 182.181,10.858 246.461,70.802c13.213,12.321 24.633,25.66 33.746,39.707c2.578,4.122 7.276,6.42 12.113,5.925c4.838,-0.495 8.973,-3.697 10.662,-8.256c3.603,-9.287 7.148,-18.726 10.581,-28.361c16.924,-47.487 30.636,-100.136 19.266,-169.217Zm303.64,195.083c40.093,40.093 23.811,121.476 -36.337,181.624c-60.147,60.148 -141.531,76.43 -181.624,36.336c-40.093,-40.093 -23.811,-121.476 36.336,-181.624c60.148,-60.148 141.531,-76.43 181.625,-36.336Zm-652.472,-0c-40.093,40.093 -23.812,121.476 36.336,181.624c60.148,60.148 141.531,76.43 181.624,36.336c40.094,-40.093 23.812,-121.476 -36.336,-181.624c-60.148,-60.148 -141.531,-76.43 -181.624,-36.336Zm744.872,149.272c0,0 0,0 0,0c33.127,-112.546 2.01,-258.671 -42.242,-332.026c-30.096,-49.888 -65.887,-84.578 -90.195,-96.931c-6.594,-3.351 -14.668,-0.718 -18.018,5.876c-3.351,6.594 -0.718,14.667 5.876,18.018c21.607,10.98 52.636,42.538 79.387,86.882c41.017,67.991 70.185,206.297 39.481,310.614c-2.089,7.095 1.976,14.551 9.072,16.639c7.095,2.089 14.551,-1.976 16.639,-9.072Zm-656.388,-428.859c0,0 0,0 0,0c-34.659,-5.819 -79.541,5.583 -119.556,26.694c-39.861,21.03 -90.425,76.977 -106.044,107.712c-3.351,6.594 -0.718,14.667 5.876,18.018c6.593,3.351 14.667,0.718 18.018,-5.876c13.547,-26.659 60.082,-77.908 94.657,-96.149c34.42,-18.159 72.797,-28.972 102.611,-23.966c7.294,1.224 14.21,-3.703 15.435,-10.997c1.225,-7.295 -3.703,-14.211 -10.997,-15.436Zm265.901,-41.681c-0,0 -0,0 -0,0c21.113,0 38.255,17.142 38.255,38.255c-0,21.114 -17.142,38.255 -38.255,38.255c-21.114,0 -38.255,-17.141 -38.255,-38.255c-0,-21.113 17.141,-38.255 38.255,-38.255Z" style="fill:#fff;"/><path d="M520.778,382.422c-0.877,-5.244 -4.893,-9.407 -10.102,-10.472c-36.124,-7.267 -63.362,-39.207 -63.362,-77.458c-0,-43.61 35.406,-79.017 79.017,-79.017c-0,0 -0,0 -0,0c43.611,0 79.017,35.407 79.017,79.017c-0,15.424 -4.429,29.821 -12.083,41.989c-2.194,3.467 -2.599,7.775 -1.088,11.59c37.555,95.268 19.613,160.393 -3.923,217.568c-15.999,38.866 -35.168,73.644 -38.518,112.717c-5.472,63.83 7.339,111.306 28.337,146.42c48.451,81.024 139.474,95.845 139.508,95.851l0,0c7.301,1.183 12.268,8.072 11.085,15.373c-1.183,7.301 -8.071,12.268 -15.373,11.084c0,0 -103.287,-16.684 -158.224,-108.552c-23.315,-38.99 -38.114,-91.592 -32.037,-162.465c3.578,-41.735 23.349,-79.118 40.437,-120.63c19.985,-48.549 35.435,-103.381 9.758,-180.844c-1.064,-3.194 -3.412,-5.8 -6.479,-7.191c-3.066,-1.39 -6.573,-1.439 -9.677,-0.134c0.01,0.025 0.01,0.025 0.01,0.025c-5.058,2.128 -8.002,7.444 -7.122,12.861c11.759,73.861 -3.024,130.283 -21.172,181.205c-16.088,45.145 -35.308,85.592 -38.676,130.979c-7.337,98.837 17.975,163.929 51.612,206.302c49.328,62.139 115.667,74.84 115.667,74.84l-0,0c7.854,1.47 13.037,9.04 11.566,16.895c-1.47,7.854 -9.04,13.036 -16.894,11.566c0,0 -76.438,-14.026 -133.017,-85.298c-36.967,-46.567 -65.873,-117.828 -57.81,-226.449c-0,0 -0,0 -0,0c0.038,-0.505 2.704,-22.072 3.794,-27.592c0.127,-0.64 0.205,-1.289 0.234,-1.941c0.973,-23.624 -7.62,-46.706 -22.27,-67.79c-20.43,-29.401 -52.517,-54.932 -88.692,-73.156c-36.303,-18.289 -76.782,-29.234 -114.1,-28.921c-35.37,0.297 -67.891,10.724 -90.209,35.652c-19.472,21.75 -30.917,54.184 -30.895,99.216c0.023,47.934 13.007,109.409 43.344,186.902c2.696,6.887 -0.707,14.668 -7.594,17.364c-6.887,2.697 -14.668,-0.706 -17.364,-7.593c-42.804,-109.337 -51.986,-188.727 -40.76,-243.955c12.049,-59.278 46.931,-92.498 91.226,-106.558c76.014,-24.127 182.181,10.858 246.461,70.802c13.213,12.321 24.633,25.66 33.746,39.707c2.578,4.122 7.276,6.42 12.113,5.925c4.838,-0.495 8.973,-3.697 10.662,-8.256c3.603,-9.287 7.148,-18.726 10.581,-28.361c16.924,-47.487 30.636,-100.136 19.266,-169.217Zm303.64,195.083c40.093,40.093 23.811,121.476 -36.337,181.624c-60.147,60.148 -141.531,76.43 -181.624,36.336c-40.093,-40.093 -23.811,-121.476 36.336,-181.624c60.148,-60.148 141.531,-76.43 181.625,-36.336Zm-652.472,-0c-40.093,40.093 -23.812,121.476 36.336,181.624c60.148,60.148 141.531,76.43 181.624,36.336c40.094,-40.093 23.812,-121.476 -36.336,-181.624c-60.148,-60.148 -141.531,-76.43 -181.624,-36.336Zm744.872,149.272c0,0 0,0 0,0c33.127,-112.546 2.01,-258.671 -42.242,-332.026c-30.096,-49.888 -65.887,-84.578 -90.195,-96.931c-6.594,-3.351 -14.668,-0.718 -18.018,5.876c-3.351,6.594 -0.718,14.667 5.876,18.018c21.607,10.98 52.636,42.538 79.387,86.882c41.017,67.991 70.185,206.297 39.481,310.614c-2.089,7.095 1.976,14.551 9.072,16.639c7.095,2.089 14.551,-1.976 16.639,-9.072Zm-656.388,-428.859c0,0 0,0 0,0c-34.659,-5.819 -79.541,5.583 -119.556,26.694c-39.861,21.03 -90.425,76.977 -106.044,107.712c-3.351,6.594 -0.718,14.667 5.876,18.018c6.593,3.351 14.667,0.718 18.018,-5.876c13.547,-26.659 60.082,-77.908 94.657,-96.149c34.42,-18.159 72.797,-28.972 102.611,-23.966c7.294,1.224 14.21,-3.703 15.435,-10.997c1.225,-7.295 -3.703,-14.211 -10.997,-15.436Zm265.901,-41.681c-0,0 -0,0 -0,0c21.113,0 38.255,17.142 38.255,38.255c-0,21.114 -17.142,38.255 -38.255,38.255c-21.114,0 -38.255,-17.141 -38.255,-38.255c-0,-21.113 17.141,-38.255 38.255,-38.255Z" style="fill:#fff;"/></g></g><path d="M272.676,81.536c18.428,-10.64 39.839,-8.106 47.783,5.653c7.945,13.76 -0.567,33.569 -18.995,44.209c-18.429,10.64 -39.84,8.106 -47.784,-5.653c-7.944,-13.76 0.567,-33.569 18.996,-44.209Z" style="fill:#00191f;"/><path d="M349.991,57.698c4.944,-2.854 10.99,-1.652 13.492,2.683c2.503,4.335 0.521,10.172 -4.423,13.026c-4.944,2.855 -10.99,1.653 -13.492,-2.683c-2.503,-4.335 -0.521,-10.172 4.423,-13.026Z" style="fill:#00191f;"/></g></g></svg>