<?xml version="1.0" encoding="UTF-8" standalone="no"?><!DOCTYPE svg PUBLIC "-//W3C//DTD SVG 1.1//EN" "http://www.w3.org/Graphics/SVG/1.1/DTD/svg11.dtd"><svg width="1000px" height="1000px" version="1.1" xmlns="http://www.w3.org/2000/svg" xmlns:xlink="http://www.w3.org/1999/xlink" xml:space="preserve" xmlns:serif="http://www.serif.com/" style="fill-rule:evenodd;clip-rule:evenodd;stroke-linecap:round;stroke-linejoin:round;stroke-miterlimit:1.5;"><g><g><path d="M499.601,941.223c-34.575,-50.495 -220.202,-169.924 -220.202,-169.924c19.288,-137.106 -66.148,-713.113 -66.148,-713.113c239.815,32.462 265.849,27.004 286.749,27.004l0.984,0.003c20.781,0.158 49.691,4.949 285.765,-27.007c0,0 -83.092,576.007 -63.804,713.113c0,-0 -189.512,120.366 -222.945,170.515l-0.399,-0.591Z" style="fill:none;stroke:#922919;stroke-width:38.58px;"/><path d="M499.601,941.223c-34.575,-50.495 -220.202,-169.924 -220.202,-169.924c19.288,-137.106 -66.148,-713.113 -66.148,-713.113c239.815,32.462 265.849,27.004 286.749,27.004l0.984,0.003c20.781,0.158 49.691,4.949 285.765,-27.007c0,0 -83.092,576.007 -63.804,713.113c0,-0 -189.512,120.366 -222.945,170.515l-0.399,-0.591Z" style="fill:#ea8924;"/><clipPath id="_clip1"><path d="M499.601,941.223c-34.575,-50.495 -220.202,-169.924 -220.202,-169.924c19.288,-137.106 -66.148,-713.113 -66.148,-713.113c239.815,32.462 265.849,27.004 286.749,27.004l0.984,0.003c20.781,0.158 49.691,4.949 285.765,-27.007c0,0 -83.092,576.007 -63.804,713.113c0,-0 -189.512,120.366 -222.945,170.515l-0.399,-0.591Z"/></clipPath><g clip-path="url(#_clip1)"><rect x="500" y="-96.929" width="538.388" height="1145.27" style="fill:#ffa69b;"/><path d="M786.749,58.186c0,0 -182.467,524.749 -280.207,567.673c-0,-0 -4.686,2.577 -6.542,2.171c-1.856,0.406 -6.542,-2.171 -6.542,-2.171c-97.74,-42.924 -280.207,-567.673 -280.207,-567.673l286.749,-124.472l286.749,124.472Z" style="fill:#ffe349;"/></g><g><path d="M457.391,818.569c-0,-0 -31.31,-96.202 -128.449,-117.166c-0,0 -3.937,96.797 97.474,96.797c12.739,0 21.806,10.945 30.975,20.369Z" style="fill:#a33452;"/><path d="M542.301,818.569c-0,-0 31.31,-96.202 128.449,-117.166c0,0 3.937,96.797 -97.474,96.797c-12.739,0 -21.806,10.945 -30.975,20.369Z" style="fill:#a33452;"/><g><path d="M329.728,715.093c-1.007,-8.271 -0.786,-13.69 -0.786,-13.69c97.139,20.964 128.449,117.166 128.449,117.166c-3.667,-3.769 -7.317,-7.781 -11.191,-11.237c-16.176,-29.881 -51.522,-77.899 -116.472,-92.239Z" style="fill:#ba478c;"/><path d="M553.492,807.332c-3.874,3.456 -7.524,7.468 -11.191,11.237c-0,-0 31.31,-96.202 128.449,-117.166c0,0 0.221,5.419 -0.786,13.69c-64.949,14.34 -100.295,62.355 -116.472,92.239Z" style="fill:#ba478c;"/></g></g></g></g></svg>