<?xml version="1.0" encoding="UTF-8" standalone="no"?><!DOCTYPE svg PUBLIC "-//W3C//DTD SVG 1.1//EN" "http://www.w3.org/Graphics/SVG/1.1/DTD/svg11.dtd"><svg width="4167px" height="4167px" version="1.1" xmlns="http://www.w3.org/2000/svg" xmlns:xlink="http://www.w3.org/1999/xlink" xml:space="preserve" xmlns:serif="http://www.serif.com/" style="fill-rule:evenodd;clip-rule:evenodd;stroke-linejoin:round;stroke-miterlimit:2;"><circle cx="2083.33" cy="2083.33" r="2083.33" style="fill:#f7d299;"/><circle cx="2083.33" cy="2083.33" r="1447.74" style="fill:#f7d299;"/><clipPath id="_clip1"><circle cx="2083.33" cy="2083.33" r="1447.74"/></clipPath><g clip-path="url(#_clip1)"><rect x="2083.33" y="-0" width="1659.05" height="4246.78" style="fill:#c6dcfb;"/></g><circle cx="2083.33" cy="2083.33" r="2083.33" style="fill:#f7d299;"/><path d="M2083.33,0c1149.83,0 2083.33,933.508 2083.33,2083.33c-0,1149.83 -933.509,2083.33 -2083.33,2083.33c-1149.83,-0 -2083.33,-933.509 -2083.33,-2083.33c0,-1149.83 933.508,-2083.33 2083.33,-2083.33Zm0,347.221c958.188,-0 1736.11,777.925 1736.11,1736.11c-0,958.188 -777.925,1736.11 -1736.11,1736.11c-958.187,-0 -1736.11,-777.925 -1736.11,-1736.11c-0,-958.187 777.925,-1736.11 1736.11,-1736.11Z" style="fill:#41241c;"/><path d="M1509.3,2800.19l0,-1151.5l1240.5,-333.768l-0,1285.01" style="fill:none;"/><path d="M1418.27,2447.99l-0,-1015.08c-0,-67.461 44.153,-126.973 108.716,-146.533l1349.41,-408.83c46.39,-14.055 96.696,-5.313 135.625,23.569c38.928,28.882 61.881,74.492 61.881,122.965l0,1573.99l-0.001,0.223l0.001,0.446c0,226.223 -183.664,409.887 -409.887,409.887c-226.223,-0 -409.887,-183.664 -409.887,-409.887c-0,-226.223 183.664,-409.888 409.887,-409.888c35.811,0 70.556,4.603 103.665,13.247l-0,-797.216l-1043.19,316.053l0,1106.23c0.248,5.819 0.372,11.672 0.372,17.554c0,226.223 -183.664,409.887 -409.887,409.887c-226.223,0 -409.888,-183.664 -409.888,-409.887c0,-226.223 183.665,-409.888 409.888,-409.888c35.675,0 70.292,4.568 103.293,13.15Z" style="fill:#41241c;"/></svg>