<?xml version="1.0" encoding="UTF-8" standalone="no"?><!DOCTYPE svg PUBLIC "-//W3C//DTD SVG 1.1//EN" "http://www.w3.org/Graphics/SVG/1.1/DTD/svg11.dtd"><svg width="3000px" height="3000px" version="1.1" xmlns="http://www.w3.org/2000/svg" xmlns:xlink="http://www.w3.org/1999/xlink" xml:space="preserve" xmlns:serif="http://www.serif.com/" style="fill-rule:evenodd;clip-rule:evenodd;stroke-linejoin:round;stroke-miterlimit:2;"><path d="M2383.11,3000c163.59,-0 320.546,-64.984 436.19,-180.627c115.719,-115.72 180.703,-272.676 180.703,-436.266l0,-1769.18c-0,-163.59 -64.984,-320.546 -180.703,-436.265c-115.644,-115.644 -272.6,-180.627 -436.19,-180.627l-1769.18,-0c-163.59,-0 -320.546,64.983 -436.265,180.703c-115.644,115.643 -180.627,272.599 -180.627,436.189l-0,1769.18c-0,163.59 64.983,320.546 180.627,436.19c115.719,115.719 272.675,180.703 436.265,180.703l1769.18,-0Z" style="fill:#cd5752;"/><path d="M2336.66,1247.71c-0,-38.167 -30.918,-69.085 -69.086,-69.085l-1538.11,-0c-38.167,-0 -69.085,30.918 -69.085,69.085l-0,0.213c-0,38.168 30.918,69.086 69.085,69.086l1538.11,-0c38.168,-0 69.086,-30.918 69.086,-69.086l-0,-0.213Z" style="fill:#fff;"/><path d="M1138.32,1127.98c-0,10.662 -8.636,19.404 -19.297,19.404l-89.342,-0c-21.323,-0 -38.594,-17.378 -38.594,-38.701l-0,-42.645c-0,-5.118 2.025,-10.022 5.65,-13.647c3.625,-3.624 8.529,-5.65 13.647,-5.65l123.671,-0c1.066,-0 2.239,0.426 2.985,1.279c0.853,0.853 1.28,1.919 1.28,3.092l-0,76.868Zm51.494,19.404c-5.117,-0 -10.022,-2.132 -13.646,-5.651c-3.625,-3.624 -5.651,-8.635 -5.651,-13.753l0,-562.279c0,-33.796 27.4,-61.196 61.196,-61.196l533.6,-0c33.797,-0 61.197,27.4 61.197,61.196l-0,562.279c-0,5.118 -2.026,10.129 -5.651,13.753c-3.625,3.519 -8.529,5.651 -13.646,5.651l-617.399,-0Zm796.829,-100.643c5.117,-0 10.022,2.026 13.647,5.65c3.624,3.625 5.65,8.529 5.65,13.647l0,42.645c0,21.323 -17.271,38.701 -38.594,38.701l-89.342,-0c-10.661,-0 -19.297,-8.742 -19.297,-19.404l-0,-61.942c-0,-5.118 2.026,-10.022 5.65,-13.647c3.625,-3.624 8.529,-5.65 13.647,-5.65l108.639,-0Zm-488.183,11.301c14.393,-0 26.12,11.727 26.12,26.12c0,14.286 -11.727,26.014 -26.12,26.014c-14.286,-0 -26.014,-11.728 -26.014,-26.014c0,-14.393 11.728,-26.12 26.014,-26.12Zm-90.621,-0c14.286,-0 26.013,11.727 26.013,26.12c0,14.286 -11.727,26.014 -26.013,26.014c-14.393,-0 -26.121,-11.728 -26.121,-26.014c0,-14.393 11.728,-26.12 26.121,-26.12Zm181.349,-0c14.393,-0 26.014,11.727 26.014,26.12c-0,14.286 -11.621,26.014 -26.014,26.014c-14.393,-0 -26.014,-11.728 -26.014,-26.014c0,-14.393 11.621,-26.12 26.014,-26.12Zm-90.728,-90.515c14.393,0 26.12,11.621 26.12,26.014c0,14.393 -11.727,26.013 -26.12,26.013c-14.286,0 -26.014,-11.62 -26.014,-26.013c0,-14.393 11.728,-26.014 26.014,-26.014Zm-90.621,0c14.286,0 26.013,11.621 26.013,26.014c0,14.393 -11.727,26.013 -26.013,26.013c-14.393,0 -26.121,-11.62 -26.121,-26.013c0,-14.393 11.728,-26.014 26.121,-26.014Zm181.349,0c14.393,0 26.014,11.621 26.014,26.014c-0,14.393 -11.621,26.013 -26.014,26.013c-14.393,0 -26.014,-11.62 -26.014,-26.013c0,-14.393 11.621,-26.014 26.014,-26.014Zm-598.101,-113.863c-0,-5.118 2.025,-10.022 5.65,-13.647c3.625,-3.624 8.529,-5.65 13.647,-5.65l123.671,-0c1.066,-0 2.239,0.426 2.985,1.279c0.853,0.747 1.28,1.919 1.28,2.985l-0,171.648c-0,2.346 -1.919,4.265 -4.265,4.265l-123.671,-0c-5.118,-0 -10.022,-2.026 -13.647,-5.651c-3.625,-3.625 -5.65,-8.529 -5.65,-13.646l-0,-141.583Zm1014.85,141.583c0,5.117 -2.026,10.021 -5.65,13.646c-3.625,3.625 -8.53,5.651 -13.647,5.651l-108.639,-0c-5.118,-0 -10.022,-2.026 -13.647,-5.651c-3.624,-3.625 -5.65,-8.529 -5.65,-13.646l-0,-141.583c-0,-5.118 2.026,-10.022 5.65,-13.647c3.625,-3.624 8.529,-5.65 13.647,-5.65l108.639,-0c5.117,-0 10.022,2.026 13.647,5.65c3.624,3.625 5.65,8.529 5.65,13.647l0,141.583Zm-507.48,-118.341c14.393,-0 26.12,11.621 26.12,26.013c0,14.393 -11.727,26.014 -26.12,26.014c-14.286,0 -26.014,-11.621 -26.014,-26.014c0,-14.392 11.728,-26.013 26.014,-26.013Zm-90.621,-0c14.286,-0 26.013,11.621 26.013,26.013c0,14.393 -11.727,26.014 -26.013,26.014c-14.393,0 -26.121,-11.621 -26.121,-26.014c0,-14.392 11.728,-26.013 26.121,-26.013Zm181.349,-0c14.393,-0 26.014,11.621 26.014,26.013c-0,14.393 -11.621,26.014 -26.014,26.014c-14.393,0 -26.014,-11.621 -26.014,-26.014c0,-14.392 11.621,-26.013 26.014,-26.013Zm-90.728,-90.622c14.393,0 26.12,11.728 26.12,26.014c0,14.393 -11.727,26.12 -26.12,26.12c-14.286,0 -26.014,-11.727 -26.014,-26.12c0,-14.286 11.728,-26.014 26.014,-26.014Zm-90.621,0c14.286,0 26.013,11.728 26.013,26.014c0,14.393 -11.727,26.12 -26.013,26.12c-14.393,0 -26.121,-11.727 -26.121,-26.12c0,-14.286 11.728,-26.014 26.121,-26.014Zm181.349,0c14.393,0 26.014,11.728 26.014,26.014c-0,14.393 -11.621,26.12 -26.014,26.12c-14.393,0 -26.014,-11.727 -26.014,-26.12c0,-14.286 11.621,-26.014 26.014,-26.014Zm416.752,-3.411c0,5.117 -2.026,10.021 -5.65,13.646c-3.625,3.625 -8.53,5.651 -13.647,5.651l-108.639,-0c-5.118,-0 -10.022,-2.026 -13.647,-5.651c-3.624,-3.625 -5.65,-8.529 -5.65,-13.646l-0,-151.178c-0,-2.346 1.919,-4.265 4.264,-4.265l0,-0.106l123.672,-0c5.117,-0 10.022,2.025 13.647,5.65c3.624,3.625 5.65,8.529 5.65,13.647l0,136.252Zm-1014.85,-136.252c-0,-5.118 2.025,-10.022 5.65,-13.647c3.625,-3.625 8.529,-5.65 13.647,-5.65l108.639,-0c5.117,-0 10.021,2.025 13.646,5.65c3.625,3.625 5.651,8.529 5.651,13.647l-0,151.177c-0,2.453 -1.919,4.372 -4.265,4.372l-123.671,-0c-5.118,-0 -10.022,-2.026 -13.647,-5.651c-3.625,-3.625 -5.65,-8.529 -5.65,-13.646l-0,-136.252Zm416.752,49.042c14.286,-0 26.013,11.727 26.013,26.12c0,14.286 -11.727,26.014 -26.013,26.014c-14.393,-0 -26.121,-11.728 -26.121,-26.014c0,-14.393 11.728,-26.12 26.121,-26.12Zm90.621,-0c14.393,-0 26.12,11.727 26.12,26.12c0,14.286 -11.727,26.014 -26.12,26.014c-14.286,-0 -26.014,-11.728 -26.014,-26.014c0,-14.393 11.728,-26.12 26.014,-26.12Zm90.728,-0c14.393,-0 26.014,11.727 26.014,26.12c-0,14.286 -11.621,26.014 -26.014,26.014c-14.393,-0 -26.014,-11.728 -26.014,-26.014c0,-14.393 11.621,-26.12 26.014,-26.12Zm0,-90.515c14.393,-0 26.014,11.621 26.014,26.014c-0,14.392 -11.621,26.013 -26.014,26.013c-14.393,0 -26.014,-11.621 -26.014,-26.013c0,-14.393 11.621,-26.014 26.014,-26.014Zm-181.349,-0c14.286,-0 26.013,11.621 26.013,26.014c0,14.392 -11.727,26.013 -26.013,26.013c-14.393,0 -26.121,-11.621 -26.121,-26.013c0,-14.393 11.728,-26.014 26.121,-26.014Zm90.621,-0c14.393,-0 26.12,11.621 26.12,26.014c0,14.392 -11.727,26.013 -26.12,26.013c-14.286,0 -26.014,-11.621 -26.014,-26.013c0,-14.393 11.728,-26.014 26.014,-26.014Zm474.963,-216.319c5.437,-5.437 13.646,-7.143 20.79,-4.158c7.036,2.986 11.727,9.915 11.727,17.592l0,173.566c0,5.118 -2.026,10.022 -5.65,13.647c-3.625,3.625 -8.53,5.65 -13.647,5.65l-123.672,0c-1.172,0 -2.238,-0.426 -3.091,-1.172c-0.747,-0.853 -1.173,-1.919 -1.173,-3.092l-0,-25.161c-0,-13.113 -2.772,-25.587 -7.676,-36.888c-3.199,-7.25 -1.6,-15.779 3.944,-21.323c23.669,-23.881 84.651,-84.971 118.448,-118.661Zm-982.336,13.434c-0,-7.677 4.691,-14.606 11.727,-17.592c7.143,-2.985 15.352,-1.279 20.79,4.158c33.796,33.69 94.779,94.78 118.554,118.448c5.65,5.757 7.25,14.286 3.945,21.642c-5.011,11.195 -7.783,23.669 -7.783,36.782l-0,10.128c-0,5.118 -2.026,10.022 -5.651,13.647c-3.625,3.625 -8.529,5.65 -13.646,5.65l-108.639,0c-5.118,0 -10.022,-2.025 -13.647,-5.65c-3.625,-3.625 -5.65,-8.529 -5.65,-13.647l-0,-173.566Zm735.952,-57.891c0,-5.118 2.026,-10.022 5.651,-13.647c3.625,-3.625 8.529,-5.651 13.646,-5.651l182.416,0c6.503,0 13.007,0.853 19.297,2.453c6.61,1.705 11.834,6.716 13.646,13.326c1.813,6.504 0,13.54 -4.797,18.338c-31.664,32.304 -96.272,96.805 -122.073,122.605c-6.29,6.29 -15.885,7.463 -23.561,2.985c-13.433,-7.996 -29.212,-12.473 -45.951,-12.473l-18.977,-0c-5.117,-0 -10.021,-2.026 -13.646,-5.651c-3.625,-3.625 -5.651,-8.529 -5.651,-13.646l0,-108.639Zm-476.349,-19.298c5.118,0 10.022,2.026 13.647,5.651c3.625,3.625 5.65,8.529 5.65,13.647l0,108.639c0,5.117 -2.025,10.021 -5.65,13.646c-3.625,3.625 -8.529,5.651 -13.647,5.651l-18.977,-0c-16.845,-0 -32.517,4.477 -46.163,12.26c-7.463,4.371 -17.059,3.199 -23.136,-2.985c-26.12,-25.587 -90.621,-90.088 -122.498,-122.072c-5.011,-4.905 -6.93,-12.048 -5.011,-18.764c1.812,-6.717 7.143,-11.941 13.966,-13.647c6.29,-1.173 12.794,-2.026 19.404,-2.026l182.415,0Zm263.869,19.298c-0,-5.118 2.025,-10.022 5.65,-13.647c3.625,-3.625 8.529,-5.651 13.647,-5.651l141.689,0c5.117,0 10.022,2.026 13.646,5.651c3.625,3.625 5.651,8.529 5.651,13.647l0,108.639c0,5.117 -2.026,10.021 -5.651,13.646c-3.624,3.625 -8.529,5.651 -13.646,5.651l-141.689,-0c-5.118,-0 -10.022,-2.026 -13.647,-5.651c-3.625,-3.625 -5.65,-8.529 -5.65,-13.646l-0,-108.639Zm-212.374,-0c-0,-5.118 2.025,-10.022 5.65,-13.647c3.625,-3.625 8.529,-5.651 13.647,-5.651l141.582,0c5.118,0 10.022,2.026 13.647,5.651c3.625,3.625 5.65,8.529 5.65,13.647l0,108.639c0,5.117 -2.025,10.021 -5.65,13.646c-3.625,3.625 -8.529,5.651 -13.647,5.651l-141.582,-0c-5.118,-0 -10.022,-2.026 -13.647,-5.651c-3.625,-3.625 -5.65,-8.529 -5.65,-13.646l-0,-108.639Z" style="fill:#fff;"/><path d="M2306.38,2265.65c-9.915,-7.782 -23.135,-10.128 -35.183,-6.077c-12.047,3.945 -21.216,13.754 -24.521,25.907c-101.709,380.184 -427.413,380.184 -753.224,380.184c-392.231,0 -784.568,0 -784.568,-664.415l-0,-576.139c-0,-20.47 8.102,-40.087 22.602,-54.586c14.499,-14.5 34.116,-22.602 54.586,-22.602l1414.76,-0c20.577,-0 40.194,8.102 54.693,22.602c14.5,14.499 22.602,34.116 22.602,54.586l0,259.71c0,13.967 7.57,26.867 19.724,33.69c12.26,6.823 27.186,6.504 39.127,-0.853c48.402,-29.318 105.227,-45.843 165.997,-45.843c181.776,-0 329.435,147.659 329.435,329.435c0,181.883 -147.659,329.542 -329.435,329.542c-73.67,0 -141.689,-24.308 -196.595,-65.141Zm-467.5,-149.898c10.981,-0 21.322,4.691 28.679,12.687c7.356,8.103 10.874,18.977 9.808,29.745c-21.429,190.412 -183.055,338.604 -379.011,338.604c-195.955,0 -357.581,-148.192 -378.691,-338.604c-1.066,-10.768 2.453,-21.429 9.809,-29.532c7.25,-7.996 17.485,-12.58 28.359,-12.58c131.988,-0.32 549.059,-0.32 681.047,-0.32Zm664.095,-339.244c123.991,-0 224.741,100.75 224.741,224.741c0,124.098 -100.75,224.848 -224.741,224.848c-124.098,-0 -224.848,-100.75 -224.848,-224.848c0,-123.991 100.75,-224.741 224.848,-224.741Zm-443.086,-83.585c0.534,-8.636 7.677,-15.352 16.312,-15.352c4.265,-0.214 8.849,-0.214 13.22,-0.214c4.585,0 8.956,1.813 12.048,5.118c3.198,3.305 4.797,7.783 4.584,12.367c-9.169,118.234 -108.106,211.521 -228.579,211.521c-120.58,0 -219.411,-93.287 -228.366,-211.628c-0.213,-4.477 1.386,-8.849 4.478,-12.047c3.091,-3.305 7.356,-5.117 11.834,-5.117c4.371,-0.214 8.955,-0.214 13.326,-0.214c8.743,0 15.886,6.824 16.419,15.566c7.676,94.779 86.357,169.409 182.309,169.409c95.845,-0 174.633,-74.63 182.415,-169.409Zm-758.021,-0c0.533,-8.636 7.676,-15.352 16.312,-15.352c4.264,-0.214 8.849,-0.214 13.22,-0.214c4.584,0 8.955,1.813 12.047,5.118c3.092,3.305 4.798,7.783 4.478,12.367c-9.169,118.234 -108,211.521 -228.579,211.521c-120.474,0 -219.411,-93.287 -228.26,-211.628c-0.213,-4.477 1.386,-8.849 4.478,-12.047c3.092,-3.305 7.356,-5.117 11.834,-5.117c4.371,-0.214 8.956,-0.214 13.22,-0.214c8.742,0 15.992,6.824 16.525,15.566c7.57,94.779 86.357,169.409 182.203,169.409c95.952,-0 174.632,-74.63 182.522,-169.409Z" style="fill:#fff;"/></svg>