<?xml version="1.0" encoding="UTF-8" standalone="no"?><!DOCTYPE svg PUBLIC "-//W3C//DTD SVG 1.1//EN" "http://www.w3.org/Graphics/SVG/1.1/DTD/svg11.dtd"><svg width="12500px" height="12500px" version="1.1" xmlns="http://www.w3.org/2000/svg" xmlns:xlink="http://www.w3.org/1999/xlink" xml:space="preserve" xmlns:serif="http://www.serif.com/" style="fill-rule:evenodd;clip-rule:evenodd;stroke-linejoin:round;stroke-miterlimit:2;"><path d="M2560.91,4746.86l0,-3768.33c0,-129.538 51.459,-253.77 143.056,-345.367c91.597,-91.597 215.829,-143.055 345.366,-143.055c948.823,-0 3031.1,-0 3979.92,-0c129.538,-0 253.77,51.458 345.367,143.055c91.597,91.597 143.055,215.829 143.055,345.367l0,3768.33l1277.88,0c186.421,0 337.431,151.011 337.431,337.427l0,1.04c0,168.897 -123.954,308.728 -285.888,333.523l0,1800.38c0,68.218 36.974,131.224 96.337,164.549c59.88,33.325 132.782,31.767 191.104,-4.166c236.406,-143.195 513.952,-223.907 810.766,-223.907c887.834,-0 1609.03,721.199 1609.03,1609.03c0,888.356 -721.199,1609.56 -1609.03,1609.56c-359.82,0 -692.04,-118.725 -960.213,-318.163c-48.427,-38.009 -112.996,-49.467 -171.841,-29.681c-58.841,19.268 -103.624,67.177 -119.766,126.535c-496.769,1856.9 -2087.58,1856.9 -3678.91,1856.9c-1915.74,0 -3832,0 -3832,-3245.15l-0,-3357.19c-137.292,-42.755 -236.909,-170.807 -236.909,-322.218l-0,-1.04c-0,-186.416 151.01,-337.427 337.426,-337.427l1277.82,0Z" style="fill:none;stroke:#000;stroke-width:416.67px;"/><path d="M2560.91,4746.86l0,-3768.33c0,-129.538 51.459,-253.77 143.056,-345.367c91.597,-91.597 215.829,-143.055 345.366,-143.055c948.823,-0 3031.1,-0 3979.92,-0c129.538,-0 253.77,51.458 345.367,143.055c91.597,91.597 143.055,215.829 143.055,345.367l0,3768.33l1277.88,0c186.421,0 337.431,151.011 337.431,337.427l0,1.04c0,168.897 -123.954,308.728 -285.888,333.523l0,1800.38c0,68.218 36.974,131.224 96.337,164.549c59.88,33.325 132.782,31.767 191.104,-4.166c236.406,-143.195 513.952,-223.907 810.766,-223.907c887.834,-0 1609.03,721.199 1609.03,1609.03c0,888.356 -721.199,1609.56 -1609.03,1609.56c-359.82,0 -692.04,-118.725 -960.213,-318.163c-48.427,-38.009 -112.996,-49.467 -171.841,-29.681c-58.841,19.268 -103.624,67.177 -119.766,126.535c-496.769,1856.9 -2087.58,1856.9 -3678.91,1856.9c-1915.74,0 -3832,0 -3832,-3245.15l-0,-3357.19c-137.292,-42.755 -236.909,-170.807 -236.909,-322.218l-0,-1.04c-0,-186.416 151.01,-337.427 337.426,-337.427l1277.82,0Z" style="fill:#fff;"/></svg>