<?xml version="1.0" encoding="UTF-8" standalone="no"?><!DOCTYPE svg PUBLIC "-//W3C//DTD SVG 1.1//EN" "http://www.w3.org/Graphics/SVG/1.1/DTD/svg11.dtd"><svg width="1000px" height="1000px" version="1.1" xmlns="http://www.w3.org/2000/svg" xmlns:xlink="http://www.w3.org/1999/xlink" xml:space="preserve" xmlns:serif="http://www.serif.com/" style="fill-rule:evenodd;clip-rule:evenodd;stroke-linejoin:round;stroke-miterlimit:2;"><g><g><g><rect x="193.986" y="186.381" width="609.078" height="609.078" style="fill:#6f6735;"/><path d="M493.636,482.586l-0,-287.872c-0,-4.599 3.734,-8.333 8.333,-8.333c4.599,-0 8.333,3.734 8.333,8.333l0,287.872l284.429,0c4.599,0 8.333,3.735 8.333,8.334c0,4.599 -3.734,8.333 -8.333,8.333l-284.429,0l0,287.872c0,4.6 -3.734,8.334 -8.333,8.334c-4.599,-0 -8.333,-3.734 -8.333,-8.334l-0,-287.872l-291.317,0c-4.599,0 -8.333,-3.734 -8.333,-8.333c-0,-4.599 3.734,-8.334 8.333,-8.334l291.317,0Z" style="fill:#fff;"/><path d="M493.636,482.586l-0,-287.872c-0,-4.599 3.734,-8.333 8.333,-8.333c4.599,-0 8.333,3.734 8.333,8.333l0,287.872l284.429,0c4.599,0 8.333,3.735 8.333,8.334c0,4.599 -3.734,8.333 -8.333,8.333l-284.429,0l0,287.872c0,4.6 -3.734,8.334 -8.333,8.334c-4.599,-0 -8.333,-3.734 -8.333,-8.334l-0,-287.872l-291.317,0c-4.599,0 -8.333,-3.734 -8.333,-8.333c-0,-4.599 3.734,-8.334 8.333,-8.334l291.317,0Z" style="fill:#fff;"/><circle cx="500" cy="490.114" r="154.467" style="fill:#3c5365;"/><path d="M501.475,613.516c-25.201,-59.639 -144.611,-107.136 -97.349,-175.596c28.895,-41.854 84.809,-11.215 97.349,11.396c12.54,-22.611 67.742,-52.749 97.349,-11.396c50.126,70.016 -72.148,115.957 -97.349,175.596Z" style="fill:#fff;"/><path d="M501.475,613.516c-25.201,-59.639 -144.611,-107.136 -97.349,-175.596c28.895,-41.854 84.809,-11.215 97.349,11.396c12.54,-22.611 67.742,-52.749 97.349,-11.396c50.126,70.016 -72.148,115.957 -97.349,175.596Z" style="fill:#fff;"/><path d="M550.439,748.127c5.869,-1.216 11.974,0.274 16.623,4.057c4.648,3.784 7.346,9.459 7.346,15.453c0.076,9.382 0.076,19.862 0.076,28.688c-0,11.046 -8.954,20 -20,20c-28.495,-0 -80.473,-0 -108.968,-0c-11.046,-0 -20,-8.954 -20,-20c0,-8.671 0,-18.921 0,-28.107c0,-5.978 2.674,-11.642 7.289,-15.441c4.615,-3.799 10.687,-5.335 16.553,-4.187c15.92,3.088 32.36,4.667 49.167,4.667c17.769,-0 35.128,-1.765 51.914,-5.13Zm-306.919,-154.977c7.712,-0 14.736,4.434 18.054,11.396c26.518,54.84 71.542,99.086 126.941,124.646c7.133,3.237 11.714,10.347 11.714,18.18c0.036,13.195 0.036,33.723 0.036,48.953c-0,11.046 -8.955,20 -20,20l-186.989,-0c-11.046,-0 -20,-8.954 -20,-20l-0,-183.175c-0,-5.304 2.107,-10.391 5.858,-14.142c3.75,-3.751 8.837,-5.858 14.142,-5.858l50.244,-0Zm491.987,11.41c3.312,-6.949 10.325,-11.376 18.023,-11.376c13.41,-0.034 34.633,-0.034 50.244,-0.034c5.305,-0 10.392,2.107 14.142,5.858c3.751,3.751 5.858,8.838 5.858,14.142l0,183.175c0,11.046 -8.954,20 -20,20l-186.989,-0c-11.045,-0 -20,-8.954 -20,-20l0,-48.952c0,-7.847 4.59,-14.97 11.736,-18.212c55.407,-25.522 100.435,-69.771 126.986,-124.601Zm-514.8,-188.93c5.997,0 11.678,2.691 15.476,7.332c3.799,4.64 5.315,10.74 4.13,16.619c-3.26,16.345 -4.931,33.246 -4.931,50.533c0,17.287 1.671,34.188 4.859,50.547c1.181,5.858 -0.33,11.935 -4.114,16.559c-3.785,4.623 -9.445,7.305 -15.42,7.305c-8.984,0.073 -18.957,0.073 -27.431,0.073c-11.046,-0 -20,-8.955 -20,-20c-0,-28.495 -0,-80.473 -0,-108.968c-0,-11.046 8.954,-20 20,-20c8.474,0 18.447,0 27.431,0Zm536.102,23.937c-1.181,-5.858 0.33,-11.935 4.114,-16.559c3.785,-4.623 9.445,-7.305 15.42,-7.305c8.984,-0.073 18.957,-0.073 27.431,-0.073c11.046,0 20,8.954 20,20c0,28.495 0,80.473 0,108.968c0,11.045 -8.954,20 -20,20c-8.474,-0 -18.447,-0 -27.431,-0c-5.997,-0 -11.678,-2.691 -15.476,-7.332c-3.799,-4.64 -5.315,-10.74 -4.13,-16.619c3.26,-16.345 4.931,-33.246 4.931,-50.533c-0,-17.287 -1.671,-34.188 -4.859,-50.547Zm-356.544,-206.712c-0.001,7.848 -4.59,14.97 -11.737,18.213c-55.909,25.753 -101.251,70.574 -127.703,126.096c-3.287,7.012 -10.333,11.491 -18.078,11.491c-13.263,0.035 -34.08,0.035 -49.471,0.035c-11.046,-0 -20,-8.955 -20,-20c-0,-42.38 -0,-140.796 -0,-183.175c-0,-11.046 8.954,-20 20,-20l186.989,-0c5.304,-0 10.391,2.107 14.142,5.858c3.75,3.75 5.858,8.837 5.858,14.142l-0,47.34Zm208.27,18.181c-7.133,-3.237 -11.714,-10.346 -11.714,-18.18c-0.036,-12.83 -0.036,-32.551 -0.036,-47.341c0,-5.305 2.108,-10.392 5.858,-14.142c3.751,-3.751 8.838,-5.858 14.142,-5.858l186.989,-0c11.046,-0 20,8.954 20,20l0,183.175c0,11.045 -8.954,20 -20,20c-15.392,-0 -36.209,-0 -49.472,-0c-7.758,-0 -14.816,-4.486 -18.109,-11.51c-26.426,-55.537 -71.763,-100.354 -127.658,-126.144Zm-159.191,-19.468c-5.845,1.144 -11.896,-0.387 -16.494,-4.172c-4.599,-3.786 -7.263,-9.43 -7.263,-15.386c-0.071,-8.685 -0.071,-18.285 -0.071,-26.495c0,-5.305 2.107,-10.392 5.858,-14.142c3.751,-3.751 8.838,-5.858 14.142,-5.858c28.495,-0 80.473,-0 108.968,-0c11.046,-0 20,8.954 20,20l-0,27.076c-0,6.016 -2.709,11.713 -7.375,15.511c-4.666,3.798 -10.794,5.294 -16.685,4.072c-16.771,-3.438 -34.13,-5.203 -51.899,-5.203c-16.807,0 -33.247,1.579 -49.181,4.597Z" style="fill:#3c5365;"/></g></g><g><g><rect x="193.986" y="186.381" width="609.078" height="609.078" style="fill:#6f6735;"/><path d="M493.636,482.586l-0,-287.872c-0,-4.599 3.734,-8.333 8.333,-8.333c4.599,-0 8.333,3.734 8.333,8.333l0,287.872l284.429,0c4.599,0 8.333,3.735 8.333,8.334c0,4.599 -3.734,8.333 -8.333,8.333l-284.429,0l0,287.872c0,4.6 -3.734,8.334 -8.333,8.334c-4.599,-0 -8.333,-3.734 -8.333,-8.334l-0,-287.872l-291.317,0c-4.599,0 -8.333,-3.734 -8.333,-8.333c-0,-4.599 3.734,-8.334 8.333,-8.334l291.317,0Z" style="fill:#fff;"/><path d="M493.636,482.586l-0,-287.872c-0,-4.599 3.734,-8.333 8.333,-8.333c4.599,-0 8.333,3.734 8.333,8.333l0,287.872l284.429,0c4.599,0 8.333,3.735 8.333,8.334c0,4.599 -3.734,8.333 -8.333,8.333l-284.429,0l0,287.872c0,4.6 -3.734,8.334 -8.333,8.334c-4.599,-0 -8.333,-3.734 -8.333,-8.334l-0,-287.872l-291.317,0c-4.599,0 -8.333,-3.734 -8.333,-8.333c-0,-4.599 3.734,-8.334 8.333,-8.334l291.317,0Z" style="fill:#fff;"/><circle cx="500" cy="490.114" r="154.467" style="fill:#3c5365;"/><path d="M501.475,613.516c-25.201,-59.639 -144.611,-107.136 -97.349,-175.596c28.895,-41.854 84.809,-11.215 97.349,11.396c12.54,-22.611 67.742,-52.749 97.349,-11.396c50.126,70.016 -72.148,115.957 -97.349,175.596Z" style="fill:#fff;"/><path d="M501.475,613.516c-25.201,-59.639 -144.611,-107.136 -97.349,-175.596c28.895,-41.854 84.809,-11.215 97.349,11.396c12.54,-22.611 67.742,-52.749 97.349,-11.396c50.126,70.016 -72.148,115.957 -97.349,175.596Z" style="fill:#fff;"/><path d="M550.439,748.127c5.869,-1.216 11.974,0.274 16.623,4.057c4.648,3.784 7.346,9.459 7.346,15.453c0.076,9.382 0.076,19.862 0.076,28.688c-0,11.046 -8.954,20 -20,20c-28.495,-0 -80.473,-0 -108.968,-0c-11.046,-0 -20,-8.954 -20,-20c0,-8.671 0,-18.921 0,-28.107c0,-5.978 2.674,-11.642 7.289,-15.441c4.615,-3.799 10.687,-5.335 16.553,-4.187c15.92,3.088 32.36,4.667 49.167,4.667c17.769,-0 35.128,-1.765 51.914,-5.13Zm-306.919,-154.977c7.712,-0 14.736,4.434 18.054,11.396c26.518,54.84 71.542,99.086 126.941,124.646c7.133,3.237 11.714,10.347 11.714,18.18c0.036,13.195 0.036,33.723 0.036,48.953c-0,11.046 -8.955,20 -20,20l-186.989,-0c-11.046,-0 -20,-8.954 -20,-20l-0,-183.175c-0,-5.304 2.107,-10.391 5.858,-14.142c3.75,-3.751 8.837,-5.858 14.142,-5.858l50.244,-0Zm491.987,11.41c3.312,-6.949 10.325,-11.376 18.023,-11.376c13.41,-0.034 34.633,-0.034 50.244,-0.034c5.305,-0 10.392,2.107 14.142,5.858c3.751,3.751 5.858,8.838 5.858,14.142l0,183.175c0,11.046 -8.954,20 -20,20l-186.989,-0c-11.045,-0 -20,-8.954 -20,-20l0,-48.952c0,-7.847 4.59,-14.97 11.736,-18.212c55.407,-25.522 100.435,-69.771 126.986,-124.601Zm-514.8,-188.93c5.997,0 11.678,2.691 15.476,7.332c3.799,4.64 5.315,10.74 4.13,16.619c-3.26,16.345 -4.931,33.246 -4.931,50.533c0,17.287 1.671,34.188 4.859,50.547c1.181,5.858 -0.33,11.935 -4.114,16.559c-3.785,4.623 -9.445,7.305 -15.42,7.305c-8.984,0.073 -18.957,0.073 -27.431,0.073c-11.046,-0 -20,-8.955 -20,-20c-0,-28.495 -0,-80.473 -0,-108.968c-0,-11.046 8.954,-20 20,-20c8.474,0 18.447,0 27.431,0Zm536.102,23.937c-1.181,-5.858 0.33,-11.935 4.114,-16.559c3.785,-4.623 9.445,-7.305 15.42,-7.305c8.984,-0.073 18.957,-0.073 27.431,-0.073c11.046,0 20,8.954 20,20c0,28.495 0,80.473 0,108.968c0,11.045 -8.954,20 -20,20c-8.474,-0 -18.447,-0 -27.431,-0c-5.997,-0 -11.678,-2.691 -15.476,-7.332c-3.799,-4.64 -5.315,-10.74 -4.13,-16.619c3.26,-16.345 4.931,-33.246 4.931,-50.533c-0,-17.287 -1.671,-34.188 -4.859,-50.547Zm-356.544,-206.712c-0.001,7.848 -4.59,14.97 -11.737,18.213c-55.909,25.753 -101.251,70.574 -127.703,126.096c-3.287,7.012 -10.333,11.491 -18.078,11.491c-13.263,0.035 -34.08,0.035 -49.471,0.035c-11.046,-0 -20,-8.955 -20,-20c-0,-42.38 -0,-140.796 -0,-183.175c-0,-11.046 8.954,-20 20,-20l186.989,-0c5.304,-0 10.391,2.107 14.142,5.858c3.75,3.75 5.858,8.837 5.858,14.142l-0,47.34Zm208.27,18.181c-7.133,-3.237 -11.714,-10.346 -11.714,-18.18c-0.036,-12.83 -0.036,-32.551 -0.036,-47.341c0,-5.305 2.108,-10.392 5.858,-14.142c3.751,-3.751 8.838,-5.858 14.142,-5.858l186.989,-0c11.046,-0 20,8.954 20,20l0,183.175c0,11.045 -8.954,20 -20,20c-15.392,-0 -36.209,-0 -49.472,-0c-7.758,-0 -14.816,-4.486 -18.109,-11.51c-26.426,-55.537 -71.763,-100.354 -127.658,-126.144Zm-159.191,-19.468c-5.845,1.144 -11.896,-0.387 -16.494,-4.172c-4.599,-3.786 -7.263,-9.43 -7.263,-15.386c-0.071,-8.685 -0.071,-18.285 -0.071,-26.495c0,-5.305 2.107,-10.392 5.858,-14.142c3.751,-3.751 8.838,-5.858 14.142,-5.858c28.495,-0 80.473,-0 108.968,-0c11.046,-0 20,8.954 20,20l-0,27.076c-0,6.016 -2.709,11.713 -7.375,15.511c-4.666,3.798 -10.794,5.294 -16.685,4.072c-16.771,-3.438 -34.13,-5.203 -51.899,-5.203c-16.807,0 -33.247,1.579 -49.181,4.597Z" style="fill:#3c5365;"/></g></g></g></svg>