<?xml version="1.0" encoding="UTF-8" standalone="no"?><!DOCTYPE svg PUBLIC "-//W3C//DTD SVG 1.1//EN" "http://www.w3.org/Graphics/SVG/1.1/DTD/svg11.dtd"><svg width="1000px" height="1000px" version="1.1" xmlns="http://www.w3.org/2000/svg" xmlns:xlink="http://www.w3.org/1999/xlink" xml:space="preserve" xmlns:serif="http://www.serif.com/" style="fill-rule:evenodd;clip-rule:evenodd;stroke-linecap:round;stroke-linejoin:round;stroke-miterlimit:1.5;"><g><g><path d="M645.08,85.014c125.096,-33.52 252.608,36.11 284.57,155.392c31.961,119.283 -43.652,243.339 -168.749,276.859c-125.096,33.519 -252.607,-36.11 -284.569,-155.392c-31.962,-119.283 43.652,-243.34 168.748,-276.859Z" style="fill:#f7d299;"/><path d="M631.716,484.986c-25.206,-32.549 -44.85,-27.999 -81.063,-38.482c-30.016,-8.69 -38.019,-33.611 -35.524,-62.302c3.176,-36.499 15.488,-54.019 -8.007,-99.644c-23.963,-46.535 -0.907,-72.777 40.475,-91.388c23.771,-10.691 10.416,-26.398 30.664,-41.991c21.216,-16.339 35.057,-2.527 66.446,-26.827c19.563,-15.144 18.36,-18.531 54.531,-31.216c37.403,-9.686 76.104,11.904 87.13,24.283c14.7,16.503 5.834,34.702 26.591,43.495c10.741,4.55 37.176,-0.878 52.729,14.252c5.707,5.552 18.054,29.044 13.793,43.405c-5.241,17.663 4.625,39.739 9.857,44.317c18.628,16.3 48.898,42.666 27.828,67.433c-16.121,18.95 -47.237,39.362 -51.171,87.005c-3.275,39.655 -38.293,53.164 -73.17,51.951c-45.203,-1.571 -46.951,-17.611 -86.383,11.498c-16.453,12.145 -52.413,33.023 -74.726,4.211Z" style="fill:#cd5752;"/><clipPath id="_clip1"><path d="M631.716,484.986c-25.206,-32.549 -44.85,-27.999 -81.063,-38.482c-30.016,-8.69 -38.019,-33.611 -35.524,-62.302c3.176,-36.499 15.488,-54.019 -8.007,-99.644c-23.963,-46.535 -0.907,-72.777 40.475,-91.388c23.771,-10.691 10.416,-26.398 30.664,-41.991c21.216,-16.339 35.057,-2.527 66.446,-26.827c19.563,-15.144 18.36,-18.531 54.531,-31.216c37.403,-9.686 76.104,11.904 87.13,24.283c14.7,16.503 5.834,34.702 26.591,43.495c10.741,4.55 37.176,-0.878 52.729,14.252c5.707,5.552 18.054,29.044 13.793,43.405c-5.241,17.663 4.625,39.739 9.857,44.317c18.628,16.3 48.898,42.666 27.828,67.433c-16.121,18.95 -47.237,39.362 -51.171,87.005c-3.275,39.655 -38.293,53.164 -73.17,51.951c-45.203,-1.571 -46.951,-17.611 -86.383,11.498c-16.453,12.145 -52.413,33.023 -74.726,4.211Z"/></clipPath><g clip-path="url(#_clip1)"><g><path d="M673.457,558.854c0,0 66.258,-157.659 162.373,-199.285c96.116,-41.626 91.792,-202.711 91.792,-202.711" style="fill:none;stroke:#fff9f9;stroke-width:25px;"/><path d="M592.87,514.849c0,-0 66.258,-157.66 162.373,-199.286c96.116,-41.625 91.792,-202.711 91.792,-202.711" style="fill:none;stroke:#fff9f9;stroke-width:33.33px;"/><path d="M512.283,470.843c0,0 66.258,-157.659 162.373,-199.285c96.116,-41.626 91.792,-202.711 91.792,-202.711" style="fill:none;stroke:#fff9f9;stroke-width:25px;"/><path d="M431.696,426.838c0,0 66.258,-157.66 162.373,-199.285c96.116,-41.626 91.792,-202.712 91.792,-202.712" style="fill:none;stroke:#fff9f9;stroke-width:33.33px;"/></g></g></g><g><path d="M645.08,85.014c125.096,-33.52 252.608,36.11 284.57,155.392c31.961,119.283 -43.652,243.339 -168.749,276.859c-125.096,33.519 -252.607,-36.11 -284.569,-155.392c-31.962,-119.283 43.652,-243.34 168.748,-276.859Z" style="fill:#f7d299;"/><path d="M631.716,484.986c-25.206,-32.549 -44.85,-27.999 -81.063,-38.482c-30.016,-8.69 -38.019,-33.611 -35.524,-62.302c3.176,-36.499 15.488,-54.019 -8.007,-99.644c-23.963,-46.535 -0.907,-72.777 40.475,-91.388c23.771,-10.691 10.416,-26.398 30.664,-41.991c21.216,-16.339 35.057,-2.527 66.446,-26.827c19.563,-15.144 18.36,-18.531 54.531,-31.216c37.403,-9.686 76.104,11.904 87.13,24.283c14.7,16.503 5.834,34.702 26.591,43.495c10.741,4.55 37.176,-0.878 52.729,14.252c5.707,5.552 18.054,29.044 13.793,43.405c-5.241,17.663 4.625,39.739 9.857,44.317c18.628,16.3 48.898,42.666 27.828,67.433c-16.121,18.95 -47.237,39.362 -51.171,87.005c-3.275,39.655 -38.293,53.164 -73.17,51.951c-45.203,-1.571 -46.951,-17.611 -86.383,11.498c-16.453,12.145 -52.413,33.023 -74.726,4.211Z" style="fill:#cd5752;"/><clipPath id="_clip2"><path d="M631.716,484.986c-25.206,-32.549 -44.85,-27.999 -81.063,-38.482c-30.016,-8.69 -38.019,-33.611 -35.524,-62.302c3.176,-36.499 15.488,-54.019 -8.007,-99.644c-23.963,-46.535 -0.907,-72.777 40.475,-91.388c23.771,-10.691 10.416,-26.398 30.664,-41.991c21.216,-16.339 35.057,-2.527 66.446,-26.827c19.563,-15.144 18.36,-18.531 54.531,-31.216c37.403,-9.686 76.104,11.904 87.13,24.283c14.7,16.503 5.834,34.702 26.591,43.495c10.741,4.55 37.176,-0.878 52.729,14.252c5.707,5.552 18.054,29.044 13.793,43.405c-5.241,17.663 4.625,39.739 9.857,44.317c18.628,16.3 48.898,42.666 27.828,67.433c-16.121,18.95 -47.237,39.362 -51.171,87.005c-3.275,39.655 -38.293,53.164 -73.17,51.951c-45.203,-1.571 -46.951,-17.611 -86.383,11.498c-16.453,12.145 -52.413,33.023 -74.726,4.211Z"/></clipPath><g clip-path="url(#_clip2)"><g><path d="M673.457,558.854c0,0 66.258,-157.659 162.373,-199.285c96.116,-41.626 91.792,-202.711 91.792,-202.711" style="fill:none;stroke:#fff9f9;stroke-width:25px;"/><path d="M592.87,514.849c0,-0 66.258,-157.66 162.373,-199.286c96.116,-41.625 91.792,-202.711 91.792,-202.711" style="fill:none;stroke:#fff9f9;stroke-width:33.33px;"/><path d="M512.283,470.843c0,0 66.258,-157.659 162.373,-199.285c96.116,-41.626 91.792,-202.711 91.792,-202.711" style="fill:none;stroke:#fff9f9;stroke-width:25px;"/><path d="M431.696,426.838c0,0 66.258,-157.66 162.373,-199.285c96.116,-41.626 91.792,-202.712 91.792,-202.712" style="fill:none;stroke:#fff9f9;stroke-width:33.33px;"/></g></g></g><g><path d="M856.402,346.816c43.795,163.445 -53.346,331.699 -216.792,375.494c-163.445,43.795 -331.698,-53.346 -375.493,-216.792c-43.796,-163.445 53.345,-331.698 216.791,-375.493c163.445,-43.796 331.699,53.345 375.494,216.791Z" style="fill:#f7d299;"/><path d="M310.266,335.666c44.861,-33.559 38.959,-59.236 53.855,-106.872c12.347,-39.485 46.517,-50.372 85.668,-47.557c49.806,3.581 73.541,19.441 136.238,-12.083c63.946,-32.153 99.426,-2.348 124.189,51.601c14.224,30.989 35.893,13.233 56.87,39.527c21.981,27.55 2.894,45.912 35.587,86.672c20.376,25.402 25.02,23.771 41.772,70.983c12.635,48.874 -17.472,99.948 -34.556,114.598c-22.777,19.531 -47.495,8.2 -59.837,35.549c-6.386,14.152 0.607,48.717 -20.307,69.345c-7.675,7.57 -39.961,24.128 -59.51,18.771c-24.044,-6.589 -54.356,6.695 -60.693,13.626c-22.561,24.678 -59.058,64.776 -92.553,37.552c-25.629,-20.831 -53.016,-61.293 -118.032,-65.692c-54.116,-3.661 -72.011,-49.348 -69.799,-95.085c2.866,-59.279 24.803,-61.826 -14.33,-113.051c-16.328,-21.372 -44.274,-68.177 -4.562,-97.884Z" style="fill:#cd5752;"/><clipPath id="_clip3"><path d="M310.266,335.666c44.861,-33.559 38.959,-59.236 53.855,-106.872c12.347,-39.485 46.517,-50.372 85.668,-47.557c49.806,3.581 73.541,19.441 136.238,-12.083c63.946,-32.153 99.426,-2.348 124.189,51.601c14.224,30.989 35.893,13.233 56.87,39.527c21.981,27.55 2.894,45.912 35.587,86.672c20.376,25.402 25.02,23.771 41.772,70.983c12.635,48.874 -17.472,99.948 -34.556,114.598c-22.777,19.531 -47.495,8.2 -59.837,35.549c-6.386,14.152 0.607,48.717 -20.307,69.345c-7.675,7.57 -39.961,24.128 -59.51,18.771c-24.044,-6.589 -54.356,6.695 -60.693,13.626c-22.561,24.678 -59.058,64.776 -92.553,37.552c-25.629,-20.831 -53.016,-61.293 -118.032,-65.692c-54.116,-3.661 -72.011,-49.348 -69.799,-95.085c2.866,-59.279 24.803,-61.826 -14.33,-113.051c-16.328,-21.372 -44.274,-68.177 -4.562,-97.884Z"/></clipPath><g clip-path="url(#_clip3)"><g><path d="M208.699,391.556c-0,0 214.303,84.342 269.633,209.67c55.329,125.328 275.436,117.096 275.436,117.096" style="fill:none;stroke:#fff9f9;stroke-width:25px;"/><path d="M270.092,285.221c-0,-0 214.303,84.342 269.633,209.669c55.329,125.328 275.435,117.096 275.435,117.096" style="fill:none;stroke:#fff9f9;stroke-width:33.33px;"/><path d="M331.485,178.885c-0,0 214.303,84.342 269.633,209.67c55.329,125.328 275.435,117.096 275.435,117.096" style="fill:none;stroke:#fff9f9;stroke-width:25px;"/><path d="M392.878,72.549c-0,0 214.303,84.342 269.632,209.67c55.33,125.328 275.436,117.096 275.436,117.096" style="fill:none;stroke:#fff9f9;stroke-width:33.33px;"/></g></g></g><g><path d="M856.402,346.816c43.795,163.445 -53.346,331.699 -216.792,375.494c-163.445,43.795 -331.698,-53.346 -375.493,-216.792c-43.796,-163.445 53.345,-331.698 216.791,-375.493c163.445,-43.796 331.699,53.345 375.494,216.791Z" style="fill:#f7d299;"/><path d="M310.266,335.666c44.861,-33.559 38.959,-59.236 53.855,-106.872c12.347,-39.485 46.517,-50.372 85.668,-47.557c49.806,3.581 73.541,19.441 136.238,-12.083c63.946,-32.153 99.426,-2.348 124.189,51.601c14.224,30.989 35.893,13.233 56.87,39.527c21.981,27.55 2.894,45.912 35.587,86.672c20.376,25.402 25.02,23.771 41.772,70.983c12.635,48.874 -17.472,99.948 -34.556,114.598c-22.777,19.531 -47.495,8.2 -59.837,35.549c-6.386,14.152 0.607,48.717 -20.307,69.345c-7.675,7.57 -39.961,24.128 -59.51,18.771c-24.044,-6.589 -54.356,6.695 -60.693,13.626c-22.561,24.678 -59.058,64.776 -92.553,37.552c-25.629,-20.831 -53.016,-61.293 -118.032,-65.692c-54.116,-3.661 -72.011,-49.348 -69.799,-95.085c2.866,-59.279 24.803,-61.826 -14.33,-113.051c-16.328,-21.372 -44.274,-68.177 -4.562,-97.884Z" style="fill:#cd5752;"/><clipPath id="_clip4"><path d="M310.266,335.666c44.861,-33.559 38.959,-59.236 53.855,-106.872c12.347,-39.485 46.517,-50.372 85.668,-47.557c49.806,3.581 73.541,19.441 136.238,-12.083c63.946,-32.153 99.426,-2.348 124.189,51.601c14.224,30.989 35.893,13.233 56.87,39.527c21.981,27.55 2.894,45.912 35.587,86.672c20.376,25.402 25.02,23.771 41.772,70.983c12.635,48.874 -17.472,99.948 -34.556,114.598c-22.777,19.531 -47.495,8.2 -59.837,35.549c-6.386,14.152 0.607,48.717 -20.307,69.345c-7.675,7.57 -39.961,24.128 -59.51,18.771c-24.044,-6.589 -54.356,6.695 -60.693,13.626c-22.561,24.678 -59.058,64.776 -92.553,37.552c-25.629,-20.831 -53.016,-61.293 -118.032,-65.692c-54.116,-3.661 -72.011,-49.348 -69.799,-95.085c2.866,-59.279 24.803,-61.826 -14.33,-113.051c-16.328,-21.372 -44.274,-68.177 -4.562,-97.884Z"/></clipPath><g clip-path="url(#_clip4)"><g><path d="M208.699,391.556c-0,0 214.303,84.342 269.633,209.67c55.329,125.328 275.436,117.096 275.436,117.096" style="fill:none;stroke:#fff9f9;stroke-width:25px;"/><path d="M270.092,285.221c-0,-0 214.303,84.342 269.633,209.669c55.329,125.328 275.435,117.096 275.435,117.096" style="fill:none;stroke:#fff9f9;stroke-width:33.33px;"/><path d="M331.485,178.885c-0,0 214.303,84.342 269.633,209.67c55.329,125.328 275.435,117.096 275.435,117.096" style="fill:none;stroke:#fff9f9;stroke-width:25px;"/><path d="M392.878,72.549c-0,0 214.303,84.342 269.632,209.67c55.33,125.328 275.436,117.096 275.436,117.096" style="fill:none;stroke:#fff9f9;stroke-width:33.33px;"/></g></g></g><g><circle cx="423.557" cy="562.87" r="360.531" style="fill:#f7d299;"/><path d="M244.672,819.286c-24.466,-61.171 -55.428,-62.282 -105.002,-93.7c-41.092,-26.043 -43.059,-68.169 -27.945,-111.783c19.226,-55.483 44.465,-77.616 27.74,-158.426c-17.059,-82.421 27.594,-113.65 96.41,-125.358c39.529,-6.725 25.956,-36.742 62.206,-52.567c37.984,-16.582 53.032,10.687 109.279,-14.043c35.055,-15.413 34.617,-21.184 93.342,-25.843c59.36,0.523 108.21,50.265 119.651,74.13c15.253,31.816 -5.141,56.444 22.168,78.786c14.131,11.561 55.52,14.138 72.586,44.172c6.263,11.021 15.244,52.734 3.209,73.309c-14.801,25.305 -8.939,63.779 -2.994,73.086c21.164,33.138 55.602,86.798 14.485,116.558c-31.462,22.772 -85.757,41.564 -110.542,114.076c-20.629,60.354 -77.97,66.775 -129.248,50.343c-66.46,-21.298 -62.677,-46.991 -132.772,-18.13c-29.247,12.041 -90.916,29.539 -112.573,-24.61Z" style="fill:#cd5752;"/><clipPath id="_clip5"><path d="M244.672,819.286c-24.466,-61.171 -55.428,-62.282 -105.002,-93.7c-41.092,-26.043 -43.059,-68.169 -27.945,-111.783c19.226,-55.483 44.465,-77.616 27.74,-158.426c-17.059,-82.421 27.594,-113.65 96.41,-125.358c39.529,-6.725 25.956,-36.742 62.206,-52.567c37.984,-16.582 53.032,10.687 109.279,-14.043c35.055,-15.413 34.617,-21.184 93.342,-25.843c59.36,0.523 108.21,50.265 119.651,74.13c15.253,31.816 -5.141,56.444 22.168,78.786c14.131,11.561 55.52,14.138 72.586,44.172c6.263,11.021 15.244,52.734 3.209,73.309c-14.801,25.305 -8.939,63.779 -2.994,73.086c21.164,33.138 55.602,86.798 14.485,116.558c-31.462,22.772 -85.757,41.564 -110.542,114.076c-20.629,60.354 -77.97,66.775 -129.248,50.343c-66.46,-21.298 -62.677,-46.991 -132.772,-18.13c-29.247,12.041 -90.916,29.539 -112.573,-24.61Z"/></clipPath><g clip-path="url(#_clip5)"><g><path d="M277.244,951.663c-0,0 161.026,-217.751 320.222,-242.454c159.197,-24.703 216.837,-277.221 216.837,-277.221" style="fill:none;stroke:#fff9f9;stroke-width:25px;"/><path d="M175.145,849.565c0,-0 161.026,-217.752 320.223,-242.454c159.196,-24.703 216.836,-277.222 216.836,-277.222" style="fill:none;stroke:#fff9f9;stroke-width:33.33px;"/><path d="M73.047,747.466c-0,0 161.026,-217.751 320.222,-242.454c159.197,-24.703 216.837,-277.221 216.837,-277.221" style="fill:none;stroke:#fff9f9;stroke-width:25px;"/><path d="M-29.052,645.368c0,-0 161.027,-217.751 320.223,-242.454c159.196,-24.703 216.836,-277.222 216.836,-277.222" style="fill:none;stroke:#fff9f9;stroke-width:33.33px;"/></g></g></g><g><circle cx="423.557" cy="562.87" r="360.531" style="fill:#f7d299;"/><path d="M244.672,819.286c-24.466,-61.171 -55.428,-62.282 -105.002,-93.7c-41.092,-26.043 -43.059,-68.169 -27.945,-111.783c19.226,-55.483 44.465,-77.616 27.74,-158.426c-17.059,-82.421 27.594,-113.65 96.41,-125.358c39.529,-6.725 25.956,-36.742 62.206,-52.567c37.984,-16.582 53.032,10.687 109.279,-14.043c35.055,-15.413 34.617,-21.184 93.342,-25.843c59.36,0.523 108.21,50.265 119.651,74.13c15.253,31.816 -5.141,56.444 22.168,78.786c14.131,11.561 55.52,14.138 72.586,44.172c6.263,11.021 15.244,52.734 3.209,73.309c-14.801,25.305 -8.939,63.779 -2.994,73.086c21.164,33.138 55.602,86.798 14.485,116.558c-31.462,22.772 -85.757,41.564 -110.542,114.076c-20.629,60.354 -77.97,66.775 -129.248,50.343c-66.46,-21.298 -62.677,-46.991 -132.772,-18.13c-29.247,12.041 -90.916,29.539 -112.573,-24.61Z" style="fill:#cd5752;"/><clipPath id="_clip6"><path d="M244.672,819.286c-24.466,-61.171 -55.428,-62.282 -105.002,-93.7c-41.092,-26.043 -43.059,-68.169 -27.945,-111.783c19.226,-55.483 44.465,-77.616 27.74,-158.426c-17.059,-82.421 27.594,-113.65 96.41,-125.358c39.529,-6.725 25.956,-36.742 62.206,-52.567c37.984,-16.582 53.032,10.687 109.279,-14.043c35.055,-15.413 34.617,-21.184 93.342,-25.843c59.36,0.523 108.21,50.265 119.651,74.13c15.253,31.816 -5.141,56.444 22.168,78.786c14.131,11.561 55.52,14.138 72.586,44.172c6.263,11.021 15.244,52.734 3.209,73.309c-14.801,25.305 -8.939,63.779 -2.994,73.086c21.164,33.138 55.602,86.798 14.485,116.558c-31.462,22.772 -85.757,41.564 -110.542,114.076c-20.629,60.354 -77.97,66.775 -129.248,50.343c-66.46,-21.298 -62.677,-46.991 -132.772,-18.13c-29.247,12.041 -90.916,29.539 -112.573,-24.61Z"/></clipPath><g clip-path="url(#_clip6)"><g><path d="M277.244,951.663c-0,0 161.026,-217.751 320.222,-242.454c159.197,-24.703 216.837,-277.221 216.837,-277.221" style="fill:none;stroke:#fff9f9;stroke-width:25px;"/><path d="M175.145,849.565c0,-0 161.026,-217.752 320.223,-242.454c159.196,-24.703 216.836,-277.222 216.836,-277.222" style="fill:none;stroke:#fff9f9;stroke-width:33.33px;"/><path d="M73.047,747.466c-0,0 161.026,-217.751 320.222,-242.454c159.197,-24.703 216.837,-277.221 216.837,-277.221" style="fill:none;stroke:#fff9f9;stroke-width:25px;"/><path d="M-29.052,645.368c0,-0 161.027,-217.751 320.223,-242.454c159.196,-24.703 216.836,-277.222 216.836,-277.222" style="fill:none;stroke:#fff9f9;stroke-width:33.33px;"/></g></g></g></g></svg>