<?xml version="1.0" encoding="UTF-8" standalone="no"?><!DOCTYPE svg PUBLIC "-//W3C//DTD SVG 1.1//EN" "http://www.w3.org/Graphics/SVG/1.1/DTD/svg11.dtd"><svg width="1000px" height="1000px" version="1.1" xmlns="http://www.w3.org/2000/svg" xmlns:xlink="http://www.w3.org/1999/xlink" xml:space="preserve" xmlns:serif="http://www.serif.com/" style="fill-rule:evenodd;clip-rule:evenodd;stroke-linecap:round;stroke-linejoin:round;stroke-miterlimit:1.5;"><g><path d="M100.395,309.502c11.745,0 22.491,4.311 30.739,11.435c8.248,-7.124 18.994,-11.435 30.739,-11.435c11.744,0 22.49,4.311 30.739,11.435c8.248,-7.124 18.994,-11.435 30.738,-11.435c11.745,0 22.491,4.311 30.739,11.435c8.249,-7.124 18.994,-11.435 30.739,-11.435c11.745,0 22.491,4.311 30.739,11.435c8.248,-7.124 18.994,-11.435 30.739,-11.435c11.744,0 22.49,4.311 30.739,11.435c8.248,-7.124 18.994,-11.435 30.738,-11.435c11.745,0 22.491,4.311 30.739,11.435c8.249,-7.124 18.995,-11.435 30.739,-11.435c11.745,0 22.491,4.311 30.739,11.435c8.248,-7.124 18.994,-11.435 30.739,-11.435c11.744,0 22.49,4.311 30.739,11.435c8.248,-7.124 18.994,-11.435 30.739,-11.435c11.744,0 22.49,4.311 30.738,11.435c8.249,-7.124 18.995,-11.435 30.739,-11.435c11.745,0 22.491,4.311 30.739,11.435c8.248,-7.124 18.994,-11.435 30.739,-11.435c11.745,0 22.49,4.311 30.739,11.435c8.248,-7.124 18.994,-11.435 30.739,-11.435c11.744,0 22.49,4.311 30.738,11.435c8.249,-7.124 18.995,-11.435 30.739,-11.435c11.631,0 22.281,4.227 30.5,11.23c8.22,-7.003 18.87,-11.23 30.501,-11.23l0.477,0c25.978,0 47.069,21.091 47.069,47.069l-0,0.132c-0,11.745 -4.311,22.491 -11.435,30.739c7.124,8.249 11.435,18.994 11.435,30.739c-0,11.745 -4.311,22.49 -11.435,30.739c7.124,8.248 11.435,18.994 11.435,30.739c-0,11.744 -4.311,22.49 -11.435,30.738c7.124,8.249 11.435,18.995 11.435,30.739c-0,11.745 -4.311,22.491 -11.435,30.739c7.124,8.249 11.435,18.994 11.435,30.739c-0,11.745 -4.311,22.49 -11.435,30.739c7.124,8.248 11.435,18.994 11.435,30.739c-0,11.744 -4.311,22.49 -11.435,30.738c7.124,8.249 11.435,18.995 11.435,30.739c-0,11.745 -4.311,22.491 -11.435,30.739c7.124,8.249 11.435,18.994 11.435,30.739c-0,11.745 -4.311,22.49 -11.435,30.739c7.124,8.248 11.435,18.994 11.435,30.739l-0,0.132c-0,25.978 -21.091,47.069 -47.069,47.069c-4.442,-0 -8.742,-0.617 -12.819,-1.77c-6.783,-1.841 -12.958,-5.162 -18.159,-9.592c-8.219,7.002 -18.869,11.229 -30.5,11.229c-11.744,0 -22.49,-4.31 -30.739,-11.434c-8.248,7.124 -18.994,11.434 -30.738,11.434c-11.745,0 -22.491,-4.31 -30.739,-11.434c-8.249,7.124 -18.994,11.434 -30.739,11.434c-11.745,0 -22.491,-4.31 -30.739,-11.434c-8.248,7.124 -18.994,11.434 -30.739,11.434c-11.744,0 -22.49,-4.31 -30.739,-11.434c-8.248,7.124 -18.994,11.434 -30.738,11.434c-11.745,0 -22.491,-4.31 -30.739,-11.434c-8.249,7.124 -18.995,11.434 -30.739,11.434c-11.745,0 -22.491,-4.31 -30.739,-11.434c-8.248,7.124 -18.994,11.434 -30.739,11.434c-11.744,0 -22.49,-4.31 -30.739,-11.434c-8.248,7.124 -18.994,11.434 -30.739,11.434c-11.744,0 -22.49,-4.31 -30.738,-11.434c-8.249,7.124 -18.995,11.434 -30.739,11.434c-11.745,0 -22.491,-4.31 -30.739,-11.434c-8.248,7.124 -18.994,11.434 -30.739,11.434c-11.745,0 -22.49,-4.31 -30.739,-11.434c-8.248,7.124 -18.994,11.434 -30.739,11.434c-11.744,0 -22.49,-4.31 -30.738,-11.434c-8.249,7.124 -18.995,11.434 -30.739,11.434c-11.745,0 -22.491,-4.31 -30.739,-11.434c-8.248,7.124 -18.994,11.434 -30.739,11.434c-25.978,0 -47.069,-21.09 -47.069,-47.068l0,-0.133c0,-11.744 4.311,-22.49 11.435,-30.738c-7.124,-8.249 -11.435,-18.995 -11.435,-30.739c0,-11.745 4.311,-22.491 11.435,-30.739c-7.124,-8.249 -11.435,-18.994 -11.435,-30.739c0,-11.745 4.311,-22.49 11.435,-30.739c-7.124,-8.248 -11.435,-18.994 -11.435,-30.739c0,-11.744 4.311,-22.49 11.435,-30.739c-7.124,-8.248 -11.435,-18.994 -11.435,-30.738c0,-11.745 4.311,-22.491 11.435,-30.739c-7.124,-8.249 -11.435,-18.994 -11.435,-30.739c0,-11.745 4.311,-22.49 11.435,-30.739c-7.124,-8.248 -11.435,-18.994 -11.435,-30.739c0,-11.744 4.311,-22.49 11.435,-30.739c-7.124,-8.248 -11.435,-18.994 -11.435,-30.738c0,-11.745 4.311,-22.491 11.435,-30.739c-7.124,-8.249 -11.435,-18.994 -11.435,-30.739c0,-25.978 21.091,-47.069 47.069,-47.069Z" style="fill:#f7d299;"/><clipPath id="_clip1"><path d="M100.395,309.502c11.745,0 22.491,4.311 30.739,11.435c8.248,-7.124 18.994,-11.435 30.739,-11.435c11.744,0 22.49,4.311 30.739,11.435c8.248,-7.124 18.994,-11.435 30.738,-11.435c11.745,0 22.491,4.311 30.739,11.435c8.249,-7.124 18.994,-11.435 30.739,-11.435c11.745,0 22.491,4.311 30.739,11.435c8.248,-7.124 18.994,-11.435 30.739,-11.435c11.744,0 22.49,4.311 30.739,11.435c8.248,-7.124 18.994,-11.435 30.738,-11.435c11.745,0 22.491,4.311 30.739,11.435c8.249,-7.124 18.995,-11.435 30.739,-11.435c11.745,0 22.491,4.311 30.739,11.435c8.248,-7.124 18.994,-11.435 30.739,-11.435c11.744,0 22.49,4.311 30.739,11.435c8.248,-7.124 18.994,-11.435 30.739,-11.435c11.744,0 22.49,4.311 30.738,11.435c8.249,-7.124 18.995,-11.435 30.739,-11.435c11.745,0 22.491,4.311 30.739,11.435c8.248,-7.124 18.994,-11.435 30.739,-11.435c11.745,0 22.49,4.311 30.739,11.435c8.248,-7.124 18.994,-11.435 30.739,-11.435c11.744,0 22.49,4.311 30.738,11.435c8.249,-7.124 18.995,-11.435 30.739,-11.435c11.631,0 22.281,4.227 30.5,11.23c8.22,-7.003 18.87,-11.23 30.501,-11.23l0.477,0c25.978,0 47.069,21.091 47.069,47.069l-0,0.132c-0,11.745 -4.311,22.491 -11.435,30.739c7.124,8.249 11.435,18.994 11.435,30.739c-0,11.745 -4.311,22.49 -11.435,30.739c7.124,8.248 11.435,18.994 11.435,30.739c-0,11.744 -4.311,22.49 -11.435,30.738c7.124,8.249 11.435,18.995 11.435,30.739c-0,11.745 -4.311,22.491 -11.435,30.739c7.124,8.249 11.435,18.994 11.435,30.739c-0,11.745 -4.311,22.49 -11.435,30.739c7.124,8.248 11.435,18.994 11.435,30.739c-0,11.744 -4.311,22.49 -11.435,30.738c7.124,8.249 11.435,18.995 11.435,30.739c-0,11.745 -4.311,22.491 -11.435,30.739c7.124,8.249 11.435,18.994 11.435,30.739c-0,11.745 -4.311,22.49 -11.435,30.739c7.124,8.248 11.435,18.994 11.435,30.739l-0,0.132c-0,25.978 -21.091,47.069 -47.069,47.069c-4.442,-0 -8.742,-0.617 -12.819,-1.77c-6.783,-1.841 -12.958,-5.162 -18.159,-9.592c-8.219,7.002 -18.869,11.229 -30.5,11.229c-11.744,0 -22.49,-4.31 -30.739,-11.434c-8.248,7.124 -18.994,11.434 -30.738,11.434c-11.745,0 -22.491,-4.31 -30.739,-11.434c-8.249,7.124 -18.994,11.434 -30.739,11.434c-11.745,0 -22.491,-4.31 -30.739,-11.434c-8.248,7.124 -18.994,11.434 -30.739,11.434c-11.744,0 -22.49,-4.31 -30.739,-11.434c-8.248,7.124 -18.994,11.434 -30.738,11.434c-11.745,0 -22.491,-4.31 -30.739,-11.434c-8.249,7.124 -18.995,11.434 -30.739,11.434c-11.745,0 -22.491,-4.31 -30.739,-11.434c-8.248,7.124 -18.994,11.434 -30.739,11.434c-11.744,0 -22.49,-4.31 -30.739,-11.434c-8.248,7.124 -18.994,11.434 -30.739,11.434c-11.744,0 -22.49,-4.31 -30.738,-11.434c-8.249,7.124 -18.995,11.434 -30.739,11.434c-11.745,0 -22.491,-4.31 -30.739,-11.434c-8.248,7.124 -18.994,11.434 -30.739,11.434c-11.745,0 -22.49,-4.31 -30.739,-11.434c-8.248,7.124 -18.994,11.434 -30.739,11.434c-11.744,0 -22.49,-4.31 -30.738,-11.434c-8.249,7.124 -18.995,11.434 -30.739,11.434c-11.745,0 -22.491,-4.31 -30.739,-11.434c-8.248,7.124 -18.994,11.434 -30.739,11.434c-25.978,0 -47.069,-21.09 -47.069,-47.068l0,-0.133c0,-11.744 4.311,-22.49 11.435,-30.738c-7.124,-8.249 -11.435,-18.995 -11.435,-30.739c0,-11.745 4.311,-22.491 11.435,-30.739c-7.124,-8.249 -11.435,-18.994 -11.435,-30.739c0,-11.745 4.311,-22.49 11.435,-30.739c-7.124,-8.248 -11.435,-18.994 -11.435,-30.739c0,-11.744 4.311,-22.49 11.435,-30.739c-7.124,-8.248 -11.435,-18.994 -11.435,-30.738c0,-11.745 4.311,-22.491 11.435,-30.739c-7.124,-8.249 -11.435,-18.994 -11.435,-30.739c0,-11.745 4.311,-22.49 11.435,-30.739c-7.124,-8.248 -11.435,-18.994 -11.435,-30.739c0,-11.744 4.311,-22.49 11.435,-30.739c-7.124,-8.248 -11.435,-18.994 -11.435,-30.738c0,-11.745 4.311,-22.491 11.435,-30.739c-7.124,-8.249 -11.435,-18.994 -11.435,-30.739c0,-25.978 21.091,-47.069 47.069,-47.069Z"/></clipPath><g clip-path="url(#_clip1)"><g><path d="M472.333,851.621c18.112,3.28 36.669,3.228 54.761,-0.154c51.599,-9.508 119.54,-38.804 49.016,-80.496c-2.689,-1.59 -4.425,-4.373 -3.836,-7.441c0.589,-3.068 3.198,-5.336 6.318,-5.491c76.707,-4.775 272.194,-29.382 391.136,-155.425l118.774,213.242l-210.369,205.565l-304.505,-54.753l-73.628,-30.739l-0,-0.348l-59.556,31.087l-304.506,54.753l-210.368,-205.565l118.774,-213.242c117.946,124.988 299.171,150.23 372.01,155.303c3.107,0.177 5.694,2.448 6.272,5.506c0.577,3.058 -1.326,5.568 -3.832,7.413c-62.779,46.241 0.606,71.165 53.539,80.785Z" style="fill:#41241c;"/></g></g><path d="M100.395,309.502c11.745,0 22.491,4.311 30.739,11.435c8.248,-7.124 18.994,-11.435 30.739,-11.435c11.744,0 22.49,4.311 30.739,11.435c8.248,-7.124 18.994,-11.435 30.738,-11.435c11.745,0 22.491,4.311 30.739,11.435c8.249,-7.124 18.994,-11.435 30.739,-11.435c11.745,0 22.491,4.311 30.739,11.435c8.248,-7.124 18.994,-11.435 30.739,-11.435c11.744,0 22.49,4.311 30.739,11.435c8.248,-7.124 18.994,-11.435 30.738,-11.435c11.745,0 22.491,4.311 30.739,11.435c8.249,-7.124 18.995,-11.435 30.739,-11.435c11.745,0 22.491,4.311 30.739,11.435c8.248,-7.124 18.994,-11.435 30.739,-11.435c11.744,0 22.49,4.311 30.739,11.435c8.248,-7.124 18.994,-11.435 30.739,-11.435c11.744,0 22.49,4.311 30.738,11.435c8.249,-7.124 18.995,-11.435 30.739,-11.435c11.745,0 22.491,4.311 30.739,11.435c8.248,-7.124 18.994,-11.435 30.739,-11.435c11.745,0 22.49,4.311 30.739,11.435c8.248,-7.124 18.994,-11.435 30.739,-11.435c11.744,0 22.49,4.311 30.738,11.435c8.249,-7.124 18.995,-11.435 30.739,-11.435c11.631,0 22.281,4.227 30.5,11.23c8.22,-7.003 18.87,-11.23 30.501,-11.23l0.477,0c25.978,0 47.069,21.091 47.069,47.069l-0,0.132c-0,11.745 -4.311,22.491 -11.435,30.739c7.124,8.249 11.435,18.994 11.435,30.739c-0,11.745 -4.311,22.49 -11.435,30.739c7.124,8.248 11.435,18.994 11.435,30.739c-0,11.744 -4.311,22.49 -11.435,30.738c7.124,8.249 11.435,18.995 11.435,30.739c-0,11.745 -4.311,22.491 -11.435,30.739c7.124,8.249 11.435,18.994 11.435,30.739c-0,11.745 -4.311,22.49 -11.435,30.739c7.124,8.248 11.435,18.994 11.435,30.739c-0,11.744 -4.311,22.49 -11.435,30.738c7.124,8.249 11.435,18.995 11.435,30.739c-0,11.745 -4.311,22.491 -11.435,30.739c7.124,8.249 11.435,18.994 11.435,30.739c-0,11.745 -4.311,22.49 -11.435,30.739c7.124,8.248 11.435,18.994 11.435,30.739l-0,0.132c-0,25.978 -21.091,47.069 -47.069,47.069c-4.442,-0 -8.742,-0.617 -12.819,-1.77c-6.783,-1.841 -12.958,-5.162 -18.159,-9.592c-8.219,7.002 -18.869,11.229 -30.5,11.229c-11.744,0 -22.49,-4.31 -30.739,-11.434c-8.248,7.124 -18.994,11.434 -30.738,11.434c-11.745,0 -22.491,-4.31 -30.739,-11.434c-8.249,7.124 -18.994,11.434 -30.739,11.434c-11.745,0 -22.491,-4.31 -30.739,-11.434c-8.248,7.124 -18.994,11.434 -30.739,11.434c-11.744,0 -22.49,-4.31 -30.739,-11.434c-8.248,7.124 -18.994,11.434 -30.738,11.434c-11.745,0 -22.491,-4.31 -30.739,-11.434c-8.249,7.124 -18.995,11.434 -30.739,11.434c-11.745,0 -22.491,-4.31 -30.739,-11.434c-8.248,7.124 -18.994,11.434 -30.739,11.434c-11.744,0 -22.49,-4.31 -30.739,-11.434c-8.248,7.124 -18.994,11.434 -30.739,11.434c-11.744,0 -22.49,-4.31 -30.738,-11.434c-8.249,7.124 -18.995,11.434 -30.739,11.434c-11.745,0 -22.491,-4.31 -30.739,-11.434c-8.248,7.124 -18.994,11.434 -30.739,11.434c-11.745,0 -22.49,-4.31 -30.739,-11.434c-8.248,7.124 -18.994,11.434 -30.739,11.434c-11.744,0 -22.49,-4.31 -30.738,-11.434c-8.249,7.124 -18.995,11.434 -30.739,11.434c-11.745,0 -22.491,-4.31 -30.739,-11.434c-8.248,7.124 -18.994,11.434 -30.739,11.434c-25.978,0 -47.069,-21.09 -47.069,-47.068l0,-0.133c0,-11.744 4.311,-22.49 11.435,-30.738c-7.124,-8.249 -11.435,-18.995 -11.435,-30.739c0,-11.745 4.311,-22.491 11.435,-30.739c-7.124,-8.249 -11.435,-18.994 -11.435,-30.739c0,-11.745 4.311,-22.49 11.435,-30.739c-7.124,-8.248 -11.435,-18.994 -11.435,-30.739c0,-11.744 4.311,-22.49 11.435,-30.739c-7.124,-8.248 -11.435,-18.994 -11.435,-30.738c0,-11.745 4.311,-22.491 11.435,-30.739c-7.124,-8.249 -11.435,-18.994 -11.435,-30.739c0,-11.745 4.311,-22.49 11.435,-30.739c-7.124,-8.248 -11.435,-18.994 -11.435,-30.739c0,-11.744 4.311,-22.49 11.435,-30.739c-7.124,-8.248 -11.435,-18.994 -11.435,-30.738c0,-11.745 4.311,-22.491 11.435,-30.739c-7.124,-8.249 -11.435,-18.994 -11.435,-30.739c0,-25.978 21.091,-47.069 47.069,-47.069Z" style="fill:none;stroke:#41241c;stroke-width:28.26px;"/><path d="M285.577,541.467l60.198,91.088l-0,-91.931c-0,-5.974 1.282,-10.455 3.848,-13.442c2.565,-2.987 6.027,-4.48 10.384,-4.48c4.498,-0 8.048,1.493 10.648,4.48c2.601,2.987 3.901,7.468 3.901,13.442l-0,121.555c-0,13.565 -5.623,20.347 -16.868,20.347c-2.812,0 -5.342,-0.404 -7.591,-1.212c-2.249,-0.808 -4.357,-2.091 -6.325,-3.848c-1.968,-1.757 -3.796,-3.813 -5.483,-6.167c-1.686,-2.355 -3.373,-4.762 -5.06,-7.222l-58.722,-90.033l0,90.56c0,5.904 -1.37,10.367 -4.111,13.389c-2.742,3.022 -6.256,4.533 -10.543,4.533c-4.428,0 -7.977,-1.528 -10.648,-4.586c-2.671,-3.057 -4.006,-7.502 -4.006,-13.336l-0,-119.236c-0,-5.06 0.562,-9.031 1.687,-11.913c1.335,-3.163 3.549,-5.746 6.641,-7.749c3.093,-2.003 6.431,-3.004 10.016,-3.004c2.811,-0 5.218,0.456 7.222,1.37c2.003,0.914 3.76,2.144 5.271,3.69c1.511,1.546 3.057,3.549 4.639,6.009c1.581,2.46 3.215,5.025 4.902,7.696Z" style="fill:#41241c;fill-rule:nonzero;"/><path d="M410.084,663.444l0,-121.766c0,-6.325 1.441,-11.07 4.323,-14.232c2.881,-3.163 6.606,-4.744 11.175,-4.744c4.709,-0 8.522,1.563 11.438,4.691c2.917,3.128 4.376,7.889 4.376,14.285l-0,121.766c-0,6.396 -1.459,11.176 -4.376,14.338c-2.916,3.163 -6.729,4.744 -11.438,4.744c-4.498,0 -8.206,-1.599 -11.123,-4.796c-2.916,-3.198 -4.375,-7.96 -4.375,-14.286Z" style="fill:#41241c;fill-rule:nonzero;"/><path d="M608.073,631.079c0,4.92 -1.212,10.244 -3.637,15.972c-2.425,5.728 -6.238,11.351 -11.439,16.868c-5.201,5.517 -11.843,9.998 -19.925,13.442c-8.083,3.443 -17.501,5.165 -28.254,5.165c-8.153,0 -15.568,-0.773 -22.245,-2.319c-6.677,-1.546 -12.739,-3.953 -18.186,-7.222c-5.447,-3.268 -10.454,-7.573 -15.023,-12.914c-4.076,-4.85 -7.555,-10.279 -10.437,-16.288c-2.882,-6.01 -5.043,-12.423 -6.484,-19.241c-1.441,-6.817 -2.161,-14.056 -2.161,-21.717c0,-12.44 1.81,-23.58 5.429,-33.42c3.62,-9.84 8.804,-18.256 15.551,-25.249c6.747,-6.994 14.654,-12.318 23.72,-15.972c9.067,-3.655 18.731,-5.482 28.992,-5.482c12.511,-0 23.651,2.495 33.42,7.485c9.77,4.99 17.255,11.157 22.456,18.502c5.201,7.345 7.801,14.285 7.801,20.821c0,3.585 -1.265,6.748 -3.795,9.489c-2.53,2.741 -5.587,4.111 -9.172,4.111c-4.006,0 -7.011,-0.949 -9.014,-2.846c-2.003,-1.898 -4.234,-5.166 -6.694,-9.805c-4.077,-7.661 -8.874,-13.389 -14.391,-17.184c-5.517,-3.795 -12.317,-5.693 -20.4,-5.693c-12.862,-0 -23.105,4.885 -30.731,14.654c-7.626,9.769 -11.439,23.65 -11.439,41.643c0,12.019 1.687,22.016 5.061,29.994c3.373,7.977 8.152,13.933 14.337,17.869c6.185,3.936 13.425,5.904 21.718,5.904c8.996,0 16.605,-2.231 22.825,-6.694c6.22,-4.463 10.911,-11.017 14.074,-19.662c1.335,-4.077 2.987,-7.398 4.955,-9.963c1.968,-2.565 5.131,-3.848 9.488,-3.848c3.725,-0 6.923,1.3 9.594,3.901c2.671,2.6 4.006,5.833 4.006,9.699Z" style="fill:#41241c;fill-rule:nonzero;"/><path d="M738.063,549.48l-70.53,-0l-0,37.953l64.942,-0c4.779,-0 8.346,1.072 10.701,3.215c2.354,2.144 3.531,4.973 3.531,8.487c0,3.514 -1.159,6.378 -3.479,8.592c-2.319,2.214 -5.903,3.321 -10.753,3.321l-64.942,0l-0,43.962l72.954,0c4.92,0 8.628,1.142 11.123,3.427c2.495,2.284 3.742,5.324 3.742,9.119c0,3.655 -1.247,6.624 -3.742,8.908c-2.495,2.285 -6.203,3.427 -11.123,3.427l-85.078,-0c-6.817,-0 -11.72,-1.511 -14.707,-4.534c-2.987,-3.022 -4.48,-7.906 -4.48,-14.654l-0,-116.178c-0,-4.499 0.667,-8.171 2.003,-11.017c1.335,-2.847 3.426,-4.92 6.273,-6.22c2.846,-1.301 6.483,-1.951 10.911,-1.951l82.654,0c4.99,0 8.697,1.107 11.122,3.321c2.425,2.214 3.637,5.113 3.637,8.698c0,3.654 -1.212,6.589 -3.637,8.803c-2.425,2.214 -6.132,3.321 -11.122,3.321Z" style="fill:#41241c;fill-rule:nonzero;"/><path d="M255.294,247.023c-0,-0 -100.752,17.992 -102.743,65.513c-4.221,100.776 292.178,246.484 614.883,155.606c20.291,-5.714 193.424,-108.638 -41.818,-201.49c-36.014,-79.428 -95.329,-226.009 -110.041,-231.174c-50.096,-17.587 -98.165,22.671 -183.767,28.887c-43.631,-3.225 -78.133,-19.485 -103.576,-11.139c-45.474,14.919 -57.563,95.98 -72.938,193.797Z" style="fill:none;stroke:#41241c;stroke-width:28.26px;"/><path d="M255.294,247.023c-0,-0 -100.752,17.992 -102.743,65.513c-4.221,100.776 292.178,246.484 614.883,155.606c20.291,-5.714 193.424,-108.638 -41.818,-201.49c-36.014,-79.428 -95.329,-226.009 -110.041,-231.174c-50.096,-17.587 -98.165,22.671 -183.767,28.887c-43.631,-3.225 -78.133,-19.485 -103.576,-11.139c-45.474,14.919 -57.563,95.98 -72.938,193.797Z" style="fill:#41241c;"/><clipPath id="_clip2"><path d="M255.294,247.023c-0,-0 -100.752,17.992 -102.743,65.513c-4.221,100.776 292.178,246.484 614.883,155.606c20.291,-5.714 193.424,-108.638 -41.818,-201.49c-36.014,-79.428 -95.329,-226.009 -110.041,-231.174c-50.096,-17.587 -98.165,22.671 -183.767,28.887c-43.631,-3.225 -78.133,-19.485 -103.576,-11.139c-45.474,14.919 -57.563,95.98 -72.938,193.797Z"/></clipPath><g clip-path="url(#_clip2)"><path d="M243.932,282.324c80.741,83.362 496.83,91.631 481.299,-17.95c-0,0 17.927,72.245 18.411,80.948c-22.496,105.39 -454.3,93.084 -507.753,-0.822c0,0 2.785,-51.544 8.043,-62.176Z" style="fill:#f7d299;"/></g></g></svg>