<?xml version="1.0" encoding="UTF-8" standalone="no"?><!DOCTYPE svg PUBLIC "-//W3C//DTD SVG 1.1//EN" "http://www.w3.org/Graphics/SVG/1.1/DTD/svg11.dtd"><svg width="3475px" height="417px" version="1.1" xmlns="http://www.w3.org/2000/svg" xmlns:xlink="http://www.w3.org/1999/xlink" xml:space="preserve" xmlns:serif="http://www.serif.com/" style="fill-rule:evenodd;clip-rule:evenodd;stroke-linejoin:round;stroke-miterlimit:2;"><path d="M3472.22,416.667l-0,-416.667l-3472.22,-0.383l0,417.05c585.921,0.471 3472.22,-0 3472.22,-0Z" style="fill:#a25632;"/><g><g><path d="M3265.35,-132.083c29.479,-17.138 65.871,-17.138 95.35,-0c110.433,64.254 384.271,223.595 514.062,299.116c14.6,8.488 23.575,24.096 23.575,40.971c0,16.875 -8.975,32.483 -23.575,40.971c-129.791,75.504 -403.629,234.862 -514.062,299.1c-29.479,17.15 -65.871,17.15 -95.35,-0.004c-110.434,-64.233 -384.271,-223.592 -514.063,-299.096c-14.583,-8.487 -23.558,-24.096 -23.558,-40.971c0,-16.875 8.975,-32.483 23.558,-40.975c129.792,-75.521 403.63,-234.858 514.063,-299.112Z" style="fill:#ffc040;"/><path d="M3190.03,-132.083c29.48,-17.138 65.888,-17.138 95.35,-0c110.434,64.254 384.271,223.595 514.063,299.116c14.6,8.488 23.558,24.096 23.558,40.971c0,16.875 -8.958,32.483 -23.558,40.971c-129.792,75.504 -403.629,234.862 -514.063,299.1c-29.462,17.15 -65.87,17.15 -95.35,-0.004c-110.433,-64.233 -384.271,-223.592 -514.062,-299.096c-14.584,-8.487 -23.559,-24.096 -23.559,-40.971c0.001,-16.875 8.976,-32.483 23.559,-40.975c129.791,-75.521 403.629,-234.858 514.062,-299.112Z" style="fill:#cd5752;"/><path d="M3114.72,-132.083c29.479,-17.138 65.887,-17.138 95.35,-0c110.433,64.254 384.271,223.595 514.079,299.116c14.567,8.488 23.542,24.096 23.542,40.971c-0,16.875 -8.975,32.483 -23.542,40.971c-129.808,75.504 -403.646,234.862 -514.079,299.1c-29.463,17.15 -65.871,17.15 -95.35,-0.004c-110.433,-64.233 -384.271,-223.592 -514.063,-299.096c-14.6,-8.487 -23.558,-24.096 -23.558,-40.971c0,-16.875 8.958,-32.483 23.558,-40.975c129.792,-75.521 403.63,-234.858 514.063,-299.112Z" style="fill:#ffc040;"/><path d="M3039.41,-132.083c29.463,-17.138 65.871,-17.138 95.35,-0c110.434,64.254 384.271,223.595 514.063,299.116c14.583,8.488 23.558,24.096 23.558,40.971c0,16.875 -8.975,32.483 -23.558,40.971c-129.792,75.504 -403.629,234.862 -514.063,299.1c-29.479,17.15 -65.887,17.15 -95.35,-0.004c-110.433,-64.233 -384.271,-223.592 -514.062,-299.096c-14.583,-8.487 -23.559,-24.096 -23.559,-40.971c0.001,-16.875 8.976,-32.483 23.559,-40.975c129.791,-75.521 403.629,-234.858 514.062,-299.112Z" style="fill:#cd5752;"/><path d="M2964.1,-132.083c29.462,-17.138 65.871,-17.138 95.35,-0c110.433,64.254 384.271,223.595 514.062,299.116c14.6,8.488 23.559,24.096 23.559,40.971c-0,16.875 -8.959,32.483 -23.559,40.971c-129.791,75.504 -403.629,234.862 -514.062,299.1c-29.479,17.15 -65.888,17.15 -95.35,-0.004c-110.433,-64.233 -384.271,-223.592 -514.079,-299.096c-14.567,-8.487 -23.542,-24.096 -23.542,-40.971c0,-16.875 8.975,-32.483 23.542,-40.975c129.808,-75.521 403.646,-234.858 514.079,-299.112Z" style="fill:#ffc040;"/><path d="M2888.78,-132.083c29.48,-17.138 65.888,-17.138 95.35,-0c110.434,64.254 384.271,223.595 514.063,299.116c14.583,8.488 23.558,24.096 23.558,40.971c0,16.875 -8.975,32.483 -23.558,40.971c-129.792,75.504 -403.629,234.862 -514.063,299.1c-29.462,17.15 -65.87,17.15 -95.35,-0.004c-110.433,-64.233 -384.27,-223.592 -514.062,-299.096c-14.6,-8.487 -23.558,-24.096 -23.558,-40.971c-0,-16.875 8.958,-32.483 23.558,-40.975c129.792,-75.521 403.629,-234.858 514.062,-299.112Z" style="fill:#cd5752;"/><path d="M2813.47,-132.083c29.462,-17.138 65.871,-17.138 95.333,-0c110.45,64.254 384.288,223.595 514.079,299.116c14.584,8.488 23.559,24.096 23.559,40.971c-0,16.875 -8.975,32.483 -23.559,40.971c-129.791,75.504 -403.629,234.862 -514.079,299.1c-29.462,17.15 -65.871,17.15 -95.333,-0.004c-110.434,-64.233 -384.271,-223.592 -514.063,-299.096c-14.6,-8.487 -23.575,-24.096 -23.575,-40.971c0,-16.875 8.975,-32.483 23.575,-40.975c129.792,-75.521 403.63,-234.858 514.063,-299.112Z" style="fill:#ffc040;"/><path d="M2738.16,-132.083c29.463,-17.138 65.871,-17.138 95.334,-0c110.45,64.254 384.287,223.595 514.079,299.116c14.6,8.488 23.558,24.096 23.558,40.971c0,16.875 -8.958,32.483 -23.558,40.971c-129.792,75.504 -403.629,234.862 -514.083,299.1c-29.459,17.15 -65.867,17.15 -95.33,-0.004c-110.433,-64.233 -384.27,-223.592 -514.079,-299.096c-14.583,-8.487 -23.541,-24.096 -23.541,-40.971c-0,-16.875 8.958,-32.483 23.541,-40.975c129.809,-75.521 403.646,-234.858 514.079,-299.112Z" style="fill:#cd5752;"/><path d="M2662.85,-132.083c29.462,-17.138 65.871,-17.138 95.35,-0c110.433,64.254 384.271,223.595 514.062,299.116c14.584,8.488 23.559,24.096 23.559,40.971c-0,16.875 -8.975,32.483 -23.559,40.971c-129.791,75.504 -403.629,234.862 -514.062,299.1c-29.479,17.15 -65.888,17.15 -95.35,-0.004c-110.434,-64.233 -384.271,-223.592 -514.079,-299.096c-14.584,-8.487 -23.559,-24.096 -23.559,-40.971c0,-16.875 8.975,-32.483 23.559,-40.975c129.808,-75.521 403.646,-234.858 514.079,-299.112Z" style="fill:#ffc040;"/><path d="M2587.53,-132.083c29.463,-17.138 65.871,-17.138 95.334,-0c110.45,64.254 384.287,223.595 514.079,299.116c14.583,8.488 23.558,24.096 23.558,40.971c0,16.875 -8.975,32.483 -23.558,40.971c-129.792,75.504 -403.629,234.862 -514.079,299.1c-29.463,17.15 -65.871,17.15 -95.334,-0.004c-110.433,-64.233 -384.27,-223.592 -514.079,-299.096c-14.583,-8.487 -23.558,-24.096 -23.558,-40.971c-0,-16.875 8.975,-32.483 23.558,-40.975c129.809,-75.521 403.646,-234.858 514.079,-299.112Z" style="fill:#cd5752;"/><path d="M2512.22,-132.083c29.462,-17.138 65.871,-17.138 95.333,-0c110.434,64.254 384.288,223.595 514.079,299.116c14.584,8.488 23.559,24.096 23.559,40.971c-0,16.875 -8.975,32.483 -23.559,40.971c-129.791,75.504 -403.646,234.862 -514.083,299.1c-29.458,17.15 -65.867,17.15 -95.329,-0.004c-110.45,-64.233 -384.271,-223.592 -514.079,-299.096c-14.584,-8.487 -23.559,-24.096 -23.559,-40.971c0,-16.875 8.975,-32.483 23.559,-40.975c129.808,-75.521 403.629,-234.858 514.079,-299.112Z" style="fill:#ffc040;"/><path d="M2436.91,-132.083c29.463,-17.138 65.871,-17.138 95.35,-0c110.434,64.254 384.271,223.595 514.063,299.116c14.583,8.488 23.558,24.096 23.558,40.971c0,16.875 -8.975,32.483 -23.558,40.971c-129.792,75.504 -403.629,234.862 -514.063,299.1c-29.479,17.15 -65.887,17.15 -95.35,-0.004c-110.433,-64.233 -384.287,-223.592 -514.079,-299.096c-14.583,-8.487 -23.558,-24.096 -23.558,-40.971c-0,-16.875 8.975,-32.483 23.558,-40.975c129.792,-75.521 403.646,-234.858 514.079,-299.112Z" style="fill:#cd5752;"/><path d="M2361.6,-132.083c29.462,-17.138 65.871,-17.138 95.333,-0c110.45,64.254 384.271,223.595 514.079,299.116c14.584,8.488 23.559,24.096 23.559,40.971c-0,16.875 -8.975,32.483 -23.559,40.971c-129.808,75.504 -403.629,234.862 -514.083,299.1c-29.458,17.15 -65.867,17.15 -95.329,-0.004c-110.45,-64.233 -384.271,-223.592 -514.079,-299.096c-14.584,-8.487 -23.559,-24.096 -23.559,-40.971c0,-16.875 8.975,-32.483 23.559,-40.975c129.808,-75.521 403.629,-234.858 514.079,-299.112Z" style="fill:#ffc040;"/><path d="M2286.28,-132.083c29.463,-17.138 65.871,-17.138 95.334,-0c110.433,64.254 384.271,223.595 514.062,299.116c14.6,8.488 23.575,24.096 23.575,40.971c0,16.875 -8.975,32.483 -23.575,40.971c-129.791,75.504 -403.629,234.862 -514.062,299.1c-29.463,17.15 -65.871,17.15 -95.334,-0.004c-110.45,-64.233 -384.271,-223.592 -514.079,-299.096c-14.583,-8.487 -23.558,-24.096 -23.558,-40.971c-0,-16.875 8.975,-32.483 23.558,-40.975c129.809,-75.521 403.629,-234.858 514.079,-299.112Z" style="fill:#cd5752;"/><path d="M2210.95,-132.083c29.479,-17.138 65.888,-17.138 95.35,-0c110.434,64.254 384.288,223.595 514.079,299.116c14.584,8.488 23.542,24.096 23.542,40.971c0,16.875 -8.958,32.483 -23.542,40.971c-129.791,75.504 -403.646,234.862 -514.083,299.1c-29.458,17.15 -65.867,17.15 -95.346,-0.004c-110.433,-64.233 -384.271,-223.592 -514.062,-299.096c-14.584,-8.487 -23.559,-24.096 -23.559,-40.971c0,-16.875 8.975,-32.483 23.559,-40.975c129.791,-75.521 403.629,-234.858 514.062,-299.112Z" style="fill:#ffc040;"/><path d="M2135.66,-132.083c29.463,-17.138 65.871,-17.138 95.334,-0c110.433,64.254 384.271,223.595 514.079,299.116c14.562,8.488 23.542,24.096 23.542,40.971c-0,16.875 -8.975,32.483 -23.542,40.971c-129.808,75.504 -403.646,234.862 -514.083,299.1c-29.459,17.15 -65.867,17.15 -95.33,-0.004c-110.45,-64.233 -384.287,-223.592 -514.079,-299.096c-14.583,-8.487 -23.558,-24.096 -23.558,-40.971c-0,-16.875 8.975,-32.483 23.558,-40.975c129.792,-75.521 403.629,-234.858 514.079,-299.112Z" style="fill:#cd5752;"/><path d="M2060.33,-132.083c29.479,-17.138 65.888,-17.138 95.35,-0c110.434,64.254 384.271,223.595 514.063,299.116c14.6,8.488 23.575,24.096 23.575,40.971c-0,16.875 -8.975,32.483 -23.579,40.971c-129.788,75.504 -403.625,234.862 -514.063,299.1c-29.458,17.15 -65.867,17.15 -95.346,-0.004c-110.433,-64.233 -384.271,-223.592 -514.062,-299.096c-14.584,-8.487 -23.559,-24.096 -23.559,-40.971c0,-16.875 8.975,-32.483 23.559,-40.975c129.791,-75.521 403.629,-234.858 514.062,-299.112Z" style="fill:#ffc040;"/><path d="M1985.02,-132.083c29.479,-17.138 65.887,-17.138 95.35,-0c110.433,64.254 384.271,223.595 514.062,299.116c14.6,8.488 23.559,24.096 23.559,40.971c-0.001,16.875 -8.959,32.483 -23.559,40.971c-129.791,75.504 -403.629,234.862 -514.062,299.1c-29.463,17.15 -65.871,17.15 -95.35,-0.004c-110.434,-64.233 -384.271,-223.592 -514.063,-299.096c-14.583,-8.487 -23.558,-24.096 -23.558,-40.971c-0,-16.875 8.975,-32.483 23.558,-40.975c129.792,-75.521 403.629,-234.858 514.063,-299.112Z" style="fill:#cd5752;"/><path d="M1909.7,-132.083c29.479,-17.138 65.888,-17.138 95.35,-0c110.434,64.254 384.267,223.595 514.079,299.116c14.567,8.488 23.542,24.096 23.542,40.971c0,16.875 -8.975,32.483 -23.542,40.971c-129.808,75.504 -403.645,234.862 -514.079,299.1c-29.462,17.15 -65.871,17.15 -95.35,-0.004c-110.433,-64.233 -384.271,-223.592 -514.062,-299.096c-14.6,-8.487 -23.559,-24.096 -23.559,-40.971c0,-16.875 8.959,-32.483 23.559,-40.975c129.791,-75.521 403.629,-234.858 514.062,-299.112Z" style="fill:#ffc040;"/><path d="M1834.39,-132.083c29.479,-17.138 65.866,-17.138 95.35,-0c110.433,64.254 384.271,223.595 514.062,299.116c14.6,8.488 23.575,24.096 23.575,40.971c0,16.875 -8.975,32.483 -23.579,40.971c-129.787,75.504 -403.625,234.862 -514.062,299.1c-29.48,17.15 -65.867,17.15 -95.346,-0.004c-110.434,-64.233 -384.271,-223.592 -514.063,-299.096c-14.583,-8.487 -23.558,-24.096 -23.558,-40.971c-0,-16.875 8.975,-32.483 23.558,-40.975c129.792,-75.521 403.629,-234.858 514.063,-299.112Z" style="fill:#cd5752;"/><path d="M1759.08,-132.083c29.463,-17.138 65.867,-17.138 95.346,-0c110.438,64.254 384.275,223.595 514.067,299.116c14.6,8.488 23.558,24.096 23.558,40.971c0,16.875 -8.958,32.483 -23.558,40.971c-129.792,75.504 -403.63,234.862 -514.063,299.1c-29.479,17.15 -65.887,17.15 -95.35,-0.004c-110.433,-64.233 -384.271,-223.592 -514.079,-299.096c-14.567,-8.487 -23.542,-24.096 -23.542,-40.971c0,-16.875 8.975,-32.483 23.542,-40.975c129.808,-75.521 403.646,-234.858 514.079,-299.112Z" style="fill:#ffc040;"/><path d="M1683.77,-132.083c29.479,-17.138 65.887,-17.138 95.35,-0c110.433,64.254 384.27,223.595 514.079,299.116c14.562,8.488 23.541,24.096 23.541,40.971c0,16.875 -8.975,32.483 -23.541,40.971c-129.809,75.504 -403.646,234.862 -514.079,299.1c-29.463,17.15 -65.871,17.15 -95.35,-0.004c-110.434,-64.233 -384.271,-223.592 -514.063,-299.096c-14.6,-8.487 -23.558,-24.096 -23.558,-40.971c-0,-16.875 8.958,-32.483 23.558,-40.975c129.792,-75.521 403.629,-234.858 514.063,-299.112Z" style="fill:#cd5752;"/><path d="M1608.45,-132.083c29.479,-17.138 65.871,-17.138 95.35,-0c110.434,64.254 384.271,223.595 514.063,299.116c14.583,8.488 23.558,24.096 23.558,40.971c0,16.875 -8.975,32.483 -23.558,40.971c-129.792,75.504 -403.629,234.862 -514.063,299.1c-29.479,17.15 -65.871,17.15 -95.35,-0.004c-110.433,-64.233 -384.271,-223.592 -514.062,-299.096c-14.6,-8.487 -23.575,-24.096 -23.575,-40.971c-0,-16.875 8.975,-32.483 23.575,-40.975c129.791,-75.521 403.629,-234.858 514.062,-299.112Z" style="fill:#ffc040;"/><path d="M1533.14,-132.083c29.462,-17.138 65.866,-17.138 95.35,-0c110.433,64.254 384.271,223.595 514.062,299.116c14.6,8.488 23.559,24.096 23.559,40.971c-0.001,16.875 -8.959,32.483 -23.559,40.971c-129.792,75.504 -403.629,234.862 -514.062,299.1c-29.48,17.15 -65.888,17.15 -95.35,-0.004c-110.434,-64.233 -384.271,-223.592 -514.08,-299.096c-14.566,-8.487 -23.541,-24.096 -23.541,-40.971c-0,-16.875 8.975,-32.483 23.541,-40.975c129.809,-75.521 403.646,-234.858 514.08,-299.112Z" style="fill:#cd5752;"/><path d="M1457.83,-132.083c29.463,-17.138 65.867,-17.138 95.35,-0c110.434,64.254 384.271,223.595 514.063,299.116c14.583,8.488 23.558,24.096 23.558,40.971c0,16.875 -8.975,32.483 -23.558,40.971c-129.792,75.504 -403.629,234.862 -514.063,299.1c-29.479,17.15 -65.887,17.15 -95.35,-0.004c-110.433,-64.233 -384.271,-223.592 -514.062,-299.096c-14.6,-8.487 -23.559,-24.096 -23.559,-40.971c0,-16.875 8.959,-32.483 23.559,-40.975c129.791,-75.521 403.629,-234.858 514.062,-299.112Z" style="fill:#ffc040;"/><path d="M1382.52,-132.083c29.462,-17.138 65.866,-17.138 95.345,-0c110.438,64.254 384.275,223.595 514.067,299.116c14.583,8.488 23.559,24.096 23.559,40.971c-0,16.875 -8.976,32.483 -23.559,40.971c-129.791,75.504 -403.629,234.862 -514.062,299.1c-29.48,17.15 -65.888,17.15 -95.35,-0.004c-110.434,-64.233 -384.271,-223.592 -514.063,-299.096c-14.6,-8.487 -23.575,-24.096 -23.575,-40.971c0,-16.875 8.975,-32.483 23.575,-40.975c129.792,-75.521 403.629,-234.858 514.063,-299.112Z" style="fill:#cd5752;"/><path d="M1307.2,-132.083c29.463,-17.138 65.871,-17.138 95.329,-0c110.455,64.254 384.292,223.595 514.084,299.116c14.583,8.488 23.558,24.096 23.558,40.971c0,16.875 -8.975,32.483 -23.558,40.971c-129.792,75.504 -403.629,234.862 -514.084,299.1c-29.458,17.15 -65.866,17.15 -95.329,-0.004c-110.433,-64.233 -384.271,-223.592 -514.079,-299.096c-14.567,-8.487 -23.542,-24.096 -23.542,-40.971c0,-16.875 8.975,-32.483 23.542,-40.975c129.808,-75.521 403.646,-234.858 514.079,-299.112Z" style="fill:#ffc040;"/><path d="M1231.89,-132.083c29.462,-17.138 65.866,-17.138 95.35,-0c110.433,64.254 384.271,223.595 514.062,299.116c14.584,8.488 23.559,24.096 23.559,40.971c-0,16.875 -8.975,32.483 -23.559,40.971c-129.791,75.504 -403.629,234.862 -514.062,299.1c-29.479,17.15 -65.888,17.15 -95.35,-0.004c-110.434,-64.233 -384.288,-223.592 -514.08,-299.096c-14.583,-8.487 -23.541,-24.096 -23.541,-40.971c-0,-16.875 8.958,-32.483 23.541,-40.975c129.792,-75.521 403.646,-234.858 514.08,-299.112Z" style="fill:#cd5752;"/><path d="M1156.58,-132.083c29.463,-17.138 65.867,-17.138 95.35,-0c110.434,64.254 384.25,223.595 514.063,299.116c14.583,8.488 23.558,24.096 23.558,40.971c0,16.875 -8.975,32.483 -23.558,40.971c-129.813,75.504 -403.629,234.862 -514.063,299.1c-29.479,17.15 -65.887,17.15 -95.35,-0.004c-110.433,-64.233 -384.271,-223.592 -514.062,-299.096c-14.6,-8.487 -23.575,-24.096 -23.575,-40.971c-0,-16.875 8.975,-32.483 23.575,-40.975c129.791,-75.521 403.629,-234.858 514.062,-299.112Z" style="fill:#ffc040;"/><path d="M1081.27,-132.083c29.462,-17.138 65.871,-17.138 95.329,-0c110.454,64.254 384.287,223.595 514.079,299.116c14.583,8.488 23.563,24.096 23.563,40.971c-0.001,16.875 -8.976,32.483 -23.563,40.971c-129.792,75.504 -403.625,234.862 -514.079,299.1c-29.463,17.15 -65.867,17.15 -95.329,-0.004c-110.45,-64.233 -384.271,-223.592 -514.08,-299.096c-14.583,-8.487 -23.558,-24.096 -23.558,-40.971c0,-16.875 8.975,-32.483 23.558,-40.975c129.809,-75.521 403.63,-234.858 514.08,-299.112Z" style="fill:#cd5752;"/><path d="M1005.95,-132.083c29.463,-17.138 65.871,-17.138 95.329,-0c110.455,64.254 384.292,223.595 514.084,299.116c14.583,8.488 23.558,24.096 23.558,40.971c-0,16.875 -8.975,32.483 -23.558,40.971c-129.792,75.504 -403.63,234.862 -514.084,299.1c-29.458,17.15 -65.866,17.15 -95.329,-0.004c-110.433,-64.233 -384.287,-223.592 -514.079,-299.096c-14.583,-8.487 -23.542,-24.096 -23.542,-40.971c0,-16.875 8.959,-32.483 23.542,-40.975c129.792,-75.521 403.646,-234.858 514.079,-299.112Z" style="fill:#ffc040;"/><path d="M930.642,-132.083c29.462,-17.138 65.866,-17.138 95.329,-0c110.454,64.254 384.271,223.595 514.083,299.116c14.583,8.488 23.559,24.096 23.559,40.971c-0,16.875 -8.976,32.483 -23.559,40.971c-129.812,75.504 -403.629,234.862 -514.083,299.1c-29.463,17.15 -65.867,17.15 -95.329,-0.004c-110.434,-64.233 -384.288,-223.592 -514.08,-299.096c-14.583,-8.487 -23.558,-24.096 -23.558,-40.971c0,-16.875 8.975,-32.483 23.559,-40.975c129.791,-75.521 403.645,-234.858 514.079,-299.112Z" style="fill:#cd5752;"/><path d="M855.329,-132.083c29.463,-17.138 65.871,-17.138 95.329,-0c110.454,64.254 384.271,223.595 514.084,299.116c14.583,8.488 23.558,24.096 23.558,40.971c0,16.875 -8.975,32.483 -23.558,40.971c-129.813,75.504 -403.63,234.862 -514.084,299.1c-29.462,17.15 -65.866,17.15 -95.329,-0.004c-110.45,-64.233 -384.271,-223.592 -514.079,-299.096c-14.583,-8.487 -23.558,-24.096 -23.558,-40.971c-0,-16.875 8.975,-32.483 23.558,-40.975c129.808,-75.521 403.629,-234.858 514.079,-299.112Z" style="fill:#ffc040;"/><path d="M780.017,-132.083c29.462,-17.138 65.87,-17.138 95.329,-0c110.437,64.254 384.292,223.595 514.083,299.116c14.583,8.488 23.558,24.096 23.558,40.971c0,16.875 -8.975,32.483 -23.558,40.971c-129.792,75.504 -403.646,234.862 -514.083,299.1c-29.463,17.15 -65.867,17.15 -95.329,-0.004c-110.45,-64.233 -384.288,-223.592 -514.08,-299.096c-14.583,-8.487 -23.558,-24.096 -23.558,-40.971c0,-16.875 8.975,-32.483 23.558,-40.975c129.792,-75.521 403.63,-234.858 514.08,-299.112Z" style="fill:#cd5752;"/><path d="M704.704,-132.083c29.463,-17.138 65.871,-17.138 95.329,-0c110.454,64.254 384.271,223.595 514.084,299.116c14.583,8.488 23.558,24.096 23.558,40.971c-0,16.875 -8.975,32.483 -23.558,40.971c-129.813,75.504 -403.63,234.862 -514.084,299.1c-29.462,17.15 -65.866,17.15 -95.329,-0.004c-110.433,-64.233 -384.287,-223.592 -514.079,-299.096c-14.583,-8.487 -23.558,-24.096 -23.558,-40.971c-0,-16.875 8.975,-32.483 23.558,-40.975c129.792,-75.521 403.646,-234.858 514.079,-299.112Z" style="fill:#ffc040;"/><path d="M629.392,-132.083c29.462,-17.138 65.87,-17.138 95.329,-0c110.437,64.254 384.271,223.595 514.062,299.116c14.605,8.488 23.58,24.096 23.58,40.971c-0,16.875 -8.975,32.483 -23.58,40.971c-129.791,75.504 -403.625,234.862 -514.062,299.1c-29.458,17.15 -65.867,17.15 -95.329,-0.004c-110.45,-64.233 -384.271,-223.592 -514.079,-299.096c-14.584,-8.487 -23.559,-24.096 -23.559,-40.971c0,-16.875 8.975,-32.483 23.559,-40.975c129.808,-75.521 403.629,-234.858 514.079,-299.112Z" style="fill:#cd5752;"/><path d="M554.063,-132.083c29.479,-17.138 65.887,-17.138 95.345,-0c110.434,64.254 384.292,223.595 514.084,299.116c14.583,8.488 23.558,24.096 23.558,40.971c-0,16.875 -8.975,32.483 -23.558,40.971c-129.792,75.504 -403.65,234.862 -514.084,299.1c-29.462,17.15 -65.866,17.15 -95.346,-0.004c-110.433,-64.233 -384.27,-223.592 -514.062,-299.096c-14.583,-8.487 -23.558,-24.096 -23.558,-40.971c-0,-16.875 8.975,-32.483 23.558,-40.975c129.792,-75.521 403.629,-234.858 514.062,-299.112Z" style="fill:#ffc040;"/><path d="M478.767,-132.083c29.462,-17.138 65.871,-17.138 95.329,-0c110.437,64.254 384.271,223.595 514.083,299.116c14.563,8.488 23.538,24.096 23.538,40.971c-0,16.875 -8.975,32.483 -23.538,40.971c-129.812,75.504 -403.65,234.862 -514.083,299.1c-29.463,17.15 -65.867,17.15 -95.329,-0.004c-110.45,-64.233 -384.288,-223.592 -514.08,-299.096c-14.583,-8.487 -23.558,-24.096 -23.558,-40.971c0,-16.875 8.975,-32.483 23.558,-40.975c129.792,-75.521 403.63,-234.858 514.08,-299.112Z" style="fill:#cd5752;"/><path d="M403.454,-132.083c29.463,-17.138 65.871,-17.138 95.329,-0c110.434,64.254 384.271,223.595 514.063,299.116c14.604,8.488 23.579,24.096 23.579,40.971c0,16.875 -8.979,32.483 -23.579,40.971c-129.792,75.504 -403.625,234.862 -514.063,299.1c-29.458,17.15 -65.866,17.15 -95.329,-0.004c-110.45,-64.233 -384.287,-223.592 -514.079,-299.096c-14.583,-8.487 -23.558,-24.096 -23.558,-40.971c-0,-16.875 8.975,-32.483 23.558,-40.975c129.792,-75.521 403.629,-234.858 514.079,-299.112Z" style="fill:#ffc040;"/><path d="M328.125,-132.083c29.463,-17.138 65.867,-17.138 95.346,-0c110.437,64.254 384.271,223.595 514.062,299.116c14.604,8.488 23.563,24.096 23.563,40.971c-0,16.875 -8.959,32.483 -23.563,40.971c-129.791,75.504 -403.625,234.862 -514.062,299.1c-29.479,17.15 -65.884,17.15 -95.346,-0.004c-110.433,-64.233 -384.271,-223.592 -514.063,-299.096c-14.583,-8.487 -23.558,-24.096 -23.558,-40.971c0,-16.875 8.975,-32.483 23.558,-40.975c129.792,-75.521 403.63,-234.858 514.063,-299.112Z" style="fill:#cd5752;"/><g><path d="M251.475,-132.083c29.463,-17.138 65.871,-17.138 95.35,-0c110.433,64.254 384.271,223.595 514.063,299.116c14.6,8.488 23.558,24.096 23.558,40.971c-0,16.875 -8.958,32.483 -23.558,40.971c-129.792,75.504 -403.63,234.862 -514.063,299.1c-29.479,17.15 -65.887,17.15 -95.35,-0.004c-110.433,-64.233 -384.271,-223.592 -514.079,-299.096c-14.567,-8.487 -23.542,-24.096 -23.542,-40.971c0,-16.875 8.975,-32.483 23.542,-40.975c129.808,-75.521 403.646,-234.858 514.079,-299.112Z" style="fill:#ffc040;"/><path d="M257.971,-85.763c25.466,-14.812 56.908,-14.812 82.358,0.001c95.4,55.5 331.946,193.141 444.046,258.383c12.604,7.325 20.346,20.8 20.346,35.383c-0,14.567 -7.742,28.054 -20.346,35.379c-112.1,65.246 -348.646,202.867 -444.046,258.388c-25.45,14.808 -56.891,14.808 -82.358,-0c-95.4,-55.521 -331.929,-193.142 -444.046,-258.388c-12.604,-7.325 -20.35,-20.812 -20.35,-35.379c0,-14.583 7.746,-28.058 20.35,-35.383c112.117,-65.242 348.646,-202.883 444.046,-258.383Z" style="fill:#cd5752;"/><path d="M303.3,-32.658c21.546,-12.134 48.175,-12.134 69.738,-0c80.816,45.471 281.162,158.212 376.129,211.65c10.679,6.025 17.241,17.05 17.241,28.995c0,11.942 -6.566,22.984 -17.241,28.992c-94.967,53.438 -295.313,166.179 -376.129,211.667c-21.563,12.117 -48.192,12.117 -69.738,-0c-31.825,-17.9 -245.262,30.154 -300.417,-0.888c-84.912,-47.775 -18.141,-178.383 -75.712,-210.779c-10.679,-6.008 -17.242,-17.05 -17.242,-28.992c0,-11.945 6.563,-22.97 17.242,-28.995c83.487,-46.98 1.267,-160.192 94.825,-212.83c12.85,-7.237 271.529,6.667 281.304,1.18Z" style="fill:#fff9f9;"/><g><path d="M388.492,249.688c10.954,-10.955 17.116,-25.834 17.116,-41.321c0,-15.521 -6.162,-30.4 -17.12,-41.355c-34.667,-34.65 -83.905,-83.904 -118.575,-118.558c-10.955,-10.971 -25.834,-17.133 -41.338,-17.133c-15.504,-0 -30.379,6.162 -41.337,17.133c-34.65,34.654 -83.905,83.909 -118.559,118.559c-10.971,10.958 -17.133,25.833 -17.133,41.354c-0,15.487 6.162,30.366 17.133,41.321c34.654,34.67 83.909,83.904 118.559,118.575c10.958,10.954 25.833,17.12 41.337,17.12c15.504,0 30.383,-6.166 41.338,-17.12c34.67,-34.671 83.908,-83.905 118.575,-118.575l0.004,-0Z" style="fill:#cd5752;"/><g><path d="M308.021,184.583c-0,-3.612 -2.933,-6.545 -6.563,-6.545l-145.762,-0c-3.613,-0 -6.546,2.933 -6.546,6.545l-0,0.017c-0,3.629 2.933,6.546 6.546,6.546l145.762,-0c3.629,-0 6.563,-2.917 6.563,-6.546l-0,-0.017Z" style="fill:#fff9f9;"/><path d="M194.446,173.246c-0,1.008 -0.817,1.825 -1.825,1.825l-8.471,-0c-2.033,-0 -3.662,-1.633 -3.662,-3.667l-0,-4.041c-0,-0.488 0.187,-0.938 0.537,-1.288c0.346,-0.346 0.817,-0.537 1.3,-0.537l11.721,-0c0.087,-0 0.208,0.033 0.279,0.12c0.083,0.088 0.121,0.192 0.121,0.296l-0,7.292Zm4.879,1.825c-0.487,-0 -0.958,-0.192 -1.287,-0.521c-0.346,-0.35 -0.538,-0.833 -0.538,-1.304l0,-53.3c0,-3.192 2.588,-5.796 5.8,-5.796l50.571,0c3.196,0 5.8,2.604 5.8,5.796l-0,53.3c-0,0.471 -0.192,0.954 -0.538,1.304c-0.35,0.329 -0.816,0.521 -1.304,0.521l-58.508,-0l0.004,-0Zm75.521,-9.533c0.487,-0 0.958,0.191 1.287,0.537c0.346,0.35 0.538,0.8 0.538,1.288l-0,4.045c-0,2.03 -1.633,3.663 -3.646,3.663l-8.471,-0c-1.008,-0 -1.841,-0.817 -1.841,-1.825l-0,-5.884c-0,-0.487 0.208,-0.937 0.537,-1.287c0.346,-0.346 0.817,-0.538 1.304,-0.538l10.292,0Zm-46.267,1.076c1.354,-0 2.467,1.112 2.467,2.466c-0,1.354 -1.113,2.467 -2.467,2.467c-1.354,-0 -2.462,-1.113 -2.462,-2.467c-0,-1.354 1.108,-2.466 2.462,-2.466Zm-8.591,-0c1.354,-0 2.462,1.112 2.462,2.466c0,1.354 -1.108,2.467 -2.462,2.467c-1.355,-0 -2.467,-1.113 -2.467,-2.467c-0,-1.354 1.112,-2.466 2.467,-2.466Zm17.187,-0c1.371,-0 2.463,1.112 2.463,2.466c-0,1.354 -1.092,2.467 -2.463,2.467c-1.354,-0 -2.467,-1.113 -2.467,-2.467c0,-1.354 1.113,-2.466 2.467,-2.466Zm-8.596,-8.575c1.354,-0 2.467,1.095 2.467,2.466c-0,1.354 -1.113,2.463 -2.467,2.463c-1.354,-0 -2.462,-1.109 -2.462,-2.463c-0,-1.371 1.108,-2.466 2.462,-2.466Zm-8.591,-0c1.354,-0 2.462,1.095 2.462,2.466c0,1.354 -1.108,2.463 -2.462,2.463c-1.355,-0 -2.467,-1.109 -2.467,-2.463c-0,-1.371 1.112,-2.466 2.467,-2.466Zm17.187,-0c1.371,-0 2.463,1.095 2.463,2.466c-0,1.354 -1.092,2.463 -2.463,2.463c-1.354,-0 -2.467,-1.109 -2.467,-2.463c0,-1.371 1.113,-2.466 2.467,-2.466Zm-56.683,-10.8c-0,-0.484 0.187,-0.955 0.537,-1.284c0.346,-0.346 0.817,-0.537 1.3,-0.537l11.721,-0c0.088,-0 0.208,0.033 0.275,0.121c0.088,0.07 0.125,0.175 0.125,0.279l0,16.266c0,0.225 -0.192,0.4 -0.4,0.4l-11.721,0c-0.483,0 -0.954,-0.191 -1.3,-0.537c-0.35,-0.333 -0.537,-0.8 -0.537,-1.288l-0,-13.42Zm96.179,13.42c-0,0.488 -0.192,0.955 -0.538,1.288c-0.329,0.346 -0.8,0.537 -1.287,0.537l-10.292,0c-0.487,0 -0.958,-0.191 -1.304,-0.537c-0.329,-0.333 -0.538,-0.8 -0.538,-1.288l0,-13.42c0,-0.484 0.209,-0.955 0.538,-1.284c0.346,-0.346 0.817,-0.537 1.304,-0.537l10.292,-0c0.487,-0 0.958,0.191 1.287,0.537c0.346,0.329 0.538,0.8 0.538,1.284l-0,13.42Zm-48.092,-11.212c1.354,-0 2.467,1.092 2.467,2.462c-0,1.371 -1.113,2.467 -2.467,2.467c-1.354,0 -2.462,-1.096 -2.462,-2.467c-0,-1.37 1.108,-2.462 2.462,-2.462Zm-8.591,-0c1.354,-0 2.462,1.092 2.462,2.462c0,1.371 -1.108,2.467 -2.462,2.467c-1.355,0 -2.467,-1.096 -2.467,-2.467c-0,-1.37 1.112,-2.462 2.467,-2.462Zm17.187,-0c1.371,-0 2.463,1.092 2.463,2.462c-0,1.371 -1.092,2.467 -2.463,2.467c-1.354,0 -2.467,-1.096 -2.467,-2.467c0,-1.37 1.113,-2.462 2.467,-2.462Zm-8.596,-8.596c1.354,0 2.467,1.113 2.467,2.467c-0,1.371 -1.113,2.483 -2.467,2.483c-1.354,0 -2.462,-1.113 -2.462,-2.483c-0,-1.355 1.108,-2.467 2.462,-2.467Zm-8.591,0c1.354,0 2.462,1.113 2.462,2.467c0,1.371 -1.108,2.483 -2.462,2.483c-1.355,0 -2.467,-1.113 -2.467,-2.483c-0,-1.355 1.112,-2.467 2.467,-2.467Zm17.187,0c1.371,0 2.463,1.113 2.463,2.467c-0,1.371 -1.092,2.483 -2.463,2.483c-1.354,0 -2.467,-1.113 -2.467,-2.483c0,-1.355 1.113,-2.467 2.467,-2.467Zm39.496,-0.313c-0,0.488 -0.192,0.938 -0.538,1.284c-0.329,0.35 -0.8,0.542 -1.283,0.542l-10.296,-0c-0.487,-0 -0.954,-0.192 -1.304,-0.542c-0.329,-0.346 -0.538,-0.796 -0.538,-1.284l0,-14.341c0,-0.209 0.192,-0.396 0.417,-0.396l0,-0.021l11.721,0c0.483,0 0.954,0.209 1.283,0.542c0.346,0.346 0.538,0.812 0.538,1.3l-0,12.916Zm-96.179,-12.916c-0,-0.488 0.187,-0.954 0.537,-1.3c0.346,-0.334 0.817,-0.542 1.3,-0.542l10.296,0c0.471,0 0.938,0.208 1.288,0.542c0.345,0.346 0.537,0.812 0.537,1.3l0,14.325c0,0.225 -0.192,0.417 -0.4,0.417l-11.721,-0c-0.483,-0 -0.954,-0.192 -1.3,-0.542c-0.346,-0.346 -0.537,-0.796 -0.537,-1.284l-0,-12.916Zm39.496,4.654c1.354,0 2.466,1.108 2.466,2.462c0,1.355 -1.112,2.467 -2.466,2.467c-1.355,0 -2.467,-1.112 -2.467,-2.467c-0,-1.354 1.112,-2.462 2.467,-2.462Zm8.591,0c1.354,0 2.467,1.108 2.467,2.462c-0,1.355 -1.113,2.467 -2.467,2.467c-1.354,0 -2.462,-1.112 -2.462,-2.467c-0,-1.354 1.108,-2.462 2.462,-2.462Zm8.596,0c1.371,0 2.467,1.108 2.467,2.462c-0,1.355 -1.096,2.467 -2.467,2.467c-1.354,0 -2.467,-1.112 -2.467,-2.467c0,-1.354 1.113,-2.462 2.467,-2.462Zm0,-8.596c1.371,0 2.467,1.113 2.467,2.467c-0,1.371 -1.096,2.467 -2.467,2.467c-1.354,-0 -2.467,-1.096 -2.467,-2.467c0,-1.354 1.113,-2.467 2.467,-2.467Zm-17.187,0c1.354,0 2.466,1.113 2.466,2.467c0,1.371 -1.112,2.467 -2.466,2.467c-1.355,-0 -2.467,-1.096 -2.467,-2.467c-0,-1.354 1.112,-2.467 2.467,-2.467Zm8.591,0c1.354,0 2.467,1.113 2.467,2.467c-0,1.371 -1.113,2.467 -2.467,2.467c-1.354,-0 -2.462,-1.096 -2.462,-2.467c-0,-1.354 1.108,-2.467 2.462,-2.467Zm45.017,-20.483c0.504,-0.521 1.287,-0.679 1.962,-0.4c0.68,0.275 1.113,0.937 1.113,1.667l-0,16.441c-0,0.484 -0.192,0.954 -0.538,1.3c-0.329,0.346 -0.8,0.538 -1.283,0.538l-11.721,-0c-0.121,-0 -0.208,-0.05 -0.296,-0.121c-0.066,-0.071 -0.12,-0.175 -0.12,-0.296l-0,-2.379c-0,-1.25 -0.259,-2.429 -0.713,-3.488c-0.312,-0.695 -0.154,-1.491 0.367,-2.033c2.237,-2.254 8.021,-8.054 11.233,-11.229l-0.004,-0Zm-93.108,1.267c-0,-0.73 0.45,-1.392 1.108,-1.667c0.679,-0.279 1.458,-0.121 1.979,0.4c3.196,3.175 8.979,8.975 11.233,11.212c0.538,0.559 0.68,1.355 0.367,2.05c-0.471,1.059 -0.729,2.238 -0.729,3.488l-0,0.958c-0,0.484 -0.192,0.954 -0.538,1.3c-0.35,0.346 -0.816,0.538 -1.287,0.538l-10.296,-0c-0.483,-0 -0.954,-0.192 -1.3,-0.538c-0.346,-0.346 -0.537,-0.816 -0.537,-1.3l-0,-16.441Zm69.754,-5.488c-0,-0.487 0.191,-0.954 0.541,-1.3c0.33,-0.333 0.796,-0.521 1.284,-0.521l17.291,0c0.609,0 1.234,0.067 1.821,0.225c0.625,0.154 1.129,0.642 1.304,1.267c0.175,0.608 0,1.283 -0.47,1.737c-2.984,3.055 -9.113,9.167 -11.563,11.613c-0.587,0.592 -1.508,0.712 -2.237,0.279c-1.267,-0.746 -2.763,-1.183 -4.342,-1.183l-1.804,-0c-0.488,-0 -0.954,-0.188 -1.284,-0.538c-0.35,-0.329 -0.541,-0.796 -0.541,-1.283l-0,-10.296Zm-45.154,-1.821c0.487,0 0.954,0.188 1.3,0.521c0.35,0.346 0.541,0.813 0.541,1.3l0,10.296c0,0.487 -0.191,0.954 -0.541,1.283c-0.346,0.35 -0.813,0.538 -1.3,0.538l-1.788,-0c-1.6,-0 -3.092,0.437 -4.375,1.166c-0.712,0.417 -1.617,0.313 -2.204,-0.279c-2.467,-2.429 -8.579,-8.541 -11.6,-11.579c-0.483,-0.454 -0.658,-1.129 -0.483,-1.771c0.17,-0.641 0.675,-1.129 1.333,-1.287c0.592,-0.121 1.2,-0.188 1.842,-0.188l17.275,0Zm25.016,1.821c0,-0.487 0.192,-0.954 0.538,-1.3c0.329,-0.333 0.8,-0.521 1.287,-0.521l13.438,0c0.483,0 0.937,0.188 1.283,0.521c0.346,0.346 0.538,0.813 0.538,1.3l-0,10.296c-0,0.487 -0.192,0.954 -0.538,1.283c-0.346,0.35 -0.8,0.538 -1.283,0.538l-13.438,-0c-0.487,-0 -0.958,-0.188 -1.287,-0.538c-0.346,-0.329 -0.538,-0.796 -0.538,-1.283l0,-10.296Zm-20.137,0c-0,-0.487 0.191,-0.954 0.537,-1.3c0.346,-0.333 0.817,-0.521 1.3,-0.521l13.421,0c0.488,0 0.938,0.188 1.288,0.521c0.345,0.346 0.537,0.813 0.537,1.3l0,10.296c0,0.487 -0.192,0.954 -0.537,1.283c-0.35,0.35 -0.8,0.538 -1.288,0.538l-13.421,-0c-0.483,-0 -0.954,-0.188 -1.3,-0.538c-0.346,-0.329 -0.537,-0.796 -0.537,-1.283l-0,-10.296Z" style="fill:#fff9f9;"/><path d="M305.138,281.058c-0.938,-0.729 -2.188,-0.954 -3.334,-0.57c-1.146,0.362 -2.012,1.299 -2.325,2.445c-9.637,36.042 -40.504,36.042 -71.371,36.042c-37.187,0 -74.358,0 -74.358,-62.967l-0,-54.604c-0,-1.942 0.762,-3.8 2.137,-5.171c1.371,-1.391 3.23,-2.154 5.171,-2.154l134.079,0c1.946,0 3.805,0.763 5.192,2.154c1.371,1.371 2.138,3.229 2.138,5.171l-0,24.604c-0,1.334 0.708,2.55 1.875,3.192c1.162,0.642 2.566,0.625 3.695,-0.067c4.601,-2.779 9.984,-4.358 15.73,-4.358c17.241,0 31.233,13.992 31.233,31.233c0,17.238 -13.992,31.23 -31.233,31.23c-6.979,-0 -13.421,-2.309 -18.63,-6.18Zm-44.304,-14.2c1.042,0 2.034,0.434 2.725,1.196c0.696,0.767 1.025,1.808 0.921,2.813c-2.029,18.058 -17.342,32.1 -35.921,32.1c-18.558,-0 -33.887,-14.042 -35.883,-32.1c-0.104,-1.005 0.225,-2.03 0.937,-2.796c0.675,-0.763 1.65,-1.196 2.671,-1.196c12.521,-0.017 52.05,-0.017 64.55,-0.017Zm62.934,-32.154c11.754,0 21.304,9.55 21.304,21.304c-0,11.75 -9.55,21.3 -21.304,21.3c-11.755,0 -21.3,-9.546 -21.3,-21.3c-0,-11.754 9.545,-21.304 21.3,-21.304Zm-41.98,-7.917c0.055,-0.833 0.73,-1.458 1.546,-1.458c0.4,-0.017 0.834,-0.017 1.25,-0.017c0.434,0 0.85,0.159 1.146,0.471c0.296,0.329 0.45,0.746 0.433,1.179c-0.866,11.196 -10.241,20.05 -21.666,20.05c-11.421,0 -20.796,-8.854 -21.65,-20.066c-0.017,-0.417 0.141,-0.834 0.437,-1.129c0.292,-0.313 0.692,-0.488 1.109,-0.488c0.416,-0.017 0.85,-0.017 1.266,-0.017c0.834,0 1.513,0.642 1.563,1.475c0.729,8.975 8.179,16.042 17.275,16.042c9.079,0 16.546,-7.067 17.291,-16.042Zm-71.837,0c0.05,-0.833 0.729,-1.458 1.542,-1.458c0.4,-0.017 0.833,-0.017 1.25,-0.017c0.437,0 0.854,0.159 1.145,0.471c0.296,0.329 0.455,0.746 0.417,1.179c-0.867,11.196 -10.225,20.05 -21.667,20.05c-11.404,0 -20.779,-8.854 -21.629,-20.066c-0.016,-0.417 0.138,-0.834 0.434,-1.129c0.295,-0.313 0.695,-0.488 1.112,-0.488c0.417,-0.017 0.85,-0.017 1.25,-0.017c0.833,0 1.525,0.642 1.579,1.475c0.713,8.975 8.175,16.042 17.254,16.042c9.1,0 16.563,-7.067 17.313,-16.042Z" style="fill:#fff9f9;"/></g></g><path d="M115.054,141.475l11.683,11.683" style="fill:none;"/><path d="M180.313,141.475l-11.684,11.683" style="fill:none;"/></g></g><g><g><path d="M385.243,326.811c-1.736,0 -3.295,-0.26 -4.675,-0.781c-1.38,-0.521 -2.582,-1.185 -3.607,-1.992c-1.024,-0.807 -1.862,-1.662 -2.513,-2.565c-0.651,-0.903 -1.106,-1.728 -1.367,-2.474c0.139,-0.122 0.352,-0.313 0.638,-0.573c0.287,-0.26 0.612,-0.542 0.977,-0.846c0.364,-0.304 0.716,-0.582 1.055,-0.834c0.338,-0.251 0.629,-0.438 0.872,-0.56c0.191,0.452 0.503,1.064 0.937,1.836c0.434,0.773 1.02,1.563 1.758,2.37c0.738,0.807 1.641,1.485 2.709,2.031c1.067,0.547 2.313,0.821 3.737,0.821c1.666,-0 3.246,-0.291 4.739,-0.873c1.493,-0.581 2.708,-1.454 3.646,-2.617c0.937,-1.163 1.406,-2.604 1.406,-4.323c0,-1.198 -0.325,-2.187 -0.976,-2.969c-0.651,-0.781 -1.541,-1.436 -2.67,-1.966c-1.128,-0.529 -2.421,-1.002 -3.88,-1.419c-1.58,-0.486 -2.977,-1.063 -4.193,-1.732c-1.215,-0.668 -2.174,-1.497 -2.877,-2.487c-0.703,-0.989 -1.055,-2.205 -1.055,-3.645c0,-2.205 0.569,-4.033 1.706,-5.482c1.137,-1.45 2.643,-2.535 4.518,-3.255c1.875,-0.721 3.924,-1.081 6.146,-1.081c1.875,-0 3.594,0.252 5.156,0.755c1.563,0.503 2.865,1.111 3.906,1.823c1.042,0.712 1.728,1.371 2.058,1.979c-0.347,0.486 -0.812,1.042 -1.393,1.667c-0.582,0.625 -1.081,1.067 -1.498,1.328c-0.278,-0.469 -0.764,-1.037 -1.458,-1.706c-0.695,-0.668 -1.636,-1.25 -2.826,-1.745c-1.189,-0.494 -2.678,-0.742 -4.466,-0.742c-1.354,0 -2.608,0.213 -3.763,0.638c-1.154,0.426 -2.088,1.068 -2.799,1.927c-0.712,0.86 -1.068,1.932 -1.068,3.216c-0,0.99 0.256,1.793 0.768,2.409c0.512,0.617 1.163,1.107 1.953,1.472c0.79,0.364 1.611,0.668 2.461,0.911c1.372,0.434 2.691,0.894 3.959,1.38c1.267,0.486 2.391,1.072 3.372,1.758c0.981,0.686 1.758,1.528 2.331,2.526c0.573,0.998 0.859,2.218 0.859,3.659c0,1.979 -0.404,3.728 -1.211,5.247c-0.807,1.519 -1.901,2.791 -3.281,3.816c-1.38,1.024 -2.943,1.796 -4.688,2.317c-1.744,0.521 -3.546,0.781 -5.403,0.781Z" style="fill:#cd5752;fill-rule:nonzero;"/><path d="M415.217,327.384c-3.542,0 -6.177,-0.915 -7.904,-2.747c-1.727,-1.832 -2.591,-4.232 -2.591,-7.201c-0,-2.586 0.391,-5.017 1.172,-7.291c0.781,-2.275 1.914,-4.275 3.398,-6.003c1.485,-1.727 3.268,-3.081 5.352,-4.062c2.083,-0.981 4.418,-1.472 7.005,-1.472c3.316,0 5.746,0.903 7.292,2.709c1.545,1.805 2.317,4.305 2.317,7.5c0,2.534 -0.36,4.922 -1.08,7.161c-0.721,2.24 -1.771,4.219 -3.151,5.938c-1.381,1.718 -3.06,3.06 -5.039,4.023c-1.98,0.964 -4.237,1.445 -6.771,1.445Zm0.442,-3.724c1.823,0 3.455,-0.403 4.896,-1.211c1.441,-0.807 2.669,-1.896 3.685,-3.268c1.016,-1.371 1.788,-2.921 2.318,-4.648c0.529,-1.728 0.794,-3.503 0.794,-5.326c0,-2.187 -0.512,-3.949 -1.536,-5.286c-1.025,-1.337 -2.657,-2.005 -4.896,-2.005c-1.84,-0 -3.498,0.416 -4.974,1.25c-1.476,0.833 -2.735,1.953 -3.776,3.359c-1.042,1.406 -1.836,2.982 -2.383,4.727c-0.547,1.744 -0.82,3.52 -0.82,5.325c-0,2.066 0.56,3.763 1.679,5.091c1.12,1.328 2.791,1.992 5.013,1.992Z" style="fill:#cd5752;fill-rule:nonzero;"/><path d="M455.946,321.16c-0.573,0.816 -1.428,1.65 -2.565,2.5c-1.137,0.851 -2.483,1.567 -4.037,2.149c-1.554,0.581 -3.251,0.872 -5.091,0.872c-2.083,0 -3.793,-0.438 -5.13,-1.315c-1.337,-0.877 -2.326,-2.083 -2.969,-3.62c-0.642,-1.536 -0.963,-3.285 -0.963,-5.247c-0,-2.517 0.39,-4.887 1.172,-7.109c0.781,-2.223 1.888,-4.189 3.32,-5.899c1.432,-1.71 3.138,-3.051 5.117,-4.023c1.979,-0.973 4.184,-1.459 6.615,-1.459c1.597,0 3.007,0.274 4.231,0.821c1.224,0.547 2.214,1.258 2.969,2.135c0.755,0.877 1.237,1.81 1.445,2.8l-3.411,2.083c-0.017,-0.208 -0.1,-0.551 -0.247,-1.029c-0.148,-0.477 -0.413,-0.981 -0.795,-1.51c-0.382,-0.53 -0.95,-0.977 -1.705,-1.341c-0.756,-0.365 -1.776,-0.547 -3.06,-0.547c-1.754,-0 -3.338,0.408 -4.753,1.224c-1.415,0.816 -2.617,1.914 -3.607,3.294c-0.989,1.38 -1.744,2.938 -2.265,4.675c-0.521,1.736 -0.782,3.533 -0.782,5.39c0,1.91 0.443,3.477 1.329,4.701c0.885,1.224 2.378,1.836 4.479,1.836c1.18,-0 2.252,-0.174 3.216,-0.521c0.963,-0.347 1.797,-0.764 2.5,-1.25c0.703,-0.486 1.272,-0.951 1.706,-1.393c0.434,-0.443 0.703,-0.751 0.807,-0.925l2.474,2.708Z" style="fill:#cd5752;fill-rule:nonzero;"/><path d="M465.79,326.551c-0.261,0.017 -0.599,0.043 -1.016,0.078c-0.417,0.035 -0.833,0.052 -1.25,0.052c-0.434,0 -0.829,-0.017 -1.185,-0.052c-0.356,-0.035 -0.69,-0.069 -1.003,-0.104c0.174,-0.382 0.434,-1.107 0.782,-2.174c0.347,-1.068 0.764,-2.362 1.25,-3.881c0.486,-1.519 0.994,-3.138 1.523,-4.856c0.53,-1.719 1.046,-3.421 1.55,-5.105c0.503,-1.684 0.963,-3.233 1.38,-4.648c0.417,-1.415 0.755,-2.565 1.015,-3.451c0.296,-0.034 0.695,-0.065 1.198,-0.091c0.504,-0.026 1.012,-0.052 1.524,-0.078c0.512,-0.026 0.907,-0.039 1.185,-0.039c-0.07,0.434 -0.213,1.111 -0.43,2.031c-0.217,0.92 -0.473,1.936 -0.768,3.047c-0.434,1.632 -0.929,3.429 -1.485,5.391c-0.555,1.962 -1.115,3.889 -1.679,5.781c-0.565,1.892 -1.077,3.568 -1.537,5.026c-0.46,1.458 -0.811,2.483 -1.054,3.073Zm6.614,-28.568c-0.833,0 -1.484,-0.225 -1.953,-0.677c-0.469,-0.451 -0.703,-1.007 -0.703,-1.666c-0,-0.799 0.182,-1.524 0.547,-2.175c0.364,-0.651 0.859,-1.176 1.484,-1.575c0.625,-0.4 1.328,-0.599 2.11,-0.599c0.729,-0 1.306,0.234 1.731,0.703c0.426,0.469 0.638,1.041 0.638,1.719c0,0.746 -0.169,1.445 -0.507,2.096c-0.339,0.651 -0.795,1.176 -1.368,1.575c-0.573,0.4 -1.232,0.599 -1.979,0.599Z" style="fill:#cd5752;fill-rule:nonzero;"/></g><g><path d="M501.649,320.327c-0.434,0.451 -1.037,1.003 -1.81,1.654c-0.773,0.651 -1.706,1.289 -2.799,1.914c-1.094,0.625 -2.357,1.15 -3.789,1.575c-1.433,0.426 -3.017,0.638 -4.753,0.638c-3.108,0 -5.56,-0.868 -7.357,-2.604c-1.797,-1.736 -2.695,-4.245 -2.695,-7.526c-0,-2.569 0.434,-4.909 1.302,-7.018c0.868,-2.109 2.066,-3.928 3.594,-5.456c1.527,-1.528 3.311,-2.708 5.351,-3.541c2.04,-0.834 4.232,-1.25 6.576,-1.25c2.795,-0 4.904,0.759 6.328,2.278c1.423,1.519 2.135,3.572 2.135,6.159c0,0.92 -0.087,1.849 -0.26,2.786c-0.174,0.938 -0.425,1.91 -0.755,2.917l-3.737,0c-0.964,0 -1.953,0.009 -2.969,0.026c-1.016,0.018 -1.931,0.035 -2.747,0.052c-1.164,0.035 -2.431,0.091 -3.803,0.17c-1.371,0.078 -2.66,0.164 -3.867,0.26c-1.206,0.095 -2.139,0.195 -2.799,0.299c-0.174,0.678 -0.261,1.528 -0.261,2.553c0,1.128 0.278,2.152 0.834,3.072c0.555,0.921 1.332,1.65 2.33,2.188c0.999,0.538 2.166,0.807 3.503,0.807c1.441,0 2.747,-0.225 3.919,-0.677c1.172,-0.451 2.201,-0.989 3.086,-1.614c0.886,-0.625 1.606,-1.211 2.162,-1.758c0.555,-0.547 0.937,-0.907 1.146,-1.081c0.086,0.087 0.234,0.252 0.442,0.495c0.209,0.243 0.43,0.525 0.664,0.846c0.235,0.321 0.447,0.647 0.638,0.977c0.191,0.33 0.322,0.616 0.391,0.859Zm-18.125,-9.687c0.521,-0.087 1.306,-0.174 2.357,-0.261c1.05,-0.087 2.27,-0.173 3.659,-0.26c1.388,-0.087 2.838,-0.139 4.349,-0.156c0.902,-0.035 1.775,-0.057 2.617,-0.066l3.164,-0.039c0.121,-0.382 0.208,-0.829 0.26,-1.341c0.052,-0.512 0.078,-1.011 0.078,-1.497c0,-0.886 -0.169,-1.719 -0.507,-2.5c-0.339,-0.781 -0.89,-1.415 -1.654,-1.901c-0.764,-0.486 -1.797,-0.729 -3.099,-0.729c-1.632,-0 -3.247,0.342 -4.844,1.028c-1.597,0.686 -2.969,1.68 -4.114,2.982c-1.146,1.302 -1.901,2.882 -2.266,4.74Z" style="fill:#cd5752;fill-rule:nonzero;"/><path d="M524.826,321.395c-0.417,0.903 -0.968,1.823 -1.654,2.76c-0.685,0.938 -1.549,1.732 -2.591,2.383c-1.041,0.651 -2.309,0.977 -3.802,0.977c-1.805,-0 -3.086,-0.543 -3.841,-1.628c-0.755,-1.085 -1.133,-2.478 -1.133,-4.18c0,-0.868 0.122,-1.996 0.365,-3.385c0.243,-1.389 0.551,-2.878 0.924,-4.466c0.374,-1.589 0.769,-3.147 1.185,-4.675c0.417,-1.528 0.799,-2.882 1.146,-4.062c0.347,-1.181 0.616,-2.031 0.807,-2.552c-1.875,0.173 -3.472,0.364 -4.791,0.573c-1.32,0.208 -2.153,0.364 -2.5,0.468c0.017,-0.416 0.069,-0.868 0.156,-1.354c0.087,-0.486 0.178,-0.937 0.273,-1.354c0.096,-0.417 0.161,-0.712 0.196,-0.885c1.007,-0.139 2.2,-0.3 3.58,-0.482c1.381,-0.182 2.704,-0.308 3.972,-0.378c0.295,-0.885 0.586,-1.818 0.872,-2.799c0.287,-0.981 0.551,-1.94 0.794,-2.878c0.209,-0.781 0.391,-1.532 0.547,-2.252c0.157,-0.721 0.287,-1.333 0.391,-1.836l3.906,-0.157c0,0.139 -0.069,0.534 -0.208,1.185c-0.139,0.651 -0.317,1.441 -0.534,2.37c-0.217,0.929 -0.464,1.888 -0.742,2.878c-0.139,0.52 -0.282,1.054 -0.43,1.601c-0.148,0.547 -0.299,1.09 -0.456,1.628c0.521,-0.035 1.164,-0.07 1.927,-0.104c0.764,-0.035 1.389,-0.052 1.875,-0.052c0.851,-0.018 1.676,-0.018 2.474,-0c0.799,0.017 1.485,0.03 2.058,0.039c0.573,0.008 0.92,0.021 1.041,0.039c-0.034,0.364 -0.13,0.889 -0.286,1.575c-0.156,0.686 -0.287,1.228 -0.391,1.628c-0.173,-0 -0.772,-0.013 -1.797,-0.039c-1.024,-0.026 -2.048,-0.031 -3.073,-0.013c-0.729,0.017 -1.527,0.043 -2.395,0.078c-0.868,0.035 -1.658,0.078 -2.37,0.13c-0.209,0.642 -0.495,1.571 -0.86,2.787c-0.364,1.215 -0.759,2.578 -1.184,4.088c-0.426,1.51 -0.829,3.025 -1.211,4.544c-0.382,1.519 -0.695,2.917 -0.938,4.193c-0.243,1.276 -0.364,2.27 -0.364,2.982c-0,0.937 0.147,1.684 0.442,2.239c0.295,0.556 0.842,0.834 1.641,0.834c0.816,-0 1.541,-0.287 2.174,-0.86c0.634,-0.573 1.168,-1.237 1.602,-1.992c0.434,-0.755 0.764,-1.402 0.989,-1.94c0.087,0.052 0.235,0.191 0.443,0.417c0.209,0.225 0.439,0.477 0.69,0.755c0.252,0.278 0.478,0.529 0.677,0.755c0.2,0.226 0.335,0.365 0.404,0.417Z" style="fill:#cd5752;fill-rule:nonzero;"/><path d="M534.227,340.275c-1.562,-0 -3.012,-0.178 -4.349,-0.534c-1.337,-0.356 -2.496,-0.79 -3.476,-1.302c-0.981,-0.512 -1.741,-0.994 -2.279,-1.445c0.121,-0.191 0.308,-0.443 0.56,-0.755c0.252,-0.313 0.525,-0.643 0.82,-0.99c0.295,-0.347 0.586,-0.681 0.873,-1.003c0.286,-0.321 0.525,-0.577 0.716,-0.768c0.347,0.33 0.907,0.729 1.679,1.198c0.773,0.469 1.689,0.89 2.748,1.263c1.059,0.373 2.187,0.56 3.385,0.56c1.649,-0 3.16,-0.43 4.531,-1.289c1.372,-0.859 2.6,-2.027 3.685,-3.503c1.085,-1.475 2.04,-3.146 2.865,-5.013c0.825,-1.866 1.506,-3.806 2.044,-5.82c-0.382,0.66 -0.959,1.345 -1.732,2.057c-0.772,0.712 -1.757,1.311 -2.955,1.797c-1.198,0.486 -2.631,0.729 -4.297,0.729c-2.292,0 -3.915,-0.659 -4.87,-1.979c-0.955,-1.319 -1.432,-3.099 -1.432,-5.338c-0,-2.362 0.395,-5.044 1.185,-8.047c0.79,-3.004 1.679,-6.059 2.669,-9.167c0.208,-0.052 0.503,-0.082 0.885,-0.091c0.382,-0.009 0.782,-0.013 1.198,-0.013c0.434,-0 0.851,0.009 1.25,0.026c0.4,0.017 0.669,0.043 0.808,0.078c-0.4,1.094 -0.825,2.339 -1.277,3.737c-0.451,1.398 -0.872,2.83 -1.263,4.297c-0.39,1.467 -0.711,2.877 -0.963,4.232c-0.252,1.354 -0.378,2.543 -0.378,3.567c0,1.389 0.269,2.539 0.808,3.451c0.538,0.911 1.493,1.367 2.864,1.367c1.337,0 2.604,-0.356 3.802,-1.068c1.198,-0.711 2.305,-1.775 3.321,-3.19c1.015,-1.415 1.888,-3.181 2.617,-5.299c0.312,-0.886 0.651,-1.893 1.015,-3.021c0.365,-1.129 0.712,-2.231 1.042,-3.307c0.33,-1.077 0.603,-1.997 0.82,-2.761c0.217,-0.764 0.343,-1.206 0.378,-1.328c0.226,-0.035 0.469,-0.061 0.729,-0.078c0.261,-0.017 0.521,-0.026 0.781,-0.026c0.886,-0 1.624,0.087 2.214,0.26c-0.278,1.25 -0.66,2.813 -1.146,4.688c-0.469,1.684 -1.011,3.563 -1.628,5.638c-0.616,2.075 -1.271,4.227 -1.966,6.458c-0.694,2.231 -1.38,4.406 -2.057,6.524c-0.92,2.934 -2.127,5.547 -3.62,7.838c-1.493,2.292 -3.281,4.093 -5.364,5.404c-2.084,1.311 -4.497,1.966 -7.24,1.966Z" style="fill:#cd5752;fill-rule:nonzero;"/></g></g><g><g><path d="M386.727,108.385c0.017,-0.243 0.057,-0.542 0.117,-0.898c0.061,-0.356 0.13,-0.721 0.209,-1.094c0.078,-0.373 0.152,-0.729 0.221,-1.067c0.069,-0.339 0.13,-0.604 0.182,-0.795c2.014,-0.104 4.328,-0.204 6.94,-0.299c2.613,-0.096 5.23,-0.143 7.852,-0.143c1.875,-0 3.693,0.03 5.456,0.091c1.762,0.06 3.355,0.186 4.778,0.377c-0.139,0.643 -0.308,1.298 -0.508,1.966c-0.199,0.669 -0.386,1.211 -0.559,1.628c-0.365,0 -0.942,-0.013 -1.732,-0.039c-0.79,-0.026 -1.684,-0.043 -2.682,-0.052c-0.999,-0.009 -1.993,-0.017 -2.982,-0.026c-0.99,-0.009 -1.867,-0.022 -2.63,-0.039c-0.157,0.642 -0.4,1.645 -0.73,3.008c-0.329,1.362 -0.711,2.947 -1.145,4.752c-0.434,1.806 -0.895,3.707 -1.381,5.703c-0.486,1.997 -0.963,3.972 -1.432,5.925c-0.469,1.953 -0.898,3.758 -1.289,5.416l-1.471,6.237c-0.348,0.053 -0.821,0.1 -1.42,0.144c-0.599,0.043 -1.189,0.078 -1.77,0.104c-0.582,0.026 -1.046,0.039 -1.394,0.039c0.243,-1.042 0.565,-2.4 0.964,-4.076c0.399,-1.675 0.851,-3.528 1.354,-5.559c0.503,-2.032 1.024,-4.119 1.563,-6.264c0.538,-2.144 1.063,-4.218 1.575,-6.223c0.512,-2.006 0.985,-3.798 1.419,-5.378c0.209,-0.764 0.4,-1.467 0.573,-2.109c0.174,-0.643 0.321,-1.207 0.443,-1.693c-0.712,0.017 -1.541,0.039 -2.487,0.065c-0.946,0.026 -1.918,0.061 -2.917,0.104c-0.998,0.044 -1.949,0.078 -2.851,0.104c-0.903,0.026 -1.658,0.057 -2.266,0.091Z" style="fill:#cd5752;fill-rule:nonzero;"/><path d="M412.222,139.557c-0.261,0.018 -0.586,0.035 -0.977,0.052c-0.39,0.018 -0.803,0.026 -1.237,0.026c-0.451,0 -0.876,-0.017 -1.276,-0.052c-0.399,-0.034 -0.685,-0.078 -0.859,-0.13c0.486,-1.285 1.05,-2.895 1.693,-4.831c0.642,-1.935 1.315,-4.084 2.018,-6.445c0.703,-2.361 1.384,-4.809 2.044,-7.344c0.59,-2.205 1.155,-4.427 1.693,-6.666c0.538,-2.24 1.042,-4.388 1.51,-6.446c0.469,-2.057 0.877,-3.954 1.224,-5.69c0.139,-0.052 0.382,-0.113 0.729,-0.182c0.348,-0.069 0.734,-0.135 1.159,-0.195c0.426,-0.061 0.825,-0.118 1.198,-0.17c0.373,-0.052 0.656,-0.086 0.847,-0.104c-0.087,1.302 -0.309,2.939 -0.665,4.909c-0.355,1.971 -0.798,4.119 -1.328,6.445c-0.529,2.327 -1.106,4.662 -1.731,7.006c0.694,-0.764 1.592,-1.489 2.695,-2.175c1.102,-0.686 2.309,-1.241 3.62,-1.667c1.31,-0.425 2.617,-0.638 3.919,-0.638c2.066,0 3.568,0.517 4.505,1.55c0.938,1.033 1.406,2.522 1.406,4.466c0,1.042 -0.16,2.292 -0.481,3.75c-0.322,1.458 -0.747,3.008 -1.276,4.648c-0.53,1.641 -1.103,3.282 -1.719,4.922c-0.617,1.641 -1.22,3.173 -1.81,4.597c-0.313,0.034 -0.66,0.06 -1.042,0.078c-0.382,0.017 -0.764,0.026 -1.146,0.026c-0.816,-0 -1.527,-0.061 -2.135,-0.182c0.521,-1.164 1.081,-2.5 1.68,-4.011c0.599,-1.51 1.172,-3.055 1.718,-4.635c0.547,-1.58 0.994,-3.064 1.342,-4.453c0.347,-1.389 0.52,-2.544 0.52,-3.464c0,-1.111 -0.29,-1.975 -0.872,-2.591c-0.582,-0.616 -1.48,-0.925 -2.695,-0.925c-1.077,0 -2.114,0.191 -3.112,0.573c-0.999,0.382 -1.923,0.86 -2.774,1.433c-0.85,0.573 -1.584,1.154 -2.2,1.744c-0.617,0.591 -1.072,1.103 -1.367,1.537c-0.4,1.476 -0.821,2.982 -1.263,4.518c-0.443,1.537 -0.89,3.008 -1.342,4.414c-0.451,1.406 -0.868,2.661 -1.25,3.763c-0.382,1.103 -0.703,1.949 -0.963,2.539Z" style="fill:#cd5752;fill-rule:nonzero;"/></g><path d="M463.081,132.76c-0.434,0.452 -1.037,1.003 -1.81,1.654c-0.772,0.651 -1.705,1.289 -2.799,1.914c-1.094,0.625 -2.357,1.15 -3.789,1.576c-1.432,0.425 -3.017,0.638 -4.753,0.638c-3.107,-0 -5.56,-0.868 -7.357,-2.604c-1.796,-1.737 -2.695,-4.245 -2.695,-7.527c0,-2.569 0.434,-4.908 1.302,-7.018c0.868,-2.109 2.066,-3.928 3.594,-5.455c1.528,-1.528 3.312,-2.709 5.352,-3.542c2.039,-0.833 4.231,-1.25 6.575,-1.25c2.795,-0 4.905,0.759 6.328,2.278c1.424,1.52 2.136,3.573 2.136,6.159c-0,0.92 -0.087,1.849 -0.261,2.787c-0.173,0.937 -0.425,1.91 -0.755,2.916l-3.737,0c-0.964,0 -1.953,0.009 -2.969,0.027c-1.015,0.017 -1.931,0.034 -2.747,0.052c-1.163,0.034 -2.431,0.091 -3.802,0.169c-1.372,0.078 -2.661,0.165 -3.867,0.26c-1.207,0.096 -2.14,0.196 -2.8,0.3c-0.174,0.677 -0.26,1.528 -0.26,2.552c-0,1.128 0.277,2.153 0.833,3.073c0.556,0.92 1.332,1.649 2.331,2.187c0.998,0.538 2.166,0.808 3.502,0.808c1.441,-0 2.748,-0.226 3.92,-0.678c1.171,-0.451 2.2,-0.989 3.086,-1.614c0.885,-0.625 1.605,-1.211 2.161,-1.758c0.556,-0.547 0.938,-0.907 1.146,-1.081c0.087,0.087 0.234,0.252 0.443,0.495c0.208,0.243 0.429,0.525 0.664,0.846c0.234,0.322 0.447,0.647 0.638,0.977c0.191,0.33 0.321,0.616 0.39,0.859Zm-18.125,-9.687c0.521,-0.087 1.307,-0.174 2.357,-0.261c1.05,-0.086 2.27,-0.173 3.659,-0.26c1.389,-0.087 2.838,-0.139 4.349,-0.156c0.903,-0.035 1.775,-0.057 2.617,-0.065l3.164,-0.039c0.122,-0.382 0.208,-0.829 0.261,-1.341c0.052,-0.513 0.078,-1.012 0.078,-1.498c-0,-0.885 -0.17,-1.719 -0.508,-2.5c-0.339,-0.781 -0.89,-1.415 -1.654,-1.901c-0.764,-0.486 -1.797,-0.729 -3.099,-0.729c-1.632,-0 -3.246,0.343 -4.844,1.029c-1.597,0.685 -2.968,1.679 -4.114,2.981c-1.146,1.302 -1.901,2.882 -2.266,4.74Z" style="fill:#cd5752;fill-rule:nonzero;"/></g><g><g><path d="M463.306,207.319c2.778,0.972 4.954,2.488 6.528,4.549c1.574,2.06 2.361,4.548 2.361,7.465c0,4.259 -1.713,7.547 -5.139,9.861c-3.426,2.315 -8.379,3.473 -14.861,3.473l-26.25,-0l-0,-48.612l24.861,-0c6.204,-0 10.926,1.145 14.167,3.437c3.241,2.292 4.861,5.382 4.861,9.271c0,2.315 -0.567,4.387 -1.701,6.216c-1.134,1.828 -2.743,3.275 -4.827,4.34Zm-23.75,-13.334l-0,9.376l9.445,-0c4.629,-0 6.944,-1.575 6.944,-4.723c0,-3.102 -2.315,-4.653 -6.944,-4.653l-9.445,0Zm11.528,28.751c4.815,-0 7.222,-1.644 7.222,-4.931c0,-3.287 -2.407,-4.93 -7.222,-4.93l-11.528,-0l-0,9.861l11.528,-0Z" style="fill:#41251d;fill-rule:nonzero;"/><rect x="479.348" y="184.055" width="13.75" height="48.612" style="fill:#41251d;fill-rule:nonzero;"/><path d="M519.974,233.639c-3.935,-0 -7.755,-0.486 -11.458,-1.458c-3.704,-0.973 -6.713,-2.269 -9.028,-3.889l4.514,-10.14c2.176,1.436 4.699,2.593 7.569,3.473c2.871,0.879 5.695,1.319 8.473,1.319c5.278,0 7.916,-1.319 7.916,-3.958c0,-1.389 -0.752,-2.419 -2.257,-3.091c-1.504,-0.671 -3.923,-1.377 -7.257,-2.118c-3.657,-0.787 -6.713,-1.632 -9.166,-2.534c-2.454,-0.903 -4.561,-2.35 -6.32,-4.341c-1.759,-1.991 -2.639,-4.676 -2.639,-8.055c0,-2.963 0.81,-5.637 2.431,-8.021c1.62,-2.385 4.039,-4.271 7.257,-5.66c3.217,-1.389 7.164,-2.084 11.84,-2.084c3.195,0 6.343,0.359 9.445,1.077c3.102,0.717 5.833,1.771 8.194,3.16l-4.236,10.208c-4.629,-2.5 -9.12,-3.75 -13.472,-3.75c-2.732,0 -4.723,0.405 -5.973,1.215c-1.25,0.811 -1.875,1.864 -1.875,3.16c0,1.296 0.741,2.269 2.223,2.917c1.481,0.648 3.865,1.319 7.153,2.014c3.703,0.787 6.771,1.632 9.201,2.535c2.431,0.902 4.537,2.338 6.32,4.305c1.782,1.968 2.673,4.641 2.673,8.021c0,2.917 -0.81,5.556 -2.43,7.917c-1.621,2.361 -4.051,4.248 -7.292,5.66c-3.241,1.412 -7.176,2.118 -11.806,2.118Z" style="fill:#41251d;fill-rule:nonzero;"/><path d="M572.059,233.639c-5.093,-0 -9.665,-1.077 -13.716,-3.229c-4.051,-2.153 -7.234,-5.151 -9.549,-8.994c-2.315,-3.842 -3.472,-8.194 -3.472,-13.055c-0,-4.862 1.157,-9.214 3.472,-13.056c2.315,-3.843 5.498,-6.841 9.549,-8.993c4.051,-2.153 8.623,-3.23 13.716,-3.23c4.444,0 8.449,0.787 12.014,2.362c3.565,1.574 6.528,3.842 8.889,6.805l-8.75,7.917c-3.149,-3.796 -6.968,-5.695 -11.459,-5.695c-2.639,0 -4.988,0.579 -7.049,1.737c-2.06,1.157 -3.657,2.789 -4.791,4.896c-1.135,2.106 -1.702,4.525 -1.702,7.257c0,2.731 0.567,5.15 1.702,7.257c1.134,2.106 2.731,3.738 4.791,4.896c2.061,1.157 4.41,1.736 7.049,1.736c4.491,-0 8.31,-1.898 11.459,-5.695l8.75,7.917c-2.361,2.963 -5.324,5.232 -8.889,6.806c-3.565,1.574 -7.57,2.361 -12.014,2.361Z" style="fill:#41251d;fill-rule:nonzero;"/></g><g><path d="M620.946,233.639c-7.222,-0 -12.836,-1.968 -16.84,-5.903c-4.005,-3.935 -6.007,-9.514 -6.007,-16.736l-0,-26.945l13.75,-0l-0,26.528c-0,7.778 3.079,11.667 9.236,11.667c6.112,-0 9.167,-3.889 9.167,-11.667l0,-26.528l13.542,-0l0,26.945c0,7.222 -2.002,12.801 -6.007,16.736c-4.005,3.935 -9.618,5.903 -16.841,5.903Z" style="fill:#41251d;fill-rule:nonzero;"/><rect x="653.1" y="184.055" width="13.75" height="48.612" style="fill:#41251d;fill-rule:nonzero;"/><path d="M686.989,194.958l-14.93,-0l-0,-10.903l43.542,-0l0,10.903l-14.861,-0l-0,37.709l-13.751,-0l0,-37.709Z" style="fill:#41251d;fill-rule:nonzero;"/></g></g></g><!-- Code injected by live-server -->
<script type="text/javascript">
	// <![CDATA[  <-- For SVG support
	if ('WebSocket' in window) {
		(function () {
			function refreshCSS() {
				var sheets = [].slice.call(document.getElementsByTagName("link"));
				var head = document.getElementsByTagName("head")[0];
				for (var i = 0; i < sheets.length; ++i) {
					var elem = sheets[i];
					var parent = elem.parentElement || head;
					parent.removeChild(elem);
					var rel = elem.rel;
					if (elem.href && typeof rel != "string" || rel.length == 0 || rel.toLowerCase() == "stylesheet") {
						var url = elem.href.replace(/(&|\?)_cacheOverride=\d+/, '');
						elem.href = url + (url.indexOf('?') >= 0 ? '&' : '?') + '_cacheOverride=' + (new Date().valueOf());
					}
					parent.appendChild(elem);
				}
			}
			var protocol = window.location.protocol === 'http:' ? 'ws://' : 'wss://';
			var address = protocol + window.location.host + window.location.pathname + '/ws';
			var socket = new WebSocket(address);
			socket.onmessage = function (msg) {
				if (msg.data == 'reload') window.location.reload();
				else if (msg.data == 'refreshcss') refreshCSS();
			};
			if (sessionStorage && !sessionStorage.getItem('IsThisFirstTime_Log_From_LiveServer')) {
				console.log('Live reload enabled.');
				sessionStorage.setItem('IsThisFirstTime_Log_From_LiveServer', true);
			}
		})();
	}
	else {
		console.error('Upgrade your browser. This Browser is NOT supported WebSocket for Live-Reloading.');
	}
	// ]]>
</script></svg>