<?xml version="1.0" encoding="UTF-8" standalone="no"?><!DOCTYPE svg PUBLIC "-//W3C//DTD SVG 1.1//EN" "http://www.w3.org/Graphics/SVG/1.1/DTD/svg11.dtd"><svg width="4167px" height="4167px" version="1.1" xmlns="http://www.w3.org/2000/svg" xmlns:xlink="http://www.w3.org/1999/xlink" xml:space="preserve" xmlns:serif="http://www.serif.com/" style="fill-rule:evenodd;clip-rule:evenodd;stroke-linejoin:round;stroke-miterlimit:2;"><circle cx="2083.33" cy="2083.33" r="2083.33" style="fill:#c6dcfb;"/><circle cx="2083.33" cy="2083.33" r="1447.74" style="fill:#c6dcfb;"/><clipPath id="_clip1"><circle cx="2083.33" cy="2083.33" r="1447.74"/></clipPath><g clip-path="url(#_clip1)"><rect x="2083.33" y="0" width="1659.05" height="4246.78" style="fill:#1d1e41;"/></g><path d="M2083.33,0c1149.83,0 2083.33,933.508 2083.33,2083.33c-0,1149.83 -933.509,2083.33 -2083.33,2083.33c-1149.83,-0 -2083.33,-933.509 -2083.33,-2083.33c0,-1149.83 933.508,-2083.33 2083.33,-2083.33Zm0,347.221c958.188,-0 1736.11,777.925 1736.11,1736.11c-0,958.188 -777.925,1736.11 -1736.11,1736.11c-958.187,-0 -1736.11,-777.925 -1736.11,-1736.11c-0,-958.187 777.925,-1736.11 1736.11,-1736.11Z" style="fill:#1d1e41;"/><path d="M2083.33,635.592c799.032,0 1447.74,648.71 1447.74,1447.74c0,799.032 -648.709,1447.74 -1447.74,1447.74c-799.031,0 -1447.74,-648.709 -1447.74,-1447.74c0,-799.031 648.71,-1447.74 1447.74,-1447.74Zm0,241.289c665.86,0 1206.45,540.593 1206.45,1206.45c0,665.86 -540.592,1206.45 -1206.45,1206.45c-665.859,0 -1206.45,-540.592 -1206.45,-1206.45c0,-665.859 540.593,-1206.45 1206.45,-1206.45Z" style="fill:#1d1e41;"/></svg>