<?xml version="1.0" encoding="UTF-8" standalone="no"?><!DOCTYPE svg PUBLIC "-//W3C//DTD SVG 1.1//EN" "http://www.w3.org/Graphics/SVG/1.1/DTD/svg11.dtd"><svg width="22225px" height="4446px" version="1.1" xmlns="http://www.w3.org/2000/svg" xmlns:xlink="http://www.w3.org/1999/xlink" xml:space="preserve" xmlns:serif="http://www.serif.com/" style="fill-rule:evenodd;clip-rule:evenodd;stroke-linecap:round;stroke-linejoin:round;stroke-miterlimit:1.5;"><path d="M8414.98,2218.77c0,-0.025 0,-0.051 0,-0.076c0.586,-81.364 18.285,-138.422 61.041,-183.444c5.78,-6.026 7.39,-14.928 4.088,-22.597c-61.974,-145.187 -70.404,-290.361 -72.331,-435.536c-3.164,-238.35 176.399,-466.46 -13.383,-722.524c-3.922,-5.294 -5.094,-12.137 -3.156,-18.434c1.938,-6.297 6.755,-11.298 12.974,-13.471c14.5,-5.178 32.253,-11.38 46.473,-16.347c6.025,-2.106 10.753,-6.858 12.828,-12.895c2.075,-6.036 1.268,-12.691 -2.189,-18.056c-132.306,-206.355 -107.793,-389.077 -106.054,-592.692c0.075,-11.437 9.356,-20.675 20.793,-20.696c228.342,-0.577 442.575,-8.95 689.912,93.217c9.669,3.998 20.803,0.19 25.999,-8.892c5.644,-9.794 12.827,-22.348 18.549,-32.349c5.452,-9.524 17.357,-13.187 27.22,-8.373c378.578,183.98 680.666,10.526 1032.99,13.44c215.019,1.778 430.038,9.65 645.058,68.417c5.674,1.559 11.744,0.644 16.707,-2.519c67.716,-42.368 154.148,-59.366 279.979,-59.369c0.016,0 0.031,0 0.047,0c0.358,0.001 5.7,0.013 6.058,0.014c0.016,-0 0.031,-0 0.047,-0c122.533,0.546 207.266,17.673 273.905,59.324c4.954,3.156 11.012,4.069 16.676,2.513c215.029,-58.73 430.048,-66.602 645.067,-68.38c352.322,-2.914 654.41,170.54 1033,-13.417c9.849,-4.807 21.74,-1.149 27.183,8.365c5.747,9.986 12.93,22.54 18.544,32.352c5.205,9.095 16.357,12.908 26.042,8.904c247.324,-102.197 461.557,-93.824 689.899,-93.247c11.436,0.022 20.718,9.259 20.792,20.696c1.74,203.615 26.253,386.337 -106.024,592.71c-3.452,5.357 -4.257,12 -2.185,18.026c2.071,6.026 6.792,10.77 12.808,12.872c14.207,5.002 31.96,11.204 46.495,16.281c6.251,2.185 11.091,7.211 13.038,13.54c1.947,6.329 0.77,13.207 -3.172,18.528c-189.865,256.002 -10.302,484.112 -13.466,722.462c-1.927,145.175 -10.357,290.35 -72.358,435.525c-3.305,7.681 -1.691,16.594 4.098,22.627c43.507,45.777 61.073,104.025 61.073,187.644l-0.015,4.181c-0.58,81.385 -18.278,138.454 -61.041,183.483c-5.78,6.026 -7.39,14.928 -4.088,22.598c61.974,145.186 70.404,290.361 72.331,435.535c3.164,238.35 -176.399,466.46 13.383,722.524c3.922,5.294 5.094,12.138 3.156,18.435c-1.938,6.297 -6.755,11.297 -12.974,13.47c-14.5,5.179 -32.253,11.381 -46.473,16.348c-6.025,2.106 -10.753,6.858 -12.828,12.894c-2.075,6.037 -1.268,12.691 2.189,18.057c132.306,206.354 107.793,389.076 106.054,592.691c-0.075,11.437 -9.356,20.675 -20.793,20.696c-228.342,0.578 -442.575,8.95 -689.912,-93.216c-9.669,-3.998 -20.803,-0.191 -25.999,8.891c-5.644,9.794 -12.827,22.349 -18.549,32.349c-5.452,9.525 -17.357,13.187 -27.22,8.373c-378.578,-183.98 -680.666,-10.525 -1032.99,-13.439c-215.019,-1.779 -430.038,-9.65 -645.057,-68.418c-5.675,-1.558 -11.743,-0.643 -16.706,2.519c-66.619,41.682 -151.352,58.809 -273.885,59.355c-0.016,0 -0.031,0.001 -0.047,0.001c-0.358,0 -5.7,0.012 -6.058,0.013c-0.016,-0 -0.031,-0 -0.047,-0c-125.831,-0.002 -212.263,-17 -279.999,-59.337c-4.955,-3.156 -11.013,-4.069 -16.677,-2.513c-215.03,58.73 -430.049,66.601 -645.068,68.38c-352.322,2.914 -654.41,-170.541 -1033,13.416c-9.849,4.808 -21.74,1.149 -27.183,-8.364c-5.747,-9.986 -12.93,-22.541 -18.544,-32.352c-5.205,-9.096 -16.357,-12.909 -26.042,-8.904c-247.324,102.196 -461.557,93.824 -689.899,93.246c-11.436,-0.021 -20.718,-9.259 -20.792,-20.696c-1.74,-203.615 -26.253,-386.337 106.024,-592.71c3.452,-5.356 4.257,-12 2.185,-18.026c-2.071,-6.026 -6.792,-10.77 -12.808,-12.871c-14.207,-5.002 -31.96,-11.204 -46.495,-16.282c-6.251,-2.185 -11.091,-7.211 -13.038,-13.54c-1.947,-6.329 -0.77,-13.206 3.172,-18.527c189.865,-256.003 10.302,-484.113 13.466,-722.463c1.927,-145.175 10.357,-290.35 72.358,-435.525c3.305,-7.68 1.691,-16.593 -4.098,-22.627c-43.5,-45.77 -61.067,-104.007 -61.073,-187.605c0,-0.025 0,-0.05 0,-0.075c0.002,-0.385 0.014,-3.723 0.015,-4.108Zm575.539,1452.81c0,5.526 2.195,10.825 6.102,14.732c3.907,3.907 9.206,6.102 14.732,6.102l4202.3,-0c5.526,-0 10.825,-2.195 14.732,-6.102c3.907,-3.907 6.102,-9.206 6.102,-14.732c-0,-248.886 -0,-2648.45 -0,-2897.34c-0,-5.525 -2.195,-10.824 -6.102,-14.731c-3.907,-3.907 -9.206,-6.102 -14.732,-6.102c-306.474,-0 -3895.83,-0 -4202.3,-0c-5.526,-0 -10.825,2.195 -14.732,6.102c-3.907,3.907 -6.102,9.206 -6.102,14.731l0,2897.34Z" style="fill:#41241c;"/><path d="M4044.97,2219.96c0,-0.018 0,-0.036 0,-0.054c0.418,-58.005 13.036,-98.681 43.516,-130.778c4.121,-4.296 5.269,-10.642 2.915,-16.11c-44.182,-103.503 -50.191,-206.998 -51.565,-310.493c-2.256,-169.92 125.755,-332.539 -9.541,-515.088c-2.796,-3.774 -3.631,-8.653 -2.25,-13.142c1.382,-4.489 4.815,-8.054 9.25,-9.603c10.336,-3.692 22.993,-8.113 33.13,-11.654c4.295,-1.501 7.666,-4.889 9.145,-9.192c1.479,-4.304 0.904,-9.048 -1.561,-12.873c-94.321,-147.11 -76.846,-277.373 -75.605,-422.53c0.053,-8.153 6.67,-14.739 14.823,-14.754c162.785,-0.412 315.512,-6.381 491.838,66.454c6.893,2.85 14.831,0.136 18.535,-6.339c4.024,-6.982 9.145,-15.932 13.224,-23.061c3.886,-6.79 12.374,-9.401 19.405,-5.97c269.889,131.16 485.247,7.504 736.418,9.581c153.287,1.268 306.574,6.88 459.862,48.775c4.045,1.111 8.372,0.459 11.91,-1.795c48.275,-30.205 109.892,-42.323 199.598,-42.325c0.011,0 0.022,0 0.033,0c0.255,0.001 4.064,0.009 4.319,0.01c0.011,-0 0.022,0 0.033,0c87.354,0.39 147.76,12.599 195.267,42.293c3.532,2.249 7.85,2.9 11.888,1.791c153.295,-41.869 306.582,-47.481 459.869,-48.749c251.17,-2.077 466.529,121.579 736.426,-9.564c7.022,-3.427 15.499,-0.819 19.379,5.963c4.097,7.119 9.218,16.069 13.22,23.064c3.711,6.484 11.661,9.202 18.565,6.347c176.318,-72.856 329.045,-66.887 491.83,-66.475c8.153,0.015 14.769,6.601 14.823,14.754c1.24,145.157 18.715,275.42 -75.585,422.543c-2.461,3.819 -3.035,8.555 -1.558,12.851c1.477,4.296 4.842,7.678 9.131,9.176c10.128,3.566 22.784,7.987 33.146,11.607c4.457,1.558 7.907,5.141 9.295,9.653c1.388,4.512 0.549,9.415 -2.261,13.208c-135.355,182.505 -7.345,345.124 -9.6,515.044c-1.374,103.495 -7.383,206.991 -51.584,310.486c-2.356,5.475 -1.206,11.829 2.921,16.131c31.016,32.634 43.539,74.159 43.539,133.772l-0.01,2.98c-0.414,58.019 -13.031,98.703 -43.516,130.805c-4.121,4.296 -5.269,10.642 -2.915,16.11c44.182,103.503 50.191,206.998 51.565,310.493c2.255,169.92 -125.755,332.54 9.541,515.088c2.796,3.774 3.631,8.653 2.249,13.142c-1.381,4.489 -4.815,8.054 -9.249,9.603c-10.337,3.692 -22.993,8.113 -33.13,11.654c-4.296,1.502 -7.666,4.889 -9.145,9.193c-1.48,4.303 -0.904,9.047 1.56,12.872c94.321,147.11 76.846,277.373 75.606,422.531c-0.053,8.153 -6.67,14.738 -14.823,14.753c-162.785,0.412 -315.512,6.381 -491.838,-66.454c-6.894,-2.85 -14.831,-0.135 -18.535,6.339c-4.024,6.982 -9.145,15.932 -13.224,23.062c-3.887,6.79 -12.374,9.401 -19.405,5.969c-269.889,-131.159 -485.248,-7.504 -736.418,-9.581c-153.287,-1.268 -306.574,-6.88 -459.862,-48.775c-4.045,-1.111 -8.371,-0.458 -11.909,1.796c-47.493,29.715 -107.899,41.925 -195.253,42.314c-0.011,0 -0.022,0 -0.033,0c-0.255,0.001 -4.064,0.009 -4.319,0.01c-0.011,-0 -0.022,-0 -0.033,-0c-89.706,-0.002 -151.323,-12.12 -199.612,-42.302c-3.532,-2.25 -7.851,-2.901 -11.889,-1.791c-153.295,41.868 -306.582,47.48 -459.869,48.748c-251.171,2.077 -466.529,-121.578 -736.426,9.564c-7.022,3.428 -15.499,0.819 -19.379,-5.962c-4.097,-7.12 -9.218,-16.07 -13.22,-23.064c-3.711,-6.484 -11.662,-9.203 -18.566,-6.348c-176.317,72.856 -329.044,66.887 -491.829,66.475c-8.153,-0.015 -14.77,-6.6 -14.823,-14.753c-1.241,-145.158 -18.716,-275.421 75.585,-422.544c2.461,-3.818 3.035,-8.555 1.558,-12.851c-1.477,-4.296 -4.842,-7.678 -9.131,-9.176c-10.128,-3.566 -22.785,-7.987 -33.147,-11.607c-4.456,-1.557 -7.906,-5.141 -9.294,-9.652c-1.389,-4.512 -0.549,-9.415 2.261,-13.209c135.355,-182.504 7.344,-345.124 9.6,-515.044c1.374,-103.495 7.383,-206.99 51.584,-310.486c2.356,-5.475 1.205,-11.829 -2.922,-16.13c-31.011,-32.63 -43.535,-74.147 -43.538,-133.745c-0,-0.017 -0,-0.035 -0,-0.053c0.001,-0.274 0.009,-2.654 0.01,-2.928Zm410.302,1035.71c0,3.939 1.565,7.716 4.35,10.502c2.786,2.785 6.563,4.35 10.502,4.35l2995.82,-0c3.939,-0 7.717,-1.565 10.502,-4.35c2.786,-2.786 4.35,-6.563 4.35,-10.502c0,-177.431 0,-1888.09 0,-2065.52c0,-3.939 -1.564,-7.717 -4.35,-10.502c-2.785,-2.786 -6.563,-4.35 -10.502,-4.35c-218.486,-0 -2777.34,-0 -2995.82,-0c-3.939,-0 -7.716,1.564 -10.502,4.35c-2.785,2.785 -4.35,6.563 -4.35,10.502l0,2065.52Z" style="fill:#41241c;"/><path d="M14333.9,2219.96c0,-0.018 0,-0.036 0.001,-0.054c0.417,-58.005 13.035,-98.681 43.515,-130.778c4.121,-4.296 5.269,-10.642 2.915,-16.11c-44.182,-103.503 -50.191,-206.998 -51.565,-310.493c-2.255,-169.92 125.755,-332.539 -9.541,-515.088c-2.796,-3.774 -3.631,-8.653 -2.249,-13.142c1.381,-4.489 4.815,-8.054 9.249,-9.603c10.337,-3.692 22.993,-8.113 33.13,-11.654c4.296,-1.501 7.666,-4.889 9.145,-9.192c1.48,-4.304 0.904,-9.048 -1.56,-12.873c-94.321,-147.11 -76.846,-277.373 -75.606,-422.53c0.053,-8.153 6.67,-14.739 14.823,-14.754c162.785,-0.412 315.512,-6.381 491.838,66.454c6.894,2.85 14.831,0.136 18.535,-6.339c4.024,-6.982 9.145,-15.932 13.224,-23.061c3.887,-6.79 12.374,-9.401 19.405,-5.97c269.889,131.16 485.248,7.504 736.418,9.581c153.287,1.268 306.575,6.88 459.862,48.775c4.045,1.111 8.372,0.459 11.91,-1.795c48.275,-30.205 109.892,-42.323 199.598,-42.325c0.011,0 0.022,0 0.033,0c0.255,0.001 4.064,0.009 4.319,0.01c0.011,-0 0.022,0 0.033,0c87.354,0.39 147.761,12.599 195.267,42.293c3.532,2.249 7.851,2.9 11.889,1.791c153.294,-41.869 306.581,-47.481 459.868,-48.749c251.171,-2.077 466.529,121.579 736.426,-9.564c7.022,-3.427 15.499,-0.819 19.379,5.963c4.097,7.119 9.218,16.069 13.22,23.064c3.711,6.484 11.662,9.202 18.566,6.347c176.317,-72.856 329.044,-66.887 491.829,-66.475c8.153,0.015 14.77,6.601 14.823,14.754c1.241,145.157 18.716,275.42 -75.585,422.543c-2.461,3.819 -3.035,8.555 -1.558,12.851c1.477,4.296 4.842,7.678 9.131,9.176c10.128,3.566 22.785,7.987 33.147,11.607c4.456,1.558 7.906,5.141 9.294,9.653c1.389,4.512 0.549,9.415 -2.261,13.208c-135.355,182.505 -7.344,345.124 -9.6,515.044c-1.374,103.495 -7.383,206.991 -51.584,310.486c-2.356,5.475 -1.205,11.829 2.922,16.131c31.016,32.634 43.538,74.159 43.538,133.772l-0.01,2.98c-0.414,58.019 -13.031,98.703 -43.516,130.805c-4.121,4.296 -5.269,10.642 -2.915,16.11c44.182,103.503 50.191,206.998 51.565,310.493c2.256,169.92 -125.755,332.54 9.541,515.088c2.796,3.774 3.631,8.653 2.25,13.142c-1.382,4.489 -4.815,8.054 -9.25,9.603c-10.336,3.692 -22.993,8.113 -33.13,11.654c-4.295,1.502 -7.666,4.889 -9.145,9.193c-1.479,4.303 -0.904,9.047 1.561,12.872c94.321,147.11 76.846,277.373 75.605,422.531c-0.053,8.153 -6.67,14.738 -14.823,14.753c-162.785,0.412 -315.512,6.381 -491.838,-66.454c-6.893,-2.85 -14.831,-0.135 -18.535,6.339c-4.024,6.982 -9.145,15.932 -13.224,23.062c-3.886,6.79 -12.374,9.401 -19.405,5.969c-269.889,-131.159 -485.247,-7.504 -736.418,-9.581c-153.287,-1.268 -306.574,-6.88 -459.861,-48.775c-4.045,-1.111 -8.372,-0.458 -11.91,1.796c-47.492,29.715 -107.899,41.925 -195.253,42.314c-0.011,0 -0.022,0 -0.033,0c-0.255,0.001 -4.064,0.009 -4.319,0.01c-0.011,-0 -0.022,-0 -0.033,-0c-89.706,-0.002 -151.323,-12.12 -199.612,-42.302c-3.532,-2.25 -7.851,-2.901 -11.889,-1.791c-153.294,41.868 -306.582,47.48 -459.869,48.748c-251.17,2.077 -466.529,-121.578 -736.426,9.564c-7.022,3.428 -15.499,0.819 -19.379,-5.962c-4.097,-7.12 -9.218,-16.07 -13.22,-23.064c-3.711,-6.484 -11.661,-9.203 -18.565,-6.348c-176.318,72.856 -329.045,66.887 -491.83,66.475c-8.153,-0.015 -14.769,-6.6 -14.823,-14.753c-1.24,-145.158 -18.715,-275.421 75.585,-422.544c2.461,-3.818 3.035,-8.555 1.558,-12.851c-1.477,-4.296 -4.842,-7.678 -9.131,-9.176c-10.128,-3.566 -22.784,-7.987 -33.146,-11.607c-4.457,-1.557 -7.907,-5.141 -9.295,-9.652c-1.388,-4.512 -0.549,-9.415 2.261,-13.209c135.355,-182.504 7.345,-345.124 9.6,-515.044c1.374,-103.495 7.383,-206.99 51.584,-310.486c2.356,-5.475 1.206,-11.829 -2.921,-16.13c-31.012,-32.63 -43.535,-74.147 -43.539,-133.745c-0,-0.017 -0,-0.035 -0,-0.053c0.001,-0.274 0.009,-2.654 0.01,-2.928Zm410.303,1035.71c-0,3.939 1.564,7.716 4.35,10.502c2.785,2.785 6.563,4.35 10.502,4.35l2995.82,-0c3.939,-0 7.716,-1.565 10.502,-4.35c2.785,-2.786 4.35,-6.563 4.35,-10.502l-0,-2065.52c-0,-3.939 -1.565,-7.717 -4.35,-10.502c-2.786,-2.786 -6.563,-4.35 -10.502,-4.35c-218.486,-0 -2777.34,-0 -2995.82,-0c-3.939,-0 -7.717,1.564 -10.502,4.35c-2.786,2.785 -4.35,6.563 -4.35,10.502l-0,2065.52Z" style="fill:#41241c;"/><path d="M2277.77,1927.26l316.386,632.772l-632.772,0l316.386,-632.772Z" style="fill:#41241c;stroke:#41241c;stroke-width:83.33px;"/><circle cx="2629.66" cy="2027.3" r="141.499" style="fill:#41241c;stroke:#41241c;stroke-width:83.33px;"/><path d="M18669,2221.08c-0,-0.011 -0,-0.022 -0,-0.033c0.259,-36.015 8.093,-61.271 27.019,-81.199c2.558,-2.668 3.271,-6.608 1.809,-10.003c-27.432,-64.265 -31.163,-128.525 -32.016,-192.785c-1.401,-105.503 78.081,-206.473 -5.924,-319.817c-1.736,-2.344 -2.255,-5.373 -1.397,-8.16c0.858,-2.788 2.99,-5.001 5.743,-5.963c6.418,-2.292 14.276,-5.037 20.57,-7.236c2.668,-0.932 4.76,-3.035 5.679,-5.707c0.918,-2.672 0.561,-5.618 -0.969,-7.993c-58.564,-91.34 -47.714,-172.221 -46.944,-262.348c0.033,-5.063 4.142,-9.152 9.204,-9.161c101.073,-0.256 195.901,-3.962 305.382,41.261c4.28,1.77 9.208,0.084 11.508,-3.936c2.498,-4.335 5.678,-9.892 8.211,-14.318c2.413,-4.216 7.683,-5.838 12.048,-3.707c167.574,81.437 301.29,4.659 457.241,5.949c95.176,0.787 190.352,4.272 285.528,30.284c2.512,0.69 5.198,0.285 7.395,-1.115c29.974,-18.754 68.232,-26.278 123.93,-26.279c0.007,0 0.014,0 0.02,0c0.159,0.001 2.524,0.006 2.682,0.006c0.007,0 0.014,0 0.021,0c54.238,0.242 91.744,7.823 121.241,26.26c2.193,1.397 4.874,1.801 7.381,1.112c95.18,-25.996 190.356,-29.481 285.532,-30.268c155.951,-1.29 289.667,75.488 457.246,-5.939c4.36,-2.128 9.623,-0.508 12.032,3.703c2.544,4.42 5.724,9.977 8.209,14.32c2.304,4.026 7.24,5.714 11.527,3.941c109.475,-45.236 204.303,-41.53 305.376,-41.274c5.062,0.009 9.171,4.098 9.204,9.161c0.77,90.127 11.62,171.008 -46.931,262.356c-1.528,2.371 -1.884,5.312 -0.967,7.979c0.917,2.668 3.006,4.767 5.669,5.698c6.289,2.214 14.147,4.959 20.581,7.206c2.767,0.968 4.909,3.192 5.771,5.994c0.862,2.801 0.341,5.846 -1.404,8.201c-84.042,113.317 -4.56,214.287 -5.961,319.79c-0.853,64.26 -4.584,128.52 -32.028,192.78c-1.463,3.4 -0.749,7.345 1.814,10.016c19.258,20.263 27.033,46.045 27.033,83.059l-0.007,1.85c-0.256,36.024 -8.09,61.285 -27.019,81.217c-2.558,2.667 -3.271,6.608 -1.809,10.002c27.432,64.265 31.163,128.525 32.016,192.785c1.401,105.503 -78.081,206.474 5.924,319.818c1.736,2.343 2.255,5.372 1.397,8.16c-0.858,2.787 -2.99,5 -5.743,5.962c-6.418,2.292 -14.276,5.038 -20.57,7.236c-2.667,0.932 -4.76,3.036 -5.679,5.708c-0.918,2.672 -0.561,5.617 0.969,7.992c58.564,91.341 47.714,172.221 46.944,262.349c-0.033,5.062 -4.142,9.151 -9.204,9.16c-101.073,0.256 -195.901,3.962 -305.382,-41.261c-4.28,-1.769 -9.208,-0.084 -11.508,3.936c-2.498,4.335 -5.678,9.892 -8.211,14.319c-2.413,4.216 -7.683,5.837 -12.048,3.706c-167.574,-81.437 -301.29,-4.659 -457.241,-5.949c-95.176,-0.787 -190.352,-4.271 -285.527,-30.284c-2.512,-0.69 -5.198,-0.285 -7.395,1.115c-29.488,18.45 -66.994,26.031 -121.232,26.273c-0.007,-0 -0.014,0 -0.021,0c-0.158,0 -2.523,0.006 -2.682,0.006c-0.006,-0 -0.013,-0 -0.02,-0c-55.698,-0.001 -93.956,-7.525 -123.939,-26.265c-2.193,-1.397 -4.875,-1.801 -7.382,-1.112c-95.18,25.996 -190.356,29.48 -285.532,30.267c-155.951,1.29 -289.667,-75.488 -457.246,5.939c-4.36,2.128 -9.623,0.508 -12.032,-3.703c-2.544,-4.42 -5.724,-9.977 -8.209,-14.32c-2.304,-4.026 -7.24,-5.714 -11.527,-3.941c-109.475,45.236 -204.303,41.53 -305.376,41.274c-5.062,-0.009 -9.17,-4.098 -9.204,-9.16c-0.77,-90.128 -11.62,-171.008 46.931,-262.357c1.528,-2.371 1.884,-5.312 0.967,-7.979c-0.917,-2.667 -3.006,-4.767 -5.669,-5.697c-6.289,-2.214 -14.147,-4.96 -20.581,-7.207c-2.767,-0.967 -4.909,-3.192 -5.771,-5.993c-0.862,-2.802 -0.341,-5.846 1.404,-8.201c84.042,-113.317 4.56,-214.288 5.961,-319.791c0.853,-64.26 4.584,-128.52 32.028,-192.78c1.463,-3.4 0.749,-7.345 -1.814,-10.015c-19.255,-20.26 -27.03,-46.038 -27.033,-83.042c0,-0.011 0,-0.022 0,-0.033c0.001,-0.171 0.006,-1.648 0.007,-1.819Zm254.756,643.073c-0,2.445 0.971,4.791 2.701,6.52c1.729,1.73 4.075,2.701 6.52,2.701l1860.1,0c2.445,0 4.791,-0.971 6.52,-2.701c1.73,-1.729 2.701,-4.075 2.701,-6.52l0,-1282.48c0,-2.446 -0.971,-4.792 -2.701,-6.521c-1.729,-1.73 -4.075,-2.701 -6.52,-2.701l-1860.1,-0c-2.445,-0 -4.791,0.971 -6.52,2.701c-1.73,1.729 -2.701,4.075 -2.701,6.521l-0,1282.48Z" style="fill:#41241c;"/><path d="M1167.92,2221.08c-0,-0.011 -0,-0.022 -0,-0.033c0.259,-36.015 8.093,-61.271 27.019,-81.199c2.558,-2.668 3.271,-6.608 1.809,-10.003c-27.432,-64.265 -31.163,-128.525 -32.016,-192.785c-1.401,-105.503 78.081,-206.473 -5.924,-319.817c-1.736,-2.344 -2.255,-5.373 -1.397,-8.16c0.858,-2.788 2.99,-5.001 5.743,-5.963c6.418,-2.292 14.276,-5.037 20.57,-7.236c2.667,-0.932 4.76,-3.035 5.679,-5.707c0.918,-2.672 0.561,-5.618 -0.969,-7.993c-58.564,-91.34 -47.714,-172.221 -46.944,-262.348c0.033,-5.063 4.142,-9.152 9.204,-9.161c101.073,-0.256 195.901,-3.962 305.382,41.261c4.28,1.77 9.208,0.084 11.508,-3.936c2.498,-4.335 5.678,-9.892 8.211,-14.318c2.413,-4.216 7.683,-5.838 12.048,-3.707c167.574,81.437 301.29,4.659 457.241,5.949c95.176,0.787 190.352,4.272 285.528,30.284c2.512,0.69 5.198,0.285 7.395,-1.115c29.974,-18.754 68.232,-26.278 123.93,-26.279c0.007,0 0.013,0 0.02,0c0.159,0.001 2.524,0.006 2.682,0.006c0.007,0 0.014,0 0.021,0c54.238,0.242 91.744,7.823 121.241,26.26c2.193,1.397 4.874,1.801 7.381,1.112c95.18,-25.996 190.356,-29.481 285.532,-30.268c155.951,-1.29 289.667,75.488 457.246,-5.939c4.36,-2.128 9.623,-0.508 12.032,3.703c2.544,4.42 5.724,9.977 8.209,14.32c2.304,4.026 7.24,5.714 11.527,3.941c109.475,-45.236 204.303,-41.53 305.376,-41.274c5.062,0.009 9.17,4.098 9.204,9.161c0.77,90.127 11.62,171.008 -46.931,262.356c-1.528,2.371 -1.884,5.312 -0.967,7.979c0.917,2.668 3.006,4.767 5.669,5.698c6.289,2.214 14.147,4.959 20.581,7.206c2.767,0.968 4.909,3.192 5.771,5.994c0.862,2.801 0.341,5.846 -1.404,8.201c-84.042,113.317 -4.56,214.287 -5.961,319.79c-0.853,64.26 -4.584,128.52 -32.028,192.78c-1.463,3.4 -0.749,7.345 1.814,10.016c19.258,20.263 27.033,46.045 27.033,83.059l-0.007,1.85c-0.256,36.024 -8.09,61.285 -27.019,81.217c-2.558,2.667 -3.271,6.608 -1.809,10.002c27.432,64.265 31.163,128.525 32.016,192.785c1.401,105.503 -78.081,206.474 5.924,319.818c1.736,2.343 2.255,5.372 1.397,8.16c-0.858,2.787 -2.99,5 -5.743,5.962c-6.418,2.292 -14.276,5.038 -20.57,7.236c-2.668,0.932 -4.76,3.036 -5.679,5.708c-0.918,2.672 -0.561,5.617 0.969,7.992c58.564,91.341 47.714,172.221 46.944,262.349c-0.033,5.062 -4.142,9.151 -9.204,9.16c-101.073,0.256 -195.901,3.962 -305.382,-41.261c-4.28,-1.769 -9.208,-0.084 -11.508,3.936c-2.498,4.335 -5.678,9.892 -8.211,14.319c-2.413,4.216 -7.683,5.837 -12.048,3.706c-167.574,-81.437 -301.29,-4.659 -457.241,-5.949c-95.176,-0.787 -190.352,-4.271 -285.527,-30.284c-2.512,-0.69 -5.198,-0.285 -7.395,1.115c-29.488,18.45 -66.994,26.031 -121.232,26.273c-0.007,-0 -0.014,0 -0.021,0c-0.158,0 -2.523,0.006 -2.682,0.006c-0.007,-0 -0.013,-0 -0.02,-0c-55.698,-0.001 -93.956,-7.525 -123.939,-26.265c-2.193,-1.397 -4.875,-1.801 -7.382,-1.112c-95.18,25.996 -190.356,29.48 -285.532,30.267c-155.951,1.29 -289.667,-75.488 -457.246,5.939c-4.36,2.128 -9.623,0.508 -12.032,-3.703c-2.544,-4.42 -5.724,-9.977 -8.209,-14.32c-2.304,-4.026 -7.24,-5.714 -11.527,-3.941c-109.475,45.236 -204.303,41.53 -305.376,41.274c-5.062,-0.009 -9.171,-4.098 -9.204,-9.16c-0.77,-90.128 -11.62,-171.008 46.931,-262.357c1.528,-2.371 1.884,-5.312 0.967,-7.979c-0.917,-2.667 -3.006,-4.767 -5.669,-5.697c-6.289,-2.214 -14.147,-4.96 -20.581,-7.207c-2.767,-0.967 -4.909,-3.192 -5.771,-5.993c-0.862,-2.802 -0.341,-5.846 1.404,-8.201c84.042,-113.317 4.56,-214.288 5.961,-319.791c0.853,-64.26 4.584,-128.52 32.028,-192.78c1.463,-3.4 0.749,-7.345 -1.814,-10.015c-19.255,-20.26 -27.03,-46.038 -27.033,-83.042c0,-0.011 0,-0.022 0,-0.033c0.001,-0.171 0.006,-1.648 0.007,-1.819Zm254.756,643.073c-0,2.445 0.971,4.791 2.701,6.52c1.729,1.73 4.075,2.701 6.52,2.701l1860.1,0c2.445,0 4.791,-0.971 6.52,-2.701c1.73,-1.729 2.701,-4.075 2.701,-6.52l0,-1282.48c0,-2.446 -0.971,-4.792 -2.701,-6.521c-1.729,-1.73 -4.075,-2.701 -6.52,-2.701l-1860.1,-0c-2.445,-0 -4.791,0.971 -6.52,2.701c-1.73,1.729 -2.701,4.075 -2.701,6.521l-0,1282.48Z" style="fill:#41241c;"/><g transform="matrix(4.16667,0,0,4.16667,-72.2284,614.498)"><g transform="matrix(250,0,0,250,2245.08,367.245)"><path d="M0.341,0.024c-0.064,-0 -0.12,-0.014 -0.166,-0.041c-0.046,-0.028 -0.081,-0.067 -0.106,-0.119c-0.024,-0.052 -0.037,-0.114 -0.037,-0.187c0,-0.068 0.012,-0.128 0.034,-0.179c0.022,-0.052 0.055,-0.093 0.098,-0.123c0.043,-0.029 0.095,-0.044 0.156,-0.044c0.032,0 0.063,0.004 0.094,0.013c0.031,0.008 0.06,0.021 0.086,0.037c0.027,0.017 0.048,0.037 0.066,0.062c-0.007,0.008 -0.018,0.019 -0.034,0.033c-0.016,0.015 -0.034,0.03 -0.053,0.045c-0.019,0.015 -0.037,0.028 -0.055,0.039c-0.006,-0.008 -0.013,-0.016 -0.022,-0.025c-0.009,-0.009 -0.02,-0.016 -0.033,-0.022c-0.013,-0.006 -0.028,-0.009 -0.046,-0.009c-0.019,0 -0.035,0.005 -0.048,0.015c-0.015,0.01 -0.026,0.024 -0.036,0.041c-0.009,0.017 -0.016,0.037 -0.021,0.059c-0.004,0.023 -0.007,0.046 -0.007,0.071c0,0.033 0.005,0.063 0.015,0.09c0.009,0.027 0.024,0.048 0.043,0.064c0.02,0.015 0.044,0.023 0.074,0.023c0.016,0 0.03,-0.003 0.043,-0.009c0.013,-0.007 0.023,-0.015 0.03,-0.026c0.008,-0.011 0.011,-0.023 0.011,-0.035c0,-0.004 0,-0.008 0,-0.011c0,-0.003 -0,-0.005 -0.001,-0.008c-0.005,-0.001 -0.013,-0.003 -0.023,-0.004c-0.01,-0.002 -0.022,-0.004 -0.034,-0.005c-0.012,-0.002 -0.024,-0.003 -0.034,-0.004c-0.011,-0.001 -0.02,-0.001 -0.027,-0.001c-0.001,-0.011 -0.001,-0.024 0,-0.04c0.001,-0.016 0.002,-0.033 0.003,-0.049c0.001,-0.016 0.002,-0.029 0.003,-0.038c0.023,-0 0.051,0.002 0.085,0.005c0.033,0.004 0.067,0.008 0.101,0.014c0.034,0.005 0.062,0.011 0.086,0.017c0.003,0.012 0.006,0.025 0.007,0.041c0.001,0.016 0.002,0.03 0.002,0.042c0,0.047 -0.009,0.091 -0.028,0.132c-0.019,0.041 -0.047,0.074 -0.084,0.099c-0.038,0.025 -0.085,0.037 -0.142,0.037Z" style="fill:#41241c;fill-rule:nonzero;"/></g><g transform="matrix(250,0,0,250,2404.46,367.245)"><path d="M0.252,0.008c-0.041,-0 -0.079,-0.006 -0.113,-0.017c-0.034,-0.011 -0.061,-0.029 -0.081,-0.054c-0.02,-0.025 -0.031,-0.059 -0.031,-0.101c0,-0.042 0.012,-0.076 0.036,-0.102c0.024,-0.025 0.055,-0.043 0.094,-0.054c0.039,-0.011 0.08,-0.017 0.124,-0.017c0.015,0 0.03,0.001 0.044,0.004c0.015,0.002 0.028,0.005 0.039,0.009c0.011,0.003 0.019,0.007 0.025,0.011c-0.001,-0.008 -0.003,-0.017 -0.006,-0.026c-0.003,-0.009 -0.008,-0.017 -0.014,-0.023c-0.009,-0.01 -0.021,-0.019 -0.035,-0.027c-0.015,-0.007 -0.035,-0.011 -0.06,-0.011c-0.025,0 -0.048,0.006 -0.068,0.017c-0.02,0.012 -0.035,0.025 -0.045,0.039l-0.136,-0.087c0.015,-0.021 0.036,-0.04 0.062,-0.055c0.026,-0.016 0.055,-0.028 0.088,-0.037c0.032,-0.009 0.067,-0.013 0.103,-0.013c0.06,-0 0.108,0.009 0.144,0.027c0.037,0.019 0.064,0.046 0.082,0.081c0.008,0.016 0.015,0.033 0.02,0.053c0.006,0.02 0.01,0.042 0.012,0.066c0.001,0.019 0.002,0.037 0.003,0.055c0.001,0.018 0.002,0.037 0.002,0.055c0,0.026 0.003,0.043 0.008,0.051c0.005,0.008 0.012,0.013 0.021,0.013c0.009,-0 0.016,-0.002 0.023,-0.005c0.007,-0.004 0.011,-0.008 0.013,-0.014l0.053,0.115c-0.004,0.011 -0.014,0.022 -0.031,0.031c-0.017,0.008 -0.038,0.013 -0.065,0.013c-0.02,-0 -0.038,-0.003 -0.056,-0.009c-0.018,-0.007 -0.033,-0.016 -0.045,-0.027c-0.012,-0.011 -0.019,-0.024 -0.021,-0.039c-0.005,0.013 -0.015,0.026 -0.032,0.038c-0.016,0.012 -0.037,0.021 -0.064,0.029c-0.026,0.007 -0.057,0.011 -0.093,0.011Zm0.038,-0.13c0.014,-0 0.028,-0.003 0.043,-0.007c0.015,-0.004 0.029,-0.009 0.041,-0.015c0.013,-0.007 0.022,-0.013 0.027,-0.018c-0.001,-0.007 -0.001,-0.016 -0.002,-0.025c-0,-0.009 -0.001,-0.016 -0.001,-0.022c-0.006,-0.003 -0.019,-0.005 -0.037,-0.008c-0.018,-0.003 -0.036,-0.004 -0.055,-0.004c-0.017,-0 -0.033,0.001 -0.049,0.004c-0.015,0.003 -0.028,0.009 -0.038,0.016c-0.01,0.007 -0.015,0.016 -0.015,0.028c-0,0.012 0.003,0.022 0.01,0.03c0.007,0.007 0.017,0.012 0.03,0.016c0.013,0.003 0.028,0.005 0.046,0.005Z" style="fill:#41241c;fill-rule:nonzero;"/></g><g transform="matrix(250,0,0,250,2566.33,367.245)"><path d="M0.328,-0.021c-0.01,0.01 -0.029,0.019 -0.056,0.028c-0.028,0.009 -0.058,0.014 -0.09,0.014c-0.042,-0 -0.073,-0.009 -0.095,-0.028c-0.022,-0.019 -0.037,-0.046 -0.045,-0.08c-0.008,-0.034 -0.012,-0.075 -0.012,-0.121c0,-0.039 0.001,-0.077 0.001,-0.115c0.001,-0.037 0.002,-0.074 0.003,-0.109c0.001,-0.036 0.003,-0.071 0.004,-0.104c0.001,-0.033 0.003,-0.065 0.004,-0.094c0.002,-0.03 0.004,-0.058 0.005,-0.085c0.027,-0.002 0.052,-0.003 0.074,-0.003c0.014,0 0.029,0.001 0.043,0.001c0.014,0.001 0.029,0.002 0.046,0.004c-0.001,0.031 -0.003,0.064 -0.005,0.1c-0.002,0.036 -0.005,0.072 -0.007,0.109c-0.002,0.036 -0.003,0.071 -0.005,0.105c-0.002,0.033 -0.003,0.063 -0.004,0.09c-0.001,0.026 -0.002,0.047 -0.002,0.062c0.001,0.02 0.001,0.038 0.003,0.055c0.002,0.017 0.006,0.031 0.012,0.041c0.006,0.01 0.014,0.015 0.026,0.015c0.011,0 0.02,-0.002 0.027,-0.007c0.007,-0.004 0.013,-0.01 0.017,-0.017c0.002,0.004 0.006,0.013 0.012,0.027c0.005,0.013 0.011,0.028 0.017,0.044c0.007,0.016 0.012,0.031 0.017,0.044c0.005,0.013 0.009,0.021 0.01,0.025Z" style="fill:#41241c;fill-rule:nonzero;"/></g><g transform="matrix(250,0,0,250,2646.96,367.245)"><path d="M0.328,-0.021c-0.01,0.01 -0.029,0.019 -0.056,0.028c-0.028,0.009 -0.058,0.014 -0.09,0.014c-0.042,-0 -0.073,-0.009 -0.095,-0.028c-0.022,-0.019 -0.037,-0.046 -0.045,-0.08c-0.008,-0.034 -0.012,-0.075 -0.012,-0.121c0,-0.039 0.001,-0.077 0.001,-0.115c0.001,-0.037 0.002,-0.074 0.003,-0.109c0.001,-0.036 0.003,-0.071 0.004,-0.104c0.001,-0.033 0.003,-0.065 0.004,-0.094c0.002,-0.03 0.004,-0.058 0.005,-0.085c0.027,-0.002 0.052,-0.003 0.074,-0.003c0.014,0 0.029,0.001 0.043,0.001c0.014,0.001 0.029,0.002 0.046,0.004c-0.001,0.031 -0.003,0.064 -0.005,0.1c-0.002,0.036 -0.005,0.072 -0.007,0.109c-0.002,0.036 -0.003,0.071 -0.005,0.105c-0.002,0.033 -0.003,0.063 -0.004,0.09c-0.001,0.026 -0.002,0.047 -0.002,0.062c0.001,0.02 0.001,0.038 0.003,0.055c0.002,0.017 0.006,0.031 0.012,0.041c0.006,0.01 0.014,0.015 0.026,0.015c0.011,0 0.02,-0.002 0.027,-0.007c0.007,-0.004 0.013,-0.01 0.017,-0.017c0.002,0.004 0.006,0.013 0.012,0.027c0.005,0.013 0.011,0.028 0.017,0.044c0.007,0.016 0.012,0.031 0.017,0.044c0.005,0.013 0.009,0.021 0.01,0.025Z" style="fill:#41241c;fill-rule:nonzero;"/></g><g transform="matrix(250,0,0,250,2727.58,367.245)"><path d="M0.525,-0.083c-0.01,0.013 -0.022,0.024 -0.036,0.035c-0.015,0.011 -0.032,0.02 -0.051,0.028c-0.02,0.008 -0.042,0.014 -0.067,0.019c-0.025,0.004 -0.052,0.006 -0.083,0.007c-0.05,-0.001 -0.095,-0.01 -0.135,-0.029c-0.039,-0.019 -0.07,-0.047 -0.092,-0.084c-0.022,-0.038 -0.033,-0.084 -0.033,-0.14c-0,-0.058 0.011,-0.108 0.034,-0.151c0.022,-0.042 0.054,-0.075 0.096,-0.099c0.041,-0.023 0.089,-0.035 0.145,-0.035c0.07,0 0.125,0.019 0.166,0.057c0.04,0.038 0.061,0.091 0.062,0.159c0,0.013 -0,0.024 -0.001,0.034c-0.001,0.01 -0.003,0.021 -0.005,0.033c-0.005,-0.001 -0.016,-0.001 -0.033,-0.001l-0.117,-0.003c-0.019,0 -0.032,0 -0.039,0c-0.027,0 -0.053,0.001 -0.077,0.004c-0.025,0.002 -0.045,0.004 -0.06,0.007c-0,0.005 -0,0.01 0.001,0.015c0,0.005 0.001,0.01 0.003,0.014c0.004,0.012 0.011,0.021 0.02,0.029c0.009,0.008 0.021,0.015 0.034,0.019c0.013,0.004 0.028,0.006 0.043,0.006c0.012,-0 0.023,-0.001 0.034,-0.004c0.011,-0.002 0.022,-0.006 0.032,-0.011c0.01,-0.005 0.019,-0.011 0.028,-0.018c0.009,-0.006 0.018,-0.014 0.027,-0.022c0.002,0.002 0.008,0.007 0.017,0.016c0.009,0.009 0.019,0.02 0.03,0.034c0.012,0.013 0.023,0.027 0.033,0.041c0.011,0.015 0.019,0.028 0.024,0.04Zm-0.32,-0.261c0.013,-0.002 0.028,-0.004 0.047,-0.006c0.018,-0.002 0.04,-0.003 0.065,-0.003c0.013,0.001 0.026,0.001 0.037,0.001c0.011,0.001 0.019,0.001 0.024,0.002c0,-0.006 -0.001,-0.013 -0.003,-0.02c-0.003,-0.01 -0.008,-0.019 -0.015,-0.027c-0.007,-0.008 -0.016,-0.015 -0.026,-0.02c-0.011,-0.005 -0.024,-0.008 -0.038,-0.008c-0.019,0 -0.035,0.004 -0.048,0.013c-0.013,0.008 -0.023,0.018 -0.031,0.031c-0.007,0.012 -0.011,0.025 -0.012,0.037Z" style="fill:#41241c;fill-rule:nonzero;"/></g><g transform="matrix(250,0,0,250,2867.46,367.245)"><path d="M0.193,-0.45c0.007,-0.014 0.017,-0.028 0.032,-0.042c0.015,-0.013 0.033,-0.024 0.054,-0.033c0.021,-0.009 0.043,-0.013 0.068,-0.013c0.015,-0 0.03,0.001 0.045,0.005c0.015,0.003 0.026,0.007 0.032,0.012l-0.035,0.178c-0.007,-0.003 -0.016,-0.006 -0.027,-0.009c-0.011,-0.004 -0.024,-0.006 -0.037,-0.006c-0.015,0 -0.028,0.002 -0.041,0.007c-0.013,0.004 -0.025,0.011 -0.036,0.019c-0.011,0.008 -0.021,0.018 -0.03,0.03c0.003,0.018 0.007,0.042 0.011,0.071c0.004,0.028 0.008,0.058 0.011,0.088c0.004,0.031 0.007,0.058 0.01,0.083c0.002,0.025 0.003,0.043 0.003,0.055c-0.026,0.003 -0.057,0.006 -0.091,0.007c-0.034,0.001 -0.067,0.001 -0.099,0.002c0,-0.027 -0,-0.059 -0.002,-0.095c-0.001,-0.036 -0.003,-0.074 -0.006,-0.114c-0.003,-0.04 -0.006,-0.079 -0.01,-0.117c-0.003,-0.039 -0.007,-0.074 -0.012,-0.106c-0.004,-0.032 -0.008,-0.058 -0.013,-0.078c0.018,-0.005 0.038,-0.01 0.06,-0.014c0.022,-0.005 0.041,-0.008 0.058,-0.011c0.018,-0.003 0.029,-0.005 0.033,-0.005c0.004,0.009 0.009,0.023 0.014,0.041c0.005,0.018 0.008,0.033 0.008,0.046Z" style="fill:#41241c;fill-rule:nonzero;"/></g><g transform="matrix(250,0,0,250,2977.83,367.245)"><path d="M0.226,0.263c-0.053,-0 -0.099,-0.008 -0.141,-0.023c-0.042,-0.016 -0.077,-0.033 -0.105,-0.051c0.005,-0.012 0.012,-0.028 0.021,-0.047c0.009,-0.019 0.019,-0.038 0.029,-0.056c0.01,-0.018 0.019,-0.032 0.025,-0.041c0.012,0.008 0.028,0.017 0.047,0.027c0.019,0.009 0.04,0.017 0.062,0.024c0.023,0.007 0.045,0.01 0.068,0.01c0.021,0 0.04,-0.005 0.055,-0.017c0.015,-0.012 0.028,-0.027 0.037,-0.046c0.01,-0.019 0.017,-0.04 0.021,-0.063c0.005,-0.023 0.007,-0.046 0.008,-0.068c-0.008,0.013 -0.019,0.024 -0.032,0.035c-0.013,0.01 -0.028,0.019 -0.044,0.025c-0.016,0.006 -0.034,0.009 -0.052,0.009c-0.052,0 -0.093,-0.014 -0.122,-0.042c-0.029,-0.028 -0.05,-0.065 -0.062,-0.113c-0.011,-0.047 -0.017,-0.1 -0.017,-0.159c-0,-0.022 0,-0.046 0.001,-0.071c0.001,-0.025 0.003,-0.051 0.004,-0.079c0.006,-0.001 0.016,-0.002 0.028,-0.003c0.013,-0 0.026,-0.001 0.041,-0.001c0.021,0.001 0.041,0.001 0.061,0.002c0.02,0.001 0.034,0.003 0.041,0.005c-0.001,0.005 -0.003,0.016 -0.005,0.031c-0.002,0.015 -0.004,0.033 -0.005,0.053c-0.002,0.021 -0.003,0.042 -0.003,0.063c0,0.019 0.001,0.038 0.003,0.056c0.002,0.018 0.005,0.035 0.009,0.049c0.005,0.015 0.012,0.027 0.02,0.036c0.008,0.009 0.019,0.013 0.032,0.013c0.022,-0 0.04,-0.009 0.053,-0.026c0.013,-0.017 0.023,-0.041 0.029,-0.072c0.006,-0.031 0.009,-0.066 0.009,-0.106c0.001,-0.011 0.001,-0.022 0.001,-0.032c-0,-0.01 -0,-0.02 -0,-0.028c-0,-0.009 -0.001,-0.016 -0.001,-0.022c-0,-0.006 -0.001,-0.011 -0.001,-0.014c0.009,-0 0.017,-0.001 0.026,-0.001c0.008,-0.001 0.017,-0.001 0.025,-0.001c0.034,0 0.068,0.004 0.102,0.012c0.002,0.04 0.003,0.086 0.003,0.138c0,0.03 0,0.062 -0.001,0.095c-0,0.034 -0.001,0.068 -0.002,0.103c-0.001,0.035 -0.003,0.07 -0.005,0.105c-0.003,0.057 -0.015,0.108 -0.035,0.151c-0.02,0.044 -0.048,0.078 -0.086,0.103c-0.038,0.025 -0.086,0.037 -0.143,0.037Z" style="fill:#41241c;fill-rule:nonzero;"/></g><g transform="matrix(200,0,0,200,2436.85,571.245)"><path d="M0.031,0.223c0.004,-0.054 0.008,-0.109 0.012,-0.168c0.003,-0.059 0.006,-0.118 0.009,-0.176c0.002,-0.059 0.004,-0.114 0.006,-0.166c0.001,-0.052 0.002,-0.099 0.003,-0.139c0.001,-0.041 0.001,-0.073 0.001,-0.095c0.018,-0.006 0.04,-0.011 0.064,-0.013c0.023,-0.003 0.046,-0.004 0.069,-0.004c0,0.01 0.001,0.023 0.001,0.038c0.001,0.014 0.001,0.028 0.001,0.039c0.007,-0.008 0.019,-0.018 0.035,-0.03c0.016,-0.012 0.036,-0.023 0.06,-0.032c0.024,-0.009 0.051,-0.014 0.081,-0.014c0.067,0 0.117,0.021 0.15,0.064c0.033,0.042 0.05,0.101 0.05,0.177c-0,0.053 -0.01,0.1 -0.029,0.139c-0.019,0.039 -0.046,0.069 -0.081,0.09c-0.034,0.021 -0.074,0.031 -0.12,0.031c-0.021,0 -0.042,-0.003 -0.064,-0.008c-0.022,-0.006 -0.041,-0.013 -0.058,-0.021c-0.017,-0.008 -0.029,-0.016 -0.036,-0.023c0,0.008 -0,0.021 -0.001,0.04c-0.001,0.019 -0.002,0.04 -0.003,0.064c-0.001,0.025 -0.003,0.05 -0.005,0.075c-0.001,0.025 -0.003,0.048 -0.004,0.069c-0.002,0.022 -0.003,0.038 -0.005,0.051c-0.016,0.002 -0.032,0.005 -0.05,0.007c-0.017,0.002 -0.034,0.003 -0.049,0.003c-0.016,0.001 -0.028,0.001 -0.038,0.002Zm0.293,-0.395c0.026,-0 0.048,-0.006 0.065,-0.016c0.017,-0.011 0.03,-0.027 0.038,-0.047c0.009,-0.02 0.013,-0.044 0.013,-0.072c0,-0.037 -0.009,-0.066 -0.026,-0.086c-0.018,-0.02 -0.045,-0.03 -0.081,-0.03c-0.022,0 -0.042,0.004 -0.06,0.011c-0.019,0.007 -0.034,0.016 -0.047,0.026c-0.012,0.009 -0.021,0.018 -0.027,0.026c-0,0.005 -0.001,0.014 -0.001,0.025c-0.001,0.012 -0.001,0.026 -0.001,0.04c-0.001,0.015 -0.001,0.029 -0.002,0.042c-0,0.013 -0,0.023 -0,0.03c0.006,0.006 0.014,0.013 0.026,0.021c0.011,0.008 0.025,0.015 0.042,0.021c0.017,0.006 0.037,0.009 0.061,0.009Z" style="fill:#41241c;fill-rule:nonzero;"/></g><g transform="matrix(200,0,0,200,2557.25,571.245)"><path d="M0.259,0.009c-0.042,-0 -0.08,-0.006 -0.114,-0.017c-0.034,-0.01 -0.061,-0.029 -0.081,-0.054c-0.02,-0.025 -0.03,-0.058 -0.03,-0.1c-0,-0.041 0.012,-0.074 0.035,-0.1c0.023,-0.025 0.054,-0.044 0.092,-0.056c0.038,-0.012 0.08,-0.018 0.126,-0.018c0.019,0.001 0.037,0.002 0.054,0.005c0.018,0.002 0.034,0.005 0.047,0.009c0.013,0.004 0.023,0.008 0.028,0.011c-0.001,-0.01 -0.003,-0.02 -0.006,-0.03c-0.003,-0.01 -0.007,-0.019 -0.013,-0.027c-0.011,-0.016 -0.026,-0.03 -0.045,-0.04c-0.02,-0.012 -0.045,-0.017 -0.076,-0.017c-0.032,0 -0.059,0.007 -0.083,0.021c-0.023,0.014 -0.04,0.03 -0.052,0.048l-0.109,-0.07c0.015,-0.021 0.035,-0.04 0.06,-0.056c0.025,-0.016 0.054,-0.029 0.086,-0.038c0.032,-0.009 0.066,-0.014 0.102,-0.014c0.058,0 0.105,0.01 0.142,0.03c0.037,0.02 0.064,0.047 0.081,0.082c0.008,0.017 0.015,0.036 0.02,0.056c0.006,0.02 0.009,0.044 0.011,0.072c0.001,0.026 0.002,0.049 0.002,0.069c0.001,0.021 0.002,0.04 0.003,0.057c0.001,0.024 0.004,0.04 0.009,0.047c0.005,0.007 0.012,0.011 0.021,0.011c0.01,-0 0.018,-0.003 0.025,-0.01c0.007,-0.006 0.011,-0.015 0.013,-0.026l0.05,0.084c-0.003,0.02 -0.013,0.036 -0.03,0.048c-0.017,0.012 -0.039,0.017 -0.064,0.017c-0.019,0 -0.036,-0.003 -0.052,-0.01c-0.016,-0.007 -0.029,-0.016 -0.039,-0.027c-0.01,-0.011 -0.016,-0.023 -0.018,-0.037c-0.006,0.013 -0.018,0.025 -0.036,0.037c-0.017,0.013 -0.04,0.023 -0.067,0.031c-0.027,0.008 -0.058,0.012 -0.093,0.012Zm0.028,-0.105c0.018,0 0.036,-0.002 0.054,-0.008c0.018,-0.005 0.034,-0.012 0.049,-0.021c0.015,-0.008 0.027,-0.017 0.035,-0.027c-0,-0.014 -0.001,-0.027 -0.001,-0.04c0,-0.012 0,-0.023 0,-0.033c-0.008,-0.003 -0.023,-0.007 -0.046,-0.011c-0.023,-0.004 -0.047,-0.006 -0.074,-0.006c-0.023,0 -0.044,0.003 -0.064,0.008c-0.02,0.006 -0.036,0.014 -0.048,0.025c-0.012,0.011 -0.019,0.024 -0.019,0.041c0,0.018 0.005,0.033 0.015,0.044c0.009,0.01 0.023,0.018 0.04,0.022c0.017,0.004 0.037,0.007 0.059,0.007Z" style="fill:#41241c;fill-rule:nonzero;"/></g><g transform="matrix(200,0,0,200,2686.75,571.245)"><path d="M0.325,-0.124c-0.066,0 -0.118,-0.01 -0.157,-0.029c-0.039,-0.02 -0.066,-0.045 -0.083,-0.076c-0.016,-0.031 -0.025,-0.064 -0.025,-0.098c0,-0.043 0.011,-0.08 0.033,-0.11c0.023,-0.03 0.053,-0.052 0.091,-0.068c0.038,-0.015 0.081,-0.023 0.129,-0.023c0.078,-0 0.137,0.018 0.177,0.053c0.04,0.036 0.06,0.083 0.06,0.143c0,0.045 -0.01,0.083 -0.029,0.114c-0.019,0.031 -0.045,0.054 -0.079,0.07c-0.034,0.016 -0.073,0.024 -0.117,0.024Zm-0.024,0.373c-0.051,0 -0.097,-0.004 -0.139,-0.014c-0.042,-0.01 -0.075,-0.027 -0.099,-0.051c-0.025,-0.024 -0.037,-0.058 -0.037,-0.102c0,-0.027 0.009,-0.052 0.026,-0.075c0.017,-0.023 0.042,-0.042 0.075,-0.057c0.032,-0.014 0.07,-0.023 0.115,-0.025c0.021,-0.001 0.043,-0.002 0.066,-0.002c0.024,-0.001 0.05,-0.001 0.08,-0.001c0.052,-0 0.096,0.011 0.13,0.034c0.034,0.023 0.051,0.06 0.051,0.11c0,0.044 -0.011,0.079 -0.034,0.106c-0.023,0.027 -0.055,0.047 -0.096,0.059c-0.04,0.012 -0.086,0.018 -0.138,0.018Zm0.005,-0.086c0.025,-0 0.047,-0.003 0.067,-0.008c0.02,-0.005 0.036,-0.013 0.047,-0.024c0.012,-0.011 0.018,-0.027 0.018,-0.046c-0,-0.016 -0.005,-0.029 -0.014,-0.038c-0.009,-0.009 -0.021,-0.015 -0.035,-0.019c-0.014,-0.003 -0.029,-0.005 -0.043,-0.005l-0.102,-0c-0.013,-0 -0.025,0.002 -0.037,0.005c-0.012,0.004 -0.022,0.011 -0.03,0.02c-0.007,0.01 -0.011,0.023 -0.011,0.04c0,0.018 0.006,0.033 0.019,0.044c0.012,0.011 0.029,0.019 0.05,0.024c0.021,0.005 0.045,0.007 0.072,0.007Zm-0.123,-0.19c-0.042,-0.008 -0.072,-0.021 -0.09,-0.038c-0.018,-0.017 -0.026,-0.035 -0.026,-0.055c-0.001,-0.015 0.003,-0.028 0.01,-0.039c0.007,-0.012 0.015,-0.021 0.025,-0.029c0.01,-0.007 0.02,-0.012 0.031,-0.014l0.085,0.045c-0.014,0.005 -0.024,0.011 -0.03,0.018c-0.007,0.007 -0.01,0.015 -0.01,0.022c-0,0.011 0.005,0.02 0.016,0.029c0.011,0.009 0.027,0.013 0.046,0.013l-0.056,0.048Zm0.127,-0.203c0.025,-0 0.046,-0.004 0.063,-0.012c0.016,-0.008 0.029,-0.02 0.037,-0.036c0.008,-0.015 0.012,-0.034 0.012,-0.055c0,-0.018 -0.005,-0.034 -0.014,-0.047c-0.009,-0.014 -0.022,-0.025 -0.037,-0.033c-0.016,-0.008 -0.034,-0.011 -0.053,-0.011c-0.033,-0 -0.06,0.007 -0.084,0.021c-0.023,0.014 -0.035,0.038 -0.035,0.073c0,0.032 0.01,0.056 0.031,0.074c0.021,0.017 0.048,0.026 0.08,0.026Zm0.192,-0.177l-0.078,-0.065c0.005,-0.013 0.013,-0.027 0.024,-0.042c0.011,-0.015 0.023,-0.028 0.037,-0.041c0.014,-0.013 0.027,-0.022 0.039,-0.029c0.004,0.006 0.01,0.015 0.018,0.026c0.008,0.011 0.017,0.022 0.025,0.034c0.009,0.011 0.016,0.02 0.022,0.027c-0.007,0.004 -0.015,0.009 -0.024,0.015c-0.008,0.007 -0.017,0.014 -0.026,0.022c-0.008,0.008 -0.016,0.017 -0.023,0.026c-0.006,0.009 -0.011,0.018 -0.014,0.026Z" style="fill:#41241c;fill-rule:nonzero;"/></g><g transform="matrix(200,0,0,200,2809.85,571.245)"><path d="M0.523,-0.097c-0.009,0.011 -0.02,0.022 -0.034,0.033c-0.014,0.012 -0.03,0.022 -0.049,0.032c-0.02,0.009 -0.042,0.017 -0.068,0.023c-0.025,0.006 -0.053,0.009 -0.085,0.009c-0.05,-0 -0.094,-0.01 -0.133,-0.029c-0.038,-0.02 -0.068,-0.049 -0.09,-0.087c-0.021,-0.038 -0.032,-0.086 -0.032,-0.142c0,-0.056 0.011,-0.104 0.034,-0.145c0.023,-0.041 0.054,-0.073 0.095,-0.096c0.04,-0.023 0.087,-0.034 0.14,-0.034c0.067,0 0.119,0.019 0.158,0.058c0.038,0.038 0.058,0.091 0.061,0.158c0,0.012 0,0.022 -0,0.032c-0.001,0.01 -0.002,0.021 -0.004,0.032c-0.004,-0 -0.014,-0.001 -0.03,-0.001c-0.015,-0.001 -0.032,-0.001 -0.052,-0.002c-0.02,-0 -0.039,-0.001 -0.057,-0.001c-0.018,-0 -0.032,-0.001 -0.042,-0.001c-0.031,0.001 -0.061,0.002 -0.091,0.005c-0.03,0.003 -0.056,0.006 -0.077,0.009c-0,0.007 0,0.014 0.001,0.02c0.001,0.007 0.003,0.014 0.004,0.02c0.005,0.016 0.014,0.029 0.026,0.041c0.012,0.011 0.027,0.02 0.044,0.026c0.017,0.006 0.035,0.009 0.054,0.009c0.019,0 0.035,-0.003 0.05,-0.008c0.015,-0.005 0.028,-0.011 0.039,-0.018c0.012,-0.008 0.022,-0.016 0.03,-0.024c0.009,-0.009 0.017,-0.016 0.023,-0.022c0.002,0.001 0.007,0.006 0.014,0.013c0.008,0.007 0.016,0.016 0.025,0.026c0.01,0.011 0.019,0.022 0.027,0.033c0.008,0.011 0.014,0.022 0.018,0.031Zm-0.351,-0.232c0.018,-0.003 0.04,-0.005 0.065,-0.008c0.026,-0.002 0.055,-0.003 0.088,-0.003c0.018,0 0.034,0 0.047,0.001c0.013,0 0.022,0.001 0.027,0.001c0,-0.008 -0.001,-0.017 -0.003,-0.027c-0.003,-0.013 -0.009,-0.026 -0.017,-0.038c-0.009,-0.012 -0.02,-0.022 -0.034,-0.029c-0.013,-0.008 -0.03,-0.012 -0.049,-0.012c-0.024,0 -0.045,0.005 -0.064,0.015c-0.018,0.01 -0.032,0.024 -0.043,0.042c-0.01,0.017 -0.016,0.037 -0.017,0.059Z" style="fill:#41241c;fill-rule:nonzero;"/></g></g><path d="M5429.12,2635.11c143.579,251.943 414.714,421.998 725.254,421.998c460.4,-0 834.187,-373.787 834.187,-834.187c-0,-460.401 -373.787,-834.187 -834.187,-834.187c-5.801,-0 -11.588,0.059 -17.317,0.177c11.203,30.457 17.317,63.35 17.317,97.659c-0,57.397 -17.111,110.829 -46.503,155.464c76.232,50.771 126.504,137.503 126.504,235.883c-0,140.538 -102.586,257.304 -236.893,279.435c0.016,1.247 0.025,2.511 0.025,3.777c-0,156.309 -126.903,283.212 -283.212,283.212c-20.117,-0 -39.747,-2.102 -58.684,-6.099c-31.263,102.193 -118.845,179.902 -226.491,196.868Z" style="fill:#41241c;"/><circle cx="5634.94" cy="1724.82" r="151.904" style="fill:#41241c;"/><circle cx="5099.41" cy="1572.91" r="151.904" style="fill:#41241c;"/><circle cx="5403.22" cy="2216.58" r="151.904" style="fill:#41241c;"/><path d="M12854.6,2791.25c0,-0 -5.921,27.048 -20.741,52.708c-7.551,13.072 -17.066,26.747 -31.407,32.41c-10.112,3.993 -22.233,2.229 -37.092,-5.08c-24.459,-12.032 -52.456,-36.692 -85.863,-77.726c-34.829,-42.781 -83.998,-90.695 -135.525,-115.464c-41.869,-20.126 -85.426,-25.648 -126.419,-9.436c-57.783,22.853 -117.459,96.876 -148.323,271.71c-3.997,22.646 11.143,44.278 33.789,48.275c22.646,3.998 44.278,-11.142 48.276,-33.788c12.427,-70.397 28.654,-121.449 48.064,-157.058c15.02,-27.553 30.839,-44.526 48.842,-51.646c25.707,-10.167 52.676,1.23 78.292,17.465c33.874,21.469 64.91,53.727 88.379,82.554c95.976,117.889 170.365,126.586 218.186,107.703c31.745,-12.535 56.249,-39.303 72.963,-68.241c21.566,-37.341 30.028,-76.762 30.028,-76.762c4.863,-22.477 -9.436,-44.673 -31.913,-49.536c-22.476,-4.864 -44.672,9.435 -49.536,31.912l0,-0Z" style="fill:#41241c;"/><path d="M9290.47,2808.87c-4.863,-22.477 9.436,-44.673 31.913,-49.536c22.476,-4.864 44.672,9.435 49.536,31.912c-0,-0 5.921,27.048 20.741,52.708c7.551,13.072 17.066,26.747 31.407,32.41c10.112,3.993 22.233,2.229 37.092,-5.08c24.459,-12.032 52.456,-36.692 85.863,-77.726c34.829,-42.781 83.998,-90.695 135.525,-115.464c41.869,-20.126 85.426,-25.648 126.419,-9.436c57.783,22.853 117.459,96.876 148.323,271.71c3.997,22.646 -11.143,44.278 -33.789,48.275c-22.646,3.998 -44.278,-11.142 -48.276,-33.788c-12.427,-70.397 -28.654,-121.449 -48.064,-157.058c-15.02,-27.553 -30.839,-44.526 -48.842,-51.646c-25.707,-10.167 -52.676,1.23 -78.292,17.465c-33.874,21.469 -64.91,53.727 -88.379,82.554c-95.976,117.889 -170.365,126.586 -218.186,107.703c-31.745,-12.535 -56.249,-39.303 -72.963,-68.241c-21.562,-37.333 -30.024,-76.747 -30.028,-76.762Zm0,-0c0,-0 0,-0 0,-0l0,-0Z" style="fill:#41241c;"/><rect x="2674.47" y="2287.12" width="139.549" height="139.549" style="fill:#41241c;stroke:#41241c;stroke-width:41.67px;"/><circle cx="15687.3" cy="2222.92" r="650.46" style="fill:#41241c;stroke:#41241c;stroke-width:41.67px;"/><circle cx="16765" cy="2222.92" r="263.694" style="fill:#41241c;stroke:#41241c;stroke-width:41.67px;"/><circle cx="17361.6" cy="2222.92" r="115.513" style="fill:#41241c;stroke:#41241c;stroke-width:41.67px;"/><rect x="19703.2" y="2306" width="329.307" height="329.307" style="fill:#41241c;stroke:#41241c;stroke-width:41.67px;"/><rect x="20334.1" y="1810.53" width="164.653" height="164.653" style="fill:#41241c;stroke:#41241c;stroke-width:41.67px;"/><rect x="20237" y="2436.48" width="164.653" height="164.653" style="fill:#41241c;stroke:#41241c;stroke-width:41.67px;"/><path d="M20197.2,2092.42l104.165,0l-0,164.654l-164.654,-0l0,-117.24l-268.818,-0l0,-329.307l329.307,0l-0,281.893Z" style="fill:#41241c;stroke:#41241c;stroke-width:41.67px;"/><path d="M19442.1,2098.32l-0,-173.506l329.306,0l0,329.307l-214.804,-0l-0,173.506l-329.307,-0l0,-329.307l214.805,0Z" style="fill:#41241c;stroke:#41241c;stroke-width:41.67px;"/></svg>