<?xml version="1.0" encoding="UTF-8" standalone="no"?><!DOCTYPE svg PUBLIC "-//W3C//DTD SVG 1.1//EN" "http://www.w3.org/Graphics/SVG/1.1/DTD/svg11.dtd"><svg width="5334px" height="1067px" version="1.1" xmlns="http://www.w3.org/2000/svg" xmlns:xlink="http://www.w3.org/1999/xlink" xml:space="preserve" xmlns:serif="http://www.serif.com/" style="fill-rule:evenodd;clip-rule:evenodd;stroke-linejoin:round;stroke-miterlimit:2;"><g><path d="M3727.1,717.261c-4.516,6.671 -13.597,12.086 -20.268,12.086l-54.382,-0c-6.67,-0 -8.419,-5.415 -3.903,-12.086l16.364,-24.171c4.516,-6.67 13.598,-12.085 20.268,-12.085l54.382,-0c6.67,-0 8.419,5.415 3.903,12.085l-16.364,24.171Z" style="fill:#41241c;"/><path d="M3294.77,418.96c1.522,-2.713 1.048,-4.916 -1.057,-4.916l-17.164,-0c-2.105,-0 -5.05,2.203 -6.572,4.916l-5.515,9.834c-1.522,2.713 -1.049,4.917 1.057,4.917l17.164,-0c2.105,-0 5.05,-2.204 6.572,-4.917l5.515,-9.834Z" style="fill:#41241c;"/><g><path d="M2063.31,397.649c1.344,-4.763 3.511,-12.365 6.503,-22.807c2.993,-10.442 6.473,-22.594 10.442,-36.455c3.97,-13.862 8.213,-28.456 12.732,-43.783c4.519,-15.327 8.916,-30.379 13.19,-45.157c4.274,-14.777 8.213,-28.242 11.816,-40.394c3.603,-12.151 6.503,-22.044 8.702,-29.677c2.198,-7.633 3.419,-11.815 3.663,-12.548c6.595,-0.489 14.93,-1.038 25.006,-1.649c10.076,-0.611 20.701,-1.13 31.875,-1.557c11.175,-0.428 21.648,-0.641 31.418,-0.641c18.807,-0 33.951,3.572 45.431,10.716c11.48,7.145 17.22,18.411 17.22,33.799c0,10.503 -2.747,20.09 -8.243,28.761c-5.496,8.672 -12.702,15.847 -21.617,21.526c-8.915,5.678 -18.38,9.373 -28.395,11.083l1.741,-0c0.671,-0 1.557,0.061 2.656,0.183c8.793,0.61 16.365,2.809 22.716,6.595c6.35,3.786 11.236,8.885 14.655,15.296c3.42,6.412 5.13,14.075 5.13,22.991c-0,16.243 -4.244,29.952 -12.732,41.126c-8.488,11.175 -20.06,20.213 -34.715,27.113c-14.656,6.9 -31.387,11.907 -50.195,15.021c-18.807,3.115 -38.409,4.672 -58.804,4.672c-9.893,-0 -19.266,-0.336 -28.12,-1.008c-8.855,-0.671 -16.213,-1.74 -22.075,-3.206Zm82.986,-56.972l9.343,-0c5.74,-0 11.663,-0.397 17.769,-1.191c6.107,-0.794 11.847,-2.198 17.22,-4.213c5.374,-2.015 9.74,-4.763 13.099,-8.244c3.358,-3.481 5.037,-7.908 5.037,-13.281c0,-4.275 -2.076,-7.633 -6.228,-10.076c-4.152,-2.442 -11.969,-3.664 -23.449,-3.664c-2.076,0 -4.396,0.031 -6.961,0.092c-2.565,0.061 -5.251,0.183 -8.06,0.366c-2.809,0.183 -5.679,0.458 -8.61,0.825l-9.16,39.386Zm22.166,-91.413c4.153,0 7.633,-0.091 10.442,-0.275c2.809,-0.183 5.435,-0.519 7.877,-1.007c5.374,-0.489 10.778,-1.618 16.213,-3.389c5.435,-1.771 9.984,-4.336 13.648,-7.694c3.664,-3.359 5.495,-7.664 5.495,-12.915c0,-4.641 -1.709,-8.152 -5.129,-10.534c-3.42,-2.381 -7.816,-3.572 -13.19,-3.572c-3.786,-0 -8.152,0.244 -13.098,0.733c-4.946,0.488 -9.373,0.977 -13.281,1.465l-8.977,37.188Z" style="fill:#41241c;fill-rule:nonzero;"/><path d="M2340.11,406.076c-5.374,0 -11.694,-0.061 -18.96,-0.183c-7.267,-0.122 -14.595,-0.366 -21.983,-0.733c-7.389,-0.366 -14.015,-0.977 -19.877,-1.832c1.466,-5.617 3.206,-12.609 5.221,-20.975c2.015,-8.366 4.275,-17.495 6.778,-27.387c2.504,-9.893 5.069,-20.029 7.694,-30.41c2.626,-10.381 5.221,-20.456 7.786,-30.227c5.496,-20.151 11.388,-41.432 17.678,-63.842c6.29,-22.411 12.915,-45.462 19.876,-69.155c2.321,-0.122 6.046,-0.244 11.175,-0.366c5.129,-0.122 10.931,-0.275 17.403,-0.458c6.473,-0.184 12.702,-0.336 18.686,-0.458c5.984,-0.122 11.052,-0.184 15.205,-0.184c-2.687,12.458 -5.893,26.624 -9.618,42.501c-3.725,15.877 -7.694,32.272 -11.907,49.187c-4.214,16.915 -8.458,33.433 -12.732,49.553c-2.198,8.061 -4.427,16.213 -6.687,24.456c-2.259,8.244 -4.549,16.305 -6.869,24.182c-2.321,7.877 -4.58,15.327 -6.778,22.349c-2.199,7.023 -4.305,13.465 -6.32,19.327c-2.016,5.862 -3.939,10.747 -5.771,14.655Z" style="fill:#41241c;fill-rule:nonzero;"/><path d="M2475.86,405.344c-8.427,-0 -16.976,-0.733 -25.647,-2.199c-8.671,-1.465 -17.098,-3.816 -25.28,-7.053c-8.183,-3.236 -15.663,-7.572 -22.441,-13.006c-6.778,-5.435 -12.427,-12.183 -16.945,-20.243c1.099,-1.343 3.847,-4.03 8.243,-8.06c4.397,-4.031 9.465,-8.458 15.205,-13.282c5.74,-4.824 11.327,-9.282 16.762,-13.373c5.435,-4.091 9.801,-6.87 13.098,-8.335c3.176,4.885 6.443,9.434 9.801,13.648c3.359,4.213 7.022,7.908 10.992,11.083c3.969,3.175 8.335,5.648 13.098,7.419c4.763,1.771 10.014,2.656 15.754,2.656c5.862,0 11.236,-1.038 16.121,-3.114c4.885,-2.076 8.793,-4.946 11.724,-8.61c2.932,-3.664 4.397,-7.816 4.397,-12.457c0,-3.664 -0.824,-7.267 -2.473,-10.808c-1.649,-3.542 -4.61,-7.114 -8.885,-10.717c-4.274,-3.603 -10.503,-7.175 -18.685,-10.717c-11.725,-5.251 -22.197,-10.777 -31.418,-16.579c-9.22,-5.801 -16.487,-12.579 -21.8,-20.334c-5.312,-7.755 -7.968,-17.25 -7.968,-28.486c-0,-16.976 4.396,-31.234 13.189,-42.775c8.794,-11.542 20.487,-20.243 35.082,-26.105c14.594,-5.862 30.44,-8.793 47.538,-8.793c10.869,-0 21.8,0.824 32.791,2.473c10.992,1.648 21.25,4.702 30.776,9.159c9.526,4.458 17.465,10.9 23.815,19.327c-6.228,7.938 -13.525,15.968 -21.891,24.09c-8.366,8.121 -15.846,14.136 -22.441,18.044c-4.03,-5.129 -8.549,-9.495 -13.556,-13.098c-5.007,-3.603 -10.198,-6.381 -15.572,-8.335c-5.373,-1.954 -10.686,-2.931 -15.937,-2.931c-4.641,-0 -9.19,0.641 -13.648,1.923c-4.458,1.282 -8.091,3.359 -10.9,6.229c-2.809,2.87 -4.213,6.564 -4.213,11.083c-0,2.564 0.732,4.946 2.198,7.144c1.466,2.198 3.664,4.214 6.595,6.045c2.931,1.832 6.534,3.542 10.808,5.13c10.625,4.152 20.334,8.518 29.128,13.098c8.793,4.58 16.395,9.74 22.807,15.48c6.412,5.74 11.358,12.365 14.839,19.876c3.48,7.511 5.221,16.335 5.221,26.471c-0,14.411 -2.993,27.143 -8.977,38.196c-5.984,11.052 -14.136,20.334 -24.456,27.845c-10.32,7.511 -22.105,13.22 -35.356,17.128c-13.251,3.908 -27.082,5.863 -41.493,5.863Z" style="fill:#41241c;fill-rule:nonzero;"/><path d="M2786.74,365.957c-11.969,10.87 -26.044,20.029 -42.226,27.479c-16.182,7.45 -34.165,11.175 -53.95,11.175c-18.686,-0 -34.41,-3.969 -47.172,-11.908c-12.762,-7.938 -22.38,-18.624 -28.853,-32.058c-6.472,-13.434 -9.709,-28.395 -9.709,-44.882c0,-20.762 3.42,-40.547 10.259,-59.354c6.839,-18.808 16.457,-35.509 28.853,-50.103c12.396,-14.595 26.959,-26.075 43.691,-34.44c16.731,-8.366 34.989,-12.549 54.774,-12.549c12.213,-0 23.846,1.679 34.898,5.038c11.053,3.358 20.64,8.457 28.761,15.296c8.122,6.839 13.831,15.51 17.129,26.013c-4.885,4.031 -10.9,8.58 -18.045,13.648c-7.144,5.069 -14.319,9.862 -21.525,14.381c-7.205,4.519 -13.434,8.182 -18.685,10.991c-0,-1.099 -0.55,-3.144 -1.649,-6.137c-1.099,-2.992 -2.778,-6.198 -5.038,-9.617c-2.259,-3.42 -5.373,-6.351 -9.342,-8.793c-3.97,-2.443 -8.824,-3.664 -14.564,-3.664c-8.427,-0 -16.121,2.503 -23.082,7.511c-6.962,5.007 -12.915,11.663 -17.862,19.968c-4.946,8.304 -8.762,17.433 -11.449,27.387c-2.687,9.953 -4.03,19.815 -4.03,29.585c-0,10.87 1.862,19.785 5.587,26.746c3.725,6.961 9.984,10.442 18.777,10.442c5.496,0 11.083,-1.007 16.762,-3.023c5.679,-2.015 11.389,-4.793 17.129,-8.335c5.74,-3.541 11.297,-7.633 16.67,-12.274c4.03,3.42 8.366,8.244 13.007,14.473c4.641,6.228 8.885,12.67 12.732,19.326c3.847,6.656 6.564,12.549 8.152,17.678Z" style="fill:#41241c;fill-rule:nonzero;"/><path d="M2893.72,407.542c-25.403,-0 -43.386,-6.198 -53.95,-18.594c-10.564,-12.396 -15.846,-30.257 -15.846,-53.584c-0,-15.266 1.709,-32.242 5.129,-50.927c3.42,-18.686 7.999,-39.203 13.739,-61.553c2.687,-10.38 5.588,-21.067 8.702,-32.058c3.114,-10.992 6.381,-22.288 9.801,-33.891c5.74,-0.488 11.663,-0.946 17.769,-1.374c6.107,-0.427 11.786,-0.641 17.037,-0.641c6.839,0 13.587,0.214 20.243,0.641c6.656,0.428 12.671,0.947 18.044,1.558c-3.053,8.793 -6.473,18.899 -10.259,30.318c-3.785,11.419 -7.388,23.113 -10.808,35.081c-3.175,11.236 -6.137,22.258 -8.885,33.066c-2.748,10.809 -4.976,20.609 -6.686,29.403c-1.71,8.793 -2.565,15.815 -2.565,21.067c0,14.655 5.557,21.983 16.671,21.983c10.869,-0 19.51,-5.282 25.921,-15.847c6.412,-10.564 11.816,-24.028 16.213,-40.393c1.221,-4.763 2.809,-11.083 4.763,-18.961c1.954,-7.877 4.06,-16.487 6.32,-25.83c2.259,-9.342 4.458,-18.563 6.595,-27.662c2.137,-9.098 3.969,-17.22 5.496,-24.364c1.526,-7.145 2.473,-12.488 2.839,-16.029c5.496,-0 11.785,0.213 18.869,0.641c7.083,0.427 14.106,0.916 21.067,1.465c6.961,0.55 12.945,1.13 17.953,1.741c5.007,0.61 8.121,1.099 9.342,1.465c-0.732,6.351 -1.74,13.129 -3.022,20.334c-1.283,7.206 -2.748,14.625 -4.397,22.258c-1.649,7.633 -3.572,15.358 -5.77,23.174c-6.595,24.548 -13.77,47.538 -21.525,68.972c-7.756,21.433 -16.854,40.302 -27.296,56.606c-10.442,16.304 -23.082,29.036 -37.921,38.195c-14.838,9.16 -32.699,13.74 -53.583,13.74Z" style="fill:#41241c;fill-rule:nonzero;"/><path d="M3082.04,406.076c-5.374,0 -11.694,-0.061 -18.961,-0.183c-7.266,-0.122 -14.594,-0.366 -21.983,-0.733c-7.388,-0.366 -14.014,-0.977 -19.876,-1.832c1.466,-5.617 3.206,-12.609 5.221,-20.975c2.015,-8.366 4.275,-17.495 6.778,-27.387c2.504,-9.893 5.069,-20.029 7.694,-30.41c2.626,-10.381 5.221,-20.456 7.786,-30.227c5.496,-20.151 11.388,-41.432 17.678,-63.842c6.29,-22.411 12.915,-45.462 19.876,-69.155c2.321,-0.122 6.046,-0.244 11.175,-0.366c5.129,-0.122 10.93,-0.275 17.403,-0.458c6.473,-0.184 12.701,-0.336 18.686,-0.458c5.984,-0.122 11.052,-0.184 15.205,-0.184c-2.687,12.458 -5.893,26.624 -9.618,42.501c-3.725,15.877 -7.694,32.272 -11.907,49.187c-4.214,16.915 -8.458,33.433 -12.732,49.553c-2.199,8.061 -4.427,16.213 -6.687,24.456c-2.259,8.244 -4.549,16.305 -6.869,24.182c-2.321,7.877 -4.58,15.327 -6.779,22.349c-2.198,7.023 -4.305,13.465 -6.32,19.327c-2.015,5.862 -3.938,10.747 -5.77,14.655Z" style="fill:#41241c;fill-rule:nonzero;"/><path d="M3166.49,218.671c0.245,-2.931 0.855,-7.175 1.832,-12.732c0.977,-5.557 2.076,-11.419 3.298,-17.586c1.221,-6.168 2.381,-11.694 3.48,-16.579c1.099,-4.885 1.893,-8.122 2.382,-9.709c14.044,-1.099 29.83,-2.015 47.355,-2.748c17.525,-0.733 35.203,-1.099 53.034,-1.099c13.678,-0 26.899,0.275 39.661,0.824c12.762,0.55 24.334,1.618 34.715,3.206c-3.053,11.48 -6.29,22.136 -9.709,31.967c-3.42,9.831 -6.412,17.128 -8.977,21.891c-2.32,0 -5.496,-0.03 -9.526,-0.091l-27.57,-0.367c-4.58,-0.061 -8.58,-0.152 -11.999,-0.274c-1.099,4.518 -2.595,11.052 -4.488,19.601c-1.893,8.549 -4.031,18.319 -6.412,29.311c-2.382,10.991 -4.916,22.471 -7.603,34.44c-2.686,11.968 -5.282,23.693 -7.785,35.173c-2.504,11.48 -4.763,22.013 -6.778,31.6c-2.015,9.587 -3.695,17.465 -5.038,23.632c-1.344,6.168 -2.137,9.862 -2.382,11.083c-5.862,0.855 -13.25,1.649 -22.166,2.382c-8.915,0.732 -17.769,1.282 -26.563,1.648c-8.793,0.367 -15.937,0.55 -21.433,0.55c1.588,-7.083 3.511,-15.541 5.77,-25.372c2.26,-9.831 4.763,-20.426 7.511,-31.784c2.748,-11.358 5.588,-22.96 8.519,-34.806c2.931,-11.847 5.862,-23.479 8.793,-34.898c2.931,-11.419 5.74,-22.014 8.427,-31.784c1.587,-5.74 3.053,-11.083 4.396,-16.029c1.344,-4.947 2.626,-9.435 3.847,-13.465c-4.152,0.366 -8.487,0.641 -13.006,0.824c-4.519,0.184 -9.099,0.367 -13.74,0.55c-4.64,0.183 -9.342,0.305 -14.105,0.366c-4.763,0.061 -9.343,0.153 -13.74,0.275Z" style="fill:#41241c;fill-rule:nonzero;"/><path d="M1868.18,868.888c1.983,-5.948 5.177,-15.442 9.583,-28.483c4.406,-13.04 9.532,-28.215 15.377,-45.526c5.845,-17.311 12.081,-35.536 18.706,-54.677c6.626,-19.141 13.081,-37.939 19.367,-56.393c6.285,-18.455 12.067,-35.27 17.345,-50.445c5.278,-15.176 9.535,-27.53 12.769,-37.062c3.235,-9.532 5.028,-14.756 5.38,-15.671c8.267,-0.61 18.712,-1.296 31.333,-2.059c12.622,-0.762 25.925,-1.411 39.907,-1.944c13.983,-0.534 27.075,-0.801 39.276,-0.801c23.488,-0 42.171,4.461 56.05,13.383c13.878,8.922 20.324,22.992 19.338,42.209c-0.673,13.117 -4.719,25.089 -12.138,35.918c-7.42,10.829 -16.878,19.789 -28.376,26.881c-11.497,7.092 -23.554,11.706 -36.17,13.841l2.173,-0c0.839,-0 1.941,0.076 3.306,0.229c10.942,0.762 20.257,3.508 27.945,8.236c7.688,4.728 13.462,11.095 17.321,19.102c3.86,8.007 5.504,17.578 4.933,28.712c-1.042,20.284 -7.22,37.404 -18.537,51.36c-11.316,13.955 -26.346,25.241 -45.09,33.858c-18.745,8.618 -39.96,14.871 -63.648,18.76c-23.687,3.889 -48.266,5.834 -73.736,5.834c-12.354,-0 -24.038,-0.42 -35.052,-1.259c-11.015,-0.838 -20.135,-2.173 -27.362,-4.003Zm107.287,-71.149l11.667,-0c7.169,-0 14.591,-0.496 22.268,-1.487c7.677,-0.992 14.935,-2.746 21.775,-5.262c6.84,-2.517 12.468,-5.948 16.886,-10.295c4.417,-4.347 6.798,-9.875 7.142,-16.586c0.274,-5.338 -2.103,-9.532 -7.132,-12.583c-5.029,-3.05 -14.712,-4.575 -29.049,-4.575c-2.592,-0 -5.492,0.038 -8.699,0.114c-3.207,0.076 -6.57,0.229 -10.09,0.458c-3.519,0.228 -7.121,0.572 -10.805,1.029l-13.963,49.187Zm33.541,-114.159c5.186,-0 9.538,-0.114 13.058,-0.343c3.52,-0.229 6.82,-0.648 9.902,-1.258c6.742,-0.611 13.563,-2.021 20.464,-4.233c6.9,-2.211 12.746,-5.414 17.537,-9.608c4.79,-4.195 7.354,-9.571 7.691,-16.129c0.297,-5.796 -1.613,-10.181 -5.731,-13.155c-4.118,-2.974 -9.532,-4.461 -16.243,-4.461c-4.728,0 -10.196,0.305 -16.404,0.915c-6.208,0.61 -11.768,1.22 -16.68,1.831l-13.594,46.441Z" style="fill:#41241c;fill-rule:nonzero;"/><path d="M2186.85,878.039c-3.965,-0 -9.678,-0.114 -17.14,-0.343c-7.462,-0.229 -15.569,-0.496 -24.324,-0.801c-8.754,-0.305 -17.205,-0.572 -25.352,-0.801c-8.148,-0.228 -14.884,-0.495 -20.206,-0.8c4.932,-9.914 11.285,-22.268 19.06,-37.062c7.776,-14.794 16.466,-31.075 26.071,-48.843c9.606,-17.769 19.744,-36.261 30.415,-55.478c10.672,-19.218 21.375,-38.32 32.111,-57.309c10.735,-18.988 21.085,-37.138 31.048,-54.448c9.963,-17.311 19.106,-32.753 27.429,-46.327c12.127,-1.525 23.785,-2.822 34.973,-3.889c11.189,-1.068 21.906,-1.869 32.152,-2.403c10.246,-0.533 20.173,-0.8 29.782,-0.8c8.846,-0 17.488,0.267 25.925,0.8c8.437,0.534 16.746,1.335 24.928,2.403c-1.299,13.421 -3.07,28.597 -5.311,45.526c-2.242,16.929 -5.485,37.023 -9.729,60.282c-4.244,23.259 -9.853,50.826 -16.827,82.702c-6.975,31.876 -15.691,69.472 -26.151,112.787c-5.682,0.762 -13.881,1.525 -24.596,2.287c-10.715,0.763 -21.918,1.373 -33.609,1.831c-11.691,0.457 -21.96,0.686 -30.806,0.686c0.982,-4.271 2.216,-8.999 3.702,-14.184c1.486,-5.186 2.985,-10.6 4.494,-16.243c1.51,-5.643 3.138,-11.363 4.885,-17.158c1.746,-5.796 3.49,-11.553 5.233,-17.273c1.742,-5.719 3.433,-11.172 5.072,-16.357c-4.889,0.152 -9.931,0.343 -15.129,0.572c-5.197,0.228 -10.356,0.457 -15.477,0.686c-5.121,0.229 -9.903,0.534 -14.346,0.915c-4.442,0.381 -8.391,0.801 -11.846,1.258c-3.455,0.458 -6.106,0.839 -7.952,1.144c-5.213,9.456 -10.314,18.95 -15.303,28.483c-4.988,9.532 -9.452,18.492 -13.39,26.881c-3.938,8.388 -7.2,15.48 -9.786,21.276Zm71.667,-148.246c2.929,-0.611 7.801,-1.182 14.615,-1.716c6.814,-0.534 13.854,-0.992 21.118,-1.373c7.264,-0.381 12.879,-0.572 16.844,-0.572c0.599,-2.745 2.106,-8.35 4.524,-16.815c2.417,-8.465 5.028,-17.73 7.832,-27.796c2.804,-10.066 5.293,-19.179 7.466,-27.339c2.173,-8.159 3.55,-13.459 4.133,-15.9c-2.135,0 -5.42,0.115 -9.855,0.344c-4.435,0.228 -8.757,0.495 -12.967,0.8c-4.21,0.305 -7.157,0.534 -8.843,0.687c-2.522,4.575 -5.779,10.828 -9.771,18.759c-3.991,7.931 -8.238,16.396 -12.742,25.394c-4.503,8.999 -8.716,17.54 -12.639,25.623c-3.923,8.083 -7.161,14.718 -9.715,19.904Z" style="fill:#41241c;fill-rule:nonzero;"/><path d="M2502.77,878.496c-10.524,0 -21.153,-0.915 -31.888,-2.745c-10.735,-1.83 -21.108,-4.766 -31.119,-8.808c-10.011,-4.041 -19.075,-9.456 -27.191,-16.243c-8.116,-6.787 -14.738,-15.213 -19.864,-25.279c1.458,-1.678 5.062,-5.033 10.811,-10.066c5.749,-5.034 12.362,-10.562 19.84,-16.587c7.477,-6.024 14.741,-11.591 21.79,-16.7c7.049,-5.11 12.68,-8.579 16.892,-10.41c3.652,6.101 7.44,11.782 11.364,17.044c3.925,5.262 8.263,9.876 13.017,13.841c4.753,3.966 10.047,7.054 15.881,9.265c5.835,2.212 12.337,3.318 19.505,3.318c7.321,-0 14.098,-1.297 20.332,-3.889c6.233,-2.593 11.298,-6.177 15.193,-10.753c3.895,-4.575 5.992,-9.761 6.289,-15.557c0.235,-4.575 -0.563,-9.074 -2.395,-13.497c-1.832,-4.423 -5.302,-8.884 -10.409,-13.384c-5.107,-4.499 -12.657,-8.96 -22.648,-13.383c-14.305,-6.558 -27.029,-13.46 -38.172,-20.704c-11.144,-7.245 -19.784,-15.709 -25.921,-25.394c-6.138,-9.685 -8.846,-21.543 -8.126,-35.575c1.088,-21.2 7.493,-39.006 19.214,-53.419c11.721,-14.413 26.882,-25.28 45.483,-32.6c18.602,-7.321 38.579,-10.982 59.931,-10.982c13.574,0 27.172,1.03 40.792,3.089c13.621,2.059 26.237,5.872 37.848,11.439c11.61,5.567 21.111,13.612 28.502,24.135c-8.288,9.914 -17.915,19.942 -28.883,30.084c-10.968,10.143 -20.695,17.654 -29.182,22.535c-4.704,-6.406 -10.067,-11.858 -16.09,-16.358c-6.022,-4.499 -12.326,-7.969 -18.911,-10.409c-6.586,-2.44 -13.158,-3.66 -19.716,-3.66c-5.795,-0 -11.518,0.8 -17.167,2.402c-5.649,1.601 -10.319,4.194 -14.011,7.778c-3.692,3.584 -5.683,8.198 -5.972,13.841c-0.165,3.203 0.598,6.177 2.287,8.922c1.689,2.746 4.305,5.262 7.848,7.55c3.543,2.288 7.933,4.423 13.169,6.406c13.003,5.185 24.848,10.638 35.536,16.357c10.688,5.719 19.851,12.163 27.49,19.332c7.639,7.168 13.392,15.442 17.257,24.822c3.865,9.379 5.473,20.399 4.823,33.058c-0.924,17.997 -5.476,33.897 -13.658,47.699c-8.182,13.803 -18.957,25.394 -32.326,34.774c-13.37,9.38 -28.453,16.51 -45.252,21.391c-16.799,4.88 -34.196,7.32 -52.193,7.32Z" style="fill:#41241c;fill-rule:nonzero;"/><path d="M2657.89,873.692c1.134,-6.558 3.258,-16.472 6.372,-29.741c3.113,-13.269 6.943,-28.596 11.491,-45.983c4.547,-17.387 9.394,-35.727 14.539,-55.021c5.145,-19.293 10.361,-38.434 15.649,-57.422c5.287,-18.989 10.337,-36.566 15.149,-52.733c3.255,-10.676 6.327,-20.437 9.216,-29.283c2.889,-8.846 5.424,-16.243 7.606,-22.192c1.531,-0.152 5.505,-0.419 11.923,-0.8c6.419,-0.382 13.827,-0.725 22.226,-1.03c8.399,-0.305 16.645,-0.61 24.738,-0.915c8.094,-0.305 14.734,-0.457 19.919,-0.457c-1.45,6.863 -3.574,15.633 -6.371,26.309c-2.798,10.676 -5.334,20.361 -7.607,29.054c-2.066,7.016 -4.185,14.527 -6.36,22.535c-2.174,8.007 -4.176,15.404 -6.005,22.191c-1.828,6.787 -3.18,11.858 -4.055,15.213c3.518,-0.305 7.074,-0.61 10.669,-0.915c3.594,-0.305 7.224,-0.534 10.889,-0.686l20.735,-0.915c3.132,-0.153 5.994,-0.229 8.587,-0.229c3.723,-10.981 7.747,-22.992 12.073,-36.032c4.326,-13.04 8.736,-26.309 13.229,-39.807c4.494,-13.498 8.622,-26.347 12.386,-38.549c3.213,-0.305 7.645,-0.572 13.296,-0.8c5.651,-0.229 11.222,-0.344 16.712,-0.344c10.524,0 20.811,0.229 30.862,0.687c10.051,0.457 17.43,0.991 22.137,1.601c-1.642,3.508 -3.966,9.151 -6.972,16.93c-3.006,7.778 -6.444,17.081 -10.314,27.91c-3.871,10.829 -8.079,22.649 -12.626,35.46c-4.547,12.812 -9.188,26.157 -13.923,40.036c-4.735,13.879 -9.473,27.834 -14.213,41.866c-6.088,17.844 -11.931,35.193 -17.528,52.046c-5.598,16.853 -10.573,32.219 -14.927,46.098c-4.354,13.88 -7.978,25.318 -10.872,34.317c-3.823,0.305 -9.783,0.648 -17.879,1.029c-8.096,0.382 -17.18,0.648 -27.251,0.801c-10.071,0.152 -19.987,0.229 -29.748,0.229c4.166,-15.099 8.138,-28.978 11.917,-41.637c3.78,-12.659 7.425,-24.746 10.937,-36.261c3.512,-11.515 7.138,-22.992 10.876,-34.431l-29.077,0.686l-17.845,0c-2.457,9.609 -5.215,20.247 -8.275,31.915c-3.059,11.667 -6.03,22.953 -8.912,33.858c-2.881,10.905 -5.365,20.171 -7.45,27.797c-2.086,7.625 -3.386,12.277 -3.899,13.955c-4.139,0.61 -9.913,1.106 -17.323,1.487c-7.409,0.381 -15.315,0.762 -23.716,1.144c-8.401,0.381 -16.303,0.648 -23.705,0.8c-7.402,0.153 -13.162,0.229 -17.28,0.229Z" style="fill:#41241c;fill-rule:nonzero;"/></g><path d="M3161.04,444.649c4.564,0 8.581,3.008 9.866,7.387c4.49,15.305 14.703,50.112 18.454,62.898c0.894,3.046 0.331,6.333 -1.526,8.908c-4.45,6.172 -12.379,17.169 -12.379,17.169c-4.8,6.657 -12.49,10.622 -20.697,10.671c-120.064,0.714 -1051.19,7.247 -1194.15,8.097c-11.225,0.066 -21.108,7.409 -24.413,18.136c-10.758,34.922 -34.331,111.439 -45.116,146.448c-3.321,10.779 -13.281,18.135 -24.561,18.137c-51.032,0.008 -101.119,0.026 -125.692,0.06c-4.176,0 -8.609,1.77 -12.193,4.884c-3.726,3.115 -6.175,7.291 -6.836,11.396c-11.329,73.615 36.028,130.878 111.696,130.878c1.521,0 764.457,-0.023 1171.68,-0.071c3.86,-0 7.395,2.161 9.154,5.597c1.759,3.436 1.445,7.568 -0.812,10.698c-8.648,11.995 -20.159,27.96 -27.661,38.365c-4.832,6.701 -12.589,10.672 -20.851,10.672c-120.606,-0 -1150.61,0.001 -1150.61,0.001c-151.617,0 -303.163,0 -235.266,-256.73l58.874,-222.613c2.097,-7.927 7.214,-15.501 14.285,-21.093c7.089,-5.663 15.487,-8.777 23.414,-8.777c0,0 1370.97,-1.118 1485.35,-1.118Zm-1321.29,134.473c-12.722,36.595 -50.777,65.404 -87.868,65.404c-37.019,-0 -59.837,-28.809 -53.061,-65.404c0.686,-3.397 -1.452,-6.016 -4.85,-6.016c-1.628,-0 -3.397,-0 -5.115,0.07c-1.699,0 -3.514,0.708 -5.054,1.982c-1.522,1.204 -2.608,2.902 -2.987,4.601c-8.624,45.726 20.051,81.825 66.556,81.825c46.646,0 94.345,-36.099 109.959,-81.754c0.609,-1.77 0.421,-3.468 -0.426,-4.813c-0.867,-1.274 -2.397,-1.911 -4.167,-1.911c-1.698,-0 -3.468,-0 -5.115,0.07c-3.326,0 -6.761,2.549 -7.872,5.946Zm144.642,-198.758c3.211,0 6.237,1.5 8.182,4.055c1.944,2.554 2.584,5.871 1.729,8.965c-2.849,10.31 -6.728,24.348 -9.084,32.878c-1.232,4.456 -5.287,7.543 -9.911,7.543c-49.615,0 -318.323,0 -318.323,0c-14.723,0 -23.54,-11.891 -19.628,-26.685l0.019,-0.071c3.894,-14.723 19.02,-26.685 33.742,-26.685l313.274,0Zm58.012,-260.481c6.529,-0 12.683,3.049 16.638,8.245c3.954,5.195 5.255,11.939 3.516,18.232c-0.092,0.331 -0.306,1.082 -0.63,2.212l-56.444,204.348c-2.505,9.064 -10.751,15.34 -20.154,15.34c-38.427,0 -133.131,0 -133.131,0c-1.982,0 -3.687,-0.778 -4.677,-2.123c-1.041,-1.416 -1.295,-3.398 -0.79,-5.309l57.47,-217.304c3.445,-13.024 16.8,-23.641 29.894,-23.641l108.308,-0Zm-208.13,240.945c-1.086,4.106 -5.292,7.432 -9.398,7.432l-34.542,0c-8.281,0 -13.175,-6.653 -10.985,-14.935l4.362,-16.492c0.524,-1.982 1.789,-3.823 3.579,-5.238c1.79,-1.416 3.907,-2.195 5.889,-2.195l47.779,0c0.354,0 0.812,0.142 1.001,0.496c0.261,0.354 0.29,0.779 0.178,1.204l-7.863,29.728Zm146.311,-27.039c5.521,0 8.853,4.53 7.392,10.051c-1.46,5.522 -7.188,10.052 -12.709,10.052c-5.521,-0 -8.853,-4.53 -7.393,-10.052c1.46,-5.521 7.189,-10.051 12.71,-10.051Zm-35.038,0c5.521,0 8.853,4.53 7.393,10.051c-1.46,5.522 -7.188,10.052 -12.709,10.052c-5.522,-0 -8.854,-4.53 -7.393,-10.052c1.46,-5.521 7.188,-10.051 12.709,-10.051Zm44.285,-34.967c5.521,0 8.872,4.459 7.393,10.051c-1.46,5.522 -7.188,10.052 -12.709,10.052c-5.521,-0 -8.853,-4.53 -7.393,-10.052c1.479,-5.592 7.188,-10.051 12.709,-10.051Zm-35.037,0c5.521,0 8.871,4.459 7.393,10.051c-1.461,5.522 -7.189,10.052 -12.71,10.052c-5.521,-0 -8.853,-4.53 -7.393,-10.052c1.479,-5.592 7.189,-10.051 12.71,-10.051Zm-149.388,-44.027c0.524,-1.982 1.808,-3.893 3.58,-5.238c1.79,-1.415 3.907,-2.194 5.889,-2.194l47.778,0c0.354,0 0.812,0.142 1.002,0.495c0.279,0.284 0.308,0.708 0.196,1.133l-17.541,66.324c-0.243,0.92 -1.209,1.628 -2.058,1.628l-47.779,-0c-1.982,-0 -3.687,-0.779 -4.728,-2.195c-1.06,-1.344 -1.334,-3.255 -0.809,-5.237l14.47,-54.716Zm158.655,8.99c5.521,-0 8.872,4.459 7.393,10.051c-1.479,5.592 -7.188,10.051 -12.709,10.051c-5.522,0 -8.872,-4.459 -7.393,-10.051c1.479,-5.592 7.188,-10.051 12.709,-10.051Zm35.038,-0c5.521,-0 8.871,4.459 7.393,10.051c-1.479,5.592 -7.189,10.051 -12.71,10.051c-5.521,0 -8.872,-4.459 -7.393,-10.051c1.479,-5.592 7.189,-10.051 12.71,-10.051Zm-25.771,-35.038c5.521,-0 8.852,4.53 7.392,10.051c-1.479,5.592 -7.207,10.122 -12.728,10.122c-5.521,0 -8.853,-4.53 -7.374,-10.122c1.46,-5.521 7.188,-10.051 12.71,-10.051Zm35.037,-0c5.521,-0 8.853,4.53 7.393,10.051c-1.479,5.592 -7.207,10.122 -12.728,10.122c-5.521,0 -8.853,-4.53 -7.374,-10.122c1.46,-5.521 7.188,-10.051 12.709,-10.051Zm-181.805,-53.937c0.524,-1.981 1.808,-3.893 3.598,-5.308c1.771,-1.345 3.907,-2.195 5.889,-2.195l41.974,0c1.911,0 3.598,0.85 4.658,2.195c1.041,1.415 1.314,3.327 0.79,5.308l-15.444,58.396c-0.243,0.921 -1.228,1.699 -2.077,1.699l-47.779,0c-1.981,0 -3.687,-0.778 -4.728,-2.194c-1.041,-1.416 -1.333,-3.256 -0.809,-5.238l13.928,-52.663Zm156.014,18.97c5.521,0 8.853,4.53 7.393,10.051c-1.46,5.522 -7.188,10.052 -12.709,10.052c-5.521,-0 -8.853,-4.53 -7.393,-10.052c1.46,-5.521 7.188,-10.051 12.709,-10.051Zm35.038,0c5.521,0 8.853,4.53 7.393,10.051c-1.461,5.522 -7.189,10.052 -12.71,10.052c-5.521,-0 -8.853,-4.53 -7.393,-10.052c1.461,-5.521 7.189,-10.051 12.71,-10.051Zm-25.771,-35.037c5.521,-0 8.853,4.53 7.392,10.051c-1.479,5.592 -7.188,10.051 -12.709,10.051c-5.521,0 -8.872,-4.459 -7.393,-10.051c1.46,-5.521 7.188,-10.051 12.71,-10.051Zm35.037,-0c5.521,-0 8.853,4.53 7.393,10.051c-1.479,5.592 -7.188,10.051 -12.709,10.051c-5.521,0 -8.872,-4.459 -7.393,-10.051c1.46,-5.521 7.188,-10.051 12.709,-10.051Zm-175.347,-78.357c0.786,-2.973 3.338,-5.663 6.327,-6.795c3.06,-1.133 6.077,-0.496 7.639,1.628c9.598,12.953 26.917,36.594 33.704,45.726c1.595,2.265 1.3,5.521 -0.723,8.352c-3.053,4.318 -5.388,9.131 -6.735,14.227l-1.03,3.893c-0.524,1.982 -1.808,3.893 -3.598,5.309c-1.79,1.416 -3.908,2.194 -5.819,2.194l-41.974,0c-1.982,0 -3.687,-0.778 -4.728,-2.194c-1.042,-1.416 -1.315,-3.327 -0.791,-5.309l17.728,-67.031Zm108.181,-29.8c1.982,0 3.687,0.779 4.747,2.124c1.041,1.415 1.314,3.327 0.79,5.308l-11.101,41.975c-0.524,1.982 -1.808,3.893 -3.579,5.238c-1.79,1.415 -3.907,2.194 -5.889,2.194l-7.291,-0c-6.512,-0 -13.067,1.769 -19.091,4.742c-3.352,1.699 -6.92,1.274 -8.69,-1.132c-7.431,-9.91 -25.757,-34.825 -34.797,-47.213c-1.496,-1.84 -1.473,-4.6 -0.073,-7.219c1.401,-2.619 3.978,-4.601 6.836,-5.238c2.538,-0.496 5.09,-0.779 7.709,-0.779l70.429,0Zm1544.71,0c3.86,0 7.395,2.162 9.153,5.598c1.759,3.435 1.445,7.567 -0.812,10.697c-6.919,9.597 -15.475,21.463 -21.538,29.872c-4.832,6.701 -12.59,10.672 -20.851,10.672c-142.862,-0 -1416.27,-0 -1416.27,-0c-1.981,-0 -3.687,-0.779 -4.657,-2.194c-1.06,-1.345 -1.334,-3.256 -0.809,-5.238l11.101,-41.975c0.524,-1.981 1.808,-3.893 3.598,-5.308c1.7,-1.345 3.818,-2.124 5.799,-2.124l1435.28,0Zm-1526.79,7.432c0.525,-1.981 1.809,-3.893 3.599,-5.308c1.771,-1.345 3.888,-2.124 5.87,-2.124l54.715,0c1.982,0 3.617,0.779 4.677,2.124c1.041,1.415 1.314,3.327 0.79,5.308l-11.101,41.975c-0.524,1.982 -1.808,3.893 -3.58,5.238c-1.79,1.415 -3.836,2.194 -5.818,2.194l-54.715,-0c-1.982,-0 -3.687,-0.779 -4.729,-2.194c-1.06,-1.345 -1.333,-3.256 -0.809,-5.238l11.101,-41.975Z" style="fill:#41241c;"/><path d="M3477.69,835.9l-121.942,121.942l-147.357,-502.242l502.241,147.358l-121.942,121.942l143.664,143.664l-111,111l-143.664,-143.664Zm184.124,-220.477l-415.511,-121.911l121.911,415.512l109.476,-109.477l143.664,143.664l74.648,-74.647l-143.665,-143.664l109.477,-109.477Z" style="fill:#41241c;"/><path d="M3477.69,850.631l-114.576,114.577c-2.601,2.6 -6.38,3.637 -9.943,2.727c-3.563,-0.91 -6.383,-3.632 -7.418,-7.161l-147.358,-502.241c-1.072,-3.655 -0.064,-7.605 2.63,-10.298c2.694,-2.694 6.643,-3.702 10.298,-2.63l502.242,147.357c3.529,1.036 6.25,3.855 7.16,7.419c0.91,3.563 -0.127,7.342 -2.727,9.942l-114.577,114.577l136.299,136.298c4.068,4.068 4.068,10.664 -0,14.732l-111,111c-4.068,4.068 -10.663,4.068 -14.731,-0l-136.299,-136.299Zm213.159,-242.622l-467.095,-137.045l137.046,467.095l109.525,-109.525c4.067,-4.068 10.663,-4.068 14.731,-0l136.298,136.298l96.269,-96.268l-136.299,-136.298c-4.068,-4.068 -4.068,-10.664 0,-14.732l109.525,-109.525Zm-213.159,206.27l-102.111,102.111c-2.6,2.6 -6.379,3.637 -9.943,2.727c-3.563,-0.91 -6.382,-3.632 -7.418,-7.16l-121.911,-415.512c-1.072,-3.655 -0.064,-7.605 2.63,-10.298c2.694,-2.694 6.643,-3.702 10.298,-2.63l415.512,121.911c3.529,1.035 6.25,3.855 7.16,7.418c0.91,3.563 -0.127,7.342 -2.727,9.943l-102.111,102.111l136.298,136.298c4.068,4.068 4.068,10.664 0,14.732l-74.647,74.647c-4.068,4.068 -10.663,4.068 -14.731,0l-136.299,-136.298Zm164.341,-193.804l-380.365,-111.599l111.599,380.365l97.06,-97.06c4.067,-4.067 10.663,-4.067 14.731,0l136.298,136.299l59.916,-59.916l-136.298,-136.298c-4.068,-4.068 -4.068,-10.664 -0,-14.732l97.059,-97.059Z" style="fill:#41241c;"/><path d="M3590.13,93.763c-4.516,6.67 -13.597,12.085 -20.268,12.085l-54.382,0c-6.67,0 -8.419,-5.415 -3.903,-12.085l16.364,-24.171c4.516,-6.671 13.598,-12.086 20.268,-12.086l54.382,-0c6.67,-0 8.419,5.415 3.903,12.086l-16.364,24.171Z" style="fill:#41241c;"/><path d="M3497.35,1011.82c-4.516,6.67 -13.598,12.086 -20.268,12.086l-54.382,-0c-6.67,-0 -8.419,-5.416 -3.903,-12.086l16.364,-24.171c4.516,-6.67 13.597,-12.086 20.268,-12.086l54.381,0c6.671,0 8.42,5.416 3.904,12.086l-16.364,24.171Z" style="fill:#41241c;"/><path d="M3099.69,931.745c2.787,-4.969 1.919,-9.003 -1.936,-9.003l-31.429,-0c-3.855,-0 -9.247,4.034 -12.034,9.003l-10.099,18.006c-2.787,4.969 -1.92,9.003 1.935,9.003l31.43,0c3.855,0 9.247,-4.034 12.034,-9.003l10.099,-18.006Z" style="fill:#41241c;"/><path d="M3147.94,837.332c3.883,-8.156 1.732,-14.778 -4.802,-14.778l-53.271,0c-6.534,0 -14.991,6.622 -18.875,14.778l-14.074,29.555c-3.883,8.155 -1.732,14.777 4.802,14.777l53.271,-0c6.534,-0 14.991,-6.622 18.875,-14.777l14.074,-29.555Z" style="fill:#41241c;"/><path d="M3629.99,359.595c5.458,-11.463 2.434,-20.769 -6.749,-20.769l-74.87,-0c-9.184,-0 -21.071,9.306 -26.529,20.769l-19.78,41.538c-5.459,11.463 -2.435,20.769 6.749,20.769l74.87,0c9.183,0 21.07,-9.306 26.529,-20.769l19.78,-41.538Z" style="fill:#41241c;"/><path d="M3940.43,264.841c5.459,-11.463 2.435,-20.769 -6.749,-20.769l-74.87,-0c-9.183,-0 -21.07,9.306 -26.529,20.769l-19.78,41.538c-5.458,11.463 -2.434,20.769 6.749,20.769l74.871,0c9.183,0 21.07,-9.306 26.528,-20.769l19.78,-41.538Z" style="fill:#41241c;"/><path d="M3883.77,433.821c3.467,-7.28 1.546,-13.191 -4.286,-13.191l-47.55,0c-5.832,0 -13.382,5.911 -16.848,13.191l-12.562,26.38c-3.467,7.28 -1.546,13.191 4.286,13.191l47.55,-0c5.832,-0 13.381,-5.911 16.848,-13.191l12.562,-26.38Z" style="fill:#41241c;"/><path d="M3883.77,789.448c3.467,-7.28 1.546,-13.191 -4.286,-13.191l-47.55,0c-5.832,0 -13.382,5.911 -16.848,13.191l-12.562,26.381c-3.467,7.28 -1.546,13.19 4.286,13.19l47.55,0c5.832,0 13.381,-5.91 16.848,-13.19l12.562,-26.381Z" style="fill:#41241c;"/><path d="M3939.67,633.397c2.292,-4.814 1.022,-8.722 -2.835,-8.722l-31.441,-0c-3.856,-0 -8.848,3.908 -11.14,8.722l-8.307,17.444c-2.292,4.813 -1.022,8.722 2.834,8.722l31.442,-0c3.856,-0 8.848,-3.909 11.14,-8.722l8.307,-17.444Z" style="fill:#41241c;"/><path d="M3033.7,819.643c2.967,-9.347 -0.594,-16.641 -7.947,-16.279l-56.961,-0.726c-7.353,0.363 -15.732,8.245 -18.699,17.592l-10.753,33.87c-2.967,9.347 0.594,16.641 7.947,16.278l56.961,0.726c7.353,-0.362 15.732,-8.244 18.699,-17.591l10.753,-33.87Z" style="fill:#41241c;"/><path d="M3646.53,481.763c-2.405,3.553 -6.596,6.437 -9.352,6.437l-22.471,0c-2.756,0 -3.041,-2.884 -0.636,-6.437l8.716,-12.873c2.405,-3.553 6.596,-6.437 9.352,-6.437l22.471,-0c2.756,-0 3.041,2.884 0.636,6.437l-8.716,12.873Z" style="fill:#41241c;"/><path d="M3633.03,302.264c-2.406,3.552 -6.596,6.437 -9.352,6.437l-22.471,-0c-2.757,-0 -3.042,-2.885 -0.636,-6.437l8.716,-12.874c2.405,-3.553 6.595,-6.437 9.351,-6.437l22.471,-0c2.757,-0 3.042,2.884 0.636,6.437l-8.715,12.874Z" style="fill:#41241c;"/><path d="M3716.58,152.98c-2.405,3.553 -6.596,6.437 -9.352,6.437l-22.471,0c-2.756,0 -3.041,-2.884 -0.636,-6.437l8.716,-12.874c2.405,-3.552 6.595,-6.437 9.352,-6.437l22.471,0c2.756,0 3.041,2.885 0.636,6.437l-8.716,12.874Z" style="fill:#41241c;"/><path d="M3442.94,479.076c-2.405,3.553 -6.595,6.437 -9.351,6.437l-22.472,0c-2.756,0 -3.041,-2.884 -0.636,-6.437l8.716,-12.873c2.406,-3.553 6.596,-6.437 9.352,-6.437l22.471,-0c2.756,-0 3.041,2.884 0.636,6.437l-8.716,12.873Z" style="fill:#41241c;"/><path d="M3488.99,202.659c-2.406,3.553 -6.596,6.437 -9.352,6.437l-22.471,0c-2.756,0 -3.041,-2.884 -0.636,-6.437l8.716,-12.874c2.405,-3.552 6.595,-6.437 9.351,-6.437l22.472,0c2.756,0 3.041,2.885 0.636,6.437l-8.716,12.874Z" style="fill:#41241c;"/><path d="M3653.64,232.746c-2.405,3.553 -6.596,6.437 -9.352,6.437l-22.471,0c-2.756,0 -3.041,-2.884 -0.636,-6.437l8.716,-12.874c2.405,-3.552 6.595,-6.437 9.352,-6.437l22.471,0c2.756,0 3.041,2.885 0.636,6.437l-8.716,12.874Z" style="fill:#41241c;"/><path d="M3269.8,1006.17c-2.406,3.552 -6.596,6.437 -9.352,6.437l-22.471,-0c-2.756,-0 -3.041,-2.885 -0.636,-6.437l8.716,-12.874c2.405,-3.553 6.595,-6.437 9.351,-6.437l22.472,-0c2.756,-0 3.041,2.884 0.636,6.437l-8.716,12.874Z" style="fill:#41241c;"/><path d="M3235.69,700.172c-2.406,3.552 -6.596,6.437 -9.352,6.437l-22.471,-0c-2.757,-0 -3.041,-2.885 -0.636,-6.437l8.716,-12.874c2.405,-3.553 6.595,-6.437 9.351,-6.437l22.472,-0c2.756,-0 3.041,2.884 0.635,6.437l-8.715,12.874Z" style="fill:#41241c;"/><path d="M3188.91,905.723c2.787,-4.969 1.92,-9.003 -1.935,-9.003l-31.429,-0c-3.855,-0 -9.247,4.034 -12.034,9.003l-10.099,18.006c-2.787,4.969 -1.92,9.003 1.935,9.003l31.429,0c3.855,0 9.248,-4.034 12.034,-9.003l10.099,-18.006Z" style="fill:#41241c;"/><path d="M3708.61,75.24c-2.405,3.553 -6.596,6.437 -9.352,6.437l-22.471,0c-2.756,0 -3.041,-2.884 -0.636,-6.437l8.716,-12.874c2.405,-3.552 6.595,-6.437 9.352,-6.437l22.471,0c2.756,0 3.041,2.885 0.636,6.437l-8.716,12.874Z" style="fill:#41241c;"/><path d="M3207.4,946.218c1.693,-3.019 1.166,-5.47 -1.176,-5.47l-19.094,0c-2.342,0 -5.618,2.451 -7.311,5.47l-6.135,10.939c-1.694,3.018 -1.167,5.469 1.175,5.469l19.094,0c2.342,0 5.618,-2.451 7.311,-5.469l6.136,-10.939Z" style="fill:#41241c;"/><path d="M3739.67,85.588c-1.461,2.158 -4.007,3.91 -5.681,3.91l-13.652,0c-1.674,0 -1.848,-1.752 -0.386,-3.91l5.295,-7.822c1.461,-2.158 4.007,-3.91 5.681,-3.91l13.652,-0c1.674,-0 1.847,1.752 0.386,3.91l-5.295,7.822Z" style="fill:#41241c;"/><path d="M3408.94,429.142c-1.461,2.158 -4.007,3.911 -5.682,3.911l-13.651,-0c-1.675,-0 -1.848,-1.753 -0.387,-3.911l5.295,-7.821c1.462,-2.158 4.007,-3.911 5.682,-3.911l13.652,0c1.674,0 1.847,1.753 0.386,3.911l-5.295,7.821Z" style="fill:#41241c;"/><path d="M3383.33,312.611c-1.461,2.158 -4.007,3.911 -5.682,3.911l-13.651,-0c-1.675,-0 -1.848,-1.753 -0.387,-3.911l5.295,-7.821c1.462,-2.158 4.007,-3.911 5.682,-3.911l13.652,0c1.674,0 1.847,1.753 0.386,3.911l-5.295,7.821Z" style="fill:#41241c;"/><path d="M3619.65,182.812c-1.461,2.158 -4.007,3.91 -5.681,3.91l-13.652,0c-1.674,0 -1.847,-1.752 -0.386,-3.91l5.295,-7.821c1.461,-2.159 4.007,-3.911 5.681,-3.911l13.652,0c1.675,0 1.848,1.752 0.386,3.911l-5.295,7.821Z" style="fill:#41241c;"/><path d="M3179.91,583.742c-1.462,2.158 -4.007,3.91 -5.682,3.91l-13.652,0c-1.674,0 -1.847,-1.752 -0.386,-3.91l5.295,-7.822c1.461,-2.158 4.007,-3.91 5.682,-3.91l13.651,-0c1.675,-0 1.848,1.752 0.387,3.91l-5.295,7.822Z" style="fill:#41241c;"/><path d="M3513.15,476.094c-1.461,2.159 -4.007,3.911 -5.681,3.911l-13.652,0c-1.674,0 -1.847,-1.752 -0.386,-3.911l5.295,-7.821c1.461,-2.158 4.007,-3.91 5.681,-3.91l13.652,-0c1.675,-0 1.848,1.752 0.386,3.91l-5.295,7.821Z" style="fill:#41241c;"/><path d="M3499.66,296.595c-1.461,2.158 -4.007,3.91 -5.681,3.91l-13.652,0c-1.675,0 -1.848,-1.752 -0.387,-3.91l5.296,-7.822c1.461,-2.158 4.007,-3.91 5.681,-3.91l13.652,-0c1.674,-0 1.847,1.752 0.386,3.91l-5.295,7.822Z" style="fill:#41241c;"/><path d="M3723.86,229.764c-1.461,2.159 -4.007,3.911 -5.682,3.911l-13.651,-0c-1.675,-0 -1.848,-1.752 -0.387,-3.911l5.295,-7.821c1.462,-2.158 4.007,-3.911 5.682,-3.911l13.652,0c1.674,0 1.847,1.753 0.386,3.911l-5.295,7.821Z" style="fill:#41241c;"/><path d="M3869.49,561.245c-1.461,2.159 -4.007,3.911 -5.681,3.911l-13.652,-0c-1.674,-0 -1.847,-1.752 -0.386,-3.911l5.295,-7.821c1.461,-2.158 4.007,-3.91 5.681,-3.91l13.652,-0c1.674,-0 1.848,1.752 0.386,3.91l-5.295,7.821Z" style="fill:#41241c;"/><path d="M4080.19,314.915c-1.461,2.158 -4.007,3.911 -5.682,3.911l-13.651,-0c-1.675,-0 -1.848,-1.753 -0.387,-3.911l5.295,-7.821c1.462,-2.158 4.007,-3.911 5.682,-3.911l13.652,0c1.674,0 1.847,1.753 0.386,3.911l-5.295,7.821Z" style="fill:#41241c;"/><path d="M3193.41,738.341c-1.461,2.158 -4.007,3.911 -5.681,3.911l-13.652,-0c-1.675,-0 -1.848,-1.753 -0.387,-3.911l5.296,-7.821c1.461,-2.159 4.007,-3.911 5.681,-3.911l13.652,0c1.674,0 1.847,1.752 0.386,3.911l-5.295,7.821Z" style="fill:#41241c;"/><path d="M3751.11,548.365c-1.461,2.158 -4.007,3.91 -5.681,3.91l-13.652,0c-1.674,0 -1.848,-1.752 -0.386,-3.91l5.295,-7.821c1.461,-2.159 4.007,-3.911 5.681,-3.911l13.652,-0c1.674,-0 1.847,1.752 0.386,3.911l-5.295,7.821Z" style="fill:#41241c;"/><path d="M3737.61,368.865c-1.461,2.158 -4.007,3.91 -5.682,3.91l-13.651,0c-1.675,0 -1.848,-1.752 -0.387,-3.91l5.295,-7.821c1.462,-2.159 4.007,-3.911 5.682,-3.911l13.652,0c1.674,0 1.847,1.752 0.386,3.911l-5.295,7.821Z" style="fill:#41241c;"/><path d="M3764.61,788.853c-1.462,2.158 -4.007,3.91 -5.682,3.91l-13.652,0c-1.674,0 -1.847,-1.752 -0.386,-3.91l5.295,-7.821c1.461,-2.159 4.007,-3.911 5.682,-3.911l13.651,-0c1.675,-0 1.848,1.752 0.387,3.911l-5.295,7.821Z" style="fill:#41241c;"/><path d="M3229.81,829.785c-1.461,2.158 -4.007,3.911 -5.682,3.911l-13.651,-0c-1.675,-0 -1.848,-1.753 -0.387,-3.911l5.295,-7.821c1.462,-2.159 4.007,-3.911 5.682,-3.911l13.652,0c1.674,0 1.847,1.752 0.386,3.911l-5.295,7.821Z" style="fill:#41241c;"/><path d="M3110.78,793.828c-1.462,2.159 -4.007,3.911 -5.682,3.911l-13.651,-0c-1.675,-0 -1.848,-1.752 -0.387,-3.911l5.295,-7.821c1.461,-2.158 4.007,-3.911 5.682,-3.911l13.651,0c1.675,0 1.848,1.753 0.387,3.911l-5.295,7.821Z" style="fill:#41241c;"/><path d="M3638.43,54.497c-1.461,2.158 -4.007,3.91 -5.681,3.91l-13.652,0c-1.675,0 -1.848,-1.752 -0.386,-3.91l5.295,-7.822c1.461,-2.158 4.007,-3.91 5.681,-3.91l13.652,-0c1.674,-0 1.847,1.752 0.386,3.91l-5.295,7.822Z" style="fill:#41241c;"/><path d="M3041.32,782.505c-5.412,0 -12.835,-0.136 -22.266,-0.409c-9.432,-0.272 -18.863,-0.647 -28.295,-1.124c-9.431,-0.477 -17.181,-0.988 -23.25,-1.534c2.952,-12.949 6.192,-26.239 9.718,-39.869c3.527,-13.631 7.135,-27.432 10.826,-41.404c3.691,-13.971 7.586,-28.011 11.687,-42.118c4.1,-14.108 8.283,-28.046 12.548,-41.813c4.264,-13.767 8.529,-27.193 12.794,-40.278l101.368,3.476c-2.46,5.043 -6.315,13.698 -11.564,25.966c-5.249,12.268 -11.277,26.478 -18.084,42.63c-6.807,16.152 -13.778,32.816 -20.913,49.991c-7.135,17.174 -13.737,33.361 -19.806,48.559c-6.069,15.198 -10.99,27.841 -14.763,37.927Z" style="fill:#41241c;fill-rule:nonzero;"/></g></svg>