<?xml version="1.0" encoding="UTF-8" standalone="no"?><!DOCTYPE svg PUBLIC "-//W3C//DTD SVG 1.1//EN" "http://www.w3.org/Graphics/SVG/1.1/DTD/svg11.dtd"><svg width="5334px" height="1067px" version="1.1" xmlns="http://www.w3.org/2000/svg" xmlns:xlink="http://www.w3.org/1999/xlink" xml:space="preserve" xmlns:serif="http://www.serif.com/" style="fill-rule:evenodd;clip-rule:evenodd;stroke-linejoin:round;stroke-miterlimit:2;"><g><path d="M3526.12,667.05c-3.66,5.406 -11.021,9.795 -16.427,9.795l-44.075,0c-5.406,0 -6.824,-4.389 -3.164,-9.795l13.263,-19.59c3.66,-5.406 11.021,-9.795 16.427,-9.795l44.075,0c5.406,0 6.823,4.389 3.163,9.795l-13.262,19.59Z" style="fill:#41241c;"/><path d="M3175.72,425.285c1.234,-2.199 0.85,-3.985 -0.856,-3.985l-13.911,0c-1.706,0 -4.093,1.786 -5.327,3.985l-4.47,7.97c-1.233,2.199 -0.849,3.985 0.857,3.985l13.911,-0c1.706,-0 4.093,-1.786 5.327,-3.985l4.469,-7.97Z" style="fill:#41241c;"/><g><path d="M2177.66,408.013c1.089,-3.86 2.846,-10.022 5.271,-18.485c2.425,-8.463 5.246,-18.311 8.463,-29.546c3.217,-11.234 6.656,-23.063 10.319,-35.485c3.662,-12.422 7.225,-24.621 10.69,-36.598c3.464,-11.977 6.656,-22.89 9.576,-32.738c2.92,-9.849 5.271,-17.867 7.052,-24.053c1.782,-6.186 2.772,-9.576 2.97,-10.17c5.345,-0.396 12.1,-0.842 20.266,-1.337c8.166,-0.494 16.778,-0.915 25.835,-1.262c9.056,-0.346 17.544,-0.519 25.463,-0.519c15.243,-0 27.517,2.895 36.821,8.685c9.304,5.791 13.956,14.922 13.956,27.394c0,8.512 -2.227,16.282 -6.681,23.31c-4.454,7.027 -10.294,12.843 -17.52,17.445c-7.225,4.603 -14.897,7.597 -23.013,8.983l1.41,-0c0.545,-0 1.262,0.049 2.153,0.148c7.127,0.495 13.264,2.277 18.411,5.345c5.147,3.069 9.106,7.201 11.878,12.398c2.771,5.196 4.157,11.407 4.157,18.633c-0,13.165 -3.44,24.275 -10.319,33.332c-6.879,9.057 -16.258,16.382 -28.135,21.974c-11.878,5.592 -25.439,9.651 -40.682,12.175c-15.243,2.524 -31.13,3.786 -47.66,3.786c-8.017,-0 -15.614,-0.272 -22.79,-0.817c-7.176,-0.544 -13.14,-1.41 -17.891,-2.598Zm67.258,-46.175l7.572,0c4.652,0 9.453,-0.322 14.402,-0.965c4.949,-0.643 9.601,-1.782 13.956,-3.415c4.356,-1.633 7.894,-3.86 10.616,-6.681c2.722,-2.821 4.083,-6.409 4.083,-10.764c0,-3.465 -1.683,-6.187 -5.048,-8.166c-3.365,-1.98 -9.7,-2.97 -19.004,-2.97c-1.683,0 -3.564,0.025 -5.642,0.074c-2.079,0.05 -4.257,0.149 -6.533,0.297c-2.277,0.149 -4.603,0.372 -6.978,0.668l-7.424,31.922Zm17.965,-74.088c3.366,0 6.187,-0.074 8.463,-0.222c2.277,-0.149 4.405,-0.421 6.384,-0.817c4.356,-0.396 8.736,-1.312 13.14,-2.747c4.405,-1.435 8.092,-3.514 11.061,-6.236c2.97,-2.722 4.455,-6.211 4.455,-10.467c-0,-3.761 -1.386,-6.607 -4.158,-8.537c-2.771,-1.93 -6.334,-2.895 -10.69,-2.895c-3.068,-0 -6.607,0.198 -10.615,0.594c-4.009,0.396 -7.597,0.791 -10.765,1.187l-7.275,30.14Z" style="fill:#41241c;fill-rule:nonzero;"/><path d="M2402,414.843c-4.355,-0 -9.478,-0.05 -15.367,-0.149c-5.889,-0.099 -11.828,-0.297 -17.817,-0.594c-5.988,-0.297 -11.358,-0.792 -16.109,-1.484c1.188,-4.554 2.598,-10.22 4.231,-17.001c1.634,-6.78 3.465,-14.179 5.494,-22.196c2.029,-8.018 4.108,-16.233 6.236,-24.647c2.128,-8.413 4.231,-16.579 6.31,-24.497c4.454,-16.332 9.23,-33.58 14.327,-51.743c5.098,-18.163 10.468,-36.846 16.11,-56.048c1.88,-0.099 4.899,-0.198 9.057,-0.297c4.157,-0.099 8.858,-0.223 14.104,-0.372c5.246,-0.148 10.294,-0.272 15.145,-0.371c4.85,-0.099 8.957,-0.148 12.323,-0.148c-2.178,10.096 -4.776,21.578 -7.795,34.445c-3.019,12.868 -6.236,26.156 -9.651,39.865c-3.415,13.709 -6.854,27.096 -10.319,40.162c-1.781,6.533 -3.588,13.14 -5.419,19.821c-1.831,6.681 -3.687,13.214 -5.568,19.598c-1.88,6.385 -3.711,12.423 -5.493,18.114c-1.782,5.691 -3.489,10.913 -5.122,15.664c-1.633,4.751 -3.192,8.71 -4.677,11.878Z" style="fill:#41241c;fill-rule:nonzero;"/><path d="M2512.02,414.249c-6.83,-0 -13.759,-0.594 -20.786,-1.782c-7.028,-1.188 -13.858,-3.093 -20.489,-5.716c-6.632,-2.623 -12.695,-6.137 -18.188,-10.542c-5.494,-4.404 -10.072,-9.873 -13.734,-16.406c0.891,-1.089 3.118,-3.266 6.681,-6.533c3.564,-3.266 7.671,-6.854 12.323,-10.764c4.653,-3.91 9.181,-7.522 13.586,-10.838c4.404,-3.316 7.943,-5.568 10.615,-6.756c2.574,3.959 5.222,7.646 7.944,11.061c2.722,3.415 5.691,6.409 8.908,8.983c3.217,2.573 6.756,4.578 10.616,6.013c3.86,1.435 8.116,2.153 12.768,2.153c4.752,-0 9.107,-0.841 13.066,-2.524c3.959,-1.683 7.127,-4.009 9.502,-6.978c2.376,-2.97 3.564,-6.335 3.564,-10.096c-0,-2.97 -0.668,-5.89 -2.005,-8.76c-1.336,-2.871 -3.736,-5.766 -7.201,-8.686c-3.464,-2.92 -8.512,-5.815 -15.144,-8.686c-9.502,-4.256 -17.99,-8.735 -25.463,-13.436c-7.473,-4.702 -13.362,-10.195 -17.668,-16.481c-4.306,-6.285 -6.459,-13.981 -6.459,-23.087c0,-13.759 3.564,-25.315 10.69,-34.669c7.127,-9.353 16.605,-16.406 28.433,-21.157c11.828,-4.751 24.671,-7.127 38.528,-7.127c8.81,0 17.669,0.669 26.577,2.005c8.908,1.336 17.223,3.811 24.943,7.423c7.721,3.613 14.155,8.835 19.302,15.664c-5.048,6.434 -10.962,12.942 -17.743,19.524c-6.78,6.583 -12.843,11.458 -18.188,14.625c-3.266,-4.157 -6.928,-7.696 -10.987,-10.616c-4.058,-2.92 -8.264,-5.172 -12.62,-6.755c-4.355,-1.584 -8.661,-2.376 -12.917,-2.376c-3.761,0 -7.448,0.52 -11.061,1.559c-3.613,1.039 -6.557,2.722 -8.834,5.048c-2.277,2.326 -3.415,5.32 -3.415,8.983c0,2.078 0.594,4.008 1.782,5.79c1.188,1.782 2.969,3.415 5.345,4.9c2.375,1.484 5.295,2.87 8.76,4.157c8.611,3.365 16.48,6.904 23.607,10.616c7.126,3.712 13.288,7.894 18.485,12.546c5.196,4.652 9.205,10.022 12.026,16.109c2.821,6.087 4.231,13.239 4.231,21.454c0,11.68 -2.425,21.999 -7.275,30.957c-4.85,8.958 -11.457,16.48 -19.821,22.567c-8.364,6.088 -17.916,10.715 -28.655,13.883c-10.74,3.167 -21.949,4.751 -33.629,4.751Z" style="fill:#41241c;fill-rule:nonzero;"/><path d="M2763.98,382.327c-9.701,8.81 -21.108,16.233 -34.223,22.271c-13.115,6.038 -27.69,9.057 -43.725,9.057c-15.145,-0 -27.889,-3.217 -38.232,-9.651c-10.344,-6.434 -18.138,-15.095 -23.384,-25.982c-5.247,-10.888 -7.87,-23.014 -7.87,-36.376c0,-16.827 2.772,-32.862 8.315,-48.105c5.543,-15.243 13.338,-28.779 23.384,-40.607c10.047,-11.829 21.851,-21.133 35.411,-27.913c13.56,-6.781 28.358,-10.171 44.393,-10.171c9.898,0 19.326,1.361 28.284,4.083c8.958,2.722 16.728,6.855 23.31,12.398c6.583,5.543 11.21,12.57 13.883,21.083c-3.96,3.266 -8.835,6.953 -14.625,11.061c-5.79,4.108 -11.606,7.993 -17.445,11.655c-5.84,3.662 -10.888,6.632 -15.145,8.908c0,-0.89 -0.445,-2.548 -1.336,-4.973c-0.891,-2.425 -2.252,-5.024 -4.083,-7.795c-1.831,-2.772 -4.355,-5.147 -7.572,-7.127c-3.217,-1.979 -7.151,-2.969 -11.804,-2.969c-6.829,-0 -13.065,2.029 -18.707,6.087c-5.642,4.058 -10.467,9.453 -14.476,16.184c-4.009,6.73 -7.102,14.129 -9.28,22.196c-2.177,8.067 -3.266,16.06 -3.266,23.979c-0,8.809 1.509,16.035 4.528,21.676c3.019,5.642 8.092,8.463 15.219,8.463c4.454,0 8.982,-0.816 13.585,-2.449c4.603,-1.634 9.23,-3.885 13.882,-6.756c4.652,-2.87 9.156,-6.186 13.511,-9.948c3.267,2.772 6.78,6.682 10.542,11.73c3.761,5.048 7.201,10.269 10.319,15.664c3.117,5.394 5.32,10.17 6.607,14.327Z" style="fill:#41241c;fill-rule:nonzero;"/><path d="M2850.69,416.03c-20.588,0 -35.163,-5.023 -43.725,-15.069c-8.562,-10.047 -12.843,-24.523 -12.843,-43.429c0,-12.372 1.386,-26.131 4.158,-41.275c2.771,-15.144 6.483,-31.773 11.135,-49.887c2.178,-8.413 4.529,-17.074 7.053,-25.982c2.524,-8.909 5.171,-18.065 7.943,-27.468c4.652,-0.396 9.453,-0.767 14.402,-1.113c4.949,-0.347 9.551,-0.52 13.808,-0.52c5.543,0 11.011,0.173 16.406,0.52c5.394,0.346 10.269,0.767 14.624,1.262c-2.474,7.126 -5.246,15.317 -8.314,24.572c-3.069,9.255 -5.989,18.732 -8.76,28.432c-2.574,9.107 -4.974,18.04 -7.201,26.8c-2.227,8.759 -4.033,16.703 -5.419,23.829c-1.386,7.127 -2.079,12.819 -2.079,17.075c0,11.878 4.504,17.816 13.511,17.816c8.81,0 15.813,-4.281 21.009,-12.842c5.197,-8.562 9.577,-19.475 13.14,-32.739c0.99,-3.86 2.276,-8.982 3.86,-15.366c1.584,-6.385 3.291,-13.363 5.122,-20.935c1.832,-7.572 3.613,-15.045 5.345,-22.419c1.733,-7.375 3.217,-13.957 4.455,-19.747c1.237,-5.791 2.004,-10.121 2.301,-12.992c4.454,0 9.552,0.174 15.293,0.52c5.741,0.346 11.432,0.742 17.074,1.188c5.642,0.445 10.492,0.915 14.55,1.41c4.058,0.495 6.583,0.891 7.572,1.188c-0.594,5.147 -1.41,10.641 -2.449,16.481c-1.04,5.839 -2.228,11.853 -3.564,18.039c-1.336,6.186 -2.895,12.447 -4.677,18.782c-5.345,19.895 -11.16,38.528 -17.445,55.9c-6.286,17.371 -13.66,32.663 -22.123,45.878c-8.463,13.214 -18.707,23.532 -30.733,30.956c-12.027,7.424 -26.503,11.135 -43.429,11.135Z" style="fill:#41241c;fill-rule:nonzero;"/><path d="M3003.32,414.843c-4.355,-0 -9.477,-0.05 -15.367,-0.149c-5.889,-0.099 -11.828,-0.297 -17.816,-0.594c-5.989,-0.297 -11.359,-0.792 -16.11,-1.484c1.188,-4.554 2.599,-10.22 4.232,-17.001c1.633,-6.78 3.464,-14.179 5.493,-22.196c2.029,-8.018 4.108,-16.233 6.236,-24.647c2.128,-8.413 4.231,-16.579 6.31,-24.497c4.454,-16.332 9.23,-33.58 14.328,-51.743c5.097,-18.163 10.467,-36.846 16.109,-56.048c1.881,-0.099 4.9,-0.198 9.057,-0.297c4.157,-0.099 8.859,-0.223 14.105,-0.372c5.246,-0.148 10.294,-0.272 15.144,-0.371c4.85,-0.099 8.958,-0.148 12.323,-0.148c-2.178,10.096 -4.776,21.578 -7.795,34.445c-3.019,12.868 -6.236,26.156 -9.65,39.865c-3.415,13.709 -6.855,27.096 -10.319,40.162c-1.782,6.533 -3.588,13.14 -5.42,19.821c-1.831,6.681 -3.687,13.214 -5.567,19.598c-1.881,6.385 -3.712,12.423 -5.494,18.114c-1.781,5.691 -3.489,10.913 -5.122,15.664c-1.633,4.751 -3.192,8.71 -4.677,11.878Z" style="fill:#41241c;fill-rule:nonzero;"/><path d="M3071.76,262.955c0.198,-2.375 0.693,-5.815 1.485,-10.318c0.791,-4.504 1.682,-9.255 2.672,-14.254c0.99,-4.998 1.93,-9.477 2.821,-13.437c0.891,-3.959 1.534,-6.582 1.93,-7.869c11.383,-0.89 24.176,-1.633 38.38,-2.227c14.204,-0.594 28.532,-0.89 42.983,-0.89c11.086,-0 21.801,0.222 32.144,0.668c10.344,0.445 19.722,1.311 28.136,2.598c-2.475,9.304 -5.098,17.94 -7.869,25.908c-2.772,7.968 -5.197,13.883 -7.275,17.743c-1.881,-0 -4.454,-0.025 -7.721,-0.074l-22.345,-0.297c-3.712,-0.05 -6.953,-0.124 -9.725,-0.223c-0.891,3.662 -2.103,8.958 -3.637,15.886c-1.535,6.929 -3.267,14.848 -5.197,23.756c-1.93,8.908 -3.984,18.213 -6.162,27.913c-2.177,9.7 -4.281,19.202 -6.31,28.507c-2.029,9.304 -3.86,17.841 -5.493,25.611c-1.633,7.77 -2.994,14.154 -4.083,19.153c-1.089,4.999 -1.732,7.993 -1.93,8.983c-4.751,0.692 -10.74,1.336 -17.965,1.93c-7.226,0.594 -14.402,1.039 -21.529,1.336c-7.127,0.297 -12.917,0.445 -17.371,0.445c1.287,-5.741 2.845,-12.595 4.677,-20.563c1.831,-7.968 3.86,-16.555 6.087,-25.76c2.227,-9.205 4.528,-18.609 6.904,-28.21c2.376,-9.601 4.751,-19.029 7.127,-28.284c2.375,-9.255 4.652,-17.841 6.829,-25.76c1.287,-4.652 2.475,-8.982 3.564,-12.991c1.089,-4.009 2.128,-7.646 3.118,-10.913c-3.366,0.297 -6.88,0.52 -10.542,0.668c-3.662,0.149 -7.374,0.297 -11.135,0.446c-3.762,0.148 -7.572,0.247 -11.433,0.297c-3.86,0.049 -7.572,0.123 -11.135,0.222Z" style="fill:#41241c;fill-rule:nonzero;"/><path d="M2019.11,789.94c1.36,-4.821 3.554,-12.516 6.582,-23.084c3.029,-10.569 6.552,-22.868 10.569,-36.898c4.017,-14.03 8.313,-28.802 12.886,-44.315c4.574,-15.513 9.024,-30.748 13.35,-45.705c4.327,-14.957 8.313,-28.585 11.96,-40.884c3.646,-12.3 6.582,-22.312 8.807,-30.038c2.225,-7.726 3.461,-11.959 3.708,-12.701c6.675,-0.494 15.112,-1.051 25.31,-1.669c10.198,-0.618 20.952,-1.143 32.262,-1.576c11.311,-0.432 21.91,-0.649 31.799,-0.649c19.036,0 34.364,3.616 45.984,10.847c11.619,7.231 17.429,18.634 17.429,34.209c-0,10.631 -2.781,20.335 -8.344,29.111c-5.562,8.776 -12.856,16.038 -21.879,21.786c-9.024,5.748 -18.604,9.488 -28.74,11.218l1.762,0c0.68,0 1.576,0.062 2.688,0.185c8.9,0.619 16.564,2.844 22.992,6.675c6.428,3.832 11.372,8.993 14.833,15.483c3.461,6.489 5.192,14.246 5.192,23.27c-0,16.44 -4.296,30.315 -12.887,41.626c-8.59,11.31 -20.303,20.457 -35.136,27.441c-14.833,6.984 -31.768,12.052 -50.804,15.204c-19.036,3.153 -38.876,4.729 -59.519,4.729c-10.012,-0 -19.5,-0.34 -28.461,-1.02c-8.962,-0.68 -16.41,-1.762 -22.343,-3.245Zm83.994,-57.665l9.456,0c5.81,0 11.805,-0.401 17.985,-1.205c6.181,-0.803 11.991,-2.225 17.43,-4.264c5.438,-2.04 9.858,-4.821 13.257,-8.344c3.399,-3.523 5.099,-8.004 5.099,-13.443c-0,-4.326 -2.102,-7.726 -6.304,-10.198c-4.203,-2.472 -12.114,-3.708 -23.734,-3.708c-2.101,-0 -4.45,0.031 -7.046,0.093c-2.595,0.061 -5.315,0.185 -8.158,0.37c-2.843,0.186 -5.748,0.464 -8.714,0.835l-9.271,39.864Zm22.435,-92.523c4.203,0 7.726,-0.092 10.569,-0.278c2.843,-0.185 5.501,-0.525 7.973,-1.019c5.439,-0.495 10.908,-1.638 16.409,-3.431c5.501,-1.792 10.105,-4.388 13.814,-7.787c3.708,-3.399 5.562,-7.757 5.562,-13.072c0,-4.697 -1.73,-8.251 -5.191,-10.661c-3.462,-2.411 -7.912,-3.616 -13.35,-3.616c-3.832,-0 -8.252,0.247 -13.258,0.742c-5.006,0.494 -9.487,0.988 -13.442,1.483l-9.086,37.639Z" style="fill:#41241c;fill-rule:nonzero;"/><path d="M2277.77,797.357c-3.214,-0 -7.849,-0.093 -13.906,-0.278c-6.057,-0.186 -12.639,-0.402 -19.747,-0.649c-7.108,-0.248 -13.968,-0.464 -20.581,-0.649c-6.613,-0.186 -12.083,-0.402 -16.41,-0.649c3.585,-8.035 8.221,-18.048 13.907,-30.038c5.686,-11.99 12.052,-25.186 19.098,-39.586c7.045,-14.401 14.493,-29.389 22.342,-44.964c7.85,-15.575 15.73,-31.057 23.641,-46.447c7.911,-15.389 15.544,-30.099 22.899,-44.129c7.355,-14.03 14.122,-26.545 20.303,-37.547c9.765,-1.236 19.16,-2.287 28.183,-3.152c9.024,-0.865 17.677,-1.514 25.959,-1.947c8.282,-0.432 16.316,-0.649 24.104,-0.649c7.169,0 14.184,0.217 21.045,0.649c6.86,0.433 13.628,1.082 20.303,1.947c-0.495,10.878 -1.298,23.177 -2.411,36.898c-1.112,13.721 -2.905,30.007 -5.377,48.857c-2.472,18.851 -5.871,41.194 -10.198,67.028c-4.326,25.835 -9.827,56.305 -16.502,91.411c-4.573,0.618 -11.187,1.236 -19.839,1.854c-8.653,0.618 -17.708,1.113 -27.164,1.483c-9.456,0.371 -17.769,0.557 -24.938,0.557c0.618,-3.461 1.421,-7.293 2.41,-11.496c0.989,-4.203 1.978,-8.591 2.967,-13.165c0.989,-4.573 2.07,-9.209 3.244,-13.906c1.175,-4.697 2.349,-9.364 3.523,-13.999c1.175,-4.635 2.318,-9.054 3.431,-13.257c-3.956,0.123 -8.035,0.278 -12.238,0.463c-4.203,0.186 -8.375,0.371 -12.516,0.557c-4.14,0.185 -8.003,0.432 -11.588,0.741c-3.585,0.309 -6.768,0.649 -9.549,1.02c-2.781,0.371 -4.914,0.68 -6.397,0.927c-3.832,7.664 -7.571,15.359 -11.218,23.084c-3.646,7.726 -6.891,14.988 -9.734,21.787c-2.843,6.799 -5.192,12.546 -7.046,17.244Zm51.917,-120.15c2.348,-0.495 6.273,-0.958 11.774,-1.391c5.501,-0.433 11.187,-0.803 17.058,-1.112c5.872,-0.31 10.414,-0.464 13.628,-0.464c0.371,-2.225 1.36,-6.768 2.967,-13.628c1.607,-6.861 3.337,-14.37 5.192,-22.528c1.854,-8.159 3.492,-15.544 4.913,-22.158c1.422,-6.613 2.318,-10.908 2.689,-12.886c-1.731,-0 -4.389,0.093 -7.973,0.278c-3.585,0.186 -7.077,0.402 -10.476,0.649c-3.4,0.247 -5.779,0.433 -7.139,0.556c-1.854,3.709 -4.233,8.777 -7.138,15.204c-2.905,6.428 -5.995,13.289 -9.271,20.582c-3.276,7.293 -6.335,14.215 -9.178,20.766c-2.843,6.552 -5.192,11.929 -7.046,16.132Z" style="fill:#41241c;fill-rule:nonzero;"/><path d="M2533.83,797.727c-8.53,0 -17.182,-0.741 -25.959,-2.225c-8.776,-1.483 -17.305,-3.862 -25.587,-7.138c-8.282,-3.276 -15.853,-7.664 -22.714,-13.165c-6.86,-5.5 -12.577,-12.33 -17.151,-20.488c1.113,-1.36 3.894,-4.079 8.344,-8.159c4.45,-4.079 9.58,-8.56 15.39,-13.442c5.809,-4.883 11.464,-9.395 16.965,-13.536c5.501,-4.141 9.92,-6.953 13.257,-8.436c3.214,4.944 6.521,9.549 9.92,13.813c3.4,4.265 7.108,8.004 11.125,11.218c4.018,3.214 8.437,5.717 13.258,7.51c4.82,1.792 10.136,2.688 15.945,2.688c5.934,0 11.373,-1.051 16.317,-3.152c4.944,-2.101 8.9,-5.006 11.867,-8.715c2.966,-3.708 4.45,-7.911 4.45,-12.608c-0,-3.708 -0.835,-7.355 -2.503,-10.94c-1.669,-3.584 -4.667,-7.2 -8.993,-10.846c-4.327,-3.647 -10.631,-7.263 -18.913,-10.847c-11.866,-5.316 -22.466,-10.909 -31.799,-16.78c-9.332,-5.872 -16.687,-12.732 -22.064,-20.582c-5.377,-7.849 -8.066,-17.46 -8.066,-28.832c0,-17.182 4.45,-31.614 13.35,-43.295c8.9,-11.681 20.736,-20.488 35.507,-26.422c14.772,-5.933 30.811,-8.9 48.116,-8.9c11.001,0 22.065,0.835 33.19,2.503c11.125,1.669 21.508,4.759 31.15,9.271c9.641,4.512 17.676,11.033 24.104,19.562c-6.304,8.034 -13.69,16.162 -22.157,24.382c-8.468,8.22 -16.039,14.308 -22.714,18.264c-4.079,-5.192 -8.653,-9.611 -13.721,-13.258c-5.068,-3.646 -10.321,-6.458 -15.76,-8.436c-5.439,-1.978 -10.816,-2.967 -16.131,-2.967c-4.698,0 -9.302,0.649 -13.814,1.947c-4.512,1.298 -8.189,3.399 -11.032,6.304c-2.843,2.905 -4.265,6.644 -4.265,11.218c0,2.596 0.742,5.006 2.225,7.231c1.483,2.225 3.708,4.265 6.675,6.119c2.967,1.854 6.613,3.585 10.94,5.192c10.754,4.202 20.581,8.621 29.481,13.257c8.9,4.635 16.595,9.858 23.084,15.668c6.49,5.809 11.496,12.515 15.019,20.117c3.523,7.602 5.284,16.533 5.284,26.793c0,14.586 -3.028,27.473 -9.085,38.659c-6.057,11.187 -14.308,20.582 -24.753,28.184c-10.445,7.602 -22.374,13.381 -35.786,17.336c-13.411,3.956 -27.41,5.933 -41.996,5.933Z" style="fill:#41241c;fill-rule:nonzero;"/><path d="M2659.54,793.834c0.742,-5.316 2.194,-13.35 4.357,-24.104c2.164,-10.755 4.852,-23.178 8.066,-37.269c3.214,-14.092 6.644,-28.956 10.291,-44.593c3.646,-15.637 7.355,-31.15 11.125,-46.539c3.77,-15.39 7.385,-29.636 10.847,-42.739c2.348,-8.653 4.573,-16.564 6.675,-23.733c2.101,-7.17 3.955,-13.165 5.562,-17.986c1.236,-0.123 4.45,-0.34 9.642,-0.649c5.191,-0.309 11.186,-0.587 17.985,-0.834c6.799,-0.247 13.474,-0.495 20.025,-0.742c6.551,-0.247 11.929,-0.371 16.131,-0.371c-0.989,5.563 -2.472,12.671 -4.45,21.323c-1.977,8.653 -3.77,16.502 -5.377,23.548c-1.483,5.686 -2.997,11.774 -4.542,18.264c-1.546,6.489 -2.967,12.484 -4.265,17.985c-1.298,5.501 -2.256,9.611 -2.874,12.33c2.843,-0.247 5.717,-0.494 8.622,-0.741c2.905,-0.247 5.841,-0.433 8.807,-0.557l16.78,-0.741c2.534,-0.124 4.852,-0.186 6.954,-0.186c2.719,-8.9 5.655,-18.634 8.807,-29.203c3.152,-10.568 6.366,-21.323 9.641,-32.262c3.276,-10.94 6.274,-21.354 8.993,-31.243c2.596,-0.247 6.181,-0.463 10.754,-0.649c4.574,-0.185 9.086,-0.278 13.536,-0.278c8.529,-0 16.873,0.185 25.031,0.556c8.158,0.371 14.153,0.804 17.985,1.298c-1.236,2.843 -2.966,7.417 -5.191,13.721c-2.225,6.304 -4.759,13.844 -7.602,22.621c-2.843,8.776 -5.934,18.356 -9.271,28.739c-3.338,10.384 -6.737,21.2 -10.198,32.448c-3.461,11.249 -6.922,22.559 -10.383,33.932c-4.45,14.462 -8.715,28.523 -12.794,42.182c-4.079,13.659 -7.695,26.113 -10.847,37.361c-3.152,11.249 -5.779,20.52 -7.88,27.813c-3.091,0.247 -7.911,0.525 -14.463,0.834c-6.551,0.309 -13.906,0.526 -22.064,0.649c-8.159,0.124 -16.193,0.186 -24.104,0.186c2.966,-12.238 5.809,-23.487 8.529,-33.746c2.719,-10.26 5.346,-20.056 7.88,-29.389c2.534,-9.332 5.161,-18.634 7.88,-27.905l-23.548,0.556l-14.462,0c-1.731,7.788 -3.678,16.41 -5.841,25.866c-2.163,9.456 -4.265,18.603 -6.304,27.442c-2.04,8.838 -3.801,16.347 -5.284,22.528c-1.484,6.18 -2.411,9.95 -2.782,11.31c-3.337,0.495 -8.004,0.896 -13.999,1.205c-5.995,0.309 -12.392,0.618 -19.19,0.927c-6.799,0.309 -13.196,0.526 -19.191,0.649c-5.995,0.124 -10.661,0.186 -13.999,0.186Z" style="fill:#41241c;fill-rule:nonzero;"/></g><path d="M3050.74,447.011c3.699,0 6.955,2.438 7.996,5.987c3.639,12.404 11.916,40.614 14.957,50.977c0.724,2.469 0.267,5.133 -1.237,7.22c-3.607,5.002 -10.033,13.915 -10.033,13.915c-3.89,5.395 -10.123,8.609 -16.775,8.649c-97.308,0.578 -835.365,4.967 -951.233,5.656c-9.097,0.054 -17.107,6.005 -19.786,14.699c-8.719,28.303 -27.824,90.318 -36.565,118.692c-2.692,8.737 -10.764,14.698 -19.906,14.7c-41.361,0.007 -81.955,0.021 -101.871,0.048c-3.385,0 -6.977,1.435 -9.882,3.959c-3.019,2.524 -5.004,5.909 -5.54,9.236c-9.182,59.663 29.2,106.073 90.526,106.073c1.234,0 521.627,-0.018 851.674,-0.057c3.128,-0 5.993,1.751 7.419,4.536c1.425,2.785 1.171,6.133 -0.659,8.671c-7.009,9.721 -16.338,22.66 -22.418,31.093c-3.916,5.431 -10.204,8.649 -16.899,8.649c-97.748,0.001 -834.597,0.002 -834.597,0.002c-122.882,-0 -245.707,-0 -190.678,-208.074l47.717,-180.422c1.699,-6.425 5.847,-12.563 11.577,-17.095c5.746,-4.59 12.552,-7.114 18.977,-7.114l1187.24,0Zm-1054.27,108.081c-10.311,29.659 -41.154,53.008 -71.215,53.008c-30.003,-0 -48.497,-23.349 -43.005,-53.008c0.556,-2.754 -1.177,-4.876 -3.93,-4.876c-1.32,-0 -2.754,-0 -4.146,0.057c-1.377,0 -2.848,0.574 -4.097,1.606c-1.233,0.976 -2.113,2.353 -2.42,3.729c-6.99,37.06 16.251,66.318 53.942,66.318c37.805,-0 76.464,-29.258 89.119,-66.26c0.494,-1.434 0.341,-2.811 -0.346,-3.901c-0.702,-1.033 -1.942,-1.549 -3.376,-1.549c-1.377,-0 -2.811,-0 -4.146,0.057c-2.696,0 -5.48,2.065 -6.38,4.819Zm117.229,-161.088c2.602,-0 5.055,1.215 6.631,3.286c1.576,2.07 2.094,4.758 1.401,7.266c-2.309,8.356 -5.452,19.734 -7.362,26.646c-0.999,3.613 -4.285,6.114 -8.033,6.114c-40.212,0 -257.993,0 -257.993,0c-11.932,0 -19.079,-9.638 -15.908,-21.627l0.015,-0.058c3.156,-11.932 15.415,-21.627 27.348,-21.627l253.901,-0Zm47.017,-211.114c5.291,-0 10.279,2.472 13.484,6.682c3.205,4.211 4.259,9.676 2.85,14.777c-0.074,0.269 -0.248,0.877 -0.511,1.793l-45.746,165.619c-2.03,7.346 -8.713,12.433 -16.334,12.433c-31.144,-0 -107.9,-0 -107.9,-0c-1.606,-0 -2.988,-0.631 -3.79,-1.721c-0.844,-1.147 -1.05,-2.754 -0.641,-4.303l46.579,-176.119c2.791,-10.556 13.615,-19.161 24.228,-19.161l87.781,-0Zm-168.684,195.28c-0.88,3.328 -4.29,6.024 -7.617,6.024l-27.996,-0c-6.712,-0 -10.678,-5.393 -8.903,-12.105l3.535,-13.367c0.425,-1.606 1.451,-3.097 2.901,-4.245c1.451,-1.147 3.167,-1.778 4.773,-1.778l38.724,-0c0.286,-0 0.658,0.115 0.811,0.402c0.211,0.286 0.235,0.631 0.144,0.975l-6.372,24.094Zm118.581,-21.914c4.474,-0 7.175,3.671 5.991,8.146c-1.183,4.475 -5.826,8.146 -10.3,8.146c-4.475,0 -7.175,-3.671 -5.992,-8.146c1.183,-4.475 5.826,-8.146 10.301,-8.146Zm-28.397,-0c4.474,-0 7.175,3.671 5.991,8.146c-1.183,4.475 -5.826,8.146 -10.3,8.146c-4.475,0 -7.176,-3.671 -5.992,-8.146c1.183,-4.475 5.826,-8.146 10.301,-8.146Zm35.892,-28.34c4.474,-0 7.19,3.614 5.991,8.146c-1.183,4.475 -5.826,8.146 -10.3,8.146c-4.475,0 -7.175,-3.671 -5.992,-8.146c1.199,-4.532 5.826,-8.146 10.301,-8.146Zm-28.397,-0c4.474,-0 7.19,3.614 5.991,8.146c-1.183,4.475 -5.826,8.146 -10.3,8.146c-4.475,0 -7.176,-3.671 -5.992,-8.146c1.199,-4.532 5.826,-8.146 10.301,-8.146Zm-121.075,-35.683c0.424,-1.606 1.465,-3.155 2.901,-4.245c1.451,-1.147 3.166,-1.778 4.773,-1.778l38.723,-0c0.287,-0 0.658,0.114 0.812,0.401c0.226,0.23 0.25,0.574 0.159,0.918l-14.217,53.754c-0.197,0.745 -0.98,1.319 -1.668,1.319l-38.724,0c-1.606,0 -2.988,-0.631 -3.832,-1.778c-0.859,-1.09 -1.08,-2.639 -0.655,-4.245l11.728,-44.346Zm128.586,7.286c4.474,-0 7.19,3.614 5.991,8.146c-1.198,4.532 -5.826,8.146 -10.3,8.146c-4.475,0 -7.191,-3.614 -5.992,-8.146c1.198,-4.532 5.826,-8.146 10.301,-8.146Zm28.397,-0c4.474,-0 7.19,3.614 5.991,8.146c-1.198,4.532 -5.826,8.146 -10.3,8.146c-4.475,0 -7.191,-3.614 -5.992,-8.146c1.199,-4.532 5.826,-8.146 10.301,-8.146Zm-20.887,-28.397c4.474,-0 7.175,3.671 5.991,8.146c-1.198,4.532 -5.841,8.204 -10.315,8.204c-4.475,-0 -7.176,-3.672 -5.977,-8.204c1.184,-4.475 5.826,-8.146 10.301,-8.146Zm28.397,-0c4.474,-0 7.175,3.671 5.991,8.146c-1.198,4.532 -5.841,8.204 -10.315,8.204c-4.475,-0 -7.175,-3.672 -5.977,-8.204c1.184,-4.475 5.826,-8.146 10.301,-8.146Zm-147.349,-43.715c0.425,-1.606 1.466,-3.155 2.916,-4.302c1.436,-1.09 3.167,-1.779 4.773,-1.779l34.02,0c1.548,0 2.915,0.689 3.774,1.779c0.844,1.147 1.066,2.696 0.641,4.302l-12.517,47.329c-0.197,0.746 -0.995,1.377 -1.684,1.377l-38.723,-0c-1.606,-0 -2.988,-0.631 -3.832,-1.779c-0.844,-1.147 -1.081,-2.639 -0.656,-4.245l11.288,-42.682Zm126.446,15.375c4.475,-0 7.175,3.672 5.992,8.146c-1.184,4.475 -5.826,8.147 -10.301,8.147c-4.475,-0 -7.175,-3.672 -5.992,-8.147c1.184,-4.474 5.826,-8.146 10.301,-8.146Zm28.397,-0c4.475,-0 7.175,3.672 5.992,8.146c-1.184,4.475 -5.826,8.147 -10.301,8.147c-4.475,-0 -7.175,-3.672 -5.992,-8.147c1.184,-4.474 5.826,-8.146 10.301,-8.146Zm-20.887,-28.397c4.475,-0 7.175,3.672 5.992,8.146c-1.199,4.532 -5.826,8.146 -10.301,8.146c-4.475,0 -7.19,-3.614 -5.992,-8.146c1.184,-4.474 5.826,-8.146 10.301,-8.146Zm28.397,-0c4.475,-0 7.175,3.672 5.992,8.146c-1.199,4.532 -5.826,8.146 -10.301,8.146c-4.474,0 -7.19,-3.614 -5.991,-8.146c1.183,-4.474 5.826,-8.146 10.3,-8.146Zm-142.114,-63.506c0.637,-2.41 2.705,-4.59 5.128,-5.508c2.48,-0.918 4.925,-0.401 6.191,1.32c7.779,10.498 21.815,29.659 27.316,37.06c1.293,1.835 1.054,4.474 -0.586,6.769c-2.474,3.499 -4.366,7.4 -5.459,11.531l-0.834,3.155c-0.425,1.606 -1.466,3.155 -2.917,4.303c-1.45,1.147 -3.166,1.778 -4.715,1.778l-34.019,0c-1.607,0 -2.989,-0.631 -3.833,-1.778c-0.844,-1.148 -1.065,-2.697 -0.64,-4.303l14.368,-54.327Zm87.677,-24.152c1.607,-0 2.989,0.631 3.848,1.721c0.844,1.147 1.065,2.696 0.641,4.302l-8.997,34.02c-0.425,1.606 -1.466,3.155 -2.902,4.245c-1.45,1.147 -3.166,1.778 -4.773,1.778l-5.909,0c-5.277,0 -10.59,1.434 -15.473,3.844c-2.716,1.377 -5.608,1.032 -7.043,-0.918c-6.022,-8.032 -20.875,-28.225 -28.202,-38.265c-1.212,-1.491 -1.194,-3.728 -0.058,-5.851c1.135,-2.123 3.223,-3.729 5.54,-4.245c2.056,-0.402 4.125,-0.631 6.248,-0.631l57.08,-0Zm1239.68,-0c3.129,-0 5.993,1.752 7.419,4.536c1.425,2.785 1.17,6.133 -0.659,8.671c-5.608,7.777 -12.542,17.395 -17.456,24.21c-3.916,5.431 -10.203,8.649 -16.899,8.649c-115.786,0 -1135.58,0 -1135.58,0c-1.606,0 -2.988,-0.631 -3.775,-1.778c-0.859,-1.09 -1.08,-2.639 -0.655,-4.245l8.997,-34.02c0.424,-1.606 1.465,-3.155 2.916,-4.302c1.378,-1.09 3.094,-1.721 4.7,-1.721l1150.99,-0Zm-1225.16,6.023c0.425,-1.606 1.465,-3.155 2.916,-4.302c1.436,-1.09 3.152,-1.721 4.758,-1.721l44.345,-0c1.607,-0 2.931,0.631 3.79,1.721c0.844,1.147 1.066,2.696 0.641,4.302l-8.997,34.02c-0.425,1.606 -1.466,3.155 -2.901,4.245c-1.451,1.147 -3.109,1.778 -4.716,1.778l-44.345,0c-1.607,0 -2.988,-0.631 -3.832,-1.778c-0.859,-1.09 -1.081,-2.639 -0.656,-4.245l8.997,-34.02Z" style="fill:#41241c;"/><path d="M3323.98,763.204l-98.831,98.831l-119.429,-407.054l407.054,119.429l-98.831,98.831l116.436,116.437l-89.962,89.962l-116.437,-116.436Zm149.228,-178.691l-336.761,-98.805l98.805,336.761l88.728,-88.728l116.437,116.436l60.499,-60.499l-116.436,-116.437l88.728,-88.728Z" style="fill:#41241c;"/><path d="M3323.98,786.774l-87.046,87.046c-4.16,4.161 -10.207,5.819 -15.908,4.363c-5.702,-1.455 -10.213,-5.81 -11.869,-11.456l-119.43,-407.054c-1.716,-5.849 -0.102,-12.167 4.208,-16.477c4.31,-4.31 10.628,-5.924 16.477,-4.208l407.054,119.43c5.646,1.656 10.001,6.167 11.456,11.869c1.456,5.701 -0.202,11.748 -4.363,15.908l-87.046,87.046l104.651,104.651c6.509,6.509 6.509,17.062 0,23.571l-89.962,89.962c-6.509,6.509 -17.062,6.509 -23.571,0l-104.651,-104.651Zm117.576,-194.178l-280.528,-82.307l82.307,280.528l68.86,-68.861c6.509,-6.509 17.062,-6.509 23.57,-0l104.652,104.651l36.929,-36.929l-104.651,-104.652c-6.509,-6.508 -6.509,-17.061 -0,-23.57l68.861,-68.86Z" style="fill:#41241c;"/><path d="M2961.49,821.386c4.241,-7.562 1.545,-13.7 -6.016,-13.7l-61.645,-0c-7.562,-0 -17.143,6.138 -21.384,13.7l-15.367,27.399c-4.241,7.561 -1.545,13.7 6.016,13.7l61.645,0c7.561,0 17.143,-6.139 21.384,-13.7l15.367,-27.399Z" style="fill:#41241c;"/><path d="M3092.88,558.341c4.241,-7.561 1.545,-13.7 -6.016,-13.7l-61.646,0c-7.561,0 -17.143,6.139 -21.383,13.7l-106.45,221.951c-4.241,7.561 -1.545,13.7 6.016,13.7l61.646,-0c7.561,-0 17.143,-6.139 21.384,-13.7l106.449,-221.951Z" style="fill:#41241c;"/><path d="M3415.11,161.72c-3.66,5.406 -11.02,9.795 -16.427,9.795l-44.075,0c-5.406,0 -6.823,-4.389 -3.163,-9.795l13.263,-19.59c3.66,-5.406 11.02,-9.795 16.426,-9.795l44.075,0c5.406,0 6.824,4.389 3.164,9.795l-13.263,19.59Z" style="fill:#41241c;"/><path d="M3339.91,905.78c-3.66,5.406 -11.02,9.795 -16.426,9.795l-44.075,-0c-5.406,-0 -6.824,-4.389 -3.164,-9.795l13.263,-19.59c3.66,-5.406 11.02,-9.795 16.426,-9.795l44.076,-0c5.406,-0 6.823,4.389 3.163,9.795l-13.263,19.59Z" style="fill:#41241c;"/><path d="M3017.62,840.884c2.259,-4.027 1.556,-7.297 -1.568,-7.297l-25.473,0c-3.124,0 -7.494,3.27 -9.753,7.297l-8.185,14.594c-2.259,4.027 -1.556,7.296 1.568,7.296l25.473,0c3.124,0 7.495,-3.269 9.753,-7.296l8.185,-14.594Z" style="fill:#41241c;"/><path d="M3458.04,167.576c-1.949,2.88 -5.345,5.217 -7.579,5.217l-18.212,0c-2.234,0 -2.465,-2.337 -0.516,-5.217l7.064,-10.434c1.949,-2.879 5.346,-5.217 7.58,-5.217l18.212,0c2.234,0 2.465,2.338 0.515,5.217l-7.064,10.434Z" style="fill:#41241c;"/><path d="M3460.82,476.185c-1.95,2.88 -5.346,5.217 -7.58,5.217l-18.212,0c-2.234,0 -2.465,-2.337 -0.515,-5.217l7.064,-10.434c1.949,-2.879 5.345,-5.217 7.579,-5.217l18.212,0c2.234,0 2.465,2.338 0.516,5.217l-7.064,10.434Z" style="fill:#41241c;"/><path d="M3346.82,409.359c-1.95,2.879 -5.346,5.217 -7.58,5.217l-18.212,0c-2.234,0 -2.465,-2.338 -0.516,-5.217l7.064,-10.434c1.95,-2.879 5.346,-5.217 7.58,-5.217l18.212,0c2.234,0 2.465,2.338 0.516,5.217l-7.064,10.434Z" style="fill:#41241c;"/><path d="M3295.82,474.007c-1.95,2.88 -5.346,5.217 -7.58,5.217l-18.212,0c-2.234,0 -2.465,-2.337 -0.516,-5.217l7.064,-10.434c1.95,-2.879 5.346,-5.217 7.58,-5.217l18.212,0c2.234,0 2.465,2.338 0.516,5.217l-7.064,10.434Z" style="fill:#41241c;"/><path d="M3155.49,901.202c-1.949,2.879 -5.345,5.217 -7.579,5.217l-18.213,-0c-2.233,-0 -2.464,-2.338 -0.515,-5.217l7.064,-10.434c1.949,-2.88 5.346,-5.217 7.579,-5.217l18.213,-0c2.234,-0 2.465,2.337 0.515,5.217l-7.064,10.434Z" style="fill:#41241c;"/><path d="M3127.84,653.2c-1.949,2.879 -5.346,5.217 -7.579,5.217l-18.213,-0c-2.234,-0 -2.465,-2.338 -0.515,-5.217l7.064,-10.434c1.949,-2.88 5.345,-5.217 7.579,-5.217l18.213,-0c2.233,-0 2.464,2.337 0.515,5.217l-7.064,10.434Z" style="fill:#41241c;"/><path d="M3089.93,819.794c2.259,-4.027 1.556,-7.297 -1.568,-7.297l-25.473,0c-3.124,0 -7.495,3.27 -9.753,7.297l-8.185,14.593c-2.259,4.028 -1.556,7.297 1.568,7.297l25.473,0c3.124,0 7.494,-3.269 9.753,-7.297l8.185,-14.593Z" style="fill:#41241c;"/><path d="M3511.14,146.708c-1.949,2.88 -5.345,5.217 -7.579,5.217l-18.212,0c-2.234,0 -2.465,-2.337 -0.516,-5.217l7.064,-10.434c1.95,-2.879 5.346,-5.217 7.58,-5.217l18.212,0c2.234,0 2.465,2.338 0.515,5.217l-7.064,10.434Z" style="fill:#41241c;"/><path d="M3104.92,852.614c1.372,-2.447 0.945,-4.433 -0.953,-4.433l-15.475,-0c-1.898,-0 -4.554,1.986 -5.926,4.433l-4.972,8.866c-1.373,2.446 -0.946,4.433 0.953,4.433l15.475,-0c1.898,-0 4.553,-1.987 5.925,-4.433l4.973,-8.866Z" style="fill:#41241c;"/><path d="M3536.31,155.095c-1.184,1.749 -3.247,3.169 -4.605,3.169l-11.064,0c-1.357,0 -1.497,-1.42 -0.313,-3.169l4.291,-6.339c1.185,-1.75 3.248,-3.17 4.605,-3.17l11.065,0c1.357,0 1.497,1.42 0.313,3.17l-4.292,6.339Z" style="fill:#41241c;"/><path d="M3268.26,433.537c-1.184,1.749 -3.248,3.169 -4.605,3.169l-11.064,0c-1.357,0 -1.497,-1.42 -0.313,-3.169l4.291,-6.339c1.185,-1.749 3.248,-3.169 4.605,-3.169l11.064,-0c1.358,-0 1.498,1.42 0.314,3.169l-4.292,6.339Z" style="fill:#41241c;"/><path d="M3082.64,558.836c-1.184,1.749 -3.248,3.169 -4.605,3.169l-11.064,0c-1.357,0 -1.498,-1.42 -0.313,-3.169l4.291,-6.339c1.185,-1.749 3.248,-3.169 4.605,-3.169l11.064,-0c1.357,-0 1.498,1.42 0.313,3.169l-4.291,6.339Z" style="fill:#41241c;"/><path d="M3352.72,471.591c-1.184,1.749 -3.248,3.169 -4.605,3.169l-11.064,0c-1.357,0 -1.498,-1.42 -0.313,-3.169l4.291,-6.339c1.184,-1.749 3.248,-3.17 4.605,-3.17l11.064,0c1.357,0 1.498,1.421 0.313,3.17l-4.291,6.339Z" style="fill:#41241c;"/><path d="M3093.58,684.135c-1.185,1.749 -3.248,3.169 -4.605,3.169l-11.064,0c-1.357,0 -1.498,-1.42 -0.313,-3.169l4.291,-6.339c1.184,-1.749 3.248,-3.169 4.605,-3.169l11.064,-0c1.357,-0 1.498,1.42 0.313,3.169l-4.291,6.339Z" style="fill:#41241c;"/><path d="M3545.58,530.164c-1.184,1.749 -3.247,3.169 -4.604,3.169l-11.065,0c-1.357,0 -1.497,-1.42 -0.313,-3.169l4.292,-6.339c1.184,-1.749 3.247,-3.169 4.604,-3.169l11.065,-0c1.357,-0 1.497,1.42 0.313,3.169l-4.292,6.339Z" style="fill:#41241c;"/><path d="M3556.52,725.073c-1.184,1.75 -3.247,3.17 -4.604,3.17l-11.065,-0c-1.357,-0 -1.497,-1.42 -0.313,-3.17l4.292,-6.338c1.184,-1.75 3.247,-3.17 4.604,-3.17l11.065,0c1.357,0 1.497,1.42 0.313,3.17l-4.292,6.338Z" style="fill:#41241c;"/><path d="M3123.08,758.248c-1.184,1.749 -3.247,3.169 -4.604,3.169l-11.065,0c-1.357,0 -1.497,-1.42 -0.313,-3.169l4.292,-6.339c1.184,-1.749 3.247,-3.169 4.604,-3.169l11.065,-0c1.357,-0 1.497,1.42 0.313,3.169l-4.292,6.339Z" style="fill:#41241c;"/><path d="M2998.71,656.153c-1.185,1.749 -3.248,3.169 -4.605,3.169l-11.064,-0c-1.358,-0 -1.498,-1.42 -0.314,-3.169l4.292,-6.339c1.184,-1.75 3.248,-3.17 4.605,-3.17l11.064,0c1.357,0 1.497,1.42 0.313,3.17l-4.291,6.339Z" style="fill:#41241c;"/><path d="M3454.26,129.896c-1.184,1.749 -3.248,3.17 -4.605,3.17l-11.064,-0c-1.357,-0 -1.497,-1.421 -0.313,-3.17l4.291,-6.339c1.185,-1.749 3.248,-3.169 4.605,-3.169l11.064,-0c1.357,-0 1.498,1.42 0.314,3.169l-4.292,6.339Z" style="fill:#41241c;"/></g></svg>