<?xml version="1.0" encoding="UTF-8" standalone="no"?><!DOCTYPE svg PUBLIC "-//W3C//DTD SVG 1.1//EN" "http://www.w3.org/Graphics/SVG/1.1/DTD/svg11.dtd"><svg width="1280px" height="256px" version="1.1" xmlns="http://www.w3.org/2000/svg" xmlns:xlink="http://www.w3.org/1999/xlink" xml:space="preserve" xmlns:serif="http://www.serif.com/" style="fill-rule:evenodd;clip-rule:evenodd;stroke-linecap:round;stroke-linejoin:round;stroke-miterlimit:1.5;"><path d="M629.725,110.671c-1.452,-0.226 -2.884,0.358 -4.294,1.089c-2.056,1.065 -4.022,2.562 -5.886,3.933c-4.734,3.356 -12.409,7.353 -23.617,8.964c-0.044,0.104 -0.119,0.304 -0.119,0.443c0,7.839 0,24.261 0,35.51c0,1.807 0.586,3.552 1.69,4.829c0.902,1.045 2.098,1.687 3.374,1.687l78.254,-0c1.276,-0 2.472,-0.642 3.374,-1.687c1.104,-1.277 1.69,-3.022 1.69,-4.829c-0,-11.249 -0,-27.671 -0,-35.509c-0,-0.139 -0.075,-0.34 -0.118,-0.443c-11.251,-1.634 -18.897,-5.619 -23.679,-9.009c-1.803,-1.327 -3.769,-2.824 -5.825,-3.889c-1.41,-0.731 -2.842,-1.315 -4.294,-1.089c-3.378,0.654 -7.183,1.191 -10.205,1.191c-0.01,0 -0.02,0 -0.03,-0c-0,-0 -0.071,-0.001 -0.009,-0.001c-0,0 -0.071,0.001 -0.101,0.001c-3.022,0 -6.827,-0.537 -10.205,-1.191Zm36.018,-6.277c5.652,4.474 12.475,7.112 19.831,7.112c19.836,0 35.614,-18.914 35.614,-41.868c0,-22.954 -15.778,-41.869 -35.614,-41.869c-2.278,0 -4.506,0.252 -6.664,0.735c-1.795,0.402 -3.641,-0.422 -4.542,-2.026c-7.305,-13.006 -19.904,-21.73 -34.278,-21.731l-0.109,0.001c-0,-0 -0.071,-0.001 -0.051,-0c-14.394,-0 -26.993,8.724 -34.298,21.73c-0.901,1.604 -2.747,2.428 -4.542,2.026c-2.158,-0.483 -4.386,-0.735 -6.664,-0.735c-19.836,0 -35.614,18.915 -35.614,41.869c-0,22.954 15.778,41.868 35.614,41.868c7.373,0 14.211,-2.651 19.834,-7.109c-8.059,-5.786 -14.548,-14.247 -18.483,-24.329c-0.012,-0.03 -0.023,-0.061 -0.034,-0.091c-0.823,-2.262 0.325,-4.78 2.276,-5.742c2.286,-1.127 5.046,-0.275 6.144,2.253c6.994,14.523 20.456,22.778 35.836,22.778l0.092,-0c0,-0 0.07,-0 0.049,-0c15.377,-0 28.706,-8.259 35.696,-22.777c1.099,-2.529 3.858,-3.381 6.145,-2.254c1.951,0.962 3.099,3.48 2.242,5.833c-3.935,10.08 -10.421,18.539 -18.48,24.326Z" style="fill:#41251d;stroke:#41251d;stroke-width:6.29px;"/><path d="M511.056,226.035c-20.502,-0.239 0.055,-119.462 -5.063,-128.166c-7.843,-13.338 -11.22,-34.578 -7.445,-47.099c0.163,-0.412 0.581,-0.665 1.022,-0.619c0.441,0.047 0.796,0.382 0.869,0.82c1.126,6.774 2.538,12.175 4.657,17.808c0.167,0.439 0.616,0.702 1.08,0.633c0.464,-0.069 0.817,-0.452 0.849,-0.92c0.487,-7.497 1.135,-13.013 3.166,-19.263c0.133,-0.409 0.512,-0.686 0.942,-0.689c0.429,-0.003 0.813,0.269 0.951,0.676c2.107,6.191 2.759,11.651 3.169,19.144c0.026,0.472 0.379,0.86 0.845,0.931c0.467,0.072 0.92,-0.193 1.087,-0.634c2.092,-5.59 3.492,-10.961 4.597,-17.688c0.073,-0.444 0.433,-0.784 0.88,-0.831c0.447,-0.048 0.871,0.209 1.035,0.628c3.763,12.525 0.386,33.765 -7.457,47.103c-5.123,8.713 15.48,128.166 -5.123,128.166l-0.061,-0Z" style="fill:#41251d;"/><path d="M764.665,226.035c20.065,-0.234 -3.285,-93.905 10.49,-97.903c0.522,-0.027 0.931,-0.459 0.928,-0.982c-0.208,-20.92 -8.736,-64.735 -13.574,-75.951c-0.193,-0.429 -0.661,-0.666 -1.121,-0.567c-0.461,0.099 -0.79,0.506 -0.79,0.978c-0,11.722 -0,54.096 -0,75.921c0,0.514 0.391,0.945 0.903,0.994c5.89,7.39 -13.968,97.51 3.104,97.51l0.06,-0Z" style="fill:#41251d;"/><path d="M445.171,114.671c0.503,-1.225 0.483,-2.711 -0.053,-3.911c-0.536,-1.2 -1.509,-1.935 -2.559,-1.935c-0,-0 -45.832,-8.635 -53.179,-8.635c-0.964,-0 -1.868,0.614 -2.433,1.651c-6.223,11.519 -6.368,42.656 0.004,54.169c0.564,1.015 1.457,1.613 2.407,1.613c7.273,0.011 53.034,-11.011 53.034,-11.011c1.063,-0 2.046,-0.748 2.585,-1.965c0.539,-1.217 0.553,-2.721 0.037,-3.956c-3.782,-8.659 -3.508,-17.34 0.157,-26.02Z" style="fill:#41251d;"/><path d="M817.912,114.671c-0.503,-1.225 -0.483,-2.711 0.054,-3.911c0.536,-1.2 1.508,-1.935 2.558,-1.935c0,-0 45.832,-8.635 53.18,-8.635c0.963,-0 1.868,0.614 2.432,1.651c6.223,11.519 6.368,42.656 -0.004,54.169c-0.564,1.015 -1.457,1.613 -2.407,1.613c-7.272,0.011 -53.034,-11.011 -53.034,-11.011c-1.063,-0 -2.046,-0.748 -2.585,-1.965c-0.538,-1.217 -0.552,-2.721 -0.036,-3.956c3.781,-8.659 3.507,-17.34 -0.158,-26.02Z" style="fill:#41251d;"/><path d="M464.9,50.103c0.874,-0.351 1.607,-1.105 1.929,-1.984c0.321,-0.879 0.184,-1.752 -0.361,-2.297c-0,-0 -19.49,-28.13 -23.307,-31.947c-0.5,-0.501 -1.278,-0.663 -2.09,-0.438c-8.995,2.531 -24.649,18.033 -27.099,27.104c-0.214,0.8 -0.05,1.564 0.444,2.057c3.773,3.783 33.06,22.042 33.06,22.042c0.552,0.552 1.437,0.689 2.325,0.36c0.889,-0.329 1.649,-1.075 1.999,-1.96c2.368,-6.297 6.853,-10.498 13.1,-12.937Z" style="fill:#41251d;"/><path d="M798.184,50.103c-0.874,-0.351 -1.608,-1.105 -1.929,-1.984c-0.322,-0.879 -0.185,-1.752 0.361,-2.297c-0,-0 19.489,-28.13 23.306,-31.947c0.5,-0.501 1.278,-0.663 2.09,-0.438c8.996,2.531 24.649,18.033 27.099,27.104c0.214,0.8 0.05,1.564 -0.443,2.057c-3.773,3.783 -33.06,22.042 -33.06,22.042c-0.553,0.552 -1.438,0.689 -2.326,0.36c-0.889,-0.329 -1.649,-1.075 -1.998,-1.96c-2.368,-6.297 -6.853,-10.498 -13.1,-12.937Z" style="fill:#41251d;"/><path d="M451.927,191.646c-0.351,-0.874 -1.106,-1.607 -1.984,-1.929c-0.879,-0.322 -1.752,-0.184 -2.298,0.361c0,0 -28.129,19.489 -31.946,23.307c-0.501,0.5 -0.664,1.277 -0.438,2.089c2.53,8.996 18.033,24.65 27.103,27.099c0.801,0.215 1.564,0.05 2.057,-0.443c3.784,-3.773 22.043,-33.06 22.043,-33.06c0.552,-0.552 0.688,-1.437 0.36,-2.326c-0.329,-0.888 -1.075,-1.649 -1.961,-1.998c-6.297,-2.368 -10.497,-6.853 -12.936,-13.1Z" style="fill:#41251d;"/><path d="M811.156,191.646c0.352,-0.874 1.106,-1.607 1.984,-1.929c0.879,-0.322 1.752,-0.184 2.298,0.361c-0,0 28.129,19.489 31.947,23.307c0.5,0.5 0.663,1.277 0.437,2.089c-2.53,8.996 -18.032,24.65 -27.103,27.099c-0.801,0.215 -1.564,0.05 -2.057,-0.443c-3.784,-3.773 -22.043,-33.06 -22.043,-33.06c-0.551,-0.552 -0.688,-1.437 -0.359,-2.326c0.329,-0.888 1.074,-1.649 1.96,-1.998c6.297,-2.368 10.497,-6.853 12.936,-13.1Z" style="fill:#41251d;"/><g><path d="M565.629,196.736c-1.925,-0 -3.502,-0.438 -4.732,-1.313c-1.23,-0.875 -2.139,-2.058 -2.727,-3.551c-0.588,-1.492 -0.882,-3.162 -0.882,-5.009c-0,-1.983 0.315,-3.733 0.947,-5.25c0.632,-1.517 1.568,-2.708 2.808,-3.573c1.239,-0.865 2.768,-1.298 4.586,-1.298c1.497,0 2.776,0.27 3.836,0.809c1.059,0.54 1.922,1.279 2.588,2.217c0.666,0.938 1.155,2.02 1.466,3.245c0.311,1.225 0.466,2.523 0.466,3.894c0,1.312 -0.162,2.559 -0.488,3.74c-0.326,1.182 -0.827,2.227 -1.502,3.136c-0.676,0.909 -1.541,1.628 -2.596,2.158c-1.055,0.53 -2.311,0.795 -3.77,0.795Zm-0.014,-3.5c1.186,-0 2.16,-0.304 2.924,-0.912c0.763,-0.607 1.324,-1.412 1.684,-2.413c0.36,-1.002 0.54,-2.086 0.54,-3.252c-0,-0.885 -0.083,-1.743 -0.248,-2.574c-0.166,-0.831 -0.435,-1.575 -0.81,-2.231c-0.374,-0.657 -0.875,-1.179 -1.502,-1.568c-0.627,-0.389 -1.412,-0.584 -2.355,-0.584c-1.128,0 -2.064,0.316 -2.807,0.948c-0.744,0.632 -1.301,1.488 -1.67,2.567c-0.37,1.079 -0.554,2.295 -0.554,3.646c-0,1.176 0.167,2.246 0.503,3.208c0.335,0.963 0.855,1.731 1.56,2.304c0.705,0.574 1.617,0.861 2.735,0.861Z" style="fill:#41251d;fill-rule:nonzero;"/><path d="M587.023,181.511c0.185,-0.059 0.445,-0.105 0.78,-0.139c0.336,-0.034 0.664,-0.051 0.985,-0.051c0.281,0 0.588,0.01 0.918,0.029c0.331,0.02 0.598,0.049 0.802,0.088c0.146,0.894 0.265,1.801 0.358,2.72c0.092,0.918 0.138,1.825 0.138,2.719c0,1.352 -0.116,2.623 -0.35,3.814c-0.233,1.191 -0.615,2.241 -1.145,3.15c-0.529,0.909 -1.237,1.621 -2.121,2.136c-0.885,0.516 -1.984,0.773 -3.296,0.773c-1.42,0 -2.586,-0.279 -3.5,-0.838c-0.914,-0.559 -1.624,-1.335 -2.129,-2.326c-0.506,-0.992 -0.861,-2.144 -1.065,-3.456c-0.204,-1.313 -0.306,-2.723 -0.306,-4.23c-0,-0.816 0.026,-1.65 0.08,-2.501c0.053,-0.85 0.109,-1.684 0.168,-2.501c0.204,-0.019 0.464,-0.029 0.78,-0.029c0.316,0 0.6,0.005 0.853,0.015c0.36,0.009 0.722,0.034 1.086,0.073c0.365,0.039 0.659,0.092 0.883,0.16c-0.088,0.807 -0.161,1.621 -0.219,2.443c-0.058,0.821 -0.088,1.626 -0.088,2.413c0,1.575 0.127,2.929 0.38,4.062c0.252,1.132 0.636,2.003 1.152,2.61c0.515,0.608 1.176,0.912 1.983,0.912c0.758,-0 1.385,-0.275 1.881,-0.824c0.496,-0.55 0.868,-1.33 1.116,-2.341c0.248,-1.011 0.372,-2.207 0.372,-3.587c-0,-0.866 -0.044,-1.753 -0.131,-2.662c-0.088,-0.909 -0.21,-1.786 -0.365,-2.632Z" style="fill:#41251d;fill-rule:nonzero;"/><path d="M597.377,183.013c0.272,-0.467 0.671,-0.904 1.196,-1.313c0.525,-0.408 1.13,-0.736 1.816,-0.984c0.685,-0.248 1.383,-0.372 2.092,-0.372c0.457,0 0.914,0.044 1.371,0.131c0.457,0.088 0.807,0.205 1.05,0.35l-0.685,3.5c-0.224,-0.097 -0.516,-0.199 -0.875,-0.306c-0.36,-0.107 -0.788,-0.16 -1.284,-0.16c-0.534,-0 -1.062,0.092 -1.582,0.277c-0.52,0.185 -0.999,0.442 -1.436,0.773c-0.438,0.33 -0.807,0.714 -1.109,1.152c0.117,0.651 0.238,1.448 0.365,2.391c0.126,0.944 0.243,1.913 0.35,2.91c0.107,0.996 0.194,1.903 0.262,2.72c0.068,0.816 0.102,1.429 0.102,1.837c-0.505,0.058 -1.105,0.095 -1.801,0.11c-0.695,0.014 -1.349,0.017 -1.961,0.007c-0,-0.875 -0.022,-1.823 -0.066,-2.844c-0.043,-1.021 -0.104,-2.071 -0.182,-3.15c-0.078,-1.079 -0.177,-2.151 -0.299,-3.216c-0.121,-1.064 -0.262,-2.085 -0.423,-3.062c-0.16,-0.977 -0.338,-1.869 -0.532,-2.676c0.33,-0.097 0.707,-0.192 1.13,-0.284c0.423,-0.093 0.812,-0.171 1.167,-0.234c0.355,-0.063 0.585,-0.095 0.692,-0.095c0.127,0.302 0.26,0.717 0.401,1.247c0.141,0.53 0.222,0.96 0.241,1.291Z" style="fill:#41251d;fill-rule:nonzero;"/><path d="M620.375,196.182l-3.777,-0.234c-0.029,-2.1 -0.078,-4.234 -0.146,-6.402c-0.068,-2.168 -0.148,-4.314 -0.241,-6.438c-0.092,-2.125 -0.187,-4.169 -0.284,-6.133c1.07,-0.038 2.068,-0.063 2.997,-0.073c0.928,-0.009 1.796,-0.009 2.603,0c1.021,0.02 1.937,0.066 2.749,0.139c0.812,0.073 1.568,0.168 2.268,0.284c0.048,0.506 0.085,1.048 0.109,1.626c0.024,0.579 0.037,1.063 0.037,1.451c-0.37,-0.029 -0.912,-0.07 -1.626,-0.123c-0.715,-0.054 -1.556,-0.103 -2.523,-0.146c-0.968,-0.044 -2.02,-0.066 -3.158,-0.066c0.03,0.331 0.061,0.756 0.095,1.276c0.034,0.52 0.068,1.062 0.102,1.626c0.034,0.564 0.061,1.079 0.08,1.546c0.905,-0 1.777,0.024 2.618,0.073c0.841,0.049 1.565,0.104 2.173,0.168c0.608,0.063 1.009,0.114 1.203,0.153c0,0.428 -0.005,0.884 -0.014,1.371c-0.01,0.486 -0.034,0.972 -0.073,1.458c-0.496,-0.058 -1.077,-0.112 -1.743,-0.161c-0.666,-0.048 -1.347,-0.087 -2.042,-0.116c-0.695,-0.029 -1.329,-0.044 -1.903,-0.044c0.078,0.826 0.148,1.738 0.212,2.734c0.063,0.997 0.119,2.015 0.167,3.056c0.049,1.04 0.088,2.032 0.117,2.975Z" style="fill:#41251d;fill-rule:nonzero;"/><path d="M634.638,196.269c-1.216,0 -2.317,-0.16 -3.304,-0.481c-0.986,-0.321 -1.774,-0.846 -2.362,-1.575c-0.588,-0.729 -0.882,-1.697 -0.882,-2.902c-0,-1.186 0.333,-2.154 0.999,-2.902c0.666,-0.749 1.555,-1.301 2.668,-1.655c1.113,-0.355 2.346,-0.533 3.697,-0.533c0.603,0 1.186,0.044 1.75,0.131c0.564,0.088 1.055,0.188 1.473,0.299c0.418,0.112 0.705,0.212 0.861,0.299c-0.03,-0.301 -0.088,-0.61 -0.175,-0.926c-0.088,-0.316 -0.214,-0.59 -0.38,-0.824c-0.34,-0.573 -0.828,-1.045 -1.465,-1.414c-0.637,-0.37 -1.446,-0.554 -2.428,-0.554c-1.021,-0 -1.896,0.223 -2.625,0.67c-0.73,0.448 -1.279,0.968 -1.648,1.561l-2.757,-1.808c0.428,-0.623 1.002,-1.174 1.721,-1.656c0.72,-0.481 1.541,-0.86 2.465,-1.137c0.923,-0.277 1.905,-0.416 2.946,-0.416c1.672,0 3.043,0.302 4.112,0.904c1.07,0.603 1.852,1.415 2.348,2.436c0.253,0.505 0.455,1.06 0.605,1.662c0.151,0.603 0.246,1.332 0.285,2.188c0.019,0.855 0.041,1.599 0.065,2.231c0.025,0.632 0.051,1.196 0.081,1.692c0.029,0.671 0.119,1.103 0.269,1.298c0.151,0.194 0.358,0.291 0.62,0.291c0.301,0 0.554,-0.111 0.758,-0.335c0.205,-0.224 0.326,-0.54 0.365,-0.948l1.444,1.998c-0.068,0.7 -0.358,1.242 -0.868,1.626c-0.51,0.384 -1.125,0.576 -1.845,0.576c-0.544,-0 -1.035,-0.102 -1.473,-0.306c-0.437,-0.204 -0.792,-0.469 -1.064,-0.795c-0.272,-0.326 -0.433,-0.673 -0.481,-1.043c-0.175,0.36 -0.533,0.722 -1.072,1.087c-0.54,0.364 -1.208,0.666 -2.006,0.904c-0.797,0.238 -1.696,0.357 -2.697,0.357Zm0.67,-2.669c0.574,0 1.143,-0.087 1.707,-0.262c0.563,-0.175 1.081,-0.406 1.553,-0.693c0.471,-0.287 0.853,-0.595 1.145,-0.926c-0.02,-0.496 -0.03,-0.955 -0.03,-1.378c0,-0.423 0.01,-0.804 0.03,-1.145c-0.253,-0.097 -0.747,-0.216 -1.481,-0.357c-0.734,-0.141 -1.543,-0.212 -2.428,-0.212c-0.768,0 -1.473,0.098 -2.114,0.292c-0.642,0.195 -1.155,0.479 -1.539,0.853c-0.384,0.375 -0.576,0.834 -0.576,1.378c0,0.632 0.158,1.126 0.474,1.481c0.316,0.354 0.753,0.605 1.312,0.751c0.559,0.145 1.208,0.218 1.947,0.218Z" style="fill:#41251d;fill-rule:nonzero;"/><path d="M655.667,180.082c0.534,0.087 1.033,0.192 1.494,0.313c0.462,0.122 0.849,0.231 1.16,0.328c0.311,0.098 0.501,0.161 0.569,0.19c-0.175,0.7 -0.409,1.536 -0.7,2.508c-0.292,0.972 -0.625,2.018 -0.999,3.136c-0.375,1.118 -0.766,2.245 -1.174,3.383c-0.409,1.137 -0.812,2.224 -1.211,3.259c-0.398,1.036 -0.773,1.952 -1.123,2.749c-0.389,0.068 -0.889,0.102 -1.502,0.102c-0.272,0 -0.539,-0.009 -0.802,-0.029c-0.262,-0.019 -0.491,-0.044 -0.685,-0.073c-0.535,-1.108 -1.055,-2.292 -1.561,-3.551c-0.505,-1.259 -0.996,-2.545 -1.473,-3.857c-0.476,-1.313 -0.926,-2.623 -1.349,-3.93c-0.422,-1.308 -0.814,-2.569 -1.173,-3.785c0.136,-0.038 0.332,-0.087 0.59,-0.145c0.258,-0.059 0.54,-0.127 0.846,-0.205l1.611,-0.408c0.156,0.613 0.367,1.354 0.635,2.224c0.267,0.87 0.561,1.789 0.882,2.756c0.321,0.968 0.647,1.913 0.977,2.837c0.331,0.923 0.635,1.755 0.912,2.493c0.277,0.739 0.503,1.313 0.678,1.721l-0.204,0.059c0.223,-0.584 0.464,-1.25 0.721,-1.998c0.258,-0.749 0.523,-1.546 0.795,-2.392c0.272,-0.846 0.54,-1.711 0.802,-2.596c0.263,-0.884 0.503,-1.759 0.722,-2.625c0.219,-0.865 0.406,-1.687 0.562,-2.464Z" style="fill:#41251d;fill-rule:nonzero;"/><path d="M668.31,196.4c-2.557,0 -4.457,-0.7 -5.702,-2.1c-1.244,-1.4 -1.866,-3.422 -1.866,-6.066c-0,-1.702 0.321,-3.131 0.962,-4.288c0.642,-1.157 1.536,-2.034 2.684,-2.632c1.147,-0.598 2.479,-0.897 3.995,-0.897c1.585,0 2.898,0.367 3.938,1.101c1.04,0.734 1.813,1.75 2.319,3.048c0.505,1.298 0.758,2.807 0.758,4.528c-0,1.478 -0.277,2.764 -0.831,3.857c-0.554,1.094 -1.361,1.942 -2.421,2.545c-1.06,0.603 -2.338,0.904 -3.836,0.904Zm-0.131,-3.135c0.7,-0 1.308,-0.129 1.823,-0.386c0.515,-0.258 0.938,-0.608 1.269,-1.05c0.33,-0.443 0.576,-0.946 0.736,-1.51c0.161,-0.564 0.241,-1.152 0.241,-1.764c-0,-1.07 -0.148,-2.02 -0.445,-2.851c-0.296,-0.832 -0.744,-1.483 -1.342,-1.955c-0.597,-0.471 -1.348,-0.707 -2.253,-0.707c-0.923,0 -1.689,0.226 -2.297,0.678c-0.607,0.452 -1.059,1.06 -1.356,1.823c-0.296,0.763 -0.445,1.621 -0.445,2.574c0,1.507 0.346,2.742 1.036,3.704c0.69,0.963 1.701,1.444 3.033,1.444Z" style="fill:#41251d;fill-rule:nonzero;"/><path d="M681.085,183.013c0.273,-0.467 0.671,-0.904 1.196,-1.313c0.525,-0.408 1.13,-0.736 1.816,-0.984c0.685,-0.248 1.383,-0.372 2.093,-0.372c0.457,0 0.913,0.044 1.37,0.131c0.457,0.088 0.807,0.205 1.05,0.35l-0.685,3.5c-0.224,-0.097 -0.515,-0.199 -0.875,-0.306c-0.36,-0.107 -0.787,-0.16 -1.283,-0.16c-0.535,-0 -1.062,0.092 -1.583,0.277c-0.52,0.185 -0.999,0.442 -1.436,0.773c-0.438,0.33 -0.807,0.714 -1.108,1.152c0.116,0.651 0.238,1.448 0.364,2.391c0.127,0.944 0.243,1.913 0.35,2.91c0.107,0.996 0.195,1.903 0.263,2.72c0.068,0.816 0.102,1.429 0.102,1.837c-0.506,0.058 -1.106,0.095 -1.801,0.11c-0.695,0.014 -1.349,0.017 -1.962,0.007c0,-0.875 -0.022,-1.823 -0.065,-2.844c-0.044,-1.021 -0.105,-2.071 -0.183,-3.15c-0.077,-1.079 -0.177,-2.151 -0.299,-3.216c-0.121,-1.064 -0.262,-2.085 -0.423,-3.062c-0.16,-0.977 -0.337,-1.869 -0.532,-2.676c0.331,-0.097 0.707,-0.192 1.13,-0.284c0.423,-0.093 0.812,-0.171 1.167,-0.234c0.355,-0.063 0.586,-0.095 0.693,-0.095c0.126,0.302 0.26,0.717 0.401,1.247c0.141,0.53 0.221,0.96 0.24,1.291Z" style="fill:#41251d;fill-rule:nonzero;"/><path d="M695.173,195.992c-0.156,0.01 -0.406,0.027 -0.751,0.051c-0.345,0.024 -0.707,0.037 -1.087,0.037c-0.301,-0 -0.6,-0.01 -0.896,-0.03c-0.297,-0.019 -0.581,-0.048 -0.854,-0.087c0.039,-0.253 0.088,-0.773 0.146,-1.561c0.059,-0.787 0.119,-1.72 0.183,-2.8c0.063,-1.079 0.121,-2.194 0.175,-3.346c0.053,-1.152 0.094,-2.227 0.124,-3.223c0.029,-0.997 0.043,-1.796 0.043,-2.399c0.136,-0.01 0.348,-0.022 0.635,-0.037c0.286,-0.014 0.595,-0.029 0.926,-0.043c0.33,-0.015 0.646,-0.027 0.948,-0.037c0.301,-0.01 0.534,-0.015 0.7,-0.015c0.038,0.282 0.07,0.715 0.094,1.298c0.025,0.584 0.037,1.235 0.037,1.955c-0,0.904 -0.01,1.878 -0.029,2.924c-0.02,1.045 -0.049,2.063 -0.088,3.055c-0.039,0.991 -0.085,1.869 -0.138,2.632c-0.054,0.763 -0.11,1.305 -0.168,1.626Zm-1.138,-15.633c-0.738,-0 -1.336,-0.219 -1.793,-0.657c-0.457,-0.437 -0.686,-0.996 -0.686,-1.677c0,-0.486 0.112,-0.901 0.336,-1.246c0.223,-0.346 0.517,-0.608 0.882,-0.788c0.365,-0.18 0.751,-0.27 1.159,-0.27c0.671,0 1.216,0.229 1.634,0.686c0.418,0.457 0.627,1.03 0.627,1.72c-0,0.613 -0.2,1.138 -0.598,1.575c-0.399,0.438 -0.919,0.657 -1.561,0.657Z" style="fill:#41251d;fill-rule:nonzero;"/><path d="M710.398,193.542c-0.165,0.428 -0.413,0.88 -0.744,1.356c-0.33,0.477 -0.778,0.883 -1.341,1.218c-0.564,0.335 -1.279,0.503 -2.144,0.503c-1.118,0 -2.015,-0.243 -2.691,-0.729c-0.676,-0.486 -1.162,-1.125 -1.458,-1.918c-0.297,-0.792 -0.445,-1.655 -0.445,-2.588c0,-0.506 0.007,-1.075 0.022,-1.707c0.014,-0.631 0.031,-1.283 0.051,-1.954c0.019,-0.671 0.041,-1.312 0.066,-1.925c0.024,-0.612 0.046,-1.154 0.065,-1.626c0.02,-0.471 0.034,-0.824 0.044,-1.057c-0.885,0.087 -1.67,0.185 -2.355,0.292c-0.686,0.107 -1.135,0.184 -1.349,0.233c-0.068,-0.379 -0.122,-0.78 -0.161,-1.203c-0.039,-0.423 -0.065,-0.797 -0.08,-1.123c-0.014,-0.326 -0.022,-0.537 -0.022,-0.634c0.545,-0.078 1.167,-0.156 1.867,-0.234c0.7,-0.078 1.405,-0.136 2.115,-0.175c-0,-0.34 -0.003,-0.778 -0.008,-1.312c-0.005,-0.535 -0.012,-1.036 -0.022,-1.502c0,-0.399 -0.014,-0.79 -0.043,-1.174c-0.03,-0.384 -0.059,-0.703 -0.088,-0.956l3.281,-0.233c0.01,0.146 0.025,0.472 0.044,0.977c0.02,0.506 0.029,1.118 0.029,1.838l0,2.173c0.311,-0.02 0.681,-0.039 1.109,-0.059c0.427,-0.019 0.768,-0.029 1.02,-0.029c0.448,-0.019 0.866,-0.029 1.255,-0.029c0.388,-0 0.719,0.005 0.991,0.015c0.272,0.009 0.443,0.014 0.511,0.014c0.048,0.331 0.082,0.771 0.102,1.32c0.019,0.549 0.029,1.013 0.029,1.393c-0.097,-0.01 -0.425,-0.013 -0.984,-0.008c-0.559,0.005 -1.111,0.013 -1.656,0.022c-0.379,0.01 -0.802,0.029 -1.268,0.059c-0.467,0.029 -0.851,0.053 -1.152,0.072c-0.01,0.244 -0.027,0.589 -0.052,1.036c-0.024,0.447 -0.043,0.95 -0.058,1.509c-0.014,0.559 -0.031,1.128 -0.051,1.707c-0.019,0.578 -0.034,1.125 -0.044,1.64c-0.009,0.515 -0.014,0.943 -0.014,1.283c-0,0.623 0.034,1.204 0.102,1.743c0.068,0.54 0.231,0.977 0.488,1.313c0.258,0.335 0.664,0.503 1.218,0.503c0.379,-0 0.688,-0.127 0.926,-0.379c0.238,-0.253 0.428,-0.545 0.569,-0.875c0.141,-0.331 0.25,-0.613 0.328,-0.846c0.097,0.116 0.243,0.277 0.438,0.481c0.194,0.204 0.401,0.416 0.619,0.634l0.941,0.941Z" style="fill:#41251d;fill-rule:nonzero;"/><path d="M725.798,192.959c-0.214,0.291 -0.518,0.607 -0.912,0.948c-0.393,0.34 -0.872,0.661 -1.436,0.962c-0.564,0.302 -1.218,0.549 -1.961,0.744c-0.744,0.194 -1.578,0.292 -2.501,0.292c-1.469,-0 -2.757,-0.292 -3.865,-0.875c-1.108,-0.584 -1.971,-1.439 -2.589,-2.567c-0.617,-1.128 -0.926,-2.513 -0.926,-4.156c0,-1.595 0.331,-2.983 0.992,-4.164c0.661,-1.181 1.573,-2.095 2.734,-2.742c1.162,-0.646 2.501,-0.969 4.018,-0.969c1.906,-0 3.4,0.566 4.484,1.699c1.084,1.132 1.675,2.666 1.772,4.601c0.01,0.32 0.012,0.624 0.008,0.911c-0.005,0.287 -0.027,0.591 -0.066,0.912c-0.136,-0.01 -0.416,-0.022 -0.839,-0.037c-0.422,-0.014 -0.909,-0.029 -1.458,-0.044c-0.549,-0.014 -1.086,-0.029 -1.611,-0.043c-0.525,-0.015 -0.958,-0.022 -1.298,-0.022c-0.934,-0 -1.877,0.046 -2.829,0.138c-0.953,0.093 -1.789,0.192 -2.509,0.299c0.01,0.234 0.032,0.46 0.066,0.678c0.034,0.219 0.075,0.426 0.124,0.62c0.155,0.535 0.432,0.994 0.831,1.378c0.399,0.384 0.875,0.678 1.429,0.883c0.554,0.204 1.138,0.306 1.75,0.306c0.632,-0 1.189,-0.09 1.67,-0.27c0.481,-0.18 0.902,-0.403 1.262,-0.671c0.359,-0.267 0.661,-0.532 0.904,-0.795c0.243,-0.262 0.447,-0.476 0.612,-0.641c0.059,0.048 0.182,0.167 0.372,0.357c0.19,0.19 0.404,0.416 0.642,0.678c0.238,0.263 0.462,0.532 0.671,0.81c0.209,0.277 0.362,0.537 0.459,0.78Zm-10.704,-6.315c0.612,-0.107 1.341,-0.199 2.187,-0.277c0.846,-0.078 1.813,-0.117 2.902,-0.117c0.574,0 1.065,0.008 1.473,0.022c0.409,0.015 0.7,0.032 0.875,0.051c0,-0.282 -0.039,-0.583 -0.116,-0.904c-0.098,-0.437 -0.277,-0.858 -0.54,-1.261c-0.262,-0.404 -0.615,-0.739 -1.057,-1.007c-0.443,-0.267 -0.985,-0.401 -1.626,-0.401c-0.768,0 -1.459,0.166 -2.071,0.496c-0.613,0.331 -1.096,0.788 -1.451,1.371c-0.355,0.583 -0.547,1.259 -0.576,2.027Z" style="fill:#41251d;fill-rule:nonzero;"/><path d="M544.938,236.123c-0.1,-1.883 -0.225,-4.183 -0.375,-6.9c-0.15,-2.716 -0.305,-5.621 -0.463,-8.712c-0.158,-3.092 -0.308,-6.163 -0.45,-9.213c-0.142,-3.05 -0.271,-5.841 -0.387,-8.375c0.683,-0.066 1.558,-0.137 2.625,-0.212c1.066,-0.075 2.22,-0.146 3.462,-0.213c1.242,-0.066 2.458,-0.125 3.65,-0.175c1.192,-0.05 2.246,-0.075 3.163,-0.075c1.3,0 2.612,0.121 3.937,0.363c1.325,0.241 2.546,0.666 3.663,1.275c1.116,0.608 2.012,1.471 2.687,2.587c0.675,1.117 1.013,2.567 1.013,4.35c-0,1.717 -0.446,3.338 -1.338,4.863c-0.892,1.525 -2.037,2.646 -3.437,3.362c0.383,0.717 0.808,1.584 1.275,2.6c0.466,1.017 0.933,2.092 1.4,3.225c0.466,1.134 0.916,2.254 1.35,3.363c0.433,1.108 0.816,2.121 1.15,3.037c0.333,0.917 0.583,1.65 0.75,2.2c-0.55,0.334 -1.284,0.65 -2.2,0.95c-0.917,0.3 -1.855,0.567 -2.813,0.8c-0.958,0.234 -1.787,0.417 -2.487,0.55c-0.7,0.134 -1.117,0.209 -1.25,0.225c-0.1,-0.566 -0.284,-1.375 -0.55,-2.425c-0.267,-1.05 -0.58,-2.2 -0.938,-3.45c-0.358,-1.25 -0.712,-2.487 -1.062,-3.712c-0.35,-1.225 -0.675,-2.325 -0.975,-3.3c-0.3,-0.975 -0.534,-1.688 -0.7,-2.138c-0.3,0.05 -0.588,0.1 -0.863,0.15c-0.275,0.05 -0.537,0.084 -0.787,0.1c-0.25,0.017 -0.5,0.034 -0.75,0.05c0.05,0.434 0.116,1.088 0.2,1.963c0.083,0.875 0.166,1.875 0.25,3c0.083,1.125 0.162,2.275 0.237,3.45c0.075,1.175 0.138,2.275 0.188,3.3c0.05,1.025 0.075,1.871 0.075,2.537c-0.75,0.167 -1.655,0.292 -2.713,0.375c-1.058,0.084 -2.162,0.142 -3.312,0.175c-1.15,0.034 -2.225,0.05 -3.225,0.05Zm7.5,-21.525c0.45,0 0.916,-0.016 1.4,-0.05c0.483,-0.033 1.075,-0.1 1.775,-0.2c0.9,-0.15 1.65,-0.358 2.25,-0.625c0.6,-0.266 1.045,-0.621 1.337,-1.062c0.292,-0.442 0.438,-0.971 0.438,-1.588c-0,-0.75 -0.184,-1.291 -0.55,-1.625c-0.367,-0.333 -0.884,-0.546 -1.55,-0.637c-0.667,-0.092 -1.459,-0.138 -2.375,-0.138c-0.267,0 -0.559,0.009 -0.875,0.025c-0.317,0.017 -0.63,0.042 -0.938,0.075l-1.437,0.15l0.225,2.263c0.05,0.441 0.091,0.879 0.125,1.312l0.175,2.1Z" style="fill:#41251d;fill-rule:nonzero;"/><path d="M594.663,231.373c-0.484,0.6 -1.088,1.171 -1.813,1.713c-0.725,0.541 -1.575,1.008 -2.55,1.4c-0.975,0.391 -2.083,0.704 -3.325,0.937c-1.242,0.234 -2.629,0.35 -4.162,0.35c-2.517,0 -4.763,-0.475 -6.738,-1.425c-1.975,-0.95 -3.517,-2.358 -4.625,-4.225c-1.108,-1.866 -1.662,-4.2 -1.662,-7c-0,-2.866 0.566,-5.366 1.7,-7.5c1.133,-2.133 2.733,-3.787 4.8,-4.962c2.066,-1.175 4.483,-1.763 7.25,-1.763c3.5,0 6.266,0.946 8.3,2.838c2.033,1.891 3.075,4.537 3.125,7.937c-0,0.65 -0.021,1.225 -0.063,1.725c-0.042,0.5 -0.121,1.042 -0.237,1.625c-0.25,-0.016 -0.805,-0.033 -1.663,-0.05l-5.862,-0.1c-0.917,-0.016 -1.559,-0.025 -1.925,-0.025c-1.35,0 -2.642,0.059 -3.875,0.175c-1.234,0.117 -2.234,0.242 -3,0.375c-0,0.25 0.016,0.5 0.05,0.75c0.033,0.25 0.091,0.484 0.175,0.7c0.2,0.584 0.533,1.075 1,1.475c0.466,0.4 1.033,0.704 1.7,0.913c0.666,0.208 1.375,0.312 2.125,0.312c0.616,0 1.195,-0.062 1.737,-0.187c0.542,-0.125 1.063,-0.313 1.563,-0.563c0.5,-0.25 0.975,-0.541 1.425,-0.875c0.45,-0.333 0.9,-0.708 1.35,-1.125c0.1,0.084 0.375,0.35 0.825,0.8c0.45,0.45 0.962,1.009 1.537,1.675c0.575,0.667 1.125,1.363 1.65,2.088c0.525,0.725 0.921,1.396 1.188,2.012Zm-15.975,-13.075c0.616,-0.116 1.387,-0.216 2.312,-0.3c0.925,-0.083 2.004,-0.125 3.238,-0.125c0.683,0 1.308,0.013 1.875,0.038c0.566,0.025 0.966,0.046 1.2,0.062c-0,-0.283 -0.05,-0.6 -0.15,-0.95c-0.134,-0.5 -0.38,-0.958 -0.738,-1.375c-0.358,-0.416 -0.804,-0.754 -1.337,-1.012c-0.534,-0.259 -1.159,-0.388 -1.875,-0.388c-0.95,0 -1.755,0.209 -2.413,0.625c-0.658,0.417 -1.162,0.938 -1.512,1.563c-0.35,0.625 -0.55,1.246 -0.6,1.862Z" style="fill:#41251d;fill-rule:nonzero;"/><path d="M622.038,230.148c-0.534,0.9 -1.325,1.779 -2.375,2.638c-1.05,0.858 -2.338,1.571 -3.863,2.137c-1.525,0.567 -3.279,0.85 -5.262,0.85c-2.567,0 -4.788,-0.629 -6.663,-1.887c-1.875,-1.259 -3.329,-2.938 -4.362,-5.038c-1.034,-2.1 -1.55,-4.4 -1.55,-6.9c-0,-2.616 0.537,-4.966 1.612,-7.05c1.075,-2.083 2.579,-3.737 4.513,-4.962c1.933,-1.225 4.2,-1.838 6.8,-1.838c1.566,0 3.004,0.234 4.312,0.7c1.308,0.467 2.471,1.146 3.488,2.038c1.016,0.891 1.875,1.962 2.575,3.212l-6.075,3.325c-0.067,-0.116 -0.175,-0.296 -0.325,-0.537c-0.15,-0.242 -0.375,-0.5 -0.675,-0.775c-0.3,-0.275 -0.684,-0.504 -1.15,-0.688c-0.467,-0.183 -1.042,-0.275 -1.725,-0.275c-1.1,0 -2.021,0.221 -2.763,0.663c-0.742,0.441 -1.304,1.075 -1.687,1.9c-0.384,0.825 -0.575,1.812 -0.575,2.962c-0,0.867 0.129,1.767 0.387,2.7c0.258,0.934 0.713,1.725 1.363,2.375c0.65,0.65 1.558,0.975 2.725,0.975c0.716,0 1.383,-0.125 2,-0.375c0.616,-0.25 1.158,-0.546 1.625,-0.887c0.466,-0.342 0.845,-0.667 1.137,-0.975c0.292,-0.309 0.479,-0.529 0.563,-0.663l5.95,6.375Z" style="fill:#41251d;fill-rule:nonzero;"/><path d="M634.238,235.448c-0.284,0.017 -0.875,0.054 -1.775,0.113c-0.9,0.058 -1.842,0.087 -2.825,0.087c-0.717,0 -1.442,-0.021 -2.175,-0.062c-0.734,-0.042 -1.459,-0.104 -2.175,-0.188c0.066,-0.433 0.158,-1.312 0.275,-2.637c0.116,-1.325 0.233,-2.892 0.35,-4.7c0.116,-1.809 0.229,-3.679 0.337,-5.613c0.108,-1.933 0.196,-3.746 0.263,-5.437c0.066,-1.692 0.1,-3.046 0.1,-4.063c0.383,-0.033 0.937,-0.066 1.662,-0.1c0.725,-0.033 1.513,-0.066 2.363,-0.1c0.85,-0.033 1.658,-0.058 2.425,-0.075c0.766,-0.016 1.366,-0.025 1.8,-0.025c0.116,0.534 0.204,1.409 0.262,2.625c0.058,1.217 0.088,2.575 0.088,4.075c-0,1.517 -0.025,3.1 -0.075,4.75c-0.05,1.65 -0.117,3.242 -0.2,4.775c-0.084,1.534 -0.188,2.884 -0.313,4.05c-0.125,1.167 -0.254,2.009 -0.387,2.525Zm-3.225,-25.8c-1.634,0 -3.013,-0.471 -4.138,-1.412c-1.125,-0.942 -1.687,-2.196 -1.687,-3.763c-0,-1.066 0.266,-1.979 0.8,-2.737c0.533,-0.759 1.225,-1.342 2.075,-1.75c0.85,-0.409 1.741,-0.613 2.675,-0.613c1.516,0 2.779,0.488 3.787,1.463c1.008,0.975 1.513,2.229 1.513,3.762c-0,1.417 -0.484,2.613 -1.45,3.588c-0.967,0.975 -2.159,1.462 -3.575,1.462Z" style="fill:#41251d;fill-rule:nonzero;"/><path d="M639.463,246.798c0.183,-2.8 0.341,-5.729 0.475,-8.787c0.133,-3.059 0.245,-6.079 0.337,-9.063c0.092,-2.983 0.167,-5.766 0.225,-8.35c0.058,-2.583 0.1,-4.821 0.125,-6.712c0.025,-1.892 0.038,-3.263 0.038,-4.113c1.166,-0.383 2.5,-0.654 4,-0.812c1.5,-0.159 2.95,-0.238 4.35,-0.238c0.066,0.584 0.12,1.229 0.162,1.938c0.042,0.708 0.063,1.362 0.063,1.962c0.3,-0.416 0.825,-0.929 1.575,-1.537c0.75,-0.609 1.716,-1.15 2.9,-1.625c1.183,-0.475 2.541,-0.713 4.075,-0.713c3.416,0 5.92,1.079 7.512,3.238c1.592,2.158 2.388,5.162 2.388,9.012c-0,2.7 -0.525,5.025 -1.575,6.975c-1.05,1.95 -2.471,3.446 -4.263,4.488c-1.792,1.041 -3.796,1.562 -6.012,1.562c-0.967,0 -1.946,-0.125 -2.938,-0.375c-0.992,-0.25 -1.871,-0.558 -2.637,-0.925c-0.767,-0.366 -1.292,-0.733 -1.575,-1.1c-0,0.417 -0.017,1.088 -0.05,2.013c-0.034,0.925 -0.071,1.971 -0.113,3.137c-0.042,1.167 -0.092,2.346 -0.15,3.538c-0.058,1.191 -0.117,2.296 -0.175,3.312c-0.058,1.017 -0.121,1.825 -0.187,2.425c-1,0.184 -2.046,0.329 -3.138,0.438c-1.092,0.108 -2.121,0.187 -3.087,0.237c-0.967,0.05 -1.742,0.075 -2.325,0.075Zm15,-21.5c1,0 1.854,-0.191 2.562,-0.575c0.708,-0.383 1.254,-0.946 1.638,-1.687c0.383,-0.742 0.575,-1.629 0.575,-2.663c-0,-1.416 -0.33,-2.508 -0.988,-3.275c-0.658,-0.766 -1.754,-1.15 -3.287,-1.15c-0.95,0 -1.8,0.138 -2.55,0.413c-0.75,0.275 -1.38,0.604 -1.888,0.987c-0.508,0.384 -0.912,0.767 -1.212,1.15l-0.1,3.663c-0.017,0.425 -0.034,0.746 -0.05,0.962c0.283,0.3 0.645,0.617 1.087,0.95c0.442,0.334 1.004,0.621 1.688,0.863c0.683,0.241 1.525,0.362 2.525,0.362Z" style="fill:#41251d;fill-rule:nonzero;"/><path d="M695.188,231.373c-0.484,0.6 -1.088,1.171 -1.813,1.713c-0.725,0.541 -1.575,1.008 -2.55,1.4c-0.975,0.391 -2.083,0.704 -3.325,0.937c-1.242,0.234 -2.629,0.35 -4.162,0.35c-2.517,0 -4.763,-0.475 -6.738,-1.425c-1.975,-0.95 -3.517,-2.358 -4.625,-4.225c-1.108,-1.866 -1.662,-4.2 -1.662,-7c-0,-2.866 0.566,-5.366 1.7,-7.5c1.133,-2.133 2.733,-3.787 4.8,-4.962c2.066,-1.175 4.483,-1.763 7.25,-1.763c3.5,0 6.266,0.946 8.3,2.838c2.033,1.891 3.075,4.537 3.125,7.937c-0,0.65 -0.021,1.225 -0.063,1.725c-0.042,0.5 -0.121,1.042 -0.237,1.625c-0.25,-0.016 -0.805,-0.033 -1.663,-0.05l-5.862,-0.1c-0.917,-0.016 -1.559,-0.025 -1.925,-0.025c-1.35,0 -2.642,0.059 -3.875,0.175c-1.234,0.117 -2.234,0.242 -3,0.375c-0,0.25 0.016,0.5 0.05,0.75c0.033,0.25 0.091,0.484 0.175,0.7c0.2,0.584 0.533,1.075 1,1.475c0.466,0.4 1.033,0.704 1.7,0.913c0.666,0.208 1.375,0.312 2.125,0.312c0.616,0 1.195,-0.062 1.737,-0.187c0.542,-0.125 1.063,-0.313 1.563,-0.563c0.5,-0.25 0.975,-0.541 1.425,-0.875c0.45,-0.333 0.9,-0.708 1.35,-1.125c0.1,0.084 0.375,0.35 0.825,0.8c0.45,0.45 0.962,1.009 1.537,1.675c0.575,0.667 1.125,1.363 1.65,2.088c0.525,0.725 0.921,1.396 1.188,2.012Zm-15.975,-13.075c0.616,-0.116 1.387,-0.216 2.312,-0.3c0.925,-0.083 2.004,-0.125 3.238,-0.125c0.683,0 1.308,0.013 1.875,0.038c0.566,0.025 0.966,0.046 1.2,0.062c-0,-0.283 -0.05,-0.6 -0.15,-0.95c-0.134,-0.5 -0.38,-0.958 -0.738,-1.375c-0.358,-0.416 -0.804,-0.754 -1.337,-1.012c-0.534,-0.259 -1.159,-0.388 -1.875,-0.388c-0.95,0 -1.755,0.209 -2.413,0.625c-0.658,0.417 -1.162,0.938 -1.512,1.563c-0.35,0.625 -0.55,1.246 -0.6,1.862Z" style="fill:#41251d;fill-rule:nonzero;"/><path d="M710.563,237.448c-2.1,0 -3.975,-0.241 -5.625,-0.725c-1.65,-0.483 -3.017,-1.029 -4.1,-1.637c-1.084,-0.609 -1.825,-1.121 -2.225,-1.538c0.1,-0.333 0.308,-0.841 0.625,-1.525c0.316,-0.683 0.691,-1.429 1.125,-2.237c0.433,-0.809 0.87,-1.563 1.312,-2.263c0.442,-0.7 0.829,-1.216 1.163,-1.55c0.833,0.667 1.708,1.313 2.625,1.938c0.916,0.625 1.833,1.137 2.75,1.537c0.916,0.4 1.758,0.6 2.525,0.6c0.533,0 1.004,-0.058 1.412,-0.175c0.408,-0.116 0.729,-0.304 0.963,-0.562c0.233,-0.259 0.35,-0.596 0.35,-1.013c-0,-0.466 -0.28,-0.954 -0.838,-1.462c-0.558,-0.509 -1.258,-1 -2.1,-1.475c-0.842,-0.475 -1.696,-0.896 -2.562,-1.263c-1.284,-0.566 -2.492,-1.225 -3.625,-1.975c-1.134,-0.75 -2.05,-1.687 -2.75,-2.812c-0.7,-1.125 -1.05,-2.513 -1.05,-4.163c-0,-1.683 0.504,-3.104 1.512,-4.262c1.008,-1.159 2.325,-2.034 3.95,-2.625c1.625,-0.592 3.346,-0.888 5.163,-0.888c1.65,0 3.383,0.234 5.2,0.7c1.816,0.467 3.325,1.175 4.525,2.125c-0.1,0.334 -0.33,0.859 -0.688,1.575c-0.358,0.717 -0.8,1.488 -1.325,2.313c-0.525,0.825 -1.087,1.596 -1.687,2.312c-0.634,-0.616 -1.45,-1.2 -2.45,-1.75c-1,-0.55 -2.025,-0.825 -3.075,-0.825c-0.467,0 -0.93,0.046 -1.388,0.138c-0.458,0.091 -0.842,0.258 -1.15,0.5c-0.308,0.241 -0.462,0.571 -0.462,0.987c-0,0.4 0.175,0.771 0.525,1.113c0.35,0.341 0.862,0.679 1.537,1.012c0.675,0.334 1.504,0.709 2.488,1.125c0.866,0.367 1.795,0.817 2.787,1.35c0.992,0.534 1.925,1.179 2.8,1.938c0.875,0.758 1.592,1.637 2.15,2.637c0.558,1 0.838,2.15 0.838,3.45c-0,2.117 -0.521,3.871 -1.563,5.263c-1.042,1.391 -2.408,2.425 -4.1,3.1c-1.692,0.675 -3.546,1.012 -5.562,1.012Z" style="fill:#41251d;fill-rule:nonzero;"/><path d="M734.663,224.173c-0.55,0 -1.309,-0.016 -2.275,-0.05c-0.967,-0.033 -1.938,-0.079 -2.913,-0.137c-0.975,-0.059 -1.779,-0.121 -2.412,-0.188c-0.117,-1.583 -0.225,-3.208 -0.325,-4.875c-0.1,-1.666 -0.188,-3.354 -0.263,-5.062c-0.075,-1.709 -0.137,-3.425 -0.187,-5.15c-0.05,-1.725 -0.084,-3.429 -0.1,-5.113c-0.017,-1.683 -0.017,-3.325 -0,-4.925l10.4,0.425c-0.067,0.617 -0.171,1.675 -0.313,3.175c-0.142,1.5 -0.292,3.238 -0.45,5.213c-0.158,1.975 -0.321,4.012 -0.487,6.112c-0.167,2.1 -0.309,4.079 -0.425,5.938c-0.117,1.858 -0.2,3.404 -0.25,4.637Zm-3.475,11.975c-1.617,0 -2.98,-0.504 -4.088,-1.512c-1.108,-1.009 -1.662,-2.288 -1.662,-3.838c-0,-1.533 0.554,-2.741 1.662,-3.625c1.108,-0.883 2.446,-1.325 4.013,-1.325c1.55,0 2.875,0.459 3.975,1.375c1.1,0.917 1.65,2.075 1.65,3.475c-0,1.684 -0.53,3.013 -1.588,3.988c-1.058,0.975 -2.379,1.462 -3.962,1.462Z" style="fill:#41251d;fill-rule:nonzero;"/></g></svg>