<?xml version="1.0" encoding="UTF-8" standalone="no"?><!DOCTYPE svg PUBLIC "-//W3C//DTD SVG 1.1//EN" "http://www.w3.org/Graphics/SVG/1.1/DTD/svg11.dtd"><svg width="5334px" height="1067px" version="1.1" xmlns="http://www.w3.org/2000/svg" xmlns:xlink="http://www.w3.org/1999/xlink" xml:space="preserve" xmlns:serif="http://www.serif.com/" style="fill-rule:evenodd;clip-rule:evenodd;stroke-linecap:round;stroke-linejoin:round;stroke-miterlimit:1.5;"><g><g><clipPath id="_clip1"><path d="M304.483,509.425c0,0 110.013,75.292 273.663,156.588c85.458,42.45 185.375,86.612 291.75,122.275c134.787,45.191 279.775,76.195 417.325,77.441c127.346,0.225 251.825,-25.675 371.983,-64.037c304.504,-97.225 580.404,-275.609 807.813,-283.584c254.954,-9.579 441.046,90.2 617.646,176.663c52.541,25.725 104.07,50.842 156.608,70.804c36.446,13.85 73.275,25.421 110.892,33.558c76.058,16.455 152.016,23.7 236.75,7.025c2.37,-0.333 6.629,-6.758 6.3,-9.133c-0.334,-2.371 -8.209,-4.917 -10.58,-4.583c-79.641,6.7 -145.712,-3.946 -214.837,-24.192c-47.183,-13.812 -92.863,-31.996 -138.583,-52.462c-162.371,-72.675 -322.855,-176.084 -525.034,-222.917c-73.95,-17.129 -153.516,-26.408 -240.829,-23.675c-230.929,7.617 -512.467,185.204 -821.6,284.154c-115.225,36.883 -234.383,62.733 -356.529,62.95c-132.967,1.204 -273.054,-28.267 -404.642,-67.887c-105.908,-31.888 -206.296,-70.471 -292.633,-107.817c-166.554,-72.054 -280.825,-138.508 -280.825,-138.508c-2.025,-1.28 -4.708,-0.675 -5.988,1.35c-1.279,2.025 -0.675,4.708 1.35,5.987Z"/></clipPath><g clip-path="url(#_clip1)"><path d="M304.483,509.425c-2.025,-1.279 -2.629,-3.962 -1.35,-5.987c1.28,-2.025 3.963,-2.63 5.988,-1.35c-0,-0 114.271,66.454 280.825,138.508c86.337,37.346 186.725,75.929 292.633,107.817c131.588,39.62 271.675,69.091 404.642,67.887c122.146,-0.217 241.304,-26.067 356.529,-62.95c309.133,-98.95 590.671,-276.537 821.6,-284.154c87.313,-2.733 166.879,6.546 240.829,23.675c202.179,46.833 362.663,150.242 525.034,222.917c45.72,20.466 91.4,38.65 138.583,52.462c59.993,17.571 117.686,27.912 183.941,25.957l-0.907,0.532c-3.558,1.905 -4.667,7.675 -3.621,11.575c0.552,2.055 2.029,4.108 3.894,5.57c-70.635,8.69 -135.751,1.352 -200.94,-12.751c-37.617,-8.137 -74.446,-19.708 -110.892,-33.558c-52.538,-19.962 -104.067,-45.079 -156.608,-70.804c-176.6,-86.463 -362.692,-186.242 -617.646,-176.663c-227.409,7.975 -503.309,186.359 -807.813,283.584c-120.158,38.362 -244.637,64.262 -371.983,64.037c-137.55,-1.246 -282.538,-32.25 -417.325,-77.441c-106.375,-35.663 -206.292,-79.825 -291.75,-122.275c-163.65,-81.296 -273.663,-156.588 -273.663,-156.588Z" style="fill:#41251d;"/></g></g><g><path d="M520.829,519.554c0.696,-4.375 1.525,-9.241 2.492,-14.596c0.966,-5.354 1.971,-10.87 3.008,-16.545c1.038,-5.675 2.096,-11.163 3.167,-16.463c1.075,-5.3 2.062,-10.042 2.971,-14.221c0.908,-4.179 1.687,-7.441 2.337,-9.791l3.733,1.35c-0.75,0.783 -2.366,2.304 -4.85,4.575c-2.487,2.266 -5.516,4.995 -9.087,8.187c-3.575,3.188 -7.392,6.592 -11.45,10.204c-4.054,3.617 -8.058,7.125 -12.008,10.525c-3.946,3.4 -7.546,6.467 -10.8,9.196c-3.25,2.725 -5.788,4.833 -7.609,6.321l-32.133,-17.708c2.704,-7.288 5.833,-15.292 9.396,-24.021c3.562,-8.725 7.446,-18 11.654,-27.829c4.208,-9.83 8.675,-19.992 13.4,-30.492c4.729,-10.504 9.65,-21.175 14.771,-32.013c5.121,-10.837 10.391,-21.62 15.812,-32.354l31.759,17.654c-3.342,6.609 -7.03,13.775 -11.067,21.505c-4.038,7.729 -8.15,15.595 -12.333,23.608c-4.18,8.012 -8.271,15.892 -12.275,23.633c-4.005,7.746 -7.675,14.971 -11.013,21.667c-3.342,6.696 -6.179,12.533 -8.517,17.508l-2.458,0.629c1.967,-1.95 4.596,-4.545 7.883,-7.787c3.292,-3.246 6.938,-6.846 10.942,-10.796c4.004,-3.954 8.1,-8.042 12.283,-12.262c4.184,-4.217 8.2,-8.321 12.042,-12.313c3.846,-3.987 7.183,-7.587 10.008,-10.8c2.825,-3.208 4.867,-5.792 6.121,-7.746l22.759,11.1c-0.505,1.175 -1.405,3.796 -2.705,7.867c-1.295,4.071 -2.779,9.033 -4.441,14.883c-1.663,5.85 -3.409,12.038 -5.234,18.563c-1.825,6.529 -3.562,12.875 -5.208,19.046c-1.646,6.17 -3.067,11.675 -4.262,16.512c-1.196,4.838 -1.959,8.379 -2.288,10.621l-4.104,-1.675c5.154,-6.85 10.862,-15.142 17.117,-24.871c6.254,-9.729 12.554,-19.946 18.904,-30.654c6.346,-10.713 12.275,-21.075 17.783,-31.092c5.504,-10.016 10.108,-18.687 13.808,-26.004l31.034,11.933c-6.354,12.58 -13.271,25.075 -20.75,37.488c-7.475,12.412 -14.975,24.208 -22.5,35.396c-7.525,11.183 -14.554,21.3 -21.092,30.354c-6.537,9.05 -12.112,16.512 -16.733,22.387c-4.617,5.871 -7.675,9.68 -9.179,11.417l-31.088,-12.096Z" style="fill:#41251d;fill-rule:nonzero;"/><path d="M699.808,574.683c-2.85,1.521 -6.345,2.863 -10.483,4.034c-4.133,1.166 -8.771,1.85 -13.912,2.046c-5.142,0.2 -10.767,-0.28 -16.88,-1.426c-6.112,-1.149 -12.587,-3.245 -19.425,-6.283c-10.987,-4.883 -19.725,-11.341 -26.22,-19.366c-6.496,-8.03 -10.238,-17.255 -11.225,-27.667c-0.992,-10.417 1.25,-21.775 6.716,-34.071c5.4,-12.146 12.571,-21.617 21.513,-28.4c8.941,-6.788 18.912,-10.696 29.916,-11.729c11,-1.034 22.288,1.021 33.855,6.162c14.625,6.5 24.25,15.813 28.879,27.938c4.633,12.121 3.987,25.621 -1.929,40.504c-1.063,2.579 -2.121,4.917 -3.184,7.017c-1.066,2.095 -2.329,4.3 -3.791,6.612c-0.988,-0.525 -3.13,-1.587 -6.425,-3.183c-3.3,-1.596 -7.071,-3.404 -11.313,-5.421c-4.246,-2.017 -8.333,-3.946 -12.267,-5.779c-3.933,-1.838 -7.025,-3.254 -9.283,-4.259c-6.621,-2.941 -13.342,-5.562 -20.162,-7.854c-6.825,-2.291 -12.725,-4.108 -17.705,-5.45c-0.679,1.525 -1.233,3.067 -1.662,4.617c-0.429,1.554 -0.75,3.067 -0.971,4.537c-0.458,3.975 0.079,7.809 1.621,11.5c1.537,3.692 3.892,7.025 7.054,10c3.167,2.975 6.821,5.384 10.967,7.23c4,1.775 7.846,2.833 11.533,3.162c3.683,0.333 7.154,0.221 10.408,-0.337c3.255,-0.559 6.234,-1.325 8.934,-2.305c2.7,-0.975 5.083,-1.833 7.154,-2.566c0.275,0.554 0.854,1.991 1.746,4.304c0.887,2.312 1.85,5.046 2.883,8.208c1.033,3.163 1.892,6.375 2.575,9.642c0.683,3.267 1.046,6.125 1.083,8.583Zm-54.254,-84.633c4.221,1.092 9.225,2.621 15.021,4.588c5.792,1.966 12.325,4.562 19.6,7.8c3.854,1.712 7.196,3.262 10.021,4.65c2.825,1.387 4.804,2.375 5.933,2.966c0.809,-1.821 1.429,-3.896 1.859,-6.233c0.604,-3.129 0.57,-6.433 -0.105,-9.913c-0.675,-3.479 -2.129,-6.72 -4.37,-9.72c-2.238,-3 -5.467,-5.438 -9.688,-7.313c-5.237,-2.329 -10.35,-3.275 -15.337,-2.833c-4.988,0.441 -9.476,2.062 -13.467,4.862c-3.992,2.8 -7.146,6.517 -9.467,11.146Z" style="fill:#41251d;fill-rule:nonzero;"/><path d="M771.008,620.854c-2.833,1.534 -7.325,2.388 -13.475,2.567c-6.15,0.175 -12.554,-1.054 -19.216,-3.692c-8.884,-3.516 -14.709,-8.325 -17.471,-14.429c-2.767,-6.104 -3.367,-13.342 -1.808,-21.717c1.558,-8.375 4.375,-17.704 8.449,-27.995c2.959,-7.475 6.105,-15.2 9.43,-23.175c3.329,-7.975 6.721,-15.942 10.171,-23.909c3.454,-7.966 6.845,-15.725 10.175,-23.271c3.329,-7.541 6.516,-14.67 9.558,-21.387c3.046,-6.717 5.8,-12.754 8.262,-18.117c4.813,1.475 9.18,2.992 13.105,4.546c2.587,1.025 5.112,2.108 7.57,3.254c2.459,1.146 5.075,2.438 7.842,3.875c-2.771,5.925 -5.879,12.638 -9.317,20.138c-3.441,7.5 -6.979,15.241 -10.608,23.225c-3.629,7.979 -7.175,15.804 -10.637,23.466c-3.463,7.663 -6.575,14.717 -9.338,21.159c-2.767,6.437 -4.967,11.733 -6.608,15.879c-1.992,5.033 -3.638,9.883 -4.929,14.554c-1.292,4.671 -1.68,8.733 -1.163,12.192c0.513,3.458 2.4,5.829 5.658,7.121c2.663,1.054 5.055,1.291 7.167,0.716c2.108,-0.579 4.079,-1.658 5.908,-3.25c0.196,1.021 0.359,2.884 0.484,5.588c0.129,2.704 0.262,5.671 0.4,8.891c0.137,3.225 0.246,6.134 0.329,8.738c0.083,2.6 0.104,4.279 0.062,5.033Z" style="fill:#41251d;fill-rule:nonzero;"/><path d="M886.45,642.033c-3.475,3.167 -8.133,5.855 -13.971,8.067c-5.841,2.208 -12.508,3.413 -20.004,3.604c-7.492,0.196 -15.521,-1.212 -24.083,-4.221c-11.346,-3.983 -20.121,-10.229 -26.329,-18.741c-6.209,-8.509 -9.892,-18.263 -11.05,-29.259c-1.159,-11 0.229,-22.091 4.158,-33.287c4.225,-12.017 10.254,-21.925 18.1,-29.717c7.841,-7.791 16.9,-12.925 27.175,-15.387c10.275,-2.467 21.275,-1.642 32.991,2.471c7.063,2.483 13.084,5.82 18.063,10.016c4.983,4.2 8.958,9.034 11.929,14.509c2.975,5.475 4.913,11.237 5.825,17.295l-25.954,5.063c-0.038,-0.858 -0.229,-2.171 -0.579,-3.938c-0.35,-1.77 -1.079,-3.775 -2.188,-6.02c-1.112,-2.25 -2.837,-4.417 -5.187,-6.505c-2.346,-2.091 -5.546,-3.85 -9.6,-5.275c-6.013,-2.108 -11.529,-2.55 -16.563,-1.32c-5.029,1.229 -9.466,3.887 -13.308,7.983c-3.846,4.092 -6.913,9.404 -9.208,15.942c-1.98,5.633 -3.1,11.462 -3.359,17.487c-0.262,6.029 0.917,11.504 3.534,16.433c2.612,4.925 7.187,8.538 13.725,10.834c3.904,1.371 7.704,1.966 11.395,1.787c3.692,-0.179 6.992,-0.75 9.905,-1.708c2.912,-0.963 5.345,-2.008 7.304,-3.133c1.954,-1.125 3.212,-1.888 3.775,-2.28l13.504,29.3Z" style="fill:#41251d;fill-rule:nonzero;"/><path d="M952.846,690.692c-20.242,-5.663 -33.858,-15.363 -40.846,-29.096c-6.987,-13.738 -7.587,-30.959 -1.796,-51.659c3.775,-13.495 9.529,-24.079 17.254,-31.758c7.729,-7.675 16.863,-12.542 27.4,-14.596c10.538,-2.054 21.863,-1.383 33.975,2.005c12.575,3.516 22.179,9.304 28.813,17.362c6.633,8.054 10.575,17.754 11.825,29.1c1.25,11.346 -0.004,23.729 -3.754,37.146c-3.242,11.579 -8.284,21.037 -15.134,28.379c-6.85,7.346 -15.158,12.213 -24.921,14.608c-9.762,2.396 -20.704,1.896 -32.816,-1.491Zm6.925,-29.188c4.908,1.371 9.421,1.704 13.546,0.996c4.125,-0.704 7.85,-2.267 11.171,-4.687c3.32,-2.417 6.145,-5.492 8.47,-9.225c2.325,-3.73 4.134,-7.896 5.421,-12.496c2.142,-7.667 2.967,-14.754 2.475,-21.259c-0.496,-6.504 -2.404,-12.02 -5.729,-16.545c-3.321,-4.525 -8.167,-7.68 -14.529,-9.459c-6.592,-1.846 -12.517,-1.725 -17.771,0.363c-5.254,2.083 -9.692,5.595 -13.304,10.537c-3.617,4.942 -6.334,10.671 -8.159,17.188c-2.979,10.658 -2.995,20.1 -0.045,28.325c2.945,8.225 9.1,13.641 18.454,16.262Z" style="fill:#41251d;fill-rule:nonzero;"/><path d="M1036.39,712.883c0.354,-5.341 0.937,-12 1.745,-19.975c0.809,-7.971 1.796,-16.558 2.963,-25.766c1.163,-9.205 2.346,-18.409 3.55,-27.609c1.204,-9.2 2.367,-17.762 3.492,-25.687c1.125,-7.921 2.096,-14.479 2.908,-19.671c1.729,-0.212 4.004,-0.337 6.829,-0.375c2.829,-0.042 5.825,-0.012 8.996,0.083c3.167,0.092 6.167,0.242 8.996,0.446c2.829,0.2 5.108,0.438 6.837,0.713c-0.116,1.271 -0.3,2.954 -0.55,5.05c-0.25,2.096 -0.529,4.266 -0.841,6.516c-0.313,2.246 -0.596,4.3 -0.846,6.155c-0.25,1.854 -0.446,3.212 -0.579,4.079c0.796,-1.488 2.275,-3.35 4.441,-5.588c2.167,-2.241 5.005,-4.396 8.513,-6.462c3.508,-2.067 7.637,-3.617 12.392,-4.642c4.758,-1.025 10.125,-1.067 16.1,-0.129c5.583,0.879 10.15,2.721 13.7,5.537c3.545,2.813 6.316,6.209 8.308,10.192c1.996,3.979 3.379,8.125 4.154,12.438c0.358,2.312 0.583,4.625 0.663,6.933c0.079,2.312 0.033,4.542 -0.146,6.687c2.654,-6.108 6.396,-11.729 11.233,-16.85c4.833,-5.125 10.625,-9.029 17.375,-11.716c6.75,-2.688 14.292,-3.379 22.629,-2.067c9.2,1.446 16.463,4.338 21.788,8.679c5.321,4.342 9.116,10.059 11.387,17.146c2.275,7.083 3.325,15.392 3.159,24.913c-0.167,9.525 -1.175,20.187 -3.03,31.983c-0.816,5.192 -1.787,10.6 -2.912,16.229c-1.125,5.625 -2.308,11.221 -3.546,16.788c-1.237,5.57 -2.408,10.845 -3.512,15.829c-2.542,-0.238 -5.18,-0.509 -7.913,-0.817c-2.729,-0.308 -5.433,-0.675 -8.108,-1.096c-2.754,-0.429 -5.517,-0.925 -8.288,-1.483c-2.775,-0.554 -5.558,-1.175 -8.354,-1.854c3.404,-11.396 6.371,-21.95 8.904,-31.667c2.534,-9.717 4.4,-18.387 5.6,-26.017c1.913,-12.191 1.959,-21.716 0.138,-28.57c-1.825,-6.855 -6.084,-10.809 -12.767,-11.859c-6.058,-0.95 -11.258,0.088 -15.6,3.109c-4.346,3.025 -8.017,7.545 -11.017,13.562c-3,6.017 -5.575,13.05 -7.725,21.092c-2.15,8.046 -4.062,16.608 -5.729,25.696c-0.825,4.225 -1.666,8.666 -2.516,13.325c-0.855,4.662 -1.659,9.391 -2.413,14.191c-1.429,-0.146 -3.429,-0.358 -6.004,-0.641c-2.575,-0.284 -5.238,-0.642 -7.992,-1.075c-3.225,-0.509 -6.362,-1.059 -9.408,-1.659c-3.05,-0.6 -5.263,-1.129 -6.642,-1.587c0.75,-5.284 1.521,-10.321 2.313,-15.113c0.791,-4.791 1.579,-9.666 2.358,-14.621c1.421,-9.045 2.517,-17.554 3.288,-25.533c0.766,-7.979 0.883,-15.117 0.337,-21.408c-0.542,-6.288 -1.996,-11.392 -4.362,-15.313c-2.367,-3.916 -6.03,-6.266 -10.984,-7.041c-3.537,-0.559 -7.071,-0.267 -10.596,0.87c-3.521,1.142 -6.8,2.78 -9.837,4.925c-3.038,2.142 -5.654,4.55 -7.846,7.23c-2.196,2.675 -3.775,5.308 -4.746,7.895c-1.496,12.58 -2.725,24.013 -3.696,34.296c-0.97,10.288 -1.708,18.692 -2.212,25.225c-0.5,6.529 -0.792,10.554 -0.867,12.071c-0.8,-0.046 -2.425,-0.221 -4.875,-0.525c-2.45,-0.304 -4.621,-0.604 -6.508,-0.9c-4.325,-0.679 -8.596,-1.45 -12.813,-2.317c-4.216,-0.862 -7.32,-1.612 -9.316,-2.25Z" style="fill:#41251d;fill-rule:nonzero;"/><path d="M1366.32,716.517c-1.963,2.57 -4.579,5.245 -7.85,8.033c-3.271,2.783 -7.204,5.337 -11.796,7.658c-4.592,2.325 -9.904,4.238 -15.938,5.742c-6.033,1.504 -12.791,2.296 -20.275,2.383c-12.02,0.142 -22.658,-2.083 -31.908,-6.675c-9.25,-4.591 -16.492,-11.412 -21.733,-20.471c-5.242,-9.054 -7.942,-20.308 -8.096,-33.762c-0.154,-13.296 2.417,-24.892 7.717,-34.788c5.3,-9.895 12.733,-17.604 22.304,-23.129c9.571,-5.525 20.683,-8.362 33.341,-8.508c16.005,-0.188 28.638,4.262 37.9,13.354c9.259,9.088 14.305,21.629 15.125,37.625c0.113,2.783 0.121,5.354 0.03,7.704c-0.092,2.35 -0.321,4.879 -0.688,7.592c-1.117,-0.067 -3.504,-0.142 -7.167,-0.217c-3.666,-0.075 -7.845,-0.146 -12.545,-0.212c-4.696,-0.067 -9.217,-0.113 -13.555,-0.142c-4.341,-0.029 -7.745,-0.029 -10.212,0c-7.246,0.084 -14.446,0.504 -21.604,1.267c-7.159,0.758 -13.279,1.567 -18.367,2.421c0.021,1.67 0.158,3.304 0.417,4.891c0.258,1.592 0.591,3.1 1.008,4.529c1.238,3.809 3.325,7.067 6.263,9.78c2.941,2.712 6.466,4.762 10.583,6.145c4.117,1.388 8.446,2.055 12.983,2c4.379,-0.05 8.313,-0.691 11.8,-1.929c3.488,-1.233 6.596,-2.783 9.321,-4.646c2.725,-1.862 5.113,-3.8 7.159,-5.816c2.049,-2.013 3.858,-3.788 5.433,-5.317c0.483,0.392 1.608,1.454 3.379,3.183c1.775,1.734 3.787,3.821 6.046,6.263c2.258,2.442 4.379,5.004 6.358,7.687c1.983,2.684 3.504,5.138 4.567,7.355Zm-84.596,-54.317c4.292,-0.767 9.479,-1.463 15.563,-2.092c6.083,-0.629 13.108,-0.987 21.07,-1.079c4.217,-0.05 7.9,-0.033 11.046,0.05c3.146,0.083 5.359,0.154 6.634,0.221c-0.025,-1.992 -0.33,-4.138 -0.913,-6.438c-0.754,-3.1 -2.162,-6.087 -4.225,-8.97c-2.063,-2.884 -4.737,-5.221 -8.025,-7.013c-3.283,-1.792 -7.233,-2.662 -11.854,-2.608c-5.729,0.066 -10.771,1.337 -15.121,3.816c-4.35,2.48 -7.758,5.825 -10.217,10.034c-2.458,4.208 -3.779,8.9 -3.958,14.079Z" style="fill:#41251d;fill-rule:nonzero;"/><path d="M1549.36,691.367c-0.784,3.404 -2.28,7.175 -4.5,11.312c-2.217,4.138 -5.459,7.913 -9.73,11.325c-4.27,3.413 -9.958,5.829 -17.062,7.25c-9.213,1.842 -17.059,1.379 -23.538,-1.383c-6.483,-2.763 -11.679,-7.142 -15.6,-13.138c-3.921,-5.995 -6.654,-12.858 -8.2,-20.587c-0.825,-4.138 -1.675,-8.7 -2.55,-13.679c-0.875,-4.979 -1.746,-10.042 -2.612,-15.188c-0.867,-5.146 -1.663,-10.041 -2.388,-14.687c-0.729,-4.646 -1.35,-8.763 -1.862,-12.354c-0.517,-3.592 -0.921,-6.33 -1.221,-8.221c-6.496,2.029 -12.354,3.996 -17.575,5.891c-5.225,1.896 -8.696,3.221 -10.413,3.971c-1.437,-3.529 -2.729,-7.25 -3.875,-11.162c-1.15,-3.909 -2.095,-7.334 -2.845,-10.271c-0.75,-2.933 -1.205,-4.792 -1.359,-5.571c4.325,-1.517 9.121,-3.104 14.392,-4.767c5.271,-1.666 10.721,-3.22 16.358,-4.675c-0.529,-2.245 -1.229,-5.437 -2.096,-9.566c-0.866,-4.13 -1.683,-7.904 -2.445,-11.325c-0.688,-3.029 -1.45,-6.021 -2.284,-8.984c-0.837,-2.958 -1.529,-5.395 -2.075,-7.316l29.959,-8.55c0.2,1.016 0.741,3.404 1.612,7.166c0.875,3.763 1.846,8.3 2.904,13.609l3.634,17.541c2.545,-0.67 5.52,-1.429 8.92,-2.27c3.405,-0.842 6.117,-1.509 8.13,-1.992c3.404,-0.842 6.55,-1.554 9.437,-2.129c2.892,-0.579 5.313,-1.046 7.275,-1.396c1.958,-0.35 3.25,-0.588 3.875,-0.713c1.108,3.105 2.225,7.167 3.35,12.179c1.125,5.013 2.054,9.351 2.788,13.021c-0.796,0.08 -3.375,0.592 -7.73,1.546c-4.358,0.954 -8.629,1.929 -12.812,2.929c-3.029,0.688 -6.317,1.505 -9.858,2.459c-3.546,0.95 -6.43,1.771 -8.646,2.458c0.266,1.733 0.646,4.238 1.137,7.508c0.492,3.271 1.084,6.93 1.767,10.971c0.687,4.046 1.375,8.192 2.062,12.438c0.688,4.246 1.375,8.291 2.063,12.133c0.687,3.842 1.304,7.125 1.85,9.858c1.012,5.075 2.217,9.667 3.608,13.771c1.388,4.109 3.292,7.238 5.713,9.396c2.421,2.154 5.662,2.825 9.721,2.013c2.733,-0.546 4.825,-1.859 6.275,-3.934c1.454,-2.079 2.52,-4.362 3.2,-6.854c0.679,-2.487 1.237,-4.671 1.675,-6.546c1.091,1 2.695,2.325 4.812,3.971c2.117,1.646 4.342,3.333 6.675,5.058c2.333,1.725 4.429,3.275 6.288,4.65c1.858,1.375 3.125,2.317 3.795,2.834Z" style="fill:#41251d;fill-rule:nonzero;"/><path d="M1618.94,693.125c-20.192,5.846 -36.871,4.771 -50.046,-3.225c-13.175,-7.996 -22.75,-22.321 -28.729,-42.967c-3.896,-13.462 -4.584,-25.487 -2.054,-36.083c2.525,-10.596 7.725,-19.542 15.604,-26.838c7.875,-7.295 17.854,-12.691 29.937,-16.191c12.542,-3.629 23.754,-3.767 33.634,-0.413c9.883,3.355 18.341,9.525 25.379,18.513c7.037,8.987 12.491,20.171 16.366,33.554c3.346,11.55 4.038,22.246 2.084,32.096c-1.954,9.85 -6.454,18.362 -13.492,25.542c-7.037,7.179 -16.6,12.516 -28.683,16.012Zm-9.484,-28.458c4.892,-1.417 8.909,-3.513 12.042,-6.288c3.133,-2.771 5.475,-6.058 7.025,-9.866c1.554,-3.805 2.333,-7.909 2.346,-12.305c0.012,-4.396 -0.646,-8.887 -1.975,-13.475c-2.217,-7.65 -5.246,-14.108 -9.092,-19.375c-3.846,-5.271 -8.375,-8.954 -13.583,-11.05c-5.204,-2.096 -10.984,-2.229 -17.333,-0.391c-6.575,1.908 -11.546,5.129 -14.917,9.666c-3.367,4.542 -5.288,9.863 -5.758,15.967c-0.471,6.104 0.233,12.408 2.116,18.908c3.079,10.629 8.038,18.663 14.875,24.1c6.838,5.442 14.921,6.809 24.254,4.109Z" style="fill:#41251d;fill-rule:nonzero;"/><path d="M1846.16,590.133c-0.166,3.488 -0.979,7.463 -2.433,11.93c-1.45,4.462 -3.979,8.75 -7.583,12.858c-3.6,4.112 -8.775,7.492 -15.517,10.146c-8.746,3.433 -16.55,4.362 -23.412,2.783c-6.867,-1.575 -12.759,-4.971 -17.671,-10.183c-4.917,-5.213 -8.813,-11.484 -11.696,-18.821c-1.546,-3.929 -3.188,-8.267 -4.925,-13.013c-1.738,-4.75 -3.488,-9.583 -5.246,-14.491c-1.758,-4.913 -3.408,-9.592 -4.942,-14.038c-1.533,-4.441 -2.866,-8.387 -4.008,-11.833c-1.142,-3.442 -2.021,-6.071 -2.646,-7.875c-6.037,3.142 -11.458,6.108 -16.266,8.896c-4.809,2.787 -7.988,4.7 -9.546,5.741c-2.038,-3.22 -3.967,-6.654 -5.784,-10.304c-1.82,-3.646 -3.358,-6.85 -4.612,-9.608c-1.254,-2.758 -2.029,-4.504 -2.317,-5.246c3.988,-2.254 8.434,-4.662 13.325,-7.229c4.896,-2.567 9.988,-5.058 15.284,-7.483c-0.921,-2.117 -2.171,-5.134 -3.75,-9.046c-1.584,-3.913 -3.05,-7.488 -4.405,-10.717c-1.212,-2.862 -2.487,-5.675 -3.833,-8.442c-1.342,-2.762 -2.454,-5.041 -3.329,-6.837l27.983,-13.692c0.375,0.963 1.329,3.217 2.85,6.767c1.525,3.55 3.279,7.846 5.259,12.883l6.662,16.629c2.388,-1.108 5.183,-2.379 8.388,-3.808c3.2,-1.429 5.75,-2.558 7.645,-3.392c3.205,-1.429 6.175,-2.683 8.917,-3.762c2.742,-1.075 5.046,-1.958 6.913,-2.65c1.866,-0.692 3.1,-1.154 3.691,-1.388c1.638,2.863 3.454,6.663 5.442,11.4c1.992,4.734 3.671,8.842 5.037,12.325c-0.77,0.217 -3.212,1.18 -7.333,2.884c-4.121,1.708 -8.154,3.421 -12.096,5.141c-2.862,1.209 -5.954,2.596 -9.275,4.159c-3.321,1.562 -6.012,2.875 -8.071,3.941c0.567,1.659 1.38,4.054 2.438,7.188c1.062,3.137 2.287,6.633 3.675,10.491c1.387,3.859 2.796,7.821 4.221,11.88c1.425,4.058 2.812,7.92 4.166,11.579c1.355,3.658 2.538,6.787 3.559,9.379c1.891,4.817 3.887,9.125 5.979,12.921c2.087,3.8 4.517,6.546 7.279,8.237c2.763,1.696 6.071,1.788 9.921,0.271c2.596,-1.017 4.425,-2.679 5.487,-4.979c1.063,-2.3 1.709,-4.733 1.938,-7.304c0.229,-2.575 0.396,-4.821 0.496,-6.742c1.254,0.792 3.066,1.813 5.437,3.063c2.375,1.246 4.863,2.516 7.463,3.8c2.6,1.287 4.937,2.446 7.008,3.471c2.071,1.025 3.483,1.733 4.233,2.12Z" style="fill:#41251d;fill-rule:nonzero;"/><path d="M1900.85,587.988c-1.441,0.879 -3.466,1.962 -6.079,3.249c-2.608,1.288 -5.379,2.559 -8.304,3.813c-3.221,1.375 -6.354,2.562 -9.392,3.558c-3.037,0.996 -5.346,1.571 -6.925,1.725c-1.341,-4.966 -3.341,-11.212 -5.996,-18.737c-2.654,-7.525 -5.775,-15.888 -9.362,-25.092c-3.588,-9.2 -7.492,-18.746 -11.717,-28.629c-4.196,-9.808 -8.583,-19.667 -13.162,-29.571c-4.579,-9.904 -9.104,-19.421 -13.571,-28.554c-4.467,-9.129 -8.613,-17.467 -12.442,-25.004c0.492,-0.471 1.842,-1.417 4.046,-2.838c2.208,-1.416 4.775,-3.012 7.696,-4.783c2.925,-1.767 5.708,-3.413 8.35,-4.929c2.642,-1.521 4.692,-2.592 6.158,-3.217c3.442,5.021 7.263,11.267 11.45,18.742c4.192,7.471 8.542,15.721 13.05,24.746c4.509,9.029 8.984,18.437 13.429,28.225c1.267,-3.921 3.338,-7.942 6.205,-12.071c2.87,-4.125 6.333,-7.921 10.391,-11.388c4.059,-3.466 8.434,-6.204 13.117,-8.208c8.642,-3.692 16.071,-4.792 22.296,-3.296c6.225,1.496 11.679,5.096 16.371,10.796c4.687,5.704 8.987,13.129 12.9,22.279c2.47,5.783 4.92,12.121 7.345,19.008c2.421,6.884 4.671,13.759 6.738,20.625c2.071,6.867 3.846,13.142 5.325,18.83c-2.146,1.266 -4.404,2.512 -6.779,3.741c-2.375,1.234 -4.771,2.367 -7.188,3.4c-2.633,1.125 -5.3,2.134 -7.991,3.025c-2.692,0.892 -5.159,1.554 -7.396,1.992c-0.925,-3.588 -2.042,-7.717 -3.35,-12.4c-1.309,-4.679 -2.717,-9.488 -4.221,-14.429c-1.508,-4.942 -3.033,-9.679 -4.583,-14.213c-1.546,-4.533 -3.025,-8.446 -4.434,-11.741c-2.033,-4.759 -4.229,-8.671 -6.575,-11.734c-2.35,-3.066 -4.966,-5.087 -7.854,-6.062c-2.883,-0.975 -6.192,-0.663 -9.925,0.933c-3.15,1.346 -5.867,3.242 -8.154,5.692c-2.283,2.45 -4.196,5.062 -5.738,7.846c-1.537,2.779 -2.758,5.395 -3.654,7.858c-0.896,2.462 -1.475,4.4 -1.737,5.808c3.316,7.763 6.454,15.6 9.404,23.517c2.95,7.917 5.512,15.175 7.687,21.779c2.175,6.604 3.696,11.842 4.571,15.708Z" style="fill:#41251d;fill-rule:nonzero;"/><path d="M2091.45,478.608c-0.821,3.13 -2.2,6.609 -4.146,10.442c-1.942,3.829 -4.583,7.704 -7.925,11.617c-3.337,3.912 -7.5,7.729 -12.487,11.441c-4.988,3.717 -10.917,7.059 -17.788,10.025c-11.037,4.767 -21.708,6.817 -32.012,6.15c-10.305,-0.666 -19.621,-4.166 -27.95,-10.5c-8.33,-6.333 -15.163,-15.675 -20.496,-28.029c-5.271,-12.204 -7.371,-23.896 -6.3,-35.066c1.071,-11.175 4.958,-21.155 11.654,-29.946c6.696,-8.792 15.858,-15.696 27.479,-20.713c14.692,-6.346 28.063,-7.112 40.113,-2.3c12.054,4.813 21.545,14.438 28.475,28.875c1.175,2.525 2.175,4.892 3,7.096c0.82,2.204 1.583,4.625 2.291,7.271c-1.054,0.367 -3.287,1.225 -6.696,2.567c-3.408,1.341 -7.295,2.887 -11.654,4.641c-4.358,1.754 -8.546,3.454 -12.562,5.1c-4.017,1.646 -7.154,2.963 -9.421,3.938c-6.65,2.875 -13.133,6.041 -19.442,9.504c-6.312,3.462 -11.646,6.571 -16.008,9.321c0.662,1.533 1.421,2.987 2.271,4.354c0.85,1.367 1.741,2.629 2.675,3.787c2.612,3.034 5.796,5.238 9.554,6.605c3.754,1.37 7.8,1.9 12.133,1.591c4.334,-0.312 8.584,-1.366 12.746,-3.166c4.021,-1.734 7.404,-3.846 10.146,-6.334c2.742,-2.483 5.012,-5.112 6.808,-7.879c1.796,-2.771 3.246,-5.483 4.359,-8.129c1.112,-2.65 2.1,-4.983 2.962,-7.004c0.596,0.179 2.046,0.721 4.346,1.637c2.304,0.913 4.967,2.059 7.992,3.442c3.025,1.383 5.97,2.929 8.833,4.642c2.867,1.712 5.212,3.383 7.05,5.02Zm-99,-17.475c3.662,-2.362 8.179,-5.008 13.55,-7.933c5.371,-2.925 11.708,-5.967 19.021,-9.125c3.87,-1.671 7.275,-3.079 10.212,-4.217c2.934,-1.137 5,-1.92 6.2,-2.354c-0.787,-1.825 -1.896,-3.687 -3.325,-5.587c-1.887,-2.567 -4.337,-4.779 -7.354,-6.646c-3.017,-1.863 -6.387,-2.988 -10.108,-3.371c-3.725,-0.387 -7.704,0.333 -11.946,2.163c-5.263,2.275 -9.421,5.391 -12.479,9.358c-3.059,3.967 -4.909,8.367 -5.555,13.196c-0.645,4.833 -0.05,9.671 1.784,14.516Z" style="fill:#41251d;fill-rule:nonzero;"/><path d="M2176.28,354.942c0.588,-4.196 2.233,-8.525 4.929,-12.979c2.7,-4.459 6.217,-8.58 10.559,-12.363c4.341,-3.787 9.279,-6.687 14.816,-8.704c3.442,-1.254 7.021,-2.179 10.746,-2.771c3.725,-0.596 6.65,-0.646 8.779,-0.15l5.238,33.554c-1.892,-0.071 -4.334,-0.029 -7.329,0.129c-2.992,0.159 -6.284,0.892 -9.875,2.2c-3.813,1.388 -7.305,3.384 -10.467,5.975c-3.167,2.592 -5.858,5.609 -8.083,9.046c-2.221,3.438 -3.846,7.121 -4.871,11.054c2.542,4.413 5.554,9.946 9.037,16.6c3.484,6.655 6.98,13.513 10.488,20.584c3.508,7.066 6.646,13.529 9.412,19.383c2.771,5.854 4.688,10.242 5.75,13.158c-4.42,2.292 -9.654,4.621 -15.695,6.992c-6.042,2.371 -11.846,4.525 -17.409,6.467c-2.371,-6.509 -5.166,-13.663 -8.396,-21.471c-3.225,-7.808 -6.683,-15.846 -10.375,-24.121c-3.691,-8.271 -7.504,-16.412 -11.441,-24.429c-3.938,-8.013 -7.834,-15.513 -11.692,-22.496c-3.858,-6.983 -7.483,-13.033 -10.875,-18.154c2.742,-2.017 5.85,-4.121 9.329,-6.321c3.475,-2.2 6.692,-4.133 9.642,-5.804c2.95,-1.667 4.862,-2.7 5.733,-3.104c1.717,1.916 3.875,4.708 6.484,8.379c2.608,3.666 4.462,6.783 5.566,9.346Z" style="fill:#41251d;fill-rule:nonzero;"/><path d="M2383.34,378.842c-1.271,2.975 -3.146,6.212 -5.634,9.716c-2.487,3.504 -5.671,6.946 -9.55,10.325c-3.879,3.38 -8.558,6.542 -14.037,9.484c-5.48,2.937 -11.838,5.37 -19.067,7.296c-11.621,3.091 -22.475,3.545 -32.571,1.37c-10.096,-2.175 -18.796,-7.008 -26.1,-14.495c-7.308,-7.492 -12.692,-17.738 -16.15,-30.742c-3.417,-12.846 -3.775,-24.721 -1.071,-35.613c2.704,-10.895 8.017,-20.195 15.934,-27.904c7.92,-7.708 17.995,-13.191 30.229,-16.446c15.466,-4.112 28.804,-2.904 40.016,3.63c11.213,6.533 19.184,17.45 23.913,32.75c0.792,2.674 1.433,5.158 1.921,7.462c0.492,2.3 0.892,4.808 1.2,7.525c-1.096,0.213 -3.429,0.729 -7,1.554c-3.571,0.825 -7.642,1.788 -12.213,2.879c-4.566,1.092 -8.962,2.159 -13.175,3.196c-4.212,1.038 -7.512,1.875 -9.895,2.509c-7.005,1.862 -13.88,4.041 -20.63,6.537c-6.754,2.496 -12.487,4.783 -17.208,6.867c0.433,1.612 0.967,3.158 1.608,4.637c0.638,1.479 1.334,2.859 2.088,4.142c2.137,3.383 4.962,6.033 8.479,7.937c3.512,1.909 7.433,3.03 11.767,3.359c4.329,0.333 8.687,-0.088 13.075,-1.255c4.233,-1.125 7.887,-2.716 10.966,-4.77c3.075,-2.054 5.709,-4.321 7.892,-6.796c2.183,-2.475 4.021,-4.942 5.508,-7.396c1.488,-2.454 2.809,-4.621 3.959,-6.492c0.562,0.263 1.916,1.017 4.058,2.259c2.146,1.241 4.613,2.766 7.4,4.579c2.788,1.812 5.475,3.775 8.054,5.891c2.584,2.113 4.659,4.117 6.234,6.005Zm-95.35,-31.854c3.97,-1.796 8.825,-3.746 14.566,-5.85c5.746,-2.105 12.463,-4.184 20.159,-6.23c4.075,-1.083 7.65,-1.97 10.72,-2.666c3.071,-0.692 5.23,-1.163 6.484,-1.417c-0.513,-1.921 -1.334,-3.929 -2.467,-6.017c-1.492,-2.816 -3.592,-5.366 -6.3,-7.654c-2.708,-2.283 -5.875,-3.896 -9.5,-4.825c-3.629,-0.929 -7.671,-0.8 -12.133,0.388c-5.542,1.471 -10.113,3.946 -13.721,7.416c-3.608,3.475 -6.088,7.55 -7.438,12.238c-1.345,4.683 -1.47,9.554 -0.37,14.617Z" style="fill:#41251d;fill-rule:nonzero;"/><path d="M2472.58,262.258c4.988,0.496 9.709,1.134 14.159,1.913c4.45,0.779 8.158,1.496 11.12,2.146c2.967,0.654 4.78,1.112 5.438,1.383c-0.975,6.063 -2.313,13.133 -4.013,21.208c-1.7,8.071 -3.645,16.625 -5.829,25.655c-2.187,9.029 -4.504,18.15 -6.958,27.358c-2.45,9.212 -4.95,18.087 -7.492,26.625c-2.541,8.537 -4.991,16.25 -7.337,23.133c-3.604,0.917 -8.225,1.588 -13.863,2.017c-2.62,0.2 -5.166,0.296 -7.641,0.283c-2.479,-0.012 -4.596,-0.066 -6.363,-0.175c-4.966,-8.562 -9.829,-17.633 -14.591,-27.212c-4.763,-9.579 -9.43,-19.463 -13.996,-29.654c-4.571,-10.192 -8.988,-20.455 -13.25,-30.792c-4.259,-10.333 -8.334,-20.542 -12.217,-30.629c1.175,-0.329 2.95,-0.863 5.329,-1.604c2.379,-0.738 4.992,-1.575 7.834,-2.513c2.841,-0.933 5.625,-1.867 8.35,-2.792c2.725,-0.925 4.941,-1.695 6.65,-2.304c1.641,4.746 3.733,10.438 6.275,17.071c2.541,6.633 5.325,13.587 8.358,20.858c3.029,7.275 6.042,14.354 9.041,21.229c3,6.88 5.726,13.021 8.171,18.421c2.45,5.404 4.38,9.529 5.796,12.375l-1.512,0.596c1.316,-4.733 2.654,-9.946 4.016,-15.637c1.363,-5.692 2.742,-11.709 4.138,-18.042c1.392,-6.333 2.729,-12.883 4.008,-19.65c1.284,-6.763 2.454,-13.642 3.521,-20.629c1.063,-6.988 2.017,-13.867 2.858,-20.638Z" style="fill:#41251d;fill-rule:nonzero;"/><path d="M2566.35,394.117c-1.275,0.016 -3.592,0.062 -6.942,0.137c-3.35,0.079 -6.816,0.029 -10.396,-0.146c-2.862,-0.137 -5.683,-0.354 -8.458,-0.65c-2.775,-0.296 -5.466,-0.666 -8.075,-1.108c0.496,-2.05 1.142,-6.283 1.934,-12.7c0.787,-6.421 1.654,-13.992 2.6,-22.713c0.941,-8.72 1.879,-17.745 2.808,-27.066c0.933,-9.321 1.737,-18.05 2.412,-26.188c0.675,-8.137 1.13,-14.629 1.363,-19.483c1.358,-0.013 3.392,-0.033 6.104,-0.058c2.708,-0.03 5.658,-0.025 8.846,0.008c3.187,0.037 6.212,0.083 9.079,0.146c2.867,0.058 5.096,0.125 6.688,0.204c0.283,2.404 0.395,6.158 0.35,11.258c-0.05,5.096 -0.23,10.829 -0.538,17.192c-0.358,7.313 -0.837,15.121 -1.437,23.425c-0.605,8.3 -1.259,16.379 -1.959,24.233c-0.7,7.859 -1.454,14.779 -2.262,20.754c-0.813,5.98 -1.517,10.23 -2.117,12.755Zm-5.192,-126.759c-6.604,-0.321 -11.954,-2.533 -16.058,-6.637c-4.104,-4.109 -6.008,-9.263 -5.704,-15.463c0.212,-4.375 1.425,-8.041 3.642,-11.004c2.216,-2.958 5.033,-5.175 8.454,-6.642c3.421,-1.466 7,-2.112 10.737,-1.929c6.042,0.292 10.896,2.542 14.554,6.746c3.663,4.204 5.342,9.408 5.042,15.608c-0.275,5.646 -2.358,10.35 -6.246,14.105c-3.887,3.758 -8.696,5.495 -14.421,5.216Z" style="fill:#41251d;fill-rule:nonzero;"/><path d="M2720.43,391.496c-2.379,2.192 -5.421,4.371 -9.125,6.546c-3.708,2.175 -8.025,4.004 -12.95,5.491c-4.925,1.492 -10.487,2.45 -16.691,2.88c-6.205,0.433 -12.996,0.041 -20.384,-1.175c-11.862,-1.955 -21.946,-5.996 -30.258,-12.125c-8.309,-6.13 -14.259,-14.109 -17.846,-23.938c-3.583,-9.829 -4.283,-21.383 -2.096,-34.658c2.158,-13.121 6.708,-24.092 13.65,-32.913c6.938,-8.825 15.6,-15.125 25.988,-18.9c10.383,-3.779 21.82,-4.637 34.312,-2.579c15.792,2.6 27.458,9.179 34.996,19.742c7.542,10.562 10.325,23.787 8.354,39.683c-0.375,2.763 -0.812,5.292 -1.312,7.592c-0.5,2.296 -1.163,4.75 -1.996,7.354c-1.088,-0.258 -3.429,-0.746 -7.025,-1.458c-3.592,-0.713 -7.696,-1.509 -12.313,-2.392c-4.616,-0.879 -9.058,-1.713 -13.325,-2.496c-4.271,-0.783 -7.621,-1.375 -10.058,-1.779c-7.15,-1.175 -14.313,-2.013 -21.492,-2.508c-7.183,-0.496 -13.35,-0.767 -18.508,-0.809c-0.271,1.65 -0.417,3.279 -0.442,4.888c-0.021,1.612 0.046,3.158 0.204,4.633c0.559,3.967 2.05,7.542 4.471,10.721c2.421,3.183 5.538,5.817 9.35,7.896c3.813,2.079 7.959,3.487 12.438,4.225c4.321,0.712 8.304,0.762 11.954,0.154c3.654,-0.608 6.983,-1.592 9.987,-2.954c3.009,-1.359 5.696,-2.854 8.063,-4.484c2.367,-1.625 4.458,-3.058 6.275,-4.291c0.404,0.471 1.329,1.712 2.775,3.725c1.442,2.012 3.067,4.421 4.862,7.216c1.8,2.796 3.442,5.692 4.925,8.68c1.488,2.987 2.559,5.666 3.217,8.033Zm-73.858,-68.2c4.362,-0.008 9.591,0.204 15.691,0.646c6.1,0.437 13.08,1.304 20.934,2.6c4.162,0.683 7.787,1.341 10.871,1.971c3.083,0.629 5.245,1.087 6.491,1.37c0.325,-1.962 0.396,-4.129 0.225,-6.5c-0.204,-3.179 -1.071,-6.366 -2.604,-9.562c-1.529,-3.2 -3.758,-5.967 -6.679,-8.304c-2.925,-2.338 -6.663,-3.88 -11.221,-4.63c-5.654,-0.933 -10.842,-0.558 -15.558,1.13c-4.713,1.683 -8.65,4.383 -11.804,8.1c-3.155,3.716 -5.267,8.108 -6.346,13.179Z" style="fill:#41251d;fill-rule:nonzero;"/><path d="M2780.6,431.429c-8.087,-2.671 -14.125,-6.737 -18.104,-12.204c-3.979,-5.467 -6.367,-11.954 -7.154,-19.467c-0.788,-7.512 -0.379,-15.741 1.233,-24.683c1.613,-8.942 3.992,-18.179 7.138,-27.704c2.595,-7.863 5.562,-15.834 8.899,-23.913c3.338,-8.079 6.696,-15.962 10.076,-23.65c4.233,1.4 9.016,3.104 14.345,5.117c5.334,2.012 10.1,3.879 14.313,5.604c-3.854,8.875 -7.413,17.425 -10.675,25.654c-3.263,8.229 -6.067,15.9 -8.413,23.004c-2.545,7.713 -4.358,14.659 -5.437,20.846c-1.079,6.184 -1.113,11.242 -0.108,15.179c1.004,3.938 3.283,6.496 6.837,7.667c3.175,1.05 6.383,0.538 9.625,-1.537c3.246,-2.075 6.425,-5.425 9.546,-10.055c3.125,-4.629 6.154,-10.187 9.096,-16.679c2.937,-6.491 5.696,-13.629 8.266,-21.416c1.546,-4.688 3.234,-9.917 5.055,-15.688c1.82,-5.771 3.466,-11.267 4.937,-16.479c2.042,0.671 4.758,1.592 8.146,2.75c3.392,1.162 6.812,2.354 10.267,3.579c3.45,1.225 6.212,2.263 8.279,3.113l-6.067,18.37c-3.621,10.963 -6.742,20.917 -9.358,29.863c-2.621,8.946 -4.463,16.742 -5.525,23.392c-1.063,6.65 -1.075,12.012 -0.029,16.087c1.041,4.075 3.454,6.738 7.233,7.988c3.554,1.17 7.058,0.591 10.512,-1.75c3.459,-2.338 6.859,-6.034 10.205,-11.092c3.35,-5.058 6.545,-11.129 9.6,-18.213c3.05,-7.083 5.95,-14.783 8.695,-23.1c0.95,-2.87 1.971,-6.033 3.071,-9.487c1.1,-3.45 2.209,-7.004 3.329,-10.658c1.125,-3.654 2.196,-7.159 3.221,-10.509l13.042,4.305c2.117,0.7 4.642,1.62 7.579,2.758c2.938,1.137 5.213,2.054 6.825,2.754c-0.646,2.975 -1.542,6.513 -2.692,10.621c-1.145,4.108 -2.3,8.171 -3.458,12.187c-1.158,4.021 -2.2,7.43 -3.125,10.225c-3.046,9.225 -6.483,17.796 -10.312,25.713c-3.83,7.917 -8.009,14.983 -12.538,21.2c-4.525,6.221 -9.437,11.262 -14.742,15.129c-5.3,3.867 -10.983,6.35 -17.05,7.45c-6.062,1.1 -12.5,0.525 -19.304,-1.721c-5.741,-1.896 -10.262,-4.458 -13.558,-7.683c-3.296,-3.225 -5.658,-6.796 -7.092,-10.708c-1.433,-3.909 -2.221,-7.88 -2.358,-11.909c-0.138,-4.025 0.062,-7.796 0.592,-11.312c0.533,-3.513 1.108,-6.467 1.733,-8.859l5.483,2.817c-1.375,3.654 -3.579,7.475 -6.616,11.463c-3.034,3.983 -6.725,7.545 -11.071,10.679c-4.346,3.133 -9.246,5.271 -14.692,6.404c-5.45,1.137 -11.346,0.654 -17.7,-1.442Z" style="fill:#41251d;fill-rule:nonzero;"/><path d="M2954.09,555.5c6.45,-10.95 13.079,-22.583 19.879,-34.908c6.804,-12.325 13.462,-24.675 19.979,-37.05c6.517,-12.371 12.633,-24.096 18.354,-35.175c5.721,-11.075 10.742,-20.963 15.067,-29.663c4.325,-8.7 7.65,-15.491 9.979,-20.379c4.571,0.592 9.571,1.85 15.004,3.779c5.429,1.925 10.517,4.021 15.263,6.284c-0.921,2.295 -2.079,5.05 -3.479,8.262c-1.401,3.217 -2.717,6.117 -3.95,8.704c2.475,-1.116 6.049,-2.146 10.733,-3.087c4.683,-0.942 10.083,-1.171 16.2,-0.679c6.117,0.491 12.446,2.295 18.983,5.412c14.375,6.854 22.954,16.563 25.738,29.138c2.783,12.57 0.283,27.012 -7.492,43.329c-5.483,11.5 -12.312,20.458 -20.487,26.879c-8.18,6.425 -17.067,10.125 -26.663,11.108c-9.596,0.979 -19.317,-0.875 -29.162,-5.571c-4.459,-2.125 -8.746,-4.916 -12.871,-8.383c-4.125,-3.467 -7.63,-6.946 -10.509,-10.433c-2.879,-3.488 -4.608,-6.388 -5.183,-8.692c-0.896,1.692 -2.4,4.525 -4.517,8.5c-2.112,3.975 -4.55,8.525 -7.3,13.654c-2.754,5.125 -5.604,10.317 -8.55,15.571c-2.945,5.254 -5.675,10.104 -8.191,14.55c-2.517,4.446 -4.571,7.875 -6.163,10.292c-3.687,-0.963 -7.512,-2.146 -11.471,-3.55c-3.962,-1.404 -7.65,-2.829 -11.058,-4.279c-3.413,-1.45 -6.125,-2.655 -8.133,-3.613Zm103.554,-55.154c5.75,2.742 11.025,3.846 15.821,3.308c4.796,-0.533 9.129,-2.546 13,-6.037c3.871,-3.492 7.246,-8.259 10.121,-14.296c3.804,-7.975 4.854,-15.038 3.154,-21.183c-1.7,-6.15 -6.467,-11.088 -14.3,-14.825c-4.746,-2.259 -9.467,-3.542 -14.175,-3.846c-4.709,-0.304 -8.904,-0.054 -12.592,0.746c-3.692,0.8 -6.575,1.716 -8.658,2.754c-0.546,1.15 -1.492,2.991 -2.834,5.525c-1.341,2.537 -2.791,5.35 -4.354,8.446c-1.562,3.091 -3.075,6.029 -4.533,8.816c-1.463,2.788 -2.554,4.938 -3.271,6.446c0.675,1.908 1.833,4.292 3.471,7.146c1.637,2.854 3.983,5.8 7.029,8.842c3.05,3.041 7.092,5.762 12.121,8.158Z" style="fill:#41251d;fill-rule:nonzero;"/><path d="M3154.6,595.017c-8.967,-4.138 -16.583,-9.096 -22.858,-14.884c-6.275,-5.787 -10.338,-12.42 -12.196,-19.895c-1.854,-7.48 -0.717,-15.701 3.421,-24.663c4.133,-8.967 9.991,-15.054 17.566,-18.267c7.575,-3.212 16.113,-4.183 25.609,-2.916c9.5,1.271 19.2,4.187 29.104,8.758c4.05,1.867 7.858,3.975 11.421,6.321c3.566,2.346 6.604,4.6 9.112,6.766c2.509,2.163 4.171,3.875 4.996,5.134c0.821,-2.167 1.425,-4.517 1.808,-7.058c0.384,-2.542 0.292,-4.909 -0.275,-7.101c-0.679,-4.608 -2.583,-9.083 -5.712,-13.416c-3.129,-4.338 -8.054,-8.058 -14.779,-11.158c-6.867,-3.171 -13.534,-4.4 -19.996,-3.7c-6.463,0.7 -11.875,2.458 -16.238,5.266l-16.529,-26.037c5.388,-3.125 11.609,-5.209 18.667,-6.25c7.054,-1.042 14.512,-0.959 22.371,0.258c7.858,1.213 15.687,3.621 23.496,7.221c12.579,5.804 21.845,12.708 27.8,20.712c5.95,8.009 9.07,16.638 9.362,25.892c0.104,4.521 -0.279,9.254 -1.158,14.196c-0.875,4.942 -2.517,10.5 -4.925,16.666c-2.35,5.667 -4.488,10.775 -6.413,15.325c-1.921,4.546 -3.625,8.717 -5.108,12.505c-2.292,5.341 -3.233,9.05 -2.829,11.12c0.4,2.071 1.579,3.559 3.533,4.459c2.096,0.966 4.221,1.116 6.371,0.441c2.154,-0.675 3.958,-2.12 5.421,-4.337l2.55,23.271c-2.621,3.966 -6.4,6.362 -11.342,7.196c-4.946,0.833 -10.129,-0.005 -15.55,-2.505c-4.121,-1.899 -7.575,-4.391 -10.362,-7.475c-2.784,-3.083 -4.721,-6.345 -5.809,-9.783c-1.091,-3.437 -1.146,-6.687 -0.175,-9.746c-2.533,2.075 -6.337,3.567 -11.4,4.471c-5.066,0.908 -10.929,0.879 -17.583,-0.087c-6.658,-0.967 -13.779,-3.2 -21.371,-6.7Zm16.525,-19.863c3.833,1.767 7.967,2.971 12.404,3.617c4.438,0.642 8.7,0.767 12.784,0.371c4.083,-0.396 7.533,-1.171 10.345,-2.329c1.259,-3.105 2.5,-6.038 3.734,-8.8c1.229,-2.763 2.366,-5.18 3.404,-7.242c-1.433,-1.45 -4.421,-3.771 -8.954,-6.958c-4.538,-3.188 -9.659,-6.101 -15.371,-8.734c-5.058,-2.333 -10.017,-3.896 -14.867,-4.687c-4.854,-0.792 -9.141,-0.621 -12.862,0.508c-3.725,1.133 -6.404,3.471 -8.038,7.013c-1.866,4.05 -2.304,7.704 -1.312,10.97c0.996,3.263 3.137,6.225 6.425,8.88c3.291,2.658 7.396,5.12 12.308,7.391Z" style="fill:#41251d;fill-rule:nonzero;"/><path d="M3322.72,630.563c-14.9,-5.15 -25.95,-11.45 -33.146,-18.905c-7.196,-7.458 -11.45,-15.308 -12.771,-23.558c-1.321,-8.246 -0.654,-16.208 1.996,-23.883c3.408,-9.859 8.758,-17.296 16.05,-22.317c7.291,-5.021 15.854,-7.792 25.679,-8.312c9.825,-0.521 20.154,1.087 30.992,4.833c17.683,6.108 29.637,14.725 35.862,25.846c6.225,11.121 7.008,23.416 2.354,36.887c-3.508,10.159 -8.629,17.971 -15.362,23.438c-6.729,5.466 -14.521,8.691 -23.371,9.679c-8.846,0.983 -18.275,-0.25 -28.283,-3.708Zm-34.55,82.45c-11.513,-3.98 -21.596,-8.684 -30.25,-14.117c-8.654,-5.433 -14.804,-11.829 -18.45,-19.196c-3.646,-7.367 -3.767,-15.979 -0.359,-25.837c2.13,-6.171 6.05,-11.18 11.759,-15.021c5.708,-3.838 12.783,-6.154 21.225,-6.942c8.441,-0.792 17.762,0.279 27.95,3.213c4.821,1.412 9.9,2.979 15.246,4.695c5.345,1.721 11.329,3.725 17.95,6.013c11.966,4.133 20.916,10.112 26.845,17.933c5.934,7.817 6.938,17.409 3.013,28.771c-3.433,9.933 -8.817,17.046 -16.154,21.333c-7.334,4.292 -16.029,6.234 -26.084,5.834c-10.054,-0.396 -20.954,-2.625 -32.691,-6.679Zm7.987,-19.1c5.571,1.925 10.792,3.075 15.675,3.458c4.879,0.379 9.071,-0.238 12.579,-1.846c3.504,-1.612 5.996,-4.562 7.479,-8.854c1.271,-3.688 1.209,-6.908 -0.195,-9.671c-1.409,-2.758 -3.567,-5.104 -6.479,-7.037c-2.913,-1.934 -5.984,-3.459 -9.221,-4.575l-23.03,-7.959c-2.933,-1.012 -5.879,-1.566 -8.837,-1.662c-2.958,-0.096 -5.671,0.633 -8.142,2.179c-2.475,1.546 -4.387,4.275 -5.737,8.187c-1.404,4.067 -1.125,7.825 0.842,11.284c1.962,3.458 5.145,6.558 9.545,9.3c4.405,2.741 9.575,5.141 15.521,7.196Zm-12.725,-52.409c-8.979,-5.212 -14.808,-10.404 -17.483,-15.583c-2.679,-5.179 -3.25,-9.988 -1.713,-14.425c1.167,-3.388 2.975,-6.113 5.413,-8.175c2.442,-2.063 5.091,-3.529 7.962,-4.392c2.867,-0.862 5.517,-1.166 7.959,-0.912l15.904,16.866c-3.525,-0.037 -6.304,0.517 -8.346,1.667c-2.038,1.146 -3.358,2.588 -3.954,4.317c-0.808,2.333 -0.304,4.908 1.5,7.721c1.808,2.816 4.933,4.991 9.371,6.525l-16.613,6.391Zm44.621,-35.887c5.717,1.975 10.758,2.687 15.121,2.129c4.362,-0.554 8.071,-2.267 11.121,-5.129c3.054,-2.863 5.412,-6.7 7.075,-11.517c1.404,-4.062 1.587,-8.004 0.545,-11.817c-1.041,-3.812 -3.025,-7.212 -5.95,-10.204c-2.929,-2.991 -6.612,-5.254 -11.05,-6.787c-7.225,-2.496 -14.041,-3.059 -20.454,-1.696c-6.408,1.367 -10.954,5.925 -13.629,13.675c-2.496,7.225 -2.075,13.625 1.263,19.2c3.337,5.575 8.658,9.625 15.958,12.146Zm57.188,-25.096l-12.425,-20.721c2.066,-2.571 4.895,-5.087 8.483,-7.554c3.591,-2.467 7.441,-4.588 11.554,-6.371c4.108,-1.779 7.867,-2.967 11.275,-3.558c0.408,1.741 1.079,4.183 2.017,7.329c0.933,3.146 1.937,6.333 3.008,9.571c1.075,3.233 1.975,5.862 2.708,7.883c-1.862,0.283 -4.029,0.821 -6.491,1.613c-2.467,0.791 -4.992,1.77 -7.588,2.937c-2.591,1.167 -4.991,2.508 -7.2,4.021c-2.208,1.508 -3.987,3.129 -5.341,4.85Z" style="fill:#41251d;fill-rule:nonzero;"/><path d="M3505.82,677.313c-2.346,2.225 -5.359,4.445 -9.038,6.666c-3.675,2.225 -7.966,4.113 -12.871,5.667c-4.908,1.554 -10.458,2.587 -16.654,3.104c-6.196,0.512 -12.996,0.208 -20.396,-0.908c-11.887,-1.792 -22.029,-5.7 -30.42,-11.717c-8.388,-6.017 -14.442,-13.917 -18.163,-23.7c-3.717,-9.779 -4.571,-21.321 -2.558,-34.625c1.983,-13.15 6.387,-24.179 13.208,-33.092c6.821,-8.916 15.4,-15.329 25.733,-19.245c10.334,-3.917 21.759,-4.93 34.275,-3.038c15.825,2.388 27.575,8.813 35.259,19.271c7.679,10.462 10.641,23.65 8.879,39.571c-0.338,2.766 -0.738,5.304 -1.209,7.608c-0.466,2.304 -1.1,4.763 -1.9,7.379c-1.087,-0.241 -3.437,-0.7 -7.037,-1.362c-3.604,-0.667 -7.721,-1.409 -12.346,-2.225c-4.629,-0.821 -9.083,-1.596 -13.358,-2.321c-4.279,-0.725 -7.642,-1.275 -10.079,-1.642c-7.167,-1.083 -14.342,-1.825 -21.525,-2.225c-7.188,-0.4 -13.359,-0.587 -18.517,-0.558c-0.25,1.65 -0.375,3.283 -0.379,4.892c-0,1.612 0.087,3.154 0.271,4.633c0.608,3.954 2.145,7.508 4.608,10.658c2.462,3.15 5.617,5.742 9.458,7.771c3.838,2.029 8.004,3.379 12.488,4.058c4.333,0.655 8.316,0.65 11.958,-0.004c3.646,-0.658 6.958,-1.687 9.95,-3.091c2.988,-1.4 5.654,-2.93 8,-4.588c2.342,-1.658 4.417,-3.117 6.217,-4.375c0.412,0.463 1.354,1.692 2.825,3.688c1.471,1.991 3.125,4.375 4.958,7.15c1.838,2.77 3.517,5.641 5.042,8.612c1.525,2.967 2.633,5.629 3.321,7.988Zm-74.759,-67.209c4.359,-0.066 9.588,0.079 15.696,0.438c6.104,0.358 13.092,1.133 20.967,2.32c4.171,0.63 7.804,1.238 10.896,1.825c3.091,0.588 5.262,1.017 6.508,1.288c0.3,-1.971 0.342,-4.138 0.138,-6.504c-0.246,-3.175 -1.155,-6.354 -2.73,-9.529c-1.57,-3.175 -3.837,-5.913 -6.791,-8.213c-2.954,-2.296 -6.713,-3.792 -11.279,-4.479c-5.671,-0.858 -10.85,-0.413 -15.542,1.337c-4.692,1.746 -8.592,4.5 -11.696,8.259c-3.104,3.758 -5.158,8.179 -6.167,13.258Z" style="fill:#41251d;fill-rule:nonzero;"/><path d="M3559.78,647.487c-1.991,0.051 -4.816,0.059 -8.483,0.034c-3.662,-0.029 -7.329,-0.117 -10.996,-0.263c-3.666,-0.145 -6.621,-0.312 -8.854,-0.495c-0.587,-7.55 -1.15,-15.621 -1.683,-24.209c-0.534,-8.587 -1.013,-17.375 -1.438,-26.366c-0.425,-8.988 -0.787,-17.88 -1.087,-26.671c-0.3,-8.792 -0.534,-17.171 -0.692,-25.129c-0.158,-7.963 -0.204,-15.209 -0.129,-21.742l38.246,0.712c-0.309,3.592 -0.684,9.159 -1.134,16.696c-0.445,7.538 -0.887,16.15 -1.32,25.838c-0.434,9.687 -0.842,19.633 -1.221,29.837c-0.384,10.204 -0.679,19.846 -0.888,28.929c-0.208,9.088 -0.316,16.696 -0.321,22.83Zm-11.437,53.687c-6.921,0.171 -12.667,-1.754 -17.225,-5.779c-4.563,-4.029 -6.925,-9.225 -7.084,-15.592c-0.158,-6.371 2.042,-11.421 6.609,-15.158c4.566,-3.742 9.991,-5.688 16.279,-5.846c6.367,-0.162 11.846,1.613 16.442,5.321c4.591,3.708 6.962,8.504 7.108,14.396c0.171,6.766 -1.863,12.191 -6.1,16.279c-4.238,4.092 -9.579,6.217 -16.029,6.379Z" style="fill:#41251d;fill-rule:nonzero;"/></g><g><path d="M3812.16,664.975l967.516,-259.096l35.467,132.354l-967.575,259.396l15.379,-27.729l-29.283,-1.271l11.671,-21.087l-21.271,-32.413l16.637,-26.317l-32.633,-6.925l4.092,-16.912Z" style="fill:#41251d;stroke:#41251d;stroke-width:17.38px;"/><path d="M3812.07,665.354l-3.996,16.534l32.633,6.924l-16.637,26.317l21.271,32.413l-11.671,21.087l29.283,1.271l-14.908,26.875l-1.809,1.075l-208.691,0.692l-7.85,-29.296l181.079,-103.75l1.296,-0.142Z" style="fill:none;stroke:#41251d;stroke-width:17.38px;"/><path d="M3629.66,769.254l-58.8,31.454l66.634,-2.208l-7.834,-29.246Z" style="fill:#41251d;stroke:#41251d;stroke-width:17.38px;"/><path d="M4906.38,371.933c4.446,-1.191 9.013,1.446 10.204,5.892c6.334,23.633 24.821,92.625 31.15,116.258c1.192,4.446 -1.446,9.013 -5.891,10.205c-29.034,7.779 -126.68,33.945 -126.68,33.945l-35.466,-132.354c-0,0 97.646,-26.166 126.683,-33.946Z" style="fill:none;stroke:#41251d;stroke-width:17.38px;"/><path d="M4948.33,496.296l-32.241,-120.708c-0,-0 28.054,-7.517 53.466,-14.325c22.225,-5.955 45.075,7.233 51.029,29.462c3.467,12.933 7.305,27.254 10.767,40.188c5.958,22.225 -7.233,45.075 -29.462,51.029c-25.446,6.821 -53.559,14.354 -53.559,14.354Z" style="fill:none;stroke:#41251d;stroke-width:17.38px;"/></g></g></svg>