<?xml version="1.0" encoding="UTF-8" standalone="no"?><!DOCTYPE svg PUBLIC "-//W3C//DTD SVG 1.1//EN" "http://www.w3.org/Graphics/SVG/1.1/DTD/svg11.dtd"><svg width="60334px" height="7242px" version="1.1" xmlns="http://www.w3.org/2000/svg" xmlns:xlink="http://www.w3.org/1999/xlink" xml:space="preserve" xmlns:serif="http://www.serif.com/" style="fill-rule:evenodd;clip-rule:evenodd;stroke-linejoin:round;stroke-miterlimit:2;"><g><g><path d="M5347.58,3204.57c0,-62.709 -50.921,-113.629 -113.941,-113.629l-2530.59,-0c-62.725,-0 -113.646,50.92 -113.646,113.629l0,0.296c0,63 50.921,113.645 113.646,113.645l2530.59,0c63.004,0 113.941,-50.641 113.941,-113.645l0,-0.296Z" style="fill:#3dcb8c;"/><path d="M3375.8,3007.74c0,17.5 -14.183,31.687 -31.683,31.687l-147.067,0c-35.296,0 -63.579,-28.354 -63.579,-63.666l-0,-70.155c-0,-8.475 3.25,-16.287 9.325,-22.362c6.008,-6.008 14.183,-9.321 22.571,-9.321l203.487,0c1.513,0 3.613,0.571 4.846,2.083c1.438,1.525 2.1,3.334 2.1,5.138l0,126.596Zm84.704,31.683c-8.454,0 -16.633,-3.333 -22.346,-9.042c-6.004,-6.079 -9.337,-14.462 -9.337,-22.641l-0,-925.346c-0,-55.417 44.929,-100.625 100.692,-100.625l877.97,-0c55.488,-0 100.696,45.208 100.696,100.625l0,925.346c0,8.179 -3.337,16.562 -9.341,22.641c-6.08,5.709 -14.167,9.042 -22.638,9.042l-1015.77,0l0.071,0Zm1311.13,-165.5c8.455,0 16.63,3.313 22.342,9.321c6.008,6.075 9.342,13.887 9.342,22.362l-0,70.225c-0,35.242 -28.35,63.596 -63.3,63.596l-147.067,0c-17.5,0 -31.958,-14.187 -31.958,-31.687l-0,-102.15c-0,-8.459 3.608,-16.271 9.321,-22.346c6.008,-6.008 14.183,-9.342 22.637,-9.342l178.683,0l0,0.021Zm-803.245,18.679c23.504,0 42.829,19.304 42.829,42.813c-0,23.508 -19.325,42.829 -42.829,42.829c-23.509,-0 -42.746,-19.321 -42.746,-42.829c-0,-23.509 19.237,-42.813 42.746,-42.813Zm-149.15,0c23.504,0 42.741,19.304 42.741,42.813c0,23.508 -19.237,42.829 -42.741,42.829c-23.525,-0 -42.83,-19.321 -42.83,-42.829c0,-23.509 19.305,-42.813 42.83,-42.813Zm298.383,0c23.804,0 42.762,19.304 42.762,42.813c0,23.508 -18.958,42.829 -42.762,42.829c-23.504,-0 -42.829,-19.321 -42.829,-42.829c-0,-23.509 19.325,-42.813 42.829,-42.813Zm-149.233,-148.871c23.504,0 42.829,19.009 42.829,42.813c-0,23.508 -19.325,42.758 -42.829,42.758c-23.509,0 -42.746,-19.25 -42.746,-42.758c-0,-23.804 19.237,-42.813 42.746,-42.813Zm-149.15,0c23.504,0 42.741,19.009 42.741,42.813c0,23.508 -19.237,42.758 -42.741,42.758c-23.525,0 -42.83,-19.25 -42.83,-42.758c0,-23.804 19.305,-42.813 42.83,-42.813Zm298.383,0c23.804,0 42.762,19.009 42.762,42.813c0,23.508 -18.958,42.758 -42.762,42.758c-23.504,0 -42.829,-19.25 -42.829,-42.758c-0,-23.804 19.325,-42.813 42.829,-42.813Zm-984.079,-187.5c-0,-8.404 3.246,-16.579 9.325,-22.291c6.004,-6.009 14.183,-9.325 22.566,-9.325l203.492,-0c1.525,-0 3.608,0.575 4.775,2.104c1.525,1.212 2.167,3.037 2.167,4.841l-0,282.396c-0,3.904 -3.334,6.946 -6.942,6.946l-203.492,0c-8.383,0 -16.562,-3.317 -22.566,-9.325c-6.079,-5.779 -9.325,-13.887 -9.325,-22.362l-0,-232.984Zm1669.78,232.984c-0,8.475 -3.334,16.583 -9.342,22.362c-5.713,6.008 -13.887,9.325 -22.342,9.325l-178.683,0c-8.454,0 -16.629,-3.317 -22.638,-9.325c-5.712,-5.779 -9.341,-13.887 -9.341,-22.362l-0,-232.984c-0,-8.404 3.629,-16.579 9.341,-22.291c6.009,-6.009 14.184,-9.325 22.638,-9.325l178.683,-0c8.454,-0 16.629,3.316 22.342,9.325c6.008,5.712 9.342,13.887 9.342,22.291l-0,232.984Zm-834.929,-194.65c23.504,-0 42.829,18.958 42.829,42.741c-0,23.804 -19.325,42.829 -42.829,42.829c-23.509,0 -42.746,-19.025 -42.746,-42.829c-0,-23.783 19.237,-42.741 42.746,-42.741Zm-149.15,-0c23.504,-0 42.741,18.958 42.741,42.741c0,23.804 -19.237,42.829 -42.741,42.829c-23.525,0 -42.83,-19.025 -42.83,-42.829c0,-23.783 19.305,-42.741 42.83,-42.741Zm298.383,-0c23.804,-0 42.762,18.958 42.762,42.741c0,23.804 -18.958,42.829 -42.762,42.829c-23.504,0 -42.829,-19.025 -42.829,-42.829c-0,-23.783 19.325,-42.741 42.829,-42.741Zm-149.234,-149.238c23.505,0 42.83,19.325 42.83,42.829c-0,23.804 -19.325,43.109 -42.83,43.109c-23.508,-0 -42.745,-19.321 -42.745,-43.109c-0,-23.521 19.237,-42.829 42.745,-42.829Zm-149.15,0c23.505,0 42.742,19.325 42.742,42.829c0,23.804 -19.237,43.109 -42.742,43.109c-23.525,-0 -42.829,-19.321 -42.829,-43.109c0,-23.521 19.304,-42.829 42.829,-42.829Zm298.384,0c23.804,0 42.762,19.325 42.762,42.829c0,23.804 -18.958,43.109 -42.762,43.109c-23.504,-0 -42.829,-19.321 -42.829,-43.109c-0,-23.521 19.325,-42.829 42.829,-42.829Zm685.696,-5.433c-0,8.471 -3.334,16.283 -9.342,22.291c-5.713,6.075 -13.888,9.409 -22.275,9.409l-178.75,-0c-8.454,-0 -16.563,-3.334 -22.638,-9.409c-5.712,-6.008 -9.341,-13.82 -9.341,-22.291l-0,-248.975c-0,-3.629 3.333,-6.875 7.241,-6.875l0,-0.367l203.488,0c8.387,0 16.562,3.629 22.275,9.413c6.008,6.004 9.342,14.096 9.342,22.566l-0,224.238Zm-1669.78,-224.238c-0,-8.471 3.245,-16.562 9.325,-22.566c6.004,-5.8 14.183,-9.413 22.566,-9.413l178.75,0c8.18,0 16.288,3.613 22.363,9.413c5.987,6.004 9.321,14.095 9.321,22.566l-0,248.7c-0,3.905 -3.334,7.238 -6.942,7.238l-203.492,-0c-8.383,-0 -16.562,-3.333 -22.566,-9.409c-6.009,-6.008 -9.325,-13.82 -9.325,-22.291l-0,-224.238Zm685.696,80.8c23.504,0 42.812,19.238 42.812,42.742c0,23.525 -19.308,42.829 -42.812,42.829c-23.525,0 -42.83,-19.304 -42.83,-42.829c0,-23.504 19.305,-42.742 42.83,-42.742Zm149.15,0c23.504,0 42.829,19.238 42.829,42.742c-0,23.525 -19.325,42.829 -42.829,42.829c-23.509,0 -42.746,-19.304 -42.746,-42.829c-0,-23.504 19.237,-42.742 42.746,-42.742Zm149.233,0c23.804,0 42.829,19.238 42.829,42.742c0,23.525 -19.025,42.829 -42.829,42.829c-23.504,0 -42.829,-19.304 -42.829,-42.829c-0,-23.504 19.325,-42.742 42.829,-42.742Zm-0,-149.237c23.804,-0 42.829,19.325 42.829,42.829c0,23.804 -19.025,42.833 -42.829,42.833c-23.504,0 -42.829,-19.029 -42.829,-42.833c-0,-23.504 19.325,-42.829 42.829,-42.829Zm-298.383,-0c23.504,-0 42.812,19.325 42.812,42.829c0,23.804 -19.308,42.833 -42.812,42.833c-23.525,0 -42.83,-19.029 -42.83,-42.833c0,-23.504 19.305,-42.829 42.83,-42.829Zm149.15,-0c23.504,-0 42.829,19.325 42.829,42.829c-0,23.804 -19.325,42.833 -42.829,42.833c-23.509,0 -42.746,-19.029 -42.746,-42.833c-0,-23.504 19.237,-42.829 42.746,-42.829Zm781.541,-355.608c8.75,-9.042 22.346,-11.788 34.063,-6.942c11.808,4.775 19.325,16.267 19.325,28.942l-0,285.433c-0,8.4 -3.334,16.562 -9.342,22.567c-5.713,6.008 -13.887,9.341 -22.275,9.341l-203.488,0c-2.099,0 -3.612,-0.866 -5.137,-2.1c-1.146,-1.233 -2.083,-3.037 -2.083,-5.137l-0,-41.304c-0,-21.7 -4.5,-42.171 -12.38,-60.555c-5.416,-12.066 -2.675,-25.887 6.371,-35.295c38.838,-39.134 139.255,-139.825 195.017,-194.95l-0.071,-0Zm-1616.46,22c-0,-12.675 7.812,-24.167 19.237,-28.942c11.788,-4.846 25.313,-2.1 34.359,6.942c55.487,55.125 155.883,155.816 195.016,194.654c9.342,9.704 11.804,23.525 6.371,35.591c-8.175,18.384 -12.654,38.855 -12.654,60.555l-0,16.633c-0,8.4 -3.333,16.562 -9.342,22.567c-6.075,6.008 -14.166,9.341 -22.341,9.341l-178.75,0c-8.388,0 -16.563,-3.333 -22.571,-9.341c-6.009,-6.005 -9.325,-14.167 -9.325,-22.567l-0,-285.433Zm1211.01,-95.28c0,-8.454 3.317,-16.562 9.392,-22.57c5.729,-5.78 13.821,-9.046 22.291,-9.046l300.192,-0c10.575,-0 21.425,1.166 31.617,3.908c10.85,2.675 19.6,11.146 22.637,21.996c3.038,10.554 0,22.275 -8.158,30.158c-51.808,53.038 -158.213,159.146 -200.75,201.613c-10.188,10.279 -26.179,12.362 -38.833,4.846c-22,-12.955 -47.971,-20.542 -75.384,-20.542l-31.321,-0c-8.47,-0 -16.562,-3.263 -22.291,-9.338c-6.075,-5.712 -9.392,-13.82 -9.392,-22.275l0,-178.75Zm-783.925,-31.616c8.458,-0 16.563,3.266 22.571,9.046c6.075,6.008 9.392,14.116 9.392,22.57l-0,178.75c-0,8.455 -3.317,16.563 -9.392,22.275c-6.008,6.075 -14.112,9.338 -22.571,9.338l-31.042,-0c-27.775,-0 -53.679,7.587 -75.954,20.246c-12.358,7.237 -28.071,5.433 -38.262,-4.846c-42.829,-42.171 -148.942,-148.279 -201.388,-201.025c-8.387,-7.879 -11.425,-19.6 -8.387,-30.746c2.95,-11.129 11.721,-19.6 23.141,-22.342c10.28,-2.1 20.834,-3.266 31.98,-3.266l299.912,-0Zm434.309,31.616c-0.001,-8.454 3.333,-16.562 9.337,-22.57c5.712,-5.78 13.892,-9.046 22.346,-9.046l233.3,-0c8.383,-0 16.266,3.266 22.271,9.046c6.008,6.008 9.341,14.116 9.341,22.57l0,178.75c0,8.455 -3.333,16.563 -9.341,22.275c-6.005,6.075 -13.888,9.338 -22.271,9.338l-233.3,-0c-8.454,-0 -16.634,-3.263 -22.346,-9.338c-6.004,-5.712 -9.338,-13.82 -9.338,-22.275l0,-178.75Zm-349.6,0c0,-8.454 3.313,-16.562 9.321,-22.57c6.009,-5.78 14.184,-9.046 22.571,-9.046l233.004,-0c8.471,-0 16.284,3.266 22.359,9.046c5.991,6.008 9.325,14.116 9.325,22.57l-0,178.75c-0,8.455 -3.334,16.563 -9.325,22.275c-6.075,6.075 -13.888,9.338 -22.359,9.338l-233.004,-0c-8.387,-0 -16.562,-3.263 -22.571,-9.338c-6.008,-5.712 -9.321,-13.82 -9.321,-22.275l0,-178.75Z" style="fill:#3dcb8c;"/><path d="M5297.54,4879.5c-16.284,-12.654 -37.984,-16.563 -57.88,-9.896c-19.895,6.283 -34.933,22.55 -40.366,42.45c-167.309,625.729 -703.192,625.729 -1239.08,625.729c-645.609,0 -1290.94,0 -1290.94,-1093.18l0,-947.987c0,-33.713 13.229,-65.971 37.1,-89.771c23.804,-24.15 56.075,-37.396 89.775,-37.396l2327.76,0c33.783,0 66.058,13.246 90.137,37.396c23.8,23.8 37.117,56.058 37.117,89.771l-0,427.154c-0,23.158 12.292,44.271 32.554,55.416c20.171,11.146 44.546,10.85 64.146,-1.162c79.879,-48.246 173.333,-75.658 273.092,-75.658c299.325,-0 542.241,242.916 542.241,542.237c0,299.271 -242.916,542.188 -542.241,542.188c-121.163,-0 -233.005,-40.088 -323.438,-107.292l0.017,0Zm-769.167,-246.529c18.092,-0 35.313,7.537 47.308,20.767c12.084,13.316 17.796,31.387 15.992,48.837c-35.225,313.504 -301.075,557.292 -623.629,557.292c-322.188,-0 -588.317,-243.788 -622.967,-557.292c-1.808,-17.45 3.904,-35.246 16.267,-48.542c11.717,-13.25 28.646,-20.766 46.371,-20.766c217.379,-0.296 903.646,-0.296 1120.66,-0.296Zm1092.6,-558.229c204.063,-0 369.863,165.8 369.863,369.862c-0,203.992 -165.8,369.792 -369.863,369.792c-204.079,-0 -369.791,-165.729 -369.791,-369.792c-0,-204.062 165.712,-369.862 369.791,-369.862Zm-728.816,-137.446c0.954,-14.463 12.67,-25.313 26.837,-25.313c6.946,-0.295 14.479,-0.295 21.704,-0.295c7.534,-0 14.754,2.762 19.896,8.179c5.138,5.708 7.813,12.95 7.517,20.466c-15.038,194.375 -177.796,348.092 -376.146,348.092c-198.283,0 -361.042,-153.717 -375.871,-348.371c-0.292,-7.237 2.45,-14.479 7.588,-19.6c5.07,-5.433 12.016,-8.471 19.254,-8.471c7.221,-0.295 14.758,-0.295 21.979,-0.295c14.479,-0 26.267,11.145 27.137,25.608c12.655,155.817 141.996,278.508 299.913,278.508c157.621,0 287.254,-122.691 300.192,-278.508Zm-1247.17,-0c0.866,-14.463 12.654,-25.313 26.771,-25.313c6.941,-0.295 14.462,-0.295 21.7,-0.295c7.587,-0 14.825,2.762 19.879,8.179c5.137,5.708 7.9,12.95 7.237,20.466c-15.05,194.375 -177.516,348.092 -376.162,348.092c-197.984,0 -360.746,-153.717 -375.504,-348.371c-0.275,-7.237 2.395,-14.479 7.537,-19.6c5.121,-5.433 12.067,-8.471 19.304,-8.471c7.242,-0.295 14.759,-0.295 21.7,-0.295c14.463,-0 26.479,11.145 27.417,25.608c12.375,155.817 141.925,278.508 299.546,278.508c157.987,0 287.554,-122.691 300.575,-278.508Z" style="fill:#3dcb8c;"/></g><g><g><g><path d="M6688.25,5673.79c-30.137,-0 -57.204,-4.517 -81.162,-13.563c-23.959,-9.042 -44.825,-20.571 -62.621,-34.583c-17.779,-14.009 -32.329,-28.854 -43.629,-44.529c-11.305,-15.679 -19.2,-30 -23.734,-42.954c2.413,-2.117 6.113,-5.434 11.075,-9.946c4.984,-4.513 10.625,-9.409 16.963,-14.688c6.321,-5.279 12.433,-10.104 18.316,-14.479c5.871,-4.358 10.921,-7.604 15.138,-9.721c3.317,7.846 8.733,18.471 16.271,31.875c7.533,13.421 17.708,27.133 30.521,41.146c12.812,14.008 28.487,25.779 47.029,35.258c18.525,9.496 40.158,14.255 64.879,14.255c28.925,-0 56.354,-5.05 82.275,-15.155c25.921,-10.087 47.012,-25.245 63.296,-45.437c16.271,-20.192 24.412,-45.208 24.412,-75.05c0,-20.8 -5.641,-37.971 -16.946,-51.546c-11.3,-13.558 -26.754,-24.929 -46.354,-34.133c-19.583,-9.184 -42.029,-17.396 -67.362,-24.634c-27.429,-8.437 -51.684,-18.454 -72.792,-30.07c-21.096,-11.596 -37.746,-25.988 -49.95,-43.176c-12.204,-17.17 -18.317,-38.283 -18.317,-63.283c0,-38.279 9.88,-70.017 29.621,-95.171c19.738,-25.175 45.884,-44.012 78.438,-56.512c32.55,-12.517 68.125,-18.767 106.7,-18.767c32.554,0 62.396,4.375 89.512,13.109c27.138,8.733 49.742,19.287 67.813,31.645c18.091,12.363 30,23.804 35.729,34.359c-6.025,8.437 -14.096,18.091 -24.183,28.941c-10.105,10.85 -18.767,18.525 -26.005,23.054c-4.829,-8.141 -13.266,-18 -25.312,-29.616c-12.067,-11.596 -28.404,-21.7 -49.063,-30.296c-20.645,-8.575 -46.495,-12.879 -77.537,-12.879c-23.504,-0 -45.279,3.696 -65.329,11.075c-20.034,7.396 -36.25,18.542 -48.592,33.454c-12.362,14.929 -18.542,33.542 -18.542,55.833c0,17.188 4.442,31.13 13.334,41.825c8.887,10.709 20.187,19.217 33.904,25.555c13.717,6.32 27.971,11.595 42.725,15.816c23.821,7.534 46.721,15.521 68.733,23.959c21.996,8.437 41.513,18.608 58.542,30.52c17.033,11.909 30.521,26.525 40.471,43.855c9.945,17.325 14.912,38.504 14.912,63.525c0,34.354 -7.017,64.72 -21.025,91.091c-14.012,26.371 -33.004,48.454 -56.962,66.25c-23.959,17.779 -51.092,31.179 -81.388,40.225c-30.279,9.046 -61.562,13.559 -93.804,13.559l0,0.004Z" style="fill:#3dcb8c;fill-rule:nonzero;"/><path d="M7208.63,5683.75c-61.492,0 -107.242,-15.888 -137.225,-47.692c-29.979,-31.804 -44.979,-73.47 -44.979,-125.016c-0,-44.896 6.787,-87.1 20.346,-126.579c13.558,-39.496 33.229,-74.221 58.991,-104.221c25.784,-29.984 56.738,-53.488 92.917,-70.521c36.167,-17.029 76.704,-25.554 121.617,-25.554c57.566,-0 99.754,15.675 126.596,47.029c26.825,31.337 40.225,74.742 40.225,130.208c-0,43.996 -6.25,85.454 -18.75,124.325c-12.517,38.888 -30.746,73.246 -54.705,103.092c-23.975,29.825 -53.125,53.125 -87.483,69.842c-34.375,16.737 -73.558,25.087 -117.55,25.087Zm7.671,-64.654c31.65,-0 59.983,-6.996 85.004,-21.025c25.017,-14.009 46.333,-32.917 63.975,-56.734c17.638,-23.804 31.042,-50.712 40.242,-80.695c9.183,-30 13.783,-60.817 13.783,-92.467c0,-37.967 -8.888,-68.558 -26.667,-91.771c-17.791,-23.208 -46.125,-34.808 -85,-34.808c-31.941,-0 -60.729,7.225 -86.354,21.704c-25.625,14.458 -47.483,33.904 -65.554,58.312c-18.092,24.413 -31.875,51.775 -41.371,82.067c-9.496,30.279 -14.237,61.113 -14.237,92.45c-0,35.867 9.721,65.329 29.15,88.383c19.446,23.059 48.454,34.584 87.029,34.584Z" style="fill:#3dcb8c;fill-rule:nonzero;"/><path d="M7915.75,5575.71c-9.946,14.167 -24.792,28.646 -44.529,43.4c-19.742,14.775 -43.108,27.209 -70.088,37.313c-26.979,10.083 -56.441,15.137 -88.387,15.137c-36.163,0 -65.85,-7.604 -89.063,-22.829c-23.212,-15.225 -40.383,-36.162 -51.545,-62.85c-11.146,-26.667 -16.717,-57.029 -16.717,-91.092c-0,-43.7 6.771,-84.845 20.346,-123.42c13.558,-38.592 32.779,-72.725 57.637,-102.413c24.863,-29.687 54.479,-52.971 88.838,-69.846c34.358,-16.891 72.641,-25.329 114.846,-25.329c27.725,0 52.204,4.758 73.454,14.254c21.25,9.496 38.437,21.842 51.546,37.067c13.108,15.225 21.475,31.425 25.087,48.612l-59.221,36.163c-0.296,-3.613 -1.737,-9.567 -4.287,-17.867c-2.571,-8.279 -7.171,-17.029 -13.804,-26.212c-6.63,-9.204 -16.492,-16.963 -29.6,-23.283c-13.125,-6.338 -30.834,-9.496 -53.125,-9.496c-30.45,-0 -57.95,7.083 -82.517,21.25c-24.567,14.166 -45.433,33.229 -62.621,57.187c-17.171,23.959 -30.279,51.009 -39.321,81.163c-9.046,30.137 -13.579,61.337 -13.579,93.575c0,33.162 7.692,60.366 23.075,81.616c15.363,21.25 41.283,31.875 77.758,31.875c20.488,0 39.1,-3.02 55.834,-9.045c16.721,-6.025 31.2,-13.263 43.404,-21.7c12.204,-8.438 22.083,-16.513 29.617,-24.184c7.537,-7.691 12.204,-13.041 14.012,-16.062l42.95,47.016Z" style="fill:#3dcb8c;fill-rule:nonzero;"/><path d="M8086.63,5669.29c-4.533,0.296 -10.4,0.746 -17.642,1.354c-7.237,0.608 -14.462,0.904 -21.7,0.904c-7.533,0 -14.391,-0.296 -20.575,-0.904c-6.179,-0.608 -11.975,-1.196 -17.412,-1.804c3.021,-6.634 7.537,-19.221 13.579,-37.746c6.025,-18.538 13.262,-41.004 21.7,-67.375c8.438,-26.375 17.258,-54.479 26.442,-84.308c9.2,-29.842 18.158,-59.392 26.908,-88.63c8.733,-29.233 16.721,-56.125 23.958,-80.691c7.242,-24.567 13.109,-44.534 17.621,-59.913c5.142,-0.591 12.067,-1.129 20.8,-1.583c8.75,-0.45 17.571,-0.9 26.458,-1.354c8.888,-0.45 15.746,-0.675 20.575,-0.675c-1.216,7.533 -3.699,19.287 -7.466,35.258c-3.767,15.975 -8.213,33.613 -13.333,52.9c-7.538,28.333 -16.13,59.533 -25.784,93.596c-9.633,34.062 -19.358,67.517 -29.146,100.362c-9.812,32.85 -18.7,61.946 -26.687,87.259c-7.983,25.312 -14.079,43.108 -18.296,53.35Zm114.825,-495.971c-14.463,-0 -25.763,-3.908 -33.904,-11.754c-8.146,-7.829 -12.208,-17.484 -12.208,-28.925c-0.001,-13.871 3.162,-26.459 9.499,-37.759c6.317,-11.304 14.913,-20.416 25.763,-27.345c10.85,-6.942 23.054,-10.4 36.633,-10.4c12.655,-0 22.671,4.062 30.05,12.208c7.396,8.142 11.075,18.071 11.075,29.842c0,12.95 -2.933,25.087 -8.8,36.387c-5.887,11.304 -13.804,20.417 -23.75,27.346c-9.95,6.946 -21.387,10.4 -34.358,10.4Z" style="fill:#3dcb8c;fill-rule:nonzero;"/></g><g><path d="M8709.17,5561.25c-7.534,7.829 -18.004,17.413 -31.421,28.713c-13.421,11.304 -29.621,22.379 -48.596,33.229c-18.992,10.854 -40.921,19.966 -65.779,27.346c-24.879,7.395 -52.379,11.075 -82.521,11.075c-53.958,-0 -96.525,-15.067 -127.725,-45.209c-31.196,-30.137 -46.787,-73.696 -46.787,-130.658c-0,-44.6 7.533,-85.225 22.604,-121.842c15.071,-36.612 35.866,-68.191 62.396,-94.721c26.512,-26.529 57.483,-47.012 92.9,-61.475c35.416,-14.479 73.47,-21.704 114.166,-21.704c48.525,0 85.138,13.179 109.863,39.55c24.704,26.371 37.062,62.013 37.062,106.929c0,15.971 -1.508,32.1 -4.512,48.367c-3.021,16.283 -7.379,33.158 -13.109,50.642l-64.879,-0c-16.733,-0 -33.904,0.158 -51.541,0.45c-17.642,0.312 -33.525,0.608 -47.692,0.904c-20.208,0.608 -42.208,1.579 -66.025,2.95c-23.804,1.354 -46.183,2.85 -67.138,4.517c-20.937,1.65 -37.133,3.383 -48.591,5.191c-3.021,11.771 -4.534,26.525 -4.534,44.321c0,19.583 4.83,37.363 14.48,53.333c9.637,15.992 23.125,28.646 40.454,37.988c17.341,9.337 37.604,14.008 60.812,14.008c25.021,0 47.692,-3.904 68.042,-11.754c20.346,-7.829 38.208,-17.167 53.575,-28.021c15.383,-10.85 27.883,-21.021 37.533,-30.521c9.638,-9.495 16.267,-15.745 19.896,-18.766c1.496,1.512 4.063,4.375 7.675,8.596c3.629,4.216 7.467,9.112 11.529,14.687c4.079,5.571 7.759,11.233 11.075,16.963c3.317,5.729 5.592,10.691 6.788,14.912Zm-314.671,-168.179c9.046,-1.508 22.675,-3.021 40.921,-4.529c18.229,-1.513 39.408,-3.004 63.525,-4.517c24.096,-1.508 49.271,-2.412 75.504,-2.708c15.658,-0.604 30.817,-0.988 45.433,-1.146l54.929,-0.675c2.105,-6.633 3.613,-14.392 4.517,-23.283c0.9,-8.888 1.354,-17.55 1.354,-25.988c0,-15.383 -2.933,-29.846 -8.804,-43.404c-5.883,-13.558 -15.45,-24.567 -28.712,-33.004c-13.267,-8.438 -31.2,-12.654 -53.805,-12.654c-28.333,-0 -56.37,5.937 -84.095,17.845c-27.725,11.913 -51.546,29.167 -71.425,51.771c-19.896,22.604 -33.005,50.038 -39.342,82.292Z" style="fill:#3dcb8c;fill-rule:nonzero;"/><path d="M9111.58,5579.79c-7.241,15.675 -16.804,31.65 -28.716,47.916c-11.892,16.284 -26.892,30.071 -44.984,41.371c-18.07,11.3 -40.083,16.963 -66.004,16.963c-31.337,-0 -53.579,-9.429 -66.683,-28.267c-13.108,-18.833 -19.671,-43.017 -19.671,-72.567c0,-15.07 2.117,-34.654 6.338,-58.766c4.216,-24.117 9.562,-49.967 16.041,-77.538c6.492,-27.587 13.35,-54.633 20.571,-81.162c7.242,-26.53 13.871,-50.034 19.896,-70.521c6.025,-20.504 10.696,-35.259 14.012,-44.304c-32.554,3.004 -60.279,6.316 -83.179,9.945c-22.916,3.613 -37.379,6.321 -43.404,8.125c0.296,-7.22 1.2,-15.066 2.708,-23.504c1.513,-8.437 3.092,-16.271 4.742,-23.508c1.667,-7.238 2.796,-12.363 3.404,-15.367c17.479,-2.412 38.192,-5.204 62.15,-8.366c23.975,-3.159 46.946,-5.346 68.959,-6.563c5.12,-15.362 10.175,-31.562 15.141,-48.592c4.979,-17.033 9.563,-33.683 13.784,-49.966c3.629,-13.559 6.787,-26.596 9.495,-39.096c2.725,-12.517 4.984,-23.142 6.788,-31.875l67.812,-2.725c0,2.412 -1.195,9.271 -3.608,20.571c-2.417,11.304 -5.504,25.016 -9.271,41.146c-3.771,16.129 -8.058,32.779 -12.883,49.966c-2.413,9.025 -4.896,18.296 -7.467,27.796c-2.566,9.496 -5.191,18.921 -7.916,28.263c9.045,-0.609 20.208,-1.217 33.454,-1.805c13.266,-0.608 24.116,-0.904 32.554,-0.904c14.775,-0.312 29.096,-0.312 42.95,0c13.871,0.296 25.783,0.521 35.729,0.675c9.95,0.142 15.975,0.367 18.075,0.679c-0.592,6.321 -2.258,15.434 -4.967,27.342c-2.708,11.913 -4.983,21.321 -6.787,28.267c-3.004,-0 -13.404,-0.225 -31.2,-0.679c-17.775,-0.45 -35.554,-0.538 -53.35,-0.225c-12.654,0.295 -26.508,0.745 -41.579,1.354c-15.071,0.608 -28.784,1.354 -41.146,2.258c-3.629,11.146 -8.592,27.275 -14.929,48.383c-6.321,21.096 -13.179,44.759 -20.559,70.975c-7.395,26.213 -14.391,52.517 -21.02,78.888c-6.634,26.371 -12.067,50.642 -16.288,72.796c-4.217,22.15 -6.317,39.408 -6.317,51.771c0,16.266 2.55,29.233 7.671,38.87c5.121,9.655 14.621,14.48 28.492,14.48c14.167,-0 26.754,-4.984 37.742,-14.93c11.008,-9.95 20.279,-21.479 27.812,-34.583c7.533,-13.108 13.263,-24.342 17.171,-33.683c1.508,0.904 4.079,3.316 7.692,7.241c3.629,3.905 7.62,8.28 11.979,13.109c4.375,4.825 8.296,9.183 11.754,13.104c3.471,3.925 5.817,6.337 7.012,7.242Z" style="fill:#3dcb8c;fill-rule:nonzero;"/><path d="M9274.79,5907.54c-27.117,-0.005 -52.292,-3.092 -75.504,-9.275c-23.213,-6.18 -43.334,-13.713 -60.346,-22.605c-17.034,-8.887 -30.225,-17.254 -39.567,-25.083c2.1,-3.317 5.346,-7.692 9.721,-13.108c4.375,-5.434 9.117,-11.163 14.237,-17.188c5.121,-6.025 10.175,-11.825 15.155,-17.412c4.966,-5.575 9.116,-10.017 12.433,-13.334c6.025,5.73 15.746,12.655 29.15,20.796c13.416,8.146 29.321,15.454 47.708,21.929c18.383,6.475 37.967,9.721 58.767,9.721c28.629,0 54.858,-7.466 78.662,-22.379c23.821,-14.912 45.138,-35.187 63.975,-60.812c18.838,-25.609 35.417,-54.621 49.742,-87.034c14.321,-32.396 26.146,-66.075 35.483,-101.041c-6.629,11.458 -16.65,23.35 -30.066,35.712c-13.405,12.363 -30.505,22.758 -51.305,31.196c-20.8,8.437 -45.675,12.658 -74.6,12.658c-39.791,0 -67.97,-11.441 -84.55,-34.358c-16.579,-22.9 -24.858,-53.8 -24.858,-92.675c-0.004,-41.004 6.854,-87.567 20.571,-139.704c13.717,-52.15 29.15,-105.192 46.337,-159.15c3.609,-0.9 8.734,-1.421 15.363,-1.579c6.633,-0.155 13.579,-0.225 20.8,-0.225c7.533,-0 14.775,0.158 21.7,0.45c6.946,0.295 11.617,0.75 14.029,1.354c-6.946,18.996 -14.325,40.608 -22.171,64.879c-7.829,24.271 -15.137,49.133 -21.925,74.6c-6.771,25.471 -12.346,49.95 -16.721,73.475c-4.375,23.504 -6.562,44.15 -6.562,61.925c0,24.117 4.671,44.079 14.029,59.912c9.338,15.817 25.921,23.734 49.721,23.734c23.212,-0 45.208,-6.179 66.008,-18.542c20.796,-12.342 40.017,-30.817 57.655,-55.379c17.62,-24.567 32.779,-55.229 45.433,-92c5.416,-15.379 11.304,-32.863 17.625,-52.446c6.333,-19.6 12.358,-38.733 18.087,-57.412c5.729,-18.7 10.471,-34.671 14.238,-47.934c3.766,-13.266 5.954,-20.937 6.562,-23.058c3.925,-0.608 8.142,-1.058 12.654,-1.354c4.534,-0.296 9.046,-0.45 13.563,-0.45c15.379,-0 28.192,1.508 38.437,4.512c-4.829,21.704 -11.458,48.838 -19.895,81.392c-8.146,29.233 -17.555,61.854 -28.267,97.879c-10.692,36.025 -22.067,73.388 -34.129,112.121c-12.05,38.729 -23.959,76.492 -35.713,113.262c-15.975,50.938 -36.929,96.3 -62.85,136.075c-25.916,39.792 -56.958,71.059 -93.125,93.821c-36.179,22.759 -78.07,34.134 -125.691,34.134Z" style="fill:#3dcb8c;fill-rule:nonzero;"/></g></g><g><g><path d="M6714,1881.68c0.292,-4.216 0.988,-9.408 2.029,-15.587c1.058,-6.183 2.258,-12.521 3.629,-18.996c1.355,-6.475 2.638,-12.654 3.838,-18.525c1.196,-5.883 2.254,-10.483 3.158,-13.8c34.967,-1.804 75.138,-3.542 120.488,-5.192c45.362,-1.666 90.796,-2.483 136.316,-2.483c32.555,0 64.117,0.521 94.725,1.579c30.588,1.042 58.246,3.229 82.95,6.546c-2.412,11.163 -5.346,22.538 -8.821,34.133c-3.454,11.613 -6.7,21.025 -9.704,28.263c-6.337,-0 -16.354,-0.225 -30.066,-0.675c-13.717,-0.454 -29.238,-0.75 -46.567,-0.904c-17.342,-0.159 -34.6,-0.296 -51.771,-0.45c-17.187,-0.159 -32.412,-0.384 -45.658,-0.679c-2.725,11.145 -6.946,28.558 -12.675,52.22c-5.708,23.646 -12.342,51.167 -19.875,82.5c-7.538,31.355 -15.542,64.359 -23.979,99.013c-8.434,34.671 -16.717,68.958 -24.859,102.862c-8.141,33.909 -15.591,65.246 -22.379,94.03l-25.537,108.283c-6.042,0.917 -14.254,1.733 -24.654,2.5c-10.4,0.746 -20.642,1.354 -30.73,1.804c-10.104,0.45 -18.158,0.675 -24.2,0.675c4.217,-18.087 9.809,-41.667 16.734,-70.762c6.929,-29.08 14.775,-61.25 23.508,-96.509c8.733,-35.279 17.779,-71.512 27.138,-108.75c9.337,-37.225 18.454,-73.229 27.341,-108.041c8.888,-34.825 17.1,-65.938 24.638,-93.367c3.625,-13.263 6.941,-25.467 9.945,-36.613c3.021,-11.166 5.575,-20.954 7.692,-29.395c-12.362,0.295 -26.754,0.679 -43.179,1.129c-16.421,0.454 -33.296,1.062 -50.642,1.808c-17.325,0.763 -33.837,1.354 -49.495,1.804c-15.675,0.45 -28.784,0.988 -39.342,1.579l0.004,0Z" style="fill:#3dcb8c;fill-rule:nonzero;"/><path d="M7156.63,2422.87c-4.533,0.308 -10.175,0.604 -16.962,0.9c-6.771,0.312 -13.942,0.45 -21.475,0.45c-7.834,-0 -15.209,-0.292 -22.155,-0.9c-6.929,-0.592 -11.891,-1.354 -14.912,-2.259c8.437,-22.308 18.229,-50.258 29.392,-83.87c11.145,-33.592 22.829,-70.905 35.033,-111.892c12.204,-40.992 24.029,-83.492 35.487,-127.5c10.242,-38.284 20.05,-76.859 29.392,-115.729c9.342,-38.888 18.092,-76.18 26.217,-111.909c8.141,-35.712 15.225,-68.646 21.25,-98.787c2.412,-0.9 6.629,-1.963 12.654,-3.159c6.042,-1.2 12.746,-2.345 20.121,-3.387c7.396,-1.058 14.325,-2.046 20.8,-2.95c6.475,-0.904 11.387,-1.492 14.704,-1.804c-1.508,22.604 -5.363,51.025 -11.546,85.225c-6.162,34.216 -13.854,71.508 -23.054,111.891c-9.183,40.4 -19.2,80.938 -30.05,121.634c12.046,-13.267 27.637,-25.85 46.787,-37.763c19.13,-11.908 40.088,-21.546 62.846,-28.941c22.742,-7.375 45.434,-11.075 68.038,-11.075c35.871,-0 61.946,8.975 78.212,26.908c16.284,17.938 24.409,43.787 24.409,77.537c-0,18.088 -2.775,39.792 -8.35,65.105c-5.588,25.312 -12.967,52.221 -22.15,80.691c-9.205,28.492 -19.15,56.979 -29.846,85.455c-10.713,28.487 -21.179,55.087 -31.425,79.808c-5.434,0.592 -11.459,1.042 -18.088,1.354c-6.633,0.296 -13.266,0.45 -19.896,0.45c-14.166,0 -26.512,-1.058 -37.066,-3.158c9.046,-20.209 18.766,-43.404 29.166,-69.638c10.4,-26.212 20.346,-53.037 29.825,-80.466c9.496,-27.43 17.259,-53.196 23.3,-77.309c6.025,-24.116 9.03,-44.166 9.03,-60.141c-0,-19.288 -5.038,-34.288 -15.142,-44.98c-10.104,-10.695 -25.692,-16.062 -46.788,-16.062c-18.695,-0 -36.7,3.317 -54.029,9.95c-17.341,6.633 -33.383,14.929 -48.158,24.879c-14.758,9.946 -27.5,20.033 -38.196,30.275c-10.708,10.263 -18.608,19.15 -23.729,26.688c-6.946,25.625 -14.254,51.77 -21.929,78.437c-7.692,26.683 -15.45,52.221 -23.3,76.629c-7.829,24.413 -15.067,46.2 -21.7,65.329c-6.634,19.15 -12.204,33.838 -16.717,44.084Z" style="fill:#3dcb8c;fill-rule:nonzero;"/></g><path d="M8039.58,2304.86c-7.533,7.845 -18.004,17.412 -31.425,28.712c-13.4,11.304 -29.6,22.379 -48.591,33.229c-18.992,10.85 -40.921,19.967 -65.779,27.363c-24.863,7.379 -52.38,11.075 -82.521,11.075c-53.938,-0 -96.525,-15.067 -127.725,-45.209c-31.18,-30.154 -46.788,-73.695 -46.788,-130.675c0,-44.6 7.533,-85.208 22.604,-121.841c15.071,-36.613 35.867,-68.196 62.396,-94.704c26.529,-26.53 57.5,-47.034 92.917,-61.492c35.4,-14.463 73.454,-21.704 114.15,-21.704c48.525,-0 85.154,13.179 109.862,39.55c24.721,26.387 37.084,62.029 37.084,106.925c-0,15.975 -1.513,32.104 -4.534,48.387c-3.004,16.267 -7.379,33.159 -13.108,50.625l-64.879,0c-16.734,0 -33.904,0.154 -51.542,0.467c-17.625,0.296 -33.525,0.592 -47.691,0.904c-20.192,0.592 -42.209,1.579 -66.009,2.933c-23.821,1.355 -46.2,2.867 -67.137,4.517c-20.955,1.667 -37.15,3.4 -48.609,5.208c-3.02,11.755 -4.516,26.525 -4.516,44.305c-0,19.583 4.812,37.379 14.462,53.35c9.654,15.97 23.125,28.629 40.471,37.97c17.325,9.338 37.604,14.025 60.796,14.025c25.021,0 47.712,-3.92 68.058,-11.77c20.329,-7.83 38.196,-17.167 53.575,-28.021c15.367,-10.85 27.867,-21.021 37.517,-30.521c9.654,-9.496 16.287,-15.746 19.896,-18.767c1.512,1.513 4.062,4.375 7.691,8.596c3.613,4.217 7.45,9.113 11.529,14.688c4.063,5.587 7.759,11.233 11.075,16.962c3.317,5.729 5.575,10.692 6.771,14.912Zm-314.671,-168.179c9.046,-1.508 22.692,-3.02 40.921,-4.529c18.229,-1.496 39.413,-3.004 63.525,-4.516c24.117,-1.509 49.271,-2.413 75.505,-2.709c15.675,-0.604 30.816,-0.987 45.433,-1.125l54.929,-0.679c2.121,-6.633 3.613,-14.392 4.533,-23.279c0.905,-8.908 1.355,-17.571 1.355,-26.008c-0,-15.367 -2.95,-29.846 -8.821,-43.405c-5.884,-13.558 -15.45,-24.566 -28.713,-33.004c-13.266,-8.437 -31.2,-12.654 -53.804,-12.654c-28.333,0 -56.354,5.954 -84.096,17.863c-27.725,11.895 -51.529,29.15 -71.425,51.754c-19.896,22.604 -33.004,50.037 -39.341,82.291Z" style="fill:#3dcb8c;fill-rule:nonzero;"/></g><g><g><path d="M8043.5,3599.29c48.229,16.874 86.004,43.195 113.333,78.974c27.325,35.767 40.988,78.959 40.988,129.605c-0,73.937 -29.738,131.021 -89.217,171.195c-59.479,40.192 -145.471,60.296 -258.004,60.296l-455.729,0l-0,-843.958l431.612,0c107.709,0 189.688,19.879 245.959,59.671c56.266,39.792 84.391,93.437 84.391,160.954c0,40.192 -9.845,76.163 -29.533,107.917c-19.687,31.737 -47.621,56.858 -83.8,75.345Zm-412.329,-231.491l-0,162.779l163.979,0c80.363,0 120.554,-27.346 120.554,-82c0,-53.854 -40.191,-80.779 -120.554,-80.779l-163.979,-0Zm200.142,499.15c83.591,-0 125.379,-28.542 125.379,-85.608c-0,-57.067 -41.788,-85.592 -125.379,-85.592l-200.142,-0l-0,171.2l200.142,-0Z" style="fill:#3dcb8c;fill-rule:nonzero;"/><rect x="8322" y="3195.4" width="238.717" height="843.958" style="fill:#3dcb8c;"/><path d="M9027.33,4056.23c-68.312,0 -134.633,-8.437 -198.921,-25.312c-64.308,-16.892 -116.545,-39.392 -156.737,-67.517l78.367,-176.042c37.779,24.93 81.583,45.017 131.408,60.296c49.842,15.259 98.871,22.896 147.1,22.896c91.633,0 137.429,-22.896 137.429,-68.712c0,-24.117 -13.054,-42 -39.183,-53.667c-26.109,-11.646 -68.109,-23.904 -125.988,-36.771c-63.491,-13.662 -116.546,-28.329 -159.133,-43.992c-42.604,-15.675 -79.183,-40.795 -109.721,-75.362c-30.537,-34.567 -45.817,-81.183 -45.817,-139.846c0,-51.441 14.063,-97.862 42.205,-139.254c28.125,-41.404 70.12,-74.146 125.991,-98.263c55.85,-24.116 124.375,-36.179 205.554,-36.179c55.467,0 110.121,6.229 163.975,18.696c53.855,12.45 101.267,30.746 142.259,54.863l-73.542,177.221c-80.367,-43.405 -158.333,-65.105 -233.892,-65.105c-47.429,0 -81.995,7.034 -103.695,21.096c-21.7,14.079 -32.555,32.358 -32.555,54.859c0,22.5 12.867,39.391 38.596,50.641c25.713,11.25 67.1,22.9 124.184,34.967c64.287,13.662 117.554,28.333 159.741,44.012c42.204,15.659 78.767,40.588 109.721,74.738c30.938,34.167 46.404,80.575 46.404,139.254c0,50.642 -14.062,96.458 -42.187,137.446c-28.142,40.992 -70.329,73.75 -126.596,98.267c-56.267,24.512 -124.583,36.77 -204.967,36.77Z" style="fill:#3dcb8c;fill-rule:nonzero;"/><path d="M9931.58,4056.23c-88.421,0 -167.796,-18.7 -238.125,-56.058c-70.329,-37.379 -125.591,-89.429 -165.779,-156.146c-40.192,-66.704 -60.279,-142.258 -60.279,-226.65c0,-84.412 20.087,-159.966 60.279,-226.666c40.192,-66.721 95.45,-118.767 165.779,-156.13c70.329,-37.379 149.704,-56.075 238.125,-56.075c77.154,0 146.684,13.663 208.579,41.005c61.892,27.329 113.33,66.704 154.321,118.141l-151.908,137.45c-54.671,-65.904 -120.975,-98.871 -198.942,-98.871c-45.816,0 -86.6,10.05 -122.379,30.155c-35.762,20.087 -63.487,48.42 -83.175,85c-19.708,36.562 -29.55,78.562 -29.55,125.991c0,47.413 9.842,89.409 29.55,125.988c19.688,36.562 47.413,64.896 83.175,85c35.783,20.087 76.563,30.141 122.379,30.141c77.967,0 144.271,-32.954 198.942,-98.875l151.908,137.45c-40.991,51.442 -92.429,90.834 -154.32,118.159c-61.896,27.329 -131.425,40.991 -208.58,40.991Z" style="fill:#3dcb8c;fill-rule:nonzero;"/></g><g><path d="M10780.3,4056.23c-125.383,0 -222.845,-34.166 -292.362,-102.483c-69.529,-68.317 -104.288,-165.175 -104.288,-290.554l0,-467.796l238.717,0l0,460.554c0,135.038 53.454,202.554 160.346,202.554c106.112,0 159.15,-67.516 159.15,-202.554l-0,-460.554l235.104,-0l0,467.796c0,125.379 -34.758,222.237 -104.287,290.554c-69.534,68.317 -166.98,102.483 -292.38,102.483Z" style="fill:#3dcb8c;fill-rule:nonzero;"/><rect x="11338.5" y="3195.4" width="238.717" height="843.958" style="fill:#3dcb8c;"/><path d="M11926.9,3384.69l-259.2,-0l0,-189.288l755.938,0l-0,189.288l-258.005,-0l0,654.67l-238.733,0l0,-654.67Z" style="fill:#3dcb8c;fill-rule:nonzero;"/></g></g></g><path d="M9853.58,0c1799.68,1047.17 3912.03,2276.35 5150.07,2996.89c177.855,103.364 299.948,277.266 339.427,474.702c7.848,45.659 11.894,92.342 11.894,139.598c-0,46.904 -3.986,93.245 -11.717,138.57c-19.889,100.085 -61.019,194.188 -119.891,276.151c-57.433,79.962 -131.754,148.366 -219.717,199.487c-1245.72,725.062 -3376.63,1964.93 -5183.49,3016.27l-1386,-0c1806.86,-1051.34 3937.77,-2291.2 5183.49,-3016.27c87.962,-51.121 162.283,-119.525 219.717,-199.487c85.445,-118.959 133.516,-263.492 133.516,-414.734c0,-253.175 -134.412,-487.116 -353.229,-614.287c-1238.05,-720.538 -3350.39,-1949.73 -5150.07,-2996.89l1386,0Zm50479.8,6117.48l0,113.342l-276.439,155.566c-264.624,148.92 -529.247,297.839 -793.871,446.759l-725.893,408.517l-135.817,-0c641.986,-373.553 1298,-755.271 1932.02,-1124.18Zm0,113.354l0,539.01l-810.881,471.82l-985.292,-0c530.297,-298.448 1151.89,-648.26 1796.17,-1010.83Zm0,-1635.58l0,163.547c-1370.55,771.238 -3149.65,1772.41 -4412.03,2482.86l-136.237,-0c1619.99,-942.627 3329.12,-1937.13 4548.27,-2646.41Zm0,163.56l0,488.947c-1076.56,626.453 -2313.17,1345.98 -3426.71,1993.9l-985.296,-0c1262.38,-710.456 3041.47,-1711.63 4412.01,-2482.85Zm-6009.54,-4758.82c1799.68,1047.17 3912.03,2276.35 5150.07,2996.89c177.901,103.39 300.009,277.352 339.456,474.852c7.832,45.625 11.869,92.251 11.869,139.448c-0,46.846 -3.977,93.129 -11.695,138.439c-39.261,197.765 -161.466,372.227 -339.63,475.769c-1245.72,725.062 -3376.63,1964.93 -5183.49,3016.27l-985.296,-0c1660.59,-934.565 4215.3,-2372.18 5557.52,-3127.45c185.334,-104.308 299.325,-296.008 299.325,-503.333c0,-207.38 -113.925,-398.788 -299.325,-503.388c-1332.7,-749.922 -3860.81,-2172.56 -5522.36,-3107.5l-0.042,0c1661.54,934.94 4189.64,2357.58 5522.36,3107.5c185.4,104.6 299.325,296.008 299.325,503.388c0,207.325 -113.996,399.025 -299.325,503.333c-1342.2,755.269 -3896.92,2192.88 -5557.52,3127.45l-135.82,-0c1840.48,-1070.92 3796.01,-2208.81 5017.13,-2919.17c253.47,-147.363 408.991,-418.333 408.991,-711.304c0,-292.967 -155.521,-563.942 -408.991,-711.3c-1213.74,-706.234 -3153.04,-1834.67 -4983.73,-2899.89l1121.17,0Zm-2615.83,0c1799.68,1047.17 3912.03,2276.35 5150.07,2996.89c177.854,103.364 299.947,277.266 339.426,474.703c7.848,45.658 11.894,92.341 11.894,139.597c0,46.904 -3.986,93.245 -11.716,138.567c-39.297,197.723 -161.488,372.124 -339.604,475.641c-1245.72,725.062 -3376.63,1964.93 -5183.49,3016.27l-985.293,-0c1660.58,-934.565 4215.3,-2372.18 5557.52,-3127.45c185.329,-104.308 299.321,-296.008 299.321,-503.333c0,-207.38 -113.921,-398.788 -299.321,-503.388c-1332.7,-749.922 -3860.81,-2172.56 -5522.36,-3107.5l-0.044,0c1661.54,934.94 4189.65,2357.58 5522.36,3107.5c185.4,104.6 299.325,296.008 299.325,503.388c-0,207.325 -113.992,399.025 -299.325,503.333c-1342.2,755.269 -3896.92,2192.88 -5557.52,3127.45l-135.821,-0c1840.48,-1070.92 3796.01,-2208.81 5017.12,-2919.17c253.471,-147.363 408.992,-418.333 408.992,-711.304c-0,-292.967 -155.521,-563.942 -408.992,-711.3c-1213.74,-706.234 -3153.04,-1834.67 -4983.73,-2899.89l1121.17,0Zm-2615.84,0c1799.68,1047.17 3912.03,2276.35 5150.07,2996.89c177.901,103.39 300.009,277.352 339.456,474.853c7.832,45.624 11.869,92.25 11.869,139.447c-0,46.846 -3.977,93.129 -11.695,138.439c-39.261,197.765 -161.466,372.227 -339.63,475.769c-1245.72,725.062 -3376.63,1964.93 -5183.49,3016.27l-985.292,-0c1660.58,-934.565 4215.3,-2372.18 5557.52,-3127.45c185.329,-104.308 299.321,-296.008 299.321,-503.333c-0,-207.38 -113.921,-398.788 -299.321,-503.388c-1332.7,-749.922 -3860.81,-2172.56 -5522.36,-3107.5l-0.044,0c1661.54,934.94 4189.64,2357.58 5522.36,3107.5c185.396,104.6 299.321,296.008 299.321,503.388c0,207.325 -113.992,399.025 -299.321,503.333c-1342.2,755.269 -3896.92,2192.88 -5557.52,3127.45l-135.9,-0c1840.48,-1070.92 3796.01,-2208.81 5017.13,-2919.17c253.47,-147.363 408.991,-418.333 408.991,-711.304c0,-292.967 -155.521,-563.942 -408.991,-711.3c-1213.74,-706.234 -3153.04,-1834.67 -4983.73,-2899.89l1121.25,0Zm-2615.92,0c1799.68,1047.17 3912.03,2276.35 5150.07,2996.89c177.902,103.39 300.009,277.352 339.457,474.853c7.832,45.624 11.868,92.25 11.868,139.447c0,46.846 -3.976,93.129 -11.695,138.439c-39.261,197.765 -161.466,372.227 -339.63,475.769c-1245.72,725.062 -3376.63,1964.93 -5183.49,3016.27l-985.293,-0c1660.58,-934.565 4215.3,-2372.18 5557.52,-3127.45c185.329,-104.308 299.325,-296.008 299.325,-503.333c0,-207.38 -113.925,-398.788 -299.325,-503.388c-1332.7,-749.922 -3860.81,-2172.56 -5522.36,-3107.5l-0.04,0c1661.54,934.94 4189.64,2357.58 5522.36,3107.5c185.4,104.6 299.321,296.008 299.321,503.388c-0,207.325 -113.992,399.025 -299.321,503.333c-1342.2,755.269 -3896.93,2192.88 -5557.52,3127.45l-135.861,-0c1840.48,-1070.92 3796.01,-2208.81 5017.13,-2919.17c253.475,-147.363 408.995,-418.333 408.995,-711.304c0,-292.967 -155.52,-563.942 -408.995,-711.3c-1213.74,-706.234 -3153.04,-1834.67 -4983.73,-2899.89l1121.2,0Zm-2615.87,0c1799.68,1047.17 3912.03,2276.35 5150.07,2996.89c177.901,103.39 300.008,277.352 339.456,474.852c7.832,45.625 11.868,92.251 11.868,139.448c0,46.846 -3.976,93.129 -11.695,138.439c-39.26,197.765 -161.465,372.227 -339.629,475.769c-1245.72,725.062 -3376.63,1964.93 -5183.49,3016.27l-985.296,-0c1660.58,-934.565 4215.3,-2372.18 5557.52,-3127.45c185.333,-104.308 299.325,-296.008 299.325,-503.333c0,-207.38 -113.925,-398.788 -299.325,-503.388c-1332.7,-749.922 -3860.81,-2172.56 -5522.36,-3107.5l-0.042,0c1661.54,934.94 4189.64,2357.58 5522.36,3107.5c185.4,104.6 299.325,296.008 299.325,503.388c-0,207.325 -113.996,399.025 -299.325,503.333c-1342.2,755.269 -3896.93,2192.88 -5557.52,3127.45l-135.903,-0c1840.48,-1070.92 3796.01,-2208.81 5017.13,-2919.17c253.475,-147.363 408.996,-418.333 408.996,-711.304c-0,-292.967 -155.521,-563.942 -408.996,-711.3c-1213.74,-706.234 -3153.04,-1834.67 -4983.73,-2899.89l1121.25,0Zm-2615.92,0c1799.68,1047.17 3912.03,2276.35 5150.07,2996.89c177.898,103.39 300.007,277.352 339.459,474.866c7.829,45.611 11.866,92.237 11.866,139.434c-0,46.846 -3.977,93.129 -11.693,138.428c-39.264,197.776 -161.472,372.238 -339.632,475.78c-1245.72,725.062 -3376.63,1964.93 -5183.49,3016.27l-985.296,-0c1660.58,-934.565 4215.3,-2372.18 5557.52,-3127.45c185.33,-104.308 299.321,-296.008 299.321,-503.333c0,-207.38 -113.925,-398.788 -299.321,-503.388c-1332.7,-749.922 -3860.81,-2172.56 -5522.36,-3107.5l-0.042,0c1661.54,934.94 4189.64,2357.58 5522.36,3107.5c185.4,104.6 299.325,296.008 299.325,503.388c0,207.325 -113.996,399.025 -299.325,503.333c-1342.2,755.269 -3896.92,2192.88 -5557.52,3127.45l-135.899,-0c1840.48,-1070.92 3796.01,-2208.81 5017.12,-2919.17c253.471,-147.363 408.992,-418.333 408.992,-711.304c0,-292.967 -155.521,-563.942 -408.992,-711.3c-1213.74,-706.234 -3153.04,-1834.67 -4983.73,-2899.89l1121.25,0Zm-2615.91,0c1799.68,1047.17 3912.03,2276.35 5150.07,2996.89c177.902,103.39 300.009,277.352 339.457,474.853c7.832,45.624 11.868,92.25 11.868,139.447c-0,46.846 -3.977,93.129 -11.695,138.439c-39.261,197.765 -161.466,372.227 -339.63,475.769c-1245.72,725.062 -3376.63,1964.93 -5183.49,3016.27l-985.292,-0c1660.58,-934.565 4215.3,-2372.18 5557.52,-3127.45c185.329,-104.308 299.321,-296.008 299.321,-503.333c-0,-207.38 -113.921,-398.788 -299.321,-503.388c-1332.7,-749.922 -3860.81,-2172.56 -5522.36,-3107.5l-0.044,0c1661.54,934.94 4189.64,2357.58 5522.36,3107.5c185.396,104.6 299.321,296.008 299.321,503.388c0,207.325 -113.991,399.025 -299.321,503.333c-1342.2,755.269 -3896.92,2192.88 -5557.52,3127.45l-135.863,-0c1840.48,-1070.92 3796.01,-2208.81 5017.12,-2919.17c253.471,-147.363 408.992,-418.333 408.992,-711.304c-0,-292.967 -155.521,-563.942 -408.992,-711.3c-1213.74,-706.234 -3153.04,-1834.67 -4983.73,-2899.89l1121.21,0Zm-2615.88,0c1799.68,1047.17 3912.03,2276.35 5150.07,2996.89c177.901,103.39 300.009,277.352 339.456,474.853c7.832,45.624 11.869,92.25 11.869,139.447c-0,46.846 -3.977,93.129 -11.695,138.439c-39.261,197.765 -161.466,372.227 -339.63,475.769c-1245.72,725.062 -3376.63,1964.93 -5183.49,3016.27l-985.292,-0c1660.58,-934.565 4215.3,-2372.18 5557.52,-3127.45c185.329,-104.308 299.325,-296.008 299.325,-503.333c-0,-207.38 -113.925,-398.788 -299.325,-503.388c-1332.7,-749.922 -3860.81,-2172.56 -5522.36,-3107.5l-0.04,0c1661.54,934.94 4189.64,2357.58 5522.36,3107.5c185.4,104.6 299.321,296.008 299.321,503.388c0,207.325 -113.991,399.025 -299.321,503.333c-1342.2,755.269 -3896.92,2192.88 -5557.52,3127.45l-135.903,-0c1840.48,-1070.92 3796.01,-2208.81 5017.13,-2919.17c253.475,-147.363 408.995,-418.333 408.995,-711.304c0,-292.967 -155.52,-563.942 -408.995,-711.3c-1213.74,-706.234 -3153.04,-1834.67 -4983.73,-2899.89l1121.25,0Zm-2615.91,0c1799.68,1047.17 3912.03,2276.35 5150.07,2996.89c177.901,103.39 300.008,277.352 339.456,474.852c7.832,45.625 11.868,92.251 11.868,139.448c0,46.846 -3.976,93.129 -11.695,138.439c-39.26,197.765 -161.465,372.227 -339.629,475.769c-1245.72,725.062 -3376.63,1964.93 -5183.49,3016.27l-985.296,-0c1660.58,-934.565 4215.3,-2372.18 5557.52,-3127.45c185.333,-104.308 299.325,-296.008 299.325,-503.333c0,-207.38 -113.925,-398.788 -299.325,-503.388c-1332.7,-749.922 -3860.81,-2172.56 -5522.36,-3107.5l-0.042,0c1661.54,934.94 4189.64,2357.58 5522.36,3107.5c185.4,104.6 299.325,296.008 299.325,503.388c-0,207.325 -113.996,399.025 -299.325,503.333c-1342.2,755.269 -3896.93,2192.88 -5557.52,3127.45l-135.903,-0c1840.48,-1070.92 3796.01,-2208.81 5017.13,-2919.17c253.475,-147.363 408.996,-418.333 408.996,-711.304c-0,-292.967 -155.521,-563.942 -408.996,-711.3c-1213.74,-706.234 -3153.04,-1834.67 -4983.73,-2899.89l1121.25,0Zm-2615.92,0c1799.68,1047.17 3912.03,2276.35 5150.07,2996.89c177.898,103.39 300.007,277.352 339.459,474.866c7.829,45.611 11.866,92.237 11.866,139.434c-0,46.846 -3.977,93.129 -11.693,138.428c-39.264,197.776 -161.472,372.238 -339.632,475.78c-1245.72,725.062 -3376.63,1964.93 -5183.49,3016.27l-985.296,-0c1660.58,-934.565 4215.3,-2372.18 5557.52,-3127.45c185.33,-104.308 299.321,-296.008 299.321,-503.333c0,-207.38 -113.925,-398.788 -299.321,-503.388c-1332.7,-749.922 -3860.81,-2172.56 -5522.36,-3107.5l-0.042,0c1661.54,934.94 4189.64,2357.58 5522.36,3107.5c185.4,104.6 299.325,296.008 299.325,503.388c0,207.325 -113.996,399.025 -299.325,503.333c-1342.2,755.269 -3896.92,2192.88 -5557.52,3127.45l-135.862,-0c1840.48,-1070.92 3796.01,-2208.81 5017.13,-2919.17c253.471,-147.363 408.992,-418.333 408.992,-711.304c-0,-292.967 -155.521,-563.942 -408.992,-711.3c-1213.74,-706.234 -3153.04,-1834.67 -4983.73,-2899.89l1121.21,0Zm-2615.88,0c1799.68,1047.17 3912.03,2276.35 5150.07,2996.89c177.854,103.364 299.947,277.266 339.426,474.703c7.848,45.658 11.894,92.341 11.894,139.597c0,46.904 -3.986,93.245 -11.716,138.567c-39.296,197.723 -161.487,372.124 -339.604,475.641c-1245.72,725.062 -3376.63,1964.93 -5183.49,3016.27l-985.292,-0c1660.58,-934.565 4215.3,-2372.18 5557.52,-3127.45c185.329,-104.308 299.32,-296.008 299.32,-503.333c0,-207.38 -113.92,-398.788 -299.32,-503.388c-1332.7,-749.922 -3860.81,-2172.56 -5522.36,-3107.5l-0.044,0c1661.54,934.94 4189.65,2357.58 5522.36,3107.5c185.4,104.6 299.325,296.008 299.325,503.388c0,207.325 -113.992,399.025 -299.325,503.333c-1342.2,755.269 -3896.92,2192.88 -5557.52,3127.45l-135.904,-0c1840.48,-1070.92 3796.01,-2208.81 5017.12,-2919.17c253.471,-147.363 408.992,-418.333 408.992,-711.304c-0,-292.967 -155.521,-563.942 -408.992,-711.3c-1213.74,-706.234 -3153.04,-1834.67 -4983.73,-2899.89l1121.25,0Zm-2615.92,0c1799.68,1047.17 3912.03,2276.35 5150.07,2996.89c177.901,103.39 300.009,277.352 339.456,474.853c7.832,45.624 11.869,92.25 11.869,139.447c-0,46.846 -3.977,93.129 -11.695,138.439c-39.261,197.765 -161.466,372.227 -339.63,475.769c-1245.72,725.062 -3376.63,1964.93 -5183.49,3016.27l-985.292,-0c1660.58,-934.565 4215.3,-2372.18 5557.52,-3127.45c185.329,-104.308 299.325,-296.008 299.325,-503.333c-0,-207.38 -113.925,-398.788 -299.325,-503.388c-1332.7,-749.922 -3860.81,-2172.56 -5522.36,-3107.5l-0.04,0c1661.54,934.94 4189.64,2357.58 5522.36,3107.5c185.4,104.6 299.321,296.008 299.321,503.388c0,207.325 -113.991,399.025 -299.321,503.333c-1342.2,755.269 -3896.92,2192.88 -5557.52,3127.45l-135.903,-0c1840.48,-1070.92 3796.01,-2208.81 5017.13,-2919.17c253.47,-147.363 408.991,-418.333 408.991,-711.304c0,-292.967 -155.521,-563.942 -408.991,-711.3c-1213.74,-706.234 -3153.04,-1834.67 -4983.73,-2899.89l1121.25,0Zm-2615.91,0c1799.68,1047.17 3912.03,2276.35 5150.07,2996.89c177.857,103.364 299.948,277.266 339.423,474.689c7.851,45.672 11.897,92.355 11.897,139.611c0,46.904 -3.986,93.245 -11.718,138.579c-39.293,197.711 -161.482,372.112 -339.602,475.629c-1245.72,725.062 -3376.63,1964.93 -5183.49,3016.27l-985.297,-0c1660.58,-934.565 4215.3,-2372.18 5557.52,-3127.45c185.329,-104.308 299.325,-296.008 299.325,-503.333c0,-207.38 -113.925,-398.788 -299.325,-503.388c-1332.7,-749.922 -3860.81,-2172.56 -5522.36,-3107.5l-0.04,0c1661.54,934.94 4189.64,2357.58 5522.36,3107.5c185.4,104.6 299.321,296.008 299.321,503.388c-0,207.325 -113.992,399.025 -299.321,503.333c-1342.2,755.269 -3896.93,2192.88 -5557.52,3127.45l-135.861,-0c1840.48,-1070.92 3796.01,-2208.81 5017.13,-2919.17c253.475,-147.363 408.995,-418.333 408.995,-711.304c0,-292.967 -155.52,-563.942 -408.995,-711.3c-1213.74,-706.234 -3153.04,-1834.67 -4983.73,-2899.89l1121.21,0Zm-2615.88,0c1799.68,1047.17 3912.03,2276.35 5150.07,2996.89c177.898,103.39 300.007,277.352 339.458,474.866c7.83,45.611 11.866,92.237 11.866,139.434c0,46.846 -3.976,93.129 -11.693,138.428c-39.264,197.776 -161.471,372.238 -339.631,475.78c-1245.72,725.062 -3376.63,1964.93 -5183.49,3016.27l-985.297,-0c1660.58,-934.565 4215.3,-2372.18 5557.52,-3127.45c185.329,-104.308 299.321,-296.008 299.321,-503.333c-0,-207.38 -113.925,-398.788 -299.321,-503.388c-1332.7,-749.922 -3860.81,-2172.56 -5522.36,-3107.5l-0.042,0c1661.54,934.94 4189.64,2357.58 5522.36,3107.5c185.4,104.6 299.325,296.008 299.325,503.388c-0,207.325 -113.996,399.025 -299.325,503.333c-1342.2,755.269 -3896.93,2192.88 -5557.52,3127.45l-135.903,-0c1840.48,-1070.92 3796.01,-2208.81 5017.13,-2919.17c253.471,-147.363 408.992,-418.333 408.992,-711.304c-0,-292.967 -155.521,-563.942 -408.992,-711.3c-1213.74,-706.234 -3153.04,-1834.67 -4983.73,-2899.89l1121.25,0Zm-2615.92,0c1799.68,1047.17 3912.03,2276.35 5150.07,2996.89c177.854,103.364 299.947,277.266 339.426,474.703c7.848,45.658 11.894,92.341 11.894,139.597c0,46.904 -3.986,93.245 -11.716,138.567c-39.296,197.723 -161.487,372.124 -339.604,475.641c-1245.72,725.062 -3376.63,1964.93 -5183.49,3016.27l-1099.7,-0c1840.77,-1071.03 3796.28,-2208.85 5017.34,-2919.17c253.179,-147.363 408.996,-418.333 408.996,-711.304c-0,-292.967 -155.817,-563.942 -408.996,-711.3c-2253.33,-1311.14 -4983.93,-2899.89 -4983.93,-2899.89l1099.71,0Zm-2615.92,0c1799.68,1047.17 3912.03,2276.35 5150.07,2996.89c218.821,127.171 353.229,361.112 353.229,614.287c0,252.9 -134.408,487.05 -353.229,614.221c-1245.72,725.062 -3376.63,1964.93 -5183.49,3016.27l-985.292,-0c1660.58,-934.565 4215.3,-2372.18 5557.52,-3127.45c185.329,-104.308 299.325,-296.008 299.325,-503.333c-0,-207.38 -113.925,-398.788 -299.325,-503.388c-1332.7,-749.922 -3860.81,-2172.56 -5522.36,-3107.5l-0.04,0c1661.54,934.94 4189.64,2357.58 5522.36,3107.5c185.4,104.6 299.321,296.008 299.321,503.388c0,207.325 -113.991,399.025 -299.321,503.333c-1342.2,755.269 -3896.92,2192.88 -5557.52,3127.45l-113.595,-0c1840.66,-1071.03 3796.03,-2208.85 5017.09,-2919.17c253.47,-147.363 409.358,-418.333 409.354,-711.304c-0,-292.967 -155.813,-563.942 -409.354,-711.3c-2253.33,-1311.14 -4983.72,-2899.89 -4983.72,-2899.89l1098.96,0Zm-2615.87,0c1799.68,1047.17 3912.03,2276.35 5150.07,2996.89c218.821,127.171 353.229,361.112 353.229,614.287c0,252.9 -134.408,487.05 -353.229,614.221c-1245.72,725.062 -3376.63,1964.93 -5183.49,3016.27l-1121.23,-0c1840.48,-1070.92 3796.01,-2208.81 5017.12,-2919.17c253.475,-147.363 408.996,-418.333 408.996,-711.304c0,-292.967 -155.521,-563.942 -408.996,-711.3c-1213.74,-706.234 -3153.04,-1834.67 -4983.73,-2899.89l1121.26,0Zm44470.5,0c1047.63,609.588 2095.25,1219.18 3142.86,1828.8l250.427,145.73l0,488.37c-1357.72,-764.013 -3116.56,-1753.75 -4376.84,-2462.9l-0.04,0c1260.28,709.152 3019.11,1698.89 4376.88,2462.93l0,164.152l-4514.88,-2627.08l1121.58,0Zm2615.83,0l540.712,314.623l236.749,137.759l0,538.547c-629.855,-354.429 -1238.31,-696.811 -1761.01,-990.929l-0.044,0c522.569,294.047 1130.97,636.401 1761.05,990.957l0,113.799l-1898.63,-1104.76l1121.16,0Z" style="fill:#3dcb8c;"/></g></svg>